<svg xmlns="http://www.w3.org/2000/svg" viewBox="0 0 729.07 288"><title>dollar</title><path d="M604.53,0h-480a15.8,15.8,0,0,0-16,16V272a15.8,15.8,0,0,0,16,16h480a15.8,15.8,0,0,0,16-16V16A15.8,15.8,0,0,0,604.53,0Z" fill="#74d24f"/><path d="M580.53,80a40.12,40.12,0,0,1-40-40c0-4-4-8-8-8h-336c-4,0-8,4-8,8a40.12,40.12,0,0,1-40,40c-4,0-8,4-8,8V200c0,4,4,8,8,8a40.12,40.12,0,0,1,40,40c0,4,4,8,8,8h336c4,0,8-4,8-8a40.12,40.12,0,0,1,40-40c4,0,8-4,8-8V88C588.53,84,584.53,80,580.53,80Z" fill="#ffefbc"/><path d="M236.53,144c0,48,27,90,66,112h124a128,128,0,0,0,0-224h-124C263.53,54,236.53,96,236.53,144Z" fill="#869b55"/><path d="M364.53,132c-16,0-28-8-28-16s12-16,28-16,28,8,28,16a12,12,0,0,0,24,0c0-19-17-35-40-39V72a12,12,0,0,0-24,0v5c-23,4-40,20-40,39,0,22,23,40,52,40,16,0,28,8,28,16s-12,16-28,16-28-8-28-16a12,12,0,0,0-24,0c0,19,17,35,40,39v5a12,12,0,0,0,24,0v-5c23-4,40-20,40-39C416.53,150,393.53,132,364.53,132Z" fill="#ffefbc"/><circle cx="188.53" cy="144" r="24" fill="#74d24f"/><circle cx="540.53" cy="144" r="24" fill="#74d24f"/><circle cx="148.53" cy="40" r="16" fill="#869b55"/><circle cx="580.53" cy="40" r="16" fill="#869b55"/><circle cx="148.53" cy="248" r="16" fill="#869b55"/><circle cx="580.53" cy="248" r="16" fill="#869b55"/></svg>