<svg xmlns="http://www.w3.org/2000/svg" viewBox="0 0 1107 1400"><path fill="#d2d7db" d="M0 0h1108v1397H0z"/><path fill="#fff" d="M1108 1032v365c0 3-1 4-5 4H7c-4 0-5-1-5-5v-129l5-5c32-40 67-79 106-113 4-4 5-7 3-12l-16-37c-2-7-1-11 5-14l39-19 5-5c1-7 6-9 11-10 21-5 42-8 61-20 5-3 7-7 6-13-2-9-5-17-6-26-2-18-8-18 13-28l50-22c7-3 7-7 5-13l-7-19c-3-7-1-11 5-15 14-9 25-22 34-36 4-7 4-11-3-15-9-5-13-13-14-24-2-20 2-40 7-59l8-13c1-2 2-6 1-7l-14-29c-1-1-2-4-4-4-15-8-27-19-29-37l-4-14v-8c4-9 8-19 13-27 4-5 4-9 3-15-6-24-7-47 2-70v-10c-4-24-6-49-11-74-5-31-4-61 10-90 3-5 5-7 11-7l38 4c3 0 7 3 8 6 2 7 2 14 2 20 1 5 2 6 7 3l42-23c7-3 10-8 9-16l-6-79c-1-13-1-13 11-17 64-23 131-30 199-25 5 1 7 3 7 8l2 86c0 10 1 11 12 13 30 5 59 11 88 22 4 2 6 0 6-4l1-35c0-6 2-9 7-11 10-3 19-8 29-10 4-1 10 0 13 2a235 235 0 0 1 33 30c21 23 36 50 30 84-4 18-3 37-4 55 0 12 2 24 1 36-1 10-1 20 4 29 4 8 7 17 12 25 6 10 9 21 10 33 0 15-4 27-15 37-6 6-13 12-14 22-2 20-6 39-9 59-1 2 0 4 2 6 22 26 26 55 17 87-4 15-5 15 10 20 13 5 19 14 20 27 1 10 4 17 14 20l32 11c10 3 16 14 15 24-1 8 1 17 3 25l6 6 45 24c11 6 22 15 34 20a513 513 0 0 1 91 51z"/></svg>