<svg xmlns="http://www.w3.org/2000/svg" viewBox="0 0 1024 1024"><defs><linearGradient id="b" x1="629.8" x2="861.3" y1="1216.4" y2="1216.4" gradientTransform="rotate(90 986 821)" gradientUnits="userSpaceOnUse"><stop offset="0" stop-color="#ffffd6"/><stop offset="1" stop-color="#ffffd2"/></linearGradient><linearGradient id="c" x1="501.9" x2="733.3" y1="1485.9" y2="1485.9" gradientTransform="rotate(90 1047 991)" gradientUnits="userSpaceOnUse"><stop offset="0" stop-color="#de7eff"/><stop offset="1" stop-color="#f9f"/></linearGradient><linearGradient id="e" x1="299.1" x2="530.5" y1="1732.6" y2="1732.6" gradientTransform="translate(79 -1170)" gradientUnits="userSpaceOnUse"><stop offset="0" stop-color="#e5a154"/><stop offset="1" stop-color="#ffbd54"/></linearGradient><linearGradient id="g" x1="39.5" x2="271" y1="1931.9" y2="1931.9" gradientTransform="translate(271 -1351)" gradientUnits="userSpaceOnUse"><stop offset="0" stop-color="#c4d2ff"/><stop offset="1" stop-color="#f2faff"/></linearGradient><filter id="a" filterUnits="userSpaceOnUse"><feOffset dy="5"/><feGaussianBlur result="c" stdDeviation="8"/><feFlood flood-color="#000" flood-opacity=".5"/><feComposite in2="c" operator="in"/><feComposite in="SourceGraphic"/></filter></defs><path fill="#ffc30d" d="m513 1002 428-201V144H703L513 22 323 144H83v659z" filter="url(#a)"/><path fill="#1161a1" d="m514 905 343-161V216H665l-151-99-152 99H168v526z"/><path fill="#0e527f" d="m375 749 151 151 330-157 1-156-122-123-187-187-23 27-33-33-81 50-25-25-3 48 11 12 71 190z"/><rect width="328" height="231.4" x="426.7" y="465.2" fill="url(#b)" stroke="#000" stroke-miterlimit="10" stroke-width="5" rx="46.1" ry="46.1" transform="rotate(-70 591 581)"/><rect width="328" height="231.4" x="388" y="446.4" fill="url(#c)" stroke="#000" stroke-miterlimit="10" stroke-width="5" rx="46.1" ry="46.1" transform="rotate(-83 552 562)"/><rect width="231.4" height="328" x="378.5" y="398.3" fill="url(#e)" stroke="#000" stroke-miterlimit="10" stroke-width="5" rx="46.1" ry="46.1" transform="rotate(-6 494 562)"/><rect width="230.5" height="326.6" x="317.9" y="417.8" fill="url(#g)" stroke="#000" stroke-miterlimit="10" stroke-width="5" rx="46.1" ry="46.1" transform="rotate(-19 433 581)"/><path fill="#ea8513" d="m386 345 158-20 1 2-158 20z"/><path fill="#ffc310" d="m374 298 22 23 6-1-17-24zm150 7h6l14-28-10 1z"/><path fill="#ffeb0f" d="m398 408 150-19v-62l-164 20zm-26-110 11 47 165-20v-48h-4l-14 28h-6l-16-1-17-33-65 8-9 36-15 5-6 1-22-23z"/><path fill="#ff940c" d="m450 370 18-20 21 15-17 21z"/></svg>