<svg xmlns="http://www.w3.org/2000/svg" viewBox="0 0 1024 1024"><defs><linearGradient id="a" x1="637.2" x2="777" y1="1201.1" y2="1201.1" gradientTransform="rotate(90 957 803.6)" gradientUnits="userSpaceOnUse"><stop offset="0" stop-color="#ffffd6"/><stop offset="1" stop-color="#ffffd2"/></linearGradient><linearGradient id="b" x1="529.7" x2="669.6" y1="1468" y2="1468" gradientTransform="rotate(90 1030.8 973.4)" gradientUnits="userSpaceOnUse"><stop offset="0" stop-color="#de7eff"/><stop offset="1" stop-color="#f9f"/></linearGradient><linearGradient id="c" x1="354.3" x2="494.2" y1="1713.6" y2="1713.6" gradientTransform="translate(76.7 -1171.3)" gradientUnits="userSpaceOnUse"><stop offset="0" stop-color="#e5a154"/><stop offset="1" stop-color="#ffbd54"/></linearGradient><linearGradient id="e" x1="126.3" x2="266.2" y1="1916.5" y2="1916.5" gradientTransform="translate(264.2 -1362.7)" gradientUnits="userSpaceOnUse"><stop offset="0" stop-color="#c4d2ff"/><stop offset="1" stop-color="#f2faff"/></linearGradient></defs><path fill="#344253" d="M0 0h1024v1024H0z"/><path fill="#ffc30d" d="m512.6 808.3 258.7-121.8V289.8h-144l-114.7-74.1-115 74.1H252.7v397.9z"/><path fill="#1161a1" d="m513.2 749.7 207.4-97.2V333.3H604.8l-91.6-60.1-91.6 60.1H304.3v318z"/><path fill="#0e527f" d="m429 655.1 91.3 91.3L720 651.9l.6-94.9-74.1-74-112.9-113.2-13.9 16.3-19.8-19.9-48.9 30.5-15.2-15.1-2 28.8 6.8 7.1 43 115z"/><rect width="198.3" height="139.9" x="460.5" y="483.7" fill="url(#a)" stroke="#000" stroke-miterlimit="10" stroke-width="3" rx="27.9" ry="27.9" transform="rotate(-70.5 559.6 553.7)"/><rect width="198.3" height="139.9" x="437" y="472.4" fill="url(#b)" stroke="#000" stroke-miterlimit="10" stroke-width="3" rx="27.9" ry="27.9" transform="rotate(-83.5 536.2 542.3)"/><rect width="139.9" height="198.3" x="431.3" y="443.3" fill="url(#c)" stroke="#000" stroke-miterlimit="10" stroke-width="3" rx="27.9" ry="27.9" transform="rotate(-6.5 501.3 542.4)"/><rect width="139.3" height="197.4" x="394.7" y="455.1" fill="url(#e)" stroke="#000" stroke-miterlimit="10" stroke-width="3" rx="27.9" ry="27.9" transform="rotate(-19.3 464.3 553.8)"/><path fill="#ea8513" d="m436 410.6 95.3-11.5.1 1.4-95.3 11.6z"/><path fill="#ffc310" d="m428.7 382.5 13.1 14.2 3.8-.9-10-14.2zm90.7 4.5h3.6l8.6-16.9-6.3.6z"/><path fill="#ffeb0f" d="m443.3 448.9 90.6-11.3-.3-37.3-99.2 12.1zm-16-66.4 6.5 28.5 100.1-12.2-.3-29-2 .3L523 387h-3.6l-10.1-.9-10-19.9-39.4 5-5.4 22-8.9 2.6-3.8.9-13.1-14.2z"/><path fill="#ff940c" d="m474.4 426.4 10.9-12.2 13.1 9.2-10.4 12.7z"/></svg>