<svg xmlns="http://www.w3.org/2000/svg" viewBox="0 0 1024 1024"><path fill="#fff" d="M711.2 128 513 0 314.4 128H64v687.6L513 1024l447-210.4V128zm161.2 626.7-358.3 168-361-170V203.3h202.7L514 99.3l158.3 104h200.2z"/><path fill="#fff" d="m380.7 336.9 164.8-20 .3 2.6-164.7 20z" opacity=".6"/><path fill="#fff" d="m368.1 288.3 22.6 24.5 6.6-1.5-17.4-24.6zm156.7 7.6h6.1l14.9-29.1-10.8 1z" opacity=".4"/><path fill="#fff" d="m365.6 288.3 11.2 49.1 173.1-21-.5-50.2-3.6.6-14.9 29.1h-6.1l-17.4-1.5-17.4-34.3-68.1 8.7-9.2 37.9-15.4 4.6-6.6 1.5-22.6-24.5zM549.4 319l-171.5 21 15.3 63L550 383.5zm-78.9 62L447 364l19-21 22.4 16z"/><path fill="#fff" d="m447 364 18.9-21 22.6 15.9-18 22z" opacity=".6"/><path fill="#fff" d="M516.6 391.1c-15.4 1.8-30.3 3.6-33.1 3.6-4.4.2-3.8 1 5 7 12 8 16 15 27.1 46.4 4.6 13.3 9.3 26 10 28.1 1 2.3 5 13.1 8.7 24.2 13.4 38.5 29.5 84.3 31.3 88.3 7.4 16.9 26.7 76.9 27.1 85 1.2 19.4-13 42.7-30.1 49-3.8 1.3-6.8 3-6.8 3.5 0 2 36.5-4 43.1-7.2 14.7-6.8 27-26 26.1-41-.4-8-3-32.7-4-37.7l-2-17.5a493 493 0 0 0-4-37l-2-18.2c-.6-6-2-17.5-3-25-1-8-2.4-19.6-3-26.2s-1.6-14.9-2-18c-.4-3.5-1.5-11.5-2-18.1l-2-17.1-2-17c-3-31.8-8.5-43.2-24.2-52.3-11.4-6.8-22.9-7.2-58.2-2.8"/><path fill="#fff" d="M442.1 401c-5.4 2-19.3 7-30.9 11s-22.9 8.2-25 9c-2.3 1-11 4-19.2 6.9a1006 1006 0 0 0-64.2 23.5 48 48 0 0 0-25.5 45c.8 5.6 27.3 83.3 34.5 101.3 1.6 3.9 9.3 25.5 17 48.2l17.4 49.2c2 6.4 15.4 43 18.6 50.2 8.3 18.7 31.8 28.5 53.4 22.5 11-3.2 130.4-45.4 142.8-50.6a43.5 43.5 0 0 0 26.5-42.2c0-6.4-.8-13.2-1.8-15-1.6-3-4-9.3-5-13a3231 3231 0 0 0-26-73.4l-21-59.2c-31-87.7-32.6-92.2-37.6-98.8-11.4-15.6-34.1-21.7-54-14.6"/><path fill="#fff" d="M590 398.4c0 .4 1.5 3.4 3.7 6.2 5.2 7.4 7.3 14.2 9.3 32.5l2 16c.6 3.9 1.4 12.5 2 19.1 1.2 12 2.6 23.7 4 33.2l2 17a1284 1284 0 0 0 6 52.3c1.7 17 3.7 34.5 4.3 38.1.4 2.2 1.2 9.8 1.8 17.3.6 7.2 1.6 15.4 2 18a229 229 0 0 1 2.2 22.1c1.2 14.5.8 18.5-2.6 26.1-9 20.1-25.1 30.8-49.8 33.2l-18.7 1.6c-9.8 1-5.4 2.6 15.3 5.2 34.7 4.4 50 3.8 60.6-2 15.9-8.8 22.7-22.7 25.3-51.2.4-5.6 1.4-13.3 2-17s1.4-11.7 2-17.2c.8-9 5.7-51.2 7.9-69.2l2-18.1 2-18 2-18.1c2.4-23.3 5.2-46 6-52.3 4-25.5 2-38.7-7.6-51.6-10.5-13.6-20.7-17-66.3-21.6l-15.6-2c-2-.5-3.8-.3-3.8.3Zm-173 3.4a68 68 0 0 1-11.2 2c-5.6.6-12.9 2.2-15.9 3.2-7 2.8-17.4 10.2-16 11.6 1 .8 42.7-13 45.1-15q.6-.5-.2-1.6c-.4-.6-1.4-.6-1.8-.2"/><path fill="#fff" d="M690.3 444c1 2.5 1.4 5.2 1.2 5.4-.4.4-1.4 6.6-2.2 13.8l-2 18-4 36.2c-2 20.5-3.2 29.7-4 36.2-.6 3.8-1.5 12-2 18l-2 16c-.4 2.8-1.5 10.5-2 17.2s-1.5 14.6-1.9 18l-2.2 20.1-2 17.5c-.4 1.8-1.2 9.6-2 17-2.8 31-6.4 41.8-17.5 53-12 12.1-29.5 17-49.6 13.7-5-.8-15.5-2-22.9-2.8a494 494 0 0 0-37.6-3.8c-20.2-1.4-20.4-1.4 26.2 14.8L605 767a51 51 0 0 0 35.4-1.4c13.2-6.4 18.6-13.5 27.7-36.4 3.2-8 20.3-56.2 21-59.2S726 565.2 741 524.4c9.6-26.3 10.4-39 3.6-52.2s-13.9-18.6-34.2-26.3c-10.2-3.6-19.2-6.8-20.2-6.8s-.8 2.2.2 4.8Z"/></svg>