<svg xmlns="http://www.w3.org/2000/svg" viewBox="0 0 24 24"><defs><style>.cls-1{fill:#ffc30d;}.cls-2{fill:#1161a1;}.cls-3{fill:#0e527f;}.cls-4,.cls-5,.cls-6,.cls-7{stroke:#000;stroke-miterlimit:10;stroke-width:0.1px;}.cls-4{fill:url(#s1);}.cls-5{fill:url(#s2);}.cls-6{fill:url(#s3);}.cls-7{fill:url(#s4);}.cls-8{fill:#ea8513;}.cls-9{fill:#ffc310;}.cls-10{fill:#ffeb0f;}.cls-11{fill:#ff940c;}</style><linearGradient id="s1" x1="35.71" y1="87.5" x2="40.43" y2="87.5" gradientTransform="matrix(0, 1, 1, 0, -73.64, -24.66)" gradientUnits="userSpaceOnUse"><stop offset="0" stop-color="#ffffd6"/><stop offset="1" stop-color="#ffffd2"/></linearGradient><linearGradient id="s2" x1="21.71" y1="38.26" x2="26.43" y2="38.26" gradientTransform="matrix(0, 1, 1, 0, -25.2, -11.05)" gradientUnits="userSpaceOnUse"><stop offset="0" stop-color="#de7eff"/><stop offset="1" stop-color="#f9f"/></linearGradient><linearGradient id="s3" x1="-3.63" y1="-11.69" x2="1.09" y2="-11.69" gradientTransform="matrix(1, 0, 0, -1, 13.15, 1.33)" gradientUnits="userSpaceOnUse"><stop offset="0" stop-color="#e5a154"/><stop offset="1" stop-color="#ffbd54"/></linearGradient><linearGradient id="s4" x1="-36.48" y1="-57.25" x2="-31.76" y2="-57.25" gradientTransform="matrix(1, 0, 0, -1, 44.63, -43.62)" gradientUnits="userSpaceOnUse"><stop offset="0" stop-color="#c4d2ff"/><stop offset="1" stop-color="#f2faff"/></linearGradient></defs><title>create</title><polygon class="cls-1" points="12.27 22 21 17.89 21 4.5 16.14 4.5 12.27 2 8.39 4.5 3.5 4.5 3.5 17.93 12.27 22"/><polygon class="cls-2" points="12.29 20.02 19.29 16.74 19.29 5.97 15.38 5.97 12.29 3.94 9.2 5.97 5.24 5.97 5.24 16.7 12.29 20.02"/><polygon class="cls-3" points="9.45 16.83 12.53 19.91 19.27 16.72 19.29 13.52 16.79 11.02 12.98 7.2 12.51 7.75 11.84 7.08 10.19 8.11 9.68 7.6 9.61 8.57 9.84 8.81 11.29 12.69 9.45 16.83"/><rect class="cls-4" x="10.51" y="11.05" width="6.69" height="4.72" rx="0.94" ry="0.94" transform="translate(-3.41 21.99) rotate(-70.5)"/><rect class="cls-5" x="9.72" y="10.66" width="6.69" height="4.72" rx="0.94" ry="0.94" transform="translate(-1.35 24.53) rotate(-83.5)"/><rect class="cls-6" x="9.53" y="9.68" width="4.72" height="6.69" rx="0.94" ry="0.94" transform="translate(-1.4 1.43) rotate(-6.5)"/><rect class="cls-7" x="8.29" y="10.08" width="4.7" height="6.66" rx="0.94" ry="0.94" transform="translate(-3.84 4.28) rotate(-19.34)"/><rect class="cls-8" x="9.68" y="8.38" width="3.24" height="0.05" transform="translate(-0.93 1.42) rotate(-6.89)"/><polygon class="cls-9" points="9.44 7.63 9.88 8.11 10.01 8.08 9.67 7.6 9.44 7.63"/><polygon class="cls-9" points="12.5 7.78 12.62 7.78 12.91 7.21 12.7 7.23 12.5 7.78"/><polygon class="cls-10" points="9.93 9.87 12.99 9.49 12.98 8.23 9.63 8.64 9.93 9.87"/><polygon class="cls-10" points="9.39 7.63 9.61 8.59 12.99 8.18 12.98 7.2 12.91 7.21 12.62 7.78 12.5 7.78 12.16 7.75 11.82 7.08 10.49 7.25 10.31 7.99 10.01 8.08 9.88 8.11 9.44 7.63 9.39 7.63"/><polygon class="cls-11" points="10.98 9.11 11.35 8.7 11.79 9.01 11.44 9.44 10.98 9.11"/></svg>