<svg version="1" xmlns="http://www.w3.org/2000/svg" width="682.667" height="682.667" viewBox="0 0 512.000000 512.000000"><path d="M250.4 3.5c-5.3 3.5-22 14.3-49.4 32-9.4 6-23.3 15.1-30.9 20l-13.8 9H94.6c-40.3 0-62 .3-62.4 1-.4.5-.7 77.8-.7 171.7v170.6l3.5 1.6c1.9.8 11.2 5.1 20.5 9.4 9.4 4.4 19.5 9.1 22.5 10.4 3 1.4 9.6 4.5 14.5 6.8 5 2.3 14.9 6.9 22 10.2 17.4 8 23.3 10.8 34 15.8 5 2.3 14.2 6.6 20.5 9.5 6.3 2.9 15.6 7.2 20.5 9.5 14.5 6.8 24.9 11.6 47 21.8 4.4 2 10.4 4.9 13.3 6.3l5.2 2.6 9.3-4.2c5-2.3 13-6 17.7-8.3 4.7-2.2 13.5-6.3 19.5-9.2 6.1-2.9 21.4-10.1 34-16 12.7-5.9 27.7-13 33.5-15.8 15.4-7.3 93.3-43.9 101.6-47.8 3.9-1.8 7.3-3.9 7.6-4.6.2-.7.4-77.8.4-171.3l-.1-170h-62l-62-.1L329 47.9c-14-9.1-29.8-19.3-35-22.7-5.2-3.3-9.9-6.5-10.5-6.9-.5-.5-1.7-1.2-2.5-1.6-.8-.4-5.5-3.4-10.5-6.6-4.9-3.3-10.4-6.9-12.1-7.9l-3-1.9-5 3.2zm19.3 55.2c7.3 4.9 25 16.6 39.4 26l26.2 17.3H435v137.7l-.1 137.8-6.7 3c-3.7 1.6-12.5 5.7-19.7 9.1-7.1 3.4-16.1 7.6-20 9.4-3.8 1.8-11.3 5.3-16.5 7.8-19.6 9.2-39.4 18.5-65.5 30.7-3.8 1.8-11.8 5.6-17.7 8.3-5.9 2.8-15.6 7.4-21.7 10.1l-11 5.1-4.3-1.9c-4.3-1.9-13.7-6.3-34.3-16.1-10.5-5-17.7-8.4-34.5-16.3-4.1-1.9-12.4-5.8-18.5-8.7-6-2.9-17.5-8.3-25.5-12-8-3.8-16.7-7.9-19.5-9.3-2.7-1.3-7.1-3.4-9.7-4.6-2.6-1.2-11.3-5.3-19.3-9.1L76 376.1V102h100.6l17-11.1c9.3-6.1 27-17.8 39.4-26 12.4-8.2 22.7-14.9 22.9-14.9.3 0 6.4 3.9 13.8 8.7z"/><path d="M240.8 130.5c-.2.2-3.3.7-6.8 1-3.6.3-10.5 1.2-15.4 1.8l-9 1.2-2 9.4c-2.1 9.3-2.1 9.4-5.8 10.7-4.2 1.4-3.6 1.8-10-7.4-2.4-3.5-3-3.8-6.3-3.4-3.2.4-3.6.7-3.1 2.6.3 1.1 1.6 6.7 2.8 12.4l2.3 10.3 2.8-.5c1.5-.3 2.7-.1 2.7.4 0 .6-1.1 1-2.5 1-2.6 0-2.7.8-.7 7.5.6 2.2.8 2.7 1.6 7 1.6 7.8 4.4 17 5.2 16.9.5-.1 3.8-.5 7.4-.8 3.6-.3 7.9-.8 9.5-1.1 3.5-.5 19.3-2.4 24.5-2.9 1.9-.2 5.5-.7 8-1 2.5-.3 6.3-.8 8.5-1.1 10.5-1.2 15-1.8 16.4-2 .9-.2 1.9-.4 2.4-.4.4-.1.7-7.4.7-16.2v-16.1l-7.2.7c-4 .3-7 .4-6.8.2.6-.6 7.6-1.6 11.3-1.7h2.8l-.3-12.8c-.3-13.7.1-12.8-5.5-12.3-1.2.1-2.6 2.1-4 6-1.3 3.2-2.3 6.4-2.3 7 0 1.4-9.2.8-9.7-.6-.2-.4-2.1-4.1-4.2-8.2-3.3-6.3-5.9-9-7.3-7.6zM259 161c0 .5-1.7 1.1-3.7 1.1-4.8.2-9.2.7-12 1.4-1.3.3-2.3.1-2.3-.5 0-.5 1-1 2.3-1 3.4-.1 13.2-1.2 13.6-1.6.8-.8 2.1-.4 2.1.6zm-19.1 2.4c-.2.3-3.1.7-6.4 1-4.1.3-5 .2-3-.3 3.2-.9 10.1-1.4 9.4-.7zm-13.3 1.3c-.7.8-.5.7-13.6 2.3-13.7 1.6-19.7 2.1-18.4 1.5.8-.5 26.5-4 31.3-4.4.8-.1 1.1.2.7.6zm11.4 10.9c2.7 2 5 3.8 5 4.1 0 .2-2 2.9-4.4 5.8l-4.4 5.4-5.3-4c-3-2.2-5.5-4.3-5.7-4.7-.3-1 7.8-10.2 8.9-10.2.5 0 3.1 1.6 5.9 3.6zM257.5 196.1c-7.7.9-15.1 1.8-16.5 1.8-2.2.1-1.9.5 2.5 3.5 6 4 8 7.4 13.5 23.1 2.3 6.6 4.6 12.9 5 14 .5 1.1 2.5 6.5 4.3 12 6.7 19.2 14.7 42 15.6 44 3.7 8.4 13.3 38.3 13.5 42.3.6 9.7-6.5 21.3-15 24.4-1.9.7-3.4 1.5-3.4 1.8 0 1 18.2-2 21.5-3.6 7.3-3.4 13.4-13 13-20.4-.2-4-1.5-16.3-2-18.8-.1-.9-.6-4.9-1-8.7-1.2-12.8-1.4-14.8-2-18.4-.2-2-.7-6.1-1-9.1-.3-3-1-8.7-1.5-12.5-.5-3.9-1.2-9.7-1.5-13-.3-3.3-.8-7.4-1-9-.2-1.7-.7-5.7-1-9-.3-3.3-.8-7.1-1-8.5-.2-1.4-.6-5.2-1-8.5-1.5-15.8-4.2-21.5-12-26-5.7-3.4-11.4-3.6-29-1.4z"/><path d="M220.4 201c-2.7 1-9.6 3.5-15.4 5.5-5.8 2-11.4 4.1-12.5 4.5-1.1.5-5.4 2-9.5 3.4-15 5.1-27.6 9.7-32 11.7-7.8 3.5-13.8 14.2-12.7 22.4.4 2.8 13.6 41.5 17.2 50.5.8 1.9 4.6 12.7 8.5 24 3.9 11.3 7.4 21.2 7.7 22 .3.8.7 1.9.9 2.5 1 3.2 7.7 21.4 9.3 25 4.1 9.3 15.8 14.2 26.6 11.2 5.5-1.6 64.9-22.6 71.1-25.2 8.3-3.4 13.2-11.3 13.2-21 0-3.2-.4-6.6-.9-7.5-.8-1.5-2-4.6-2.5-6.5-.3-1.3-11.3-32.6-12.1-34.5-.4-.8-.7-1.7-.8-2-.1-.3-.4-1.2-.8-2-.3-.8-4.7-13.2-9.7-27.5-15.4-43.7-16.2-45.9-18.7-49.2-5.7-7.8-17-10.8-26.9-7.3z"/><path d="M294 199.7c0 .2.8 1.7 1.9 3.1 2.6 3.7 3.6 7.1 4.6 16.2.3 2.5.8 6.1 1 8 .3 1.9.7 6.2 1 9.5.6 6 1.3 11.8 2 16.5.2 1.4.6 5.2 1 8.5.8 8.2 1.5 14.3 2.1 19 .3 2.2.7 5.3.9 7 .8 8.5 1.8 17.2 2.1 19 .2 1.1.6 4.9.9 8.6.3 3.6.8 7.7 1 9 .3 1.3.8 6.3 1.1 11 .6 7.2.4 9.2-1.3 13-4.5 10-12.5 15.3-24.8 16.5-3.8.3-8 .7-9.3.8-4.9.5-2.7 1.3 7.6 2.6 17.3 2.2 24.9 1.9 30.2-1 7.9-4.4 11.3-11.3 12.6-25.5.2-2.8.7-6.6 1-8.5.3-1.9.7-5.8 1-8.5.4-4.5 2.8-25.5 3.9-34.5.2-1.9.7-6 1-9 .3-3 .8-7.1 1-9 .2-1.9.7-6 1-9 1.2-11.6 2.6-22.9 3-26 2-12.7 1-19.3-3.8-25.7-5.2-6.8-10.3-8.5-33-10.8-3.2-.4-6.7-.8-7.8-1-1-.2-1.9-.1-1.9.2zM207.9 201.4c-.2.2-2.7.6-5.6 1-2.8.3-6.4 1.1-7.9 1.6-3.5 1.4-8.7 5.1-8 5.8.5.4 21.3-6.5 22.5-7.5.2-.1.2-.5-.1-.8-.2-.3-.7-.3-.9-.1z"/><path d="M344 222.4c.5 1.3.7 2.6.6 2.7-.2.2-.7 3.3-1.1 6.9-.4 3.6-.8 7.6-1 9-.4 3.8-1.6 14-2 18-1 10.2-1.6 14.8-2 18-.3 1.9-.7 6-1 9-.3 3-.8 6.6-1 8-.2 1.4-.7 5.2-1 8.5-.3 3.3-.7 7.3-.9 9-.2 1.6-.7 6.1-1.1 10-.4 3.8-.9 7.8-1 8.7-.2.9-.6 4.8-1 8.5-1.4 15.4-3.2 20.8-8.7 26.4-6 6-14.7 8.4-24.7 6.8-2.5-.4-7.7-1-11.4-1.4-3.7-.3-7.6-.8-8.5-1-.9-.1-5.5-.6-10.2-.9-10.1-.7-10.2-.7 13 7.4 9.1 3.2 18.3 6.5 20.6 7.3 5.3 1.9 12.9 1.6 17.6-.7 6.6-3.2 9.3-6.7 13.8-18.1 1.6-4 10.1-28 10.5-29.5.3-1.5 18.3-52.2 25.7-72.5 4.8-13.1 5.2-19.4 1.8-26-3.4-6.6-6.9-9.3-17-13.1-5.1-1.8-9.6-3.4-10.1-3.4s-.4 1.1.1 2.4z"/></svg>