<svg xmlns="http://www.w3.org/2000/svg" viewBox="0 0 742 1130"><path fill="#fff" d="m347 414-15 2-3 2-1 19v20l-4 1-5 2-10 3-10 3-4 2-9 4-8 2-3-9-3-10c-2-2-15-5-19-4-3 0-15 13-20 20-6 10-6 13-2 33l3 26 2 13q3 13-1 26c-3 7-3 7-2 15l1 9 7 6 7 7 4 12 4 13-2 8q-5 12-1 26 2 7-1 9l-6 9-12 16-10 12-3 5-24 11c-14 5-19 8-30 14-34 21-40 27-40 42 0 8 1 7-13 18-29 22-58 51-76 74q-4 7-9 7l-11 6q-8 5-14 26c-2 8-2 12-2 25 0 39 12 65 45 96l29 21q9 5 18-1 5-3 8-1l4 1v6l-1 5h57c55 0 57 0 59 2l4 2c3 0 6 4 29 30l25 30h188l10-11c28-33 40-46 45-50l5-4h40l44-1a239 239 0 0 0 50-28l7-1h7c7-1 22-19 31-36 9-18 12-33 12-55 0-26-6-45-21-69q-11-17-25-19c-8 0-9-1-14-8a619 619 0 0 0-70-66l1-7c2-10 2-12-4-17a213 213 0 0 0-43-26c-18-10-16-7-15-21 1-16 1-17-7-20l-9-2c-4 0-14-3-16-5v-5c0-5 0-6-10-11l-6-4 2-5q6-6-3-26c-5-13-6-15-11-16q-3 0-3-2c0-3 8-19 10-22 5-7 6-8 7-17v-7l-5-7-4-6-1-10c0-14 0-16-3-22-3-5-3-7-3-22-2-35-4-46-10-51-2-2-2-2-10-1l-11 2q-4 0-3 7l-1 5-9-3-12-3q-9 0-10-13c-5-21-6-26-8-28-3-3-21-5-44-3"/></svg>