<?xml version="1.0" standalone="no"?>
<!DOCTYPE svg PUBLIC "-//W3C//DTD SVG 1.1//EN" "http://www.w3.org/Graphics/SVG/1.1/DTD/svg11.dtd" >
<svg xmlns="http://www.w3.org/2000/svg" xmlns:xlink="http://www.w3.org/1999/xlink" version="1.1">
<metadata>
Created by FontForge 20160407 at Wed Oct 26 09:51:16 2016
 By Jimmy Warting
Copyright (c) Active Images, 2010. All rights reserved.
</metadata>
<defs>
<font id="SCCCBackBeat" horiz-adv-x="690" >
  <font-face 
    font-family="SC CCBackBeat"
    font-weight="700"
    font-stretch="normal"
    units-per-em="1000"
    panose-1="3 1 8 2 4 6 2 2 2 4"
    ascent="800"
    descent="-200"
    x-height="507"
    cap-height="713"
    bbox="-275 -269 1479 887"
    underline-thickness="20"
    underline-position="-133"
    unicode-range="U+001D-FB02"
  />
<missing-glyph horiz-adv-x="1000" 
 />
    <glyph glyph-name=".notdef" horiz-adv-x="1000" 
 />
    <glyph glyph-name=".null" horiz-adv-x="0" 
 />
    <glyph glyph-name=".null" horiz-adv-x="0" 
 />
    <glyph glyph-name="nonmarkingreturn" horiz-adv-x="333" 
 />
    <glyph glyph-name="space" unicode=" " horiz-adv-x="260" 
 />
    <glyph glyph-name="exclam" unicode="!" horiz-adv-x="326" 
d="M278 719q-3 -27 -8.5 -80t-11 -119.5t-10.5 -141t-7 -145.5q-23 1 -64.5 1t-86.5 -2q-1 28 -4 85t-7.5 126.5t-11.5 143t-16 134.5q17 -1 43.5 -2t57.5 -1.5t63.5 -0.5t62.5 2zM287 60q0 -33 -28.5 -50.5t-91.5 -17.5t-91.5 17.5t-28.5 50.5t28.5 50.5t91.5 17.5
t91.5 -17.5t28.5 -50.5z" />
    <glyph glyph-name="quotedbl" unicode="&#x22;" horiz-adv-x="432" 
d="M384 727q-20 -62 -31 -124t-15 -107q-22 3 -48 4.5t-47 2.5q2 23 2 51v57q-1 29 -2 57t-3 51q15 0 33 0.5t37.5 2t38.5 3t35 2.5zM182 728q-8 -60 -12.5 -117.5t-3.5 -114.5q-24 2 -52.5 2.5t-49.5 -0.5q-1 27 -4 56.5t-6 59.5t-7 58t-9 51q15 0 34 0.5t38.5 1t38 1.5
t33.5 2z" />
    <glyph glyph-name="numbersign" unicode="#" horiz-adv-x="638" 
d="M609 281q-2 -23 -4 -62t2 -88q-11 1 -28 1.5t-50 0.5q2 -35 3.5 -60t3.5 -43q-23 1 -63 0.5t-95 -7.5q1 14 1.5 39.5t2.5 70.5q-37 -1 -63.5 -1t-63.5 -1q2 -35 3.5 -59t3.5 -42q-23 1 -65 0.5t-97 -7.5q1 14 1.5 37.5t1.5 66.5q-23 -1 -40.5 -1.5t-29.5 -0.5
q3 35 3.5 75.5t-5.5 78.5q12 0 29 -0.5t47 -1.5v116q-22 -1 -37.5 -1t-26.5 -1q3 35 3.5 75.5t-5.5 78.5q9 0 22 -0.5t42 -1.5q-2 39 -2.5 68t-2.5 55q25 -1 69 -1t92 3q-2 -19 -3 -48.5t-3 -78.5h130q-1 45 -2 79t-3 65q25 -2 68 -5t91 -1q-2 -20 -3.5 -51.5t-3.5 -83.5
q26 1 44.5 1.5t32.5 1.5q-2 -23 -4 -62t2 -88q-12 1 -29.5 1.5t-49.5 0.5q0 -35 -0.5 -60.5t-0.5 -60.5q28 1 47.5 1.5t34.5 1.5zM387 399q-39 -1 -68 -1t-67 -1v-122h134v32.5t0.5 29t0.5 29.5v33z" />
    <glyph glyph-name="dollar" unicode="$" horiz-adv-x="576" 
d="M554 439q-29 2 -81 3.5t-105 -1.5q-5 52 -29 75.5t-50 23.5q-14 0 -27 -5.5t-22.5 -15t-15.5 -22t-6 -25.5q0 -29 21 -42.5t66 -20.5q26 -4 56 -7.5t59.5 -10.5t56.5 -19t46 -33q14 -14 21 -37t8 -49t-4 -52.5t-16 -49.5q-14 -26 -51 -47t-98 -35q2 -25 3.5 -44.5
t3.5 -34.5q-28 2 -79.5 2.5t-121.5 -7.5q1 12 1.5 31.5t2.5 52.5q-36 8 -59 17t-43 21q-32 20 -45.5 60t-14.5 99q26 -2 74.5 -3.5t115.5 2.5q2 -50 24.5 -72t45.5 -22q10 0 23.5 3.5t26 12.5t21 24t6.5 37q-2 20 -25.5 33.5t-63.5 22.5q-31 8 -68 13.5t-72 12.5
q-59 11 -83 45t-26 97q-1 23 6 47.5t26 46.5t51 40t81 30q-2 25 -2.5 48.5t-1.5 42.5q14 0 36 -0.5t48 -0.5t55.5 1t59.5 2q-1 -16 -2 -38.5t-3 -54.5q87 -17 126 -68.5t44 -128.5z" />
    <glyph glyph-name="percent" unicode="%" horiz-adv-x="836" 
d="M811 260q1 -7 1 -26.5t-1 -44t-3.5 -49.5t-8.5 -45q-5 -17 -19 -33t-34.5 -29t-45.5 -21.5t-52 -10.5q-55 -3 -93.5 6t-78.5 38q-23 17 -34 42t-14 56q-16 -39 -29 -74t-24 -67q-13 1 -35.5 2t-51.5 1.5t-63 0.5t-69 -2q21 41 43 86l44 90t41.5 87.5t34.5 78.5
q-33 -15 -72 -18q-55 -4 -93.5 5.5t-79.5 37.5q-18 13 -28.5 32t-15.5 41.5t-6 48t0 51.5t6 52t14.5 49t23.5 41t32 26q42 19 91 23.5t99 -5.5q30 -6 52 -20t36.5 -33.5t22.5 -42.5t9 -47v-3q14 38 26.5 72t20.5 60q14 0 37.5 -1t53.5 -1h64.5t68.5 1q-16 -29 -34.5 -66.5
t-38 -79t-39.5 -86t-38 -86.5q37 11 78 13t82 -6q30 -6 52 -20t36.5 -33.5t22 -43t9.5 -47.5zM688 159q2 12 1 33.5t-5 44t-11.5 41t-19.5 23.5q-12 6 -26.5 7t-27.5 -2.5t-23.5 -11t-15.5 -19.5q-11 -27 -9 -58t4 -60q1 -13 6.5 -24.5t15 -20.5t22.5 -14t28 -4
q24 2 41.5 21t19.5 44zM287 486q2 12 1 33.5t-5 43.5t-11.5 40.5t-19.5 24.5t-26.5 7t-27.5 -2.5t-23.5 -11t-15.5 -19.5q-11 -27 -9 -58.5t4 -59.5q2 -26 21.5 -45.5t50.5 -17.5q24 1 41 20.5t20 44.5z" />
    <glyph glyph-name="ampersand" unicode="&#x26;" horiz-adv-x="663" 
d="M215 284q-21 -24 -20 -61q1 -38 38 -53q14 -5 46 -8q65 -6 92 9q3 2 -58 66q-61 65 -68 65q-14 0 -30 -18zM308 587q-32 0 -46 -17q-10 -12 -10 -25q-2 -45 21 -66q16 -17 42 -16q18 0 38 37q18 37 15 61q-4 26 -60 26zM602 171q-21 -10 -20 -12l67 -59q9 -7 -64 -43
q-74 -37 -103 -37q-4 0 -27 43q-76 -58 -179 -54q-107 5 -175 61q-57 48 -59 105q-3 120 38 181q26 39 66 50q-38 51 -55 85q-10 21 -9 57q1 30 13 63q10 28 32 46q22 19 50 29q27 10 60 14q33 5 65 5t61 -2q29 -3 51 -6q66 -9 104 -45q39 -35 42 -90q1 -28 -2 -52
q-3 -23 -18 -50q-18 -34 -39 -60q-12 -16 -52 -58q51 -73 53 -74q4 0 18 30q13 30 15 29q27 -2 63 -67q35 -61 29 -71q-3 -7 -25 -18z" />
    <glyph glyph-name="quotesingle" unicode="'" horiz-adv-x="234" 
d="M204 733q-5 -32 -11 -62.5t-11 -59.5t-8.5 -59t-4.5 -62q-26 2 -54.5 3t-54.5 0q0 25 -1 56t-2.5 62.5t-4 62t-5.5 55.5q33 -1 76 0.5t81 3.5z" />
    <glyph glyph-name="parenleft" unicode="(" horiz-adv-x="412" 
d="M381 715q-31 -36 -59 -79.5t-50.5 -91.5t-37 -99t-19.5 -102q-2 -24 6.5 -63t27 -85t48.5 -95.5t71 -93.5q-21 0 -47 0.5t-54 0l-56 -1t-52 -2.5q-33 29 -61.5 65.5t-49 80t-31.5 92.5t-9 102q3 66 17 121.5t35 102t47.5 84t54.5 65.5q14 -3 36.5 -4t51.5 -0.5t62.5 1.5
t68.5 2z" />
    <glyph glyph-name="parenright" unicode=")" horiz-adv-x="412" 
d="M31 4q31 36 59 79.5t50.5 91.5t37.5 99t19 102q2 24 -6.5 63t-27 85t-48.5 95.5t-71 93.5q21 0 47 -0.5t54 0t56 1.5t53 2q33 -29 61 -65.5t48.5 -80t31.5 -92.5t9 -102q-3 -66 -16.5 -122t-35 -102.5t-48 -83.5t-54.5 -65q-13 3 -36 4t-52 0.5t-62.5 -1.5t-68.5 -2z" />
    <glyph glyph-name="asterisk" unicode="*" horiz-adv-x="472" 
d="M417 477q-16 -20 -27.5 -40.5t-21.5 -48.5l-23 11.5t-52 24.5q2 -27 3 -45t3 -35q-19 2 -48.5 2t-65.5 -4l3 84q-29 -14 -52 -26.5t-38 -21.5l-17.5 45t-22.5 53q39 14 58.5 28.5t21.5 22.5q2 9 -6.5 21.5t-31.5 21.5q-8 3 -19 6t-23 7q14 23 27.5 49t23.5 52l27.5 -15
t52.5 -23q-2 29 -2.5 50.5t-1.5 42.5q19 -1 49.5 -0.5t64.5 2.5q-2 -14 -2.5 -31t-2.5 -53q29 14 50.5 25t35.5 18q5 -20 14 -50t21 -61q-47 -17 -63 -30.5t-18 -20.5q-2 -8 16.5 -25.5t66.5 -35.5z" />
    <glyph glyph-name="plus" unicode="+" horiz-adv-x="414" 
d="M362 430q-2 -23 -4 -62t2 -88q-14 1 -32 1.5t-50 0.5q2 -35 3 -63t3 -54q-24 2 -65 2.5t-83 -1.5q1 15 2 41t3 72q-29 -2 -49 -2.5t-34 -2.5q3 36 3 76t-5 78q14 -2 32 -2.5t53 -1.5q-2 38 -4 67.5t-5 55.5q23 -1 62.5 -0.5t84.5 3.5q-2 -15 -3 -43t-2 -82q29 2 49.5 2.5
t38.5 2.5z" />
    <glyph glyph-name="comma" unicode="," horiz-adv-x="294" 
d="M255 170q-14 -32 -28.5 -61t-27.5 -58q-14 -29 -26 -57.5t-20 -59.5q-29 2 -62 2.5t-62 0.5q7 24 14 54t13 61t11 60.5t8 53.5q38 0 87.5 1t92.5 3z" />
    <glyph glyph-name="hyphen" unicode="-" horiz-adv-x="316" 
d="M285 451q-4 -25 -6 -56q-2 -26 -1.5 -60.5t4.5 -75.5q-32 3 -70 3t-73 -1.5t-63.5 -4t-40.5 -4.5q6 44 6.5 97.5t-10.5 100.5q25 -3 45.5 -5t47 -2t64 2t97.5 6z" />
    <glyph glyph-name="hyphen" unicode="&#xad;" horiz-adv-x="316" 
d="M285 451q-4 -25 -6 -56q-2 -26 -1.5 -60.5t4.5 -75.5q-32 3 -70 3t-73 -1.5t-63.5 -4t-40.5 -4.5q6 44 6.5 97.5t-10.5 100.5q25 -3 45.5 -5t47 -2t64 2t97.5 6z" />
    <glyph glyph-name="period" unicode="." horiz-adv-x="286" 
d="M253 80q0 -47 -26.5 -67t-77.5 -20t-77 20t-26 67q0 48 26 67.5t77 19.5t77.5 -19.5t26.5 -67.5z" />
    <glyph glyph-name="slash" unicode="/" horiz-adv-x="562" 
d="M540 715q-18 -33 -40 -78t-45 -94.5t-45 -101t-41 -97.5q-43 -105 -77 -189t-57 -153q-13 1 -35.5 2t-51.5 1.5t-63 0.5t-69 -2q21 42 44.5 89.5t46 94t42.5 90.5t35 80q11 27 28.5 73t37 98t37.5 102t29 85q14 0 38 -1t54 -1h64t68 1z" />
    <glyph glyph-name="zero" unicode="0" 
d="M662 282q-1 -46 -6 -86t-18 -73t-34 -58t-54 -41q-69 -35 -152 -43t-167 9q-51 11 -87 34.5t-58.5 57t-34.5 74.5t-15 86q-1 14 -2 53.5t0.5 88.5t5.5 99t14 85q9 34 32.5 63t56.5 51.5t74.5 36.5t86.5 17q46 3 82.5 1.5t69.5 -10.5t63.5 -25.5t64.5 -43.5
q38 -30 55.5 -76.5t23 -99t3 -105.5t-3.5 -95zM433 477q-1 23 -7 42.5t-17.5 34t-28.5 22.5t-40 6q-34 -3 -54 -33.5t-23 -77.5q-2 -23 -3 -67t0.5 -90.5t7.5 -86.5t19 -55q16 -19 38.5 -25t44.5 -2t39.5 17.5t22.5 34.5q6 26 7.5 65.5t0.5 80.5t-3.5 77.5t-3.5 56.5z" />
    <glyph glyph-name="one" unicode="1" horiz-adv-x="368" 
d="M323 -1q-16 1 -41.5 2.5t-55.5 2.5t-63 0.5t-65 -3.5q1 24 2.5 71t3 110.5t2.5 140.5t0 161q0 16 -15.5 27t-39.5 13q-6 0 -12 0.5t-12 0.5q8 27 16.5 51t16.5 46q8 23 15.5 44.5t12.5 41.5q14 0 37.5 -0.5t53.5 -0.5t65 1.5t72 4.5q-2 -25 -4.5 -77t-3 -138.5
t2.5 -209.5t12 -289z" />
    <glyph glyph-name="two" unicode="2" horiz-adv-x="644" 
d="M598 170q-2 -26 -4 -70.5t2 -98.5q-82 3 -170.5 3.5t-167 0t-138.5 -2t-87 -1.5q-4 40 -4.5 78t1.5 70t6.5 57t10.5 39q18 47 66 80.5t107 46.5q33 8 67.5 18.5t62.5 26t46.5 37t19.5 49.5q1 27 -10.5 43t-29 24t-36 8.5t-32.5 -2.5q-29 -7 -41 -40t-12 -98
q-33 3 -66 3.5t-61.5 0t-50.5 -2t-34 -2.5q0 39 2.5 73.5t10.5 65t24 57t41 50.5q20 19 49.5 31.5t64.5 19.5t73 8.5t75 -2.5q90 -9 140.5 -41.5t73.5 -85.5q12 -28 17.5 -63.5t3.5 -69.5t-11 -63t-25 -45q-34 -35 -83 -55.5t-97 -37.5q-20 -7 -40.5 -13.5t-40.5 -16.5
q-14 -8 -27 -26t-8 -41q1 -6 19 -9.5t45 -5.5t61 -2.5t68.5 0t65.5 2t53 3.5z" />
    <glyph glyph-name="three" unicode="3" horiz-adv-x="654" 
d="M632 537q0 -25 -7 -50t-22 -46.5t-39 -37.5t-58 -23v-13q38 -11 64 -34.5t40.5 -53.5t18 -65t-4.5 -70q-7 -34 -35.5 -62t-68 -47t-85.5 -29.5t-90 -10.5q-77 0 -136.5 11.5t-110.5 46.5q-37 26 -54 81.5t-17 127.5q15 -1 38 -2.5t52 -2t63 0t71 2.5q0 -40 7.5 -63.5
t19 -35.5t25.5 -15.5t27 -3.5q18 0 34.5 5.5t29 17t19 30t3.5 44.5q-4 35 -30 50t-80 20q-32 3 -50.5 3.5t-35.5 -0.5q2 28 1.5 61t-2.5 65q20 1 44.5 2.5t51.5 3.5q51 3 72 24t26 50q4 21 -3 37t-19 26.5t-27.5 16t-29.5 5.5q-13 0 -30 -7.5t-31 -22t-22.5 -35.5t-5.5 -48
q-75 6 -133 3.5t-87 -4.5q-1 128 78.5 190t245.5 62q84 0 139 -19t87 -48.5t44.5 -65.5t12.5 -71z" />
    <glyph glyph-name="four" unicode="4" 
d="M660 261q-2 -23 -4 -62t2 -87q-33 2 -44.5 -12t-8.5 -45q1 -14 2 -27.5t3 -24.5q-31 1 -92 1.5t-136 -3.5q2 15 2 31t-2.5 29.5t-7.5 24t-13 13.5q-15 6 -37.5 9t-49 4.5t-55.5 2t-57 -0.5q-44 -2 -83 -4t-62 -4q1 16 1.5 39.5t0.5 50t-1 52t-3 44.5q23 45 53 96.5
t59 106.5q28 53 52 107t38 108l63 -3t94.5 -3t110.5 -0.5t111 3.5q-1 -21 -3.5 -58t-4 -87t-1.5 -110t3 -127q2 -37 20 -51.5t50 -12.5zM401 410q-1 21 -4.5 39.5t-9 32.5t-11.5 22t-12 8q-12 -1 -25 -15.5t-25.5 -36.5t-23 -48t-17.5 -50.5t-8.5 -43t3.5 -25.5
q9 -11 26 -15t36 -3t36 6.5t25 14.5q4 4 6.5 15t3.5 27t1 34.5t-1 37.5z" />
    <glyph glyph-name="five" unicode="5" horiz-adv-x="662" 
d="M626 320q8 -19 12 -53t-0.5 -72.5t-18.5 -76.5t-42 -65q-57 -55 -152.5 -67t-219.5 8q-52 8 -85.5 32t-52.5 58.5t-25 78.5t-2 93q14 -1 36.5 -2.5t50 -3t58 -1t61.5 4.5q-3 -41 6.5 -67.5t27.5 -37.5q11 -6 28 -11t35.5 -5t35.5 6.5t28 21.5q14 20 15 42t-10.5 42.5
t-34.5 35.5t-58 21q-64 10 -129 9l-130 -2q2 21 3.5 59.5t2 91t-1.5 116.5t-8 136q54 -3 122 -4.5t142 -1t149 2.5t142 6q-3 -23 -5 -65t1 -102q-40 3 -90 4t-95.5 -0.5t-79.5 -4t-43 -6.5q-14 -6 -23.5 -16.5t-12.5 -22.5t2.5 -23.5t21.5 -19.5q15 -7 37 -8t46 0t48 1.5
t43 -2.5q59 -9 102.5 -45.5t62.5 -84.5z" />
    <glyph glyph-name="six" unicode="6" horiz-adv-x="664" 
d="M623 148q-6 -32 -28.5 -58t-56 -45t-76 -30.5t-87.5 -14.5q-44 -3 -81 -2.5t-70 8t-63 23t-62 41.5q-21 17 -34.5 45t-20.5 61t-10 70t-3 72.5t1.5 68t1.5 57.5q1 46 6 86t17 73t32 58.5t51 41.5q67 35 146 42.5t158 -9.5q46 -10 77 -33t50.5 -57.5t28.5 -79.5t10 -98
q-15 1 -37.5 2t-49.5 1.5t-57.5 0t-61.5 -3.5q2 14 2 29.5t-3 29.5t-7.5 25t-11.5 17q-18 14 -39.5 17t-41 -3t-34.5 -20t-21 -33q-1 -6 -4 -18.5t-4.5 -28.5t-1.5 -34.5t4 -35.5q45 5 85 7.5t77.5 0t74 -10t73.5 -22.5q27 -10 44.5 -34.5t25.5 -57.5t8 -71.5t-7 -76.5z
M427 244q-7 20 -32 31.5t-54 13.5t-55 -7t-35 -29q-10 -25 -6 -45t17.5 -34t34 -21.5t42.5 -7.5q18 0 36.5 7.5t32 21t20 31.5t-0.5 39z" />
    <glyph glyph-name="seven" unicode="7" horiz-adv-x="578" 
d="M579 712q-30 -55 -65 -135t-68.5 -174.5t-62.5 -197.5t-46 -204q-32 2 -66.5 3t-66.5 0.5t-60 -1t-48 -1.5q23 43 45 95.5t41.5 107t35 107t25.5 96t12 74.5t-5 42q-5 7 -25.5 11t-49 5.5t-61 1t-60.5 -3.5q4 63 3 107.5t-3 68.5q62 -6 138 -7.5t150 -0.5t137.5 3t99.5 3
z" />
    <glyph glyph-name="eight" unicode="8" horiz-adv-x="662" 
d="M648 166q0 -39 -15 -68.5t-40.5 -50.5t-59 -34t-71.5 -19q-35 -6 -78.5 -9.5t-88 -2.5t-86 7t-71.5 20q-26 12 -47.5 26.5t-36.5 35.5t-22.5 50t-5.5 69q3 60 33 105t93 62l1 11q-38 13 -63.5 38.5t-38 59t-11.5 73.5t16 82q13 36 40.5 60t62.5 37.5t76 19t81 6t77 -3
t64 -7.5q83 -12 131 -58t52 -117q2 -37 -2 -68t-17.5 -55.5t-38 -43t-63.5 -30.5v-12q69 -16 99 -58t30 -125zM405 458q10 12 15 29t4 34.5t-9 32.5t-24 24q-13 7 -31 10t-36 2.5t-33.5 -4.5t-23.5 -11q-22 -19 -30.5 -36t-7.5 -32.5t10 -29.5t22 -28q10 -10 30 -15.5
t41.5 -4.5t41.5 8t31 21zM398 151q18 12 27.5 34.5t8.5 46t-12.5 42.5t-34.5 24q-10 2 -26 3.5t-33 1.5t-32 -2.5t-24 -7.5q-21 -12 -31 -34t-10 -44.5t11 -42t33 -27.5q7 -3 23 -4.5t35 -1.5t37 2.5t28 9.5z" />
    <glyph glyph-name="nine" unicode="9" horiz-adv-x="662" 
d="M630 235q-5 -52 -25 -95t-54.5 -74t-84 -48t-114.5 -17q-73 0 -135.5 12t-100.5 41q-24 19 -38.5 41t-22.5 46.5t-10 51.5t-2 57q15 0 39 -1t51.5 -1h56.5t55 1q-1 -25 2.5 -45.5t13.5 -35.5t27 -23t44 -8q15 0 30 6t27.5 15.5t20.5 22.5t10 27q2 17 3.5 28.5t2 20.5
t0 18t-2.5 21q-56 -4 -107 -5.5t-95 4.5t-81.5 20.5t-67.5 42.5q-16 15 -25.5 41t-12.5 56.5t-1 63t8.5 62t16.5 52.5t22 35q23 22 53.5 37.5t65.5 25.5t73 14.5t76 4.5q42 0 80.5 -9t72.5 -27t61 -44t45 -59q18 -32 25 -81.5t7.5 -103t-3 -104.5t-6.5 -87zM424 487
q7 48 -21.5 75t-77.5 27q-24 0 -43.5 -10.5t-30.5 -27.5t-13 -38.5t8 -44.5q6 -13 33 -22t58 -9.5t57 11t30 39.5z" />
    <glyph glyph-name="colon" unicode=":" horiz-adv-x="286" 
d="M253 80q0 -47 -26.5 -67t-77.5 -20t-77 20t-26 67q0 48 26 67.5t77 19.5t77.5 -19.5t26.5 -67.5zM253 428q0 -47 -26.5 -67t-77.5 -20t-77 20t-26 67q0 48 26 67.5t77 19.5t77.5 -19.5t26.5 -67.5z" />
    <glyph glyph-name="semicolon" unicode=";" horiz-adv-x="286" 
d="M255 170q-14 -32 -28.5 -61t-27.5 -58q-14 -29 -26 -57.5t-20 -59.5q-29 2 -62 2.5t-62 0.5q7 24 14 54t13 61t11 60.5t8 53.5q38 0 87.5 1t92.5 3zM253 428q0 -47 -26.5 -67t-77.5 -20t-77 20t-26 67q0 48 26 67.5t77 19.5t77.5 -19.5t26.5 -67.5z" />
    <glyph glyph-name="semicolon" unicode="&#x37e;" horiz-adv-x="286" 
d="M255 170q-14 -32 -28.5 -61t-27.5 -58q-14 -29 -26 -57.5t-20 -59.5q-29 2 -62 2.5t-62 0.5q7 24 14 54t13 61t11 60.5t8 53.5q38 0 87.5 1t92.5 3zM253 428q0 -47 -26.5 -67t-77.5 -20t-77 20t-26 67q0 48 26 67.5t77 19.5t77.5 -19.5t26.5 -67.5z" />
    <glyph glyph-name="less" unicode="&#x3c;" horiz-adv-x="480" 
d="M443 715q-19 -33 -43 -77.5t-48.5 -95t-46 -103.5t-36.5 -104q24 -54 50 -110q23 -48 52 -106t61 -113q-19 0 -45 0.5t-55.5 0.5t-59 -1t-56.5 -3q-24 72 -75 159t-115 173q36 54 66.5 108t55 103.5t42.5 93t29 76.5q14 0 37.5 -1t53.5 -1h64.5t68.5 1z" />
    <glyph glyph-name="equal" unicode="=" horiz-adv-x="316" 
d="M285 566q-4 -25 -6 -56q-2 -26 -1.5 -60.5t4.5 -75.5q-32 3 -70 3t-73 -1.5t-63.5 -4t-40.5 -4.5q6 44 6.5 97.5t-10.5 100.5q25 -3 45.5 -5t47 -2t64 2t97.5 6zM285 306q-4 -25 -6 -56q-2 -26 -1.5 -60.5t4.5 -75.5q-32 3 -70 3t-73 -1.5t-63.5 -4t-40.5 -4.5
q6 44 6.5 97.5t-10.5 100.5q25 -3 45.5 -5t47 -2t64 2t97.5 6z" />
    <glyph glyph-name="greater" unicode="&#x3e;" horiz-adv-x="480" 
d="M38 4q19 33 43 77.5t48 95t45.5 103.5t36.5 104q-24 54 -50 110q-23 48 -52 106.5t-61 112.5q19 0 45 -0.5t55.5 -0.5t59 1t56.5 3q12 -36 31 -76t44 -83t54 -87t61 -86q-36 -54 -66.5 -108t-55 -103.5t-42.5 -93t-29 -76.5q-13 0 -37 1t-54 1h-64t-68 -1z" />
    <glyph glyph-name="question" unicode="?" horiz-adv-x="634" 
d="M599 613q13 -30 15.5 -66t-4.5 -69.5t-22.5 -59.5t-38.5 -37q-31 -14 -60.5 -31.5t-52 -40.5t-35.5 -52t-11 -67q-42 5 -84.5 2t-84.5 -6q-6 33 -3.5 65.5t11 60t22 48t29.5 28.5q22 11 44 19t39.5 19t28.5 29t11 49q0 27 -11.5 42.5t-28 23.5t-35 8.5t-32.5 -2.5
q-29 -7 -47 -42t-7 -95q-70 5 -127 2.5t-85 -4.5q-1 54 4.5 91.5t15.5 63.5t24 44.5t30 35.5q20 20 51 35t67.5 23.5t76 11t76.5 -1.5q91 -9 146 -42t78 -85zM422 63q0 -39 -28.5 -56t-85.5 -17t-86 17t-29 56t29 55.5t86 16.5t85.5 -16.5t28.5 -55.5z" />
    <glyph glyph-name="at" unicode="@" horiz-adv-x="702" 
d="M666 562q0 -48 -2.5 -95.5t-4 -94.5t-1 -94.5t7.5 -94.5q-40 3 -89 -0.5t-98.5 -7.5t-95 -3t-79.5 13q-30 11 -46.5 36t-23 56t-3.5 63.5t13 57.5q12 32 27.5 54t35 37t45 23.5t56.5 13.5q19 3 40 5.5t40 5.5t28 12.5t7.5 20t-14 19.5t-37.5 11q-14 1 -37 -1t-47.5 -5.5
t-47 -9t-36.5 -10.5q-19 -7 -38 -20t-35 -30t-27.5 -36.5t-15.5 -38.5q-4 -22 -8 -51t-5.5 -59t-0.5 -58.5t6 -50.5q3 -13 12.5 -29t21.5 -31t26.5 -26.5t27.5 -15.5q20 -6 50.5 -9.5t67.5 -5t76.5 -1.5t76.5 1t69.5 2t54.5 2q-4 -34 -3.5 -63.5t1.5 -51.5q-42 -6 -89 -10.5
t-95 -7t-95.5 -2.5t-89.5 2q-60 3 -106.5 15.5t-79 38t-51.5 67.5t-25 104q-4 37 -4 90.5t5 109t16.5 106.5t30.5 83q32 54 88.5 87t121.5 48.5t132.5 16.5t121.5 -10q42 -8 67 -22t37.5 -36t16 -51.5t3.5 -68.5zM512 318q6 9 9.5 22.5t2.5 27t-6.5 25t-16.5 17.5
q-18 9 -39.5 9t-40.5 -9.5t-30.5 -27.5t-8.5 -45q3 -28 21.5 -38t40.5 -9t42 9.5t26 18.5z" />
    <glyph glyph-name="A" unicode="A" 
d="M685 3q-34 1 -96 1.5t-134 -3.5q0 24 -2.5 47t-12.5 37q-12 17 -38.5 23t-56 4.5t-54.5 -9t-34 -18.5q-14 -16 -17.5 -43t-5.5 -48q-28 2 -89.5 3t-138.5 -4q6 24 16.5 66.5t22.5 98.5t26 122t27 137t24.5 144.5t18.5 143.5q22 -1 65 -3t96.5 -3t111 -0.5t109.5 3.5
q3 -21 10.5 -62.5t18.5 -97t25 -122.5t31 -137.5t36.5 -142t40.5 -137.5zM405 288q4 4 3.5 23t-3.5 44t-9 53t-15 51.5t-20.5 38.5t-25.5 14q-13 -1 -24 -17t-19.5 -39.5t-13.5 -52t-6.5 -54t0 -44.5t6.5 -24q9 -9 27 -13t37.5 -3.5t37 6.5t25.5 17z" />
    <glyph glyph-name="B" unicode="B" horiz-adv-x="692" 
d="M671 163q0 -37 -14.5 -65.5t-40 -49t-59.5 -32.5t-72 -17q-45 -5 -90 -7t-97 -2t-113 1.5t-137 4.5q2 31 5 101.5t3.5 167t-3.5 211.5t-15 234q60 -6 121 -5t119 3.5t110 3.5t94 -4q81 -11 129 -55t51 -112q5 -74 -22.5 -125.5t-82.5 -68.5v-12q114 -14 114 -172z
M428 439q10 12 15 28t3.5 31.5t-9.5 29.5t-24 23q-12 6 -29.5 10t-35.5 4.5t-34 -2.5t-24 -10q-12 -10 -18 -29t-6 -39t5 -37.5t13 -25.5q11 -11 31 -14.5t41.5 -0.5t41.5 11.5t30 20.5zM423 155q13 11 19.5 31t5.5 41.5t-9.5 39t-26.5 23.5q-11 4 -27.5 5.5t-33.5 1
t-32.5 -2.5t-23.5 -7q-13 -7 -17.5 -27t-4 -42.5t6 -41.5t12.5 -25q8 -7 26 -10t38 -2.5t38.5 5t28.5 11.5z" />
    <glyph glyph-name="C" unicode="C" horiz-adv-x="662" 
d="M636 278q-1 -27 -3.5 -61t-10 -67t-21.5 -62.5t-38 -48.5q-19 -15 -46.5 -25t-60.5 -16t-70 -9t-74 -3q-83 0 -136 20t-84.5 52t-45 72t-17.5 80q-2 23 -3 56.5t-0.5 71.5t2.5 77.5t6 75.5t10 65.5t14 47.5q14 31 41 55.5t62 42t76 26.5t84 9q77 0 136.5 -14t110.5 -49
q19 -13 32 -38t20.5 -59t11 -75t2.5 -86q-13 0 -38.5 1.5t-56.5 2.5t-64.5 0.5t-63.5 -3.5q-1 75 -22 114t-53 39q-29 0 -54.5 -24.5t-30.5 -78.5q-3 -24 -3.5 -59t0.5 -72t3 -70.5t5 -56.5q3 -27 23.5 -49.5t52.5 -22.5q27 0 43.5 15.5t25.5 37.5t12.5 46t3.5 41
q65 -6 123.5 -6t95.5 7z" />
    <glyph glyph-name="D" unicode="D" horiz-adv-x="668" 
d="M644 235q0 -75 -39 -133t-112 -89q-35 -15 -93.5 -19t-126.5 -2q-60 2 -117.5 4t-102.5 0q3 42 4.5 101.5t1.5 127t-1 138.5t-3 136t-4.5 118.5t-6.5 85.5q35 -1 79 0t92 2.5t96 4t90 3.5q74 3 120.5 -18.5t72.5 -59.5t36.5 -90t12.5 -111q2 -53 1.5 -105.5t-0.5 -93.5z
M421 223q8 21 13.5 63t4 87.5t-11 86.5t-30.5 59q-20 17 -38.5 23.5t-33.5 6t-26.5 -6t-17.5 -11.5q-7 -7 -11 -34t-6 -63.5t-1.5 -78t2.5 -77.5t6 -62.5t9 -33.5q10 -12 29.5 -16.5t41 0t41 18.5t29.5 39z" />
    <glyph glyph-name="E" unicode="E" horiz-adv-x="574" 
d="M531 716q-1 -11 -3.5 -32t-3.5 -45t-0.5 -48.5t3.5 -43.5q-32 2 -68.5 2.5t-69 0t-57 -2.5t-33.5 -6q-14 -6 -20.5 -18t-8 -25.5t2 -27t9.5 -22.5q5 -7 30.5 -12t60.5 -7.5t75 -2t75 3.5q-2 -23 -4 -63.5t2 -90.5q-31 2 -64 3t-62.5 0.5t-53 -2t-35.5 -3.5
q-15 -3 -27.5 -17t-16 -31.5t5.5 -32.5t36 -19q25 -4 56 -4.5t62 1t59.5 4t47.5 3.5q-3 -26 -5 -71.5t2 -100.5q-72 3 -147.5 3.5t-142 0t-118.5 -1.5t-78 -2q1 17 2.5 57t3.5 96t3 124t1.5 141t-1 147t-4.5 142q54 -5 180 -3.5t306 6.5z" />
    <glyph glyph-name="F" unicode="F" horiz-adv-x="566" 
d="M533 544q-56 3 -112.5 5t-112.5 -6q-25 -4 -34.5 -24t-7 -43t14.5 -43t30 -23q12 -2 35.5 -3.5t53 -2t62 0.5t63.5 3q-3 -50 -1.5 -90.5t3.5 -63.5q-42 3 -83 1.5t-74 -5.5t-55 -10.5t-25 -15.5q-4 -10 -5.5 -37.5t-1.5 -61t0.5 -67t1.5 -54.5q-29 3 -90 5t-146 -5
q3 106 3 218t-1.5 211t-3.5 174.5t-3 108.5q26 -1 78 -2t118.5 -1.5t142 0t148.5 3.5q-4 -55 -2 -101t4 -71z" />
    <glyph glyph-name="G" unicode="G" horiz-adv-x="664" 
d="M625 466q-15 0 -38.5 1t-52.5 1.5t-61 -0.5t-64 -4q0 30 -7 58.5t-16 38.5q-18 19 -39 22.5t-40.5 -4t-34 -22.5t-19.5 -32q-3 -10 -4.5 -31.5t-2.5 -48t-1 -56.5v-57.5t1 -50.5t1 -36q2 -50 25 -76t58 -34q15 -3 33 1.5t32.5 16.5t21.5 30.5t0 41.5q-3 11 -25 19t-47 6
q2 21 4 56t-3 83q31 -2 103.5 -3t175.5 4q5 -61 7 -123.5t-9 -123.5q-6 -33 -29 -60.5t-57 -48t-76 -33.5t-86 -16q-88 -6 -160 12.5t-121 67.5q-30 29 -43 78t-17 103.5t-2.5 107.5t2.5 90q2 92 33 159.5t93 99.5q67 35 141 40t153 -12q47 -10 79.5 -35t53 -60.5t30 -79
t8.5 -90.5z" />
    <glyph glyph-name="H" unicode="H" horiz-adv-x="726" 
d="M684 716q-1 -15 -3 -54.5t-4.5 -94.5t-4.5 -123.5t-3 -142t0 -149t5 -146.5q-26 1 -82.5 1t-144.5 -4q1 18 4 51.5t4 69t-2 66t-14 43.5q-12 14 -35 21t-46.5 6.5t-43.5 -10t-27 -29.5q-16 -46 -15.5 -97.5t1.5 -113.5q-25 2 -79.5 2t-147.5 -6q1 29 5 94.5t7 158
t2.5 206.5t-9.5 240q29 -1 89.5 0t141.5 7q-3 -26 -7 -61t-6 -71.5t1 -70.5t13 -58q6 -15 29 -22t49.5 -7t50.5 6.5t33 19.5q6 9 8 39.5t2 70t-1.5 82.5t-3.5 76q27 -2 85 -2t149 2z" />
    <glyph glyph-name="I" unicode="I" horiz-adv-x="322" 
d="M277 -1q-16 1 -41.5 2.5t-55.5 2.5t-62.5 0.5t-64.5 -3.5q2 33 5 105.5t4 169t-1.5 208.5t-12.5 224q15 -1 38.5 -1.5t52.5 0t62.5 2t68.5 4.5q-2 -25 -4.5 -77t-3 -138.5t2.5 -209.5t12 -289z" />
    <glyph glyph-name="J" unicode="J" horiz-adv-x="680" 
d="M631 704q3 -87 4 -182t-1.5 -178.5t-9 -147t-19.5 -89.5t-40.5 -47.5t-63.5 -37t-77.5 -24t-84.5 -8.5q-75 0 -132 11t-111 43q-31 18 -49 47.5t-24 66.5q-6 42 -5.5 83.5t1.5 83.5q17 -3 43.5 -5t57.5 -2.5t64 1t63 4.5q-1 -76 19.5 -122.5t59.5 -43.5q14 1 28.5 6.5
t27 16.5t21.5 29.5t12 45.5q1 15 2.5 44t2 66.5t0 81t-1.5 88t-4 87.5t-7 79q30 -1 90.5 -1t133.5 4z" />
    <glyph glyph-name="K" unicode="K" horiz-adv-x="704" 
d="M681 716q-22 -39 -49 -83t-50.5 -92.5t-39.5 -101.5t-16 -109q0 -37 13 -78.5t34 -83.5t46.5 -83.5t49.5 -78.5q-15 0 -40 0.5t-57 0.5t-70 -1t-79 -3q-13 38 -29 75t-32.5 66t-31.5 47t-27 18q-10 0 -17 -17.5t-11 -45.5t-5 -63.5t0 -72.5q-26 2 -80 2t-146 -6l3 60
t3.5 94.5t3 120.5t1.5 137t-1 144.5t-5 142.5q29 -1 89.5 0t141.5 7q-5 -49 -6.5 -93t0 -77.5t6.5 -54t12 -22.5q13 -2 33 24t41.5 64.5t41.5 83t33 79.5q23 -1 82.5 -1.5t157.5 1.5z" />
    <glyph glyph-name="L" unicode="L" horiz-adv-x="522" 
d="M489 5q-22 0 -62.5 0.5t-96 0.5t-124.5 -1.5t-147 -4.5q2 54 2.5 229.5t-17.5 475.5q31 -2 95.5 -2t146.5 5q-3 -36 -5 -86t-3 -105t-1 -109.5t1.5 -99t4.5 -75t7 -36.5q5 -6 24.5 -10t47 -6t60.5 -1.5t66 1.5q-2 -23 -2.5 -68.5t3.5 -107.5z" />
    <glyph glyph-name="M" unicode="M" horiz-adv-x="922" 
d="M884 714q-4 -35 -8 -88.5t-6.5 -117t-4.5 -132.5t-2 -136t2 -127.5t7 -107.5q-72 5 -128.5 3.5t-84.5 -2.5q3 41 4.5 84t0.5 79t-4 61.5t-9 32.5q-13 16 -29 4.5t-32 -38.5t-31 -63.5t-27.5 -71t-21 -61t-10.5 -33.5h-31.5t-47.5 -1q-5 19 -15.5 47t-23.5 59t-27.5 62
t-28.5 54.5t-25.5 37t-19.5 10.5q-6 -3 -10.5 -33t-6 -71t-1 -85.5t4.5 -74.5q-26 2 -81 2t-139 -5q2 26 3.5 81t2 142.5t-1.5 209t-9 280.5q16 -1 47 -1.5t71 0t85.5 1.5t89.5 4q10 -35 24 -84.5t28 -97.5q9 -30 20 -56t21 -45.5t18.5 -30.5t14.5 -11q7 0 17 18.5t20 48
t20.5 66.5t19.5 73t16 68t11 51q53 -3 103.5 -4.5t92.5 -2t74 0t48 1.5z" />
    <glyph glyph-name="N" unicode="N" horiz-adv-x="748" 
d="M710 4q-15 0 -42.5 0.5t-62.5 0.5t-75.5 -1t-82.5 -4q-13 49 -37.5 105.5t-50 104t-47.5 78t-30 26.5q-7 -3 -11.5 -19.5t-7 -40.5t-2.5 -52.5t1 -55.5q1 -20 2.5 -33.5t3 -27.5t3.5 -32t4 -47q-29 1 -89 0t-133 -6q5 46 7 107.5t2 129t-2 137t-5 133.5t-7 118t-8 89
q32 -2 99 -2.5t175 7.5q5 -21 16 -52t24.5 -66.5t28.5 -71t29.5 -64t27 -46.5t20.5 -19q13 -1 24 35.5t10 94.5q0 21 -0.5 41t-1.5 41.5t-2.5 46t-4.5 55.5q17 -1 42 -1.5t55 -0.5t62 0.5t61 3.5q-1 -33 -3 -105.5t-3 -169t1.5 -210t9.5 -227.5z" />
    <glyph glyph-name="O" unicode="O" 
d="M662 282q-1 -46 -6 -86t-18 -73t-34 -58t-54 -41q-69 -35 -152 -43t-167 9q-51 11 -87 34.5t-58.5 57t-34.5 74.5t-15 86q-1 14 -2 53.5t0.5 88.5t5.5 99t14 85q9 34 32.5 63t56.5 51.5t74.5 36.5t86.5 17q46 3 82.5 1.5t69.5 -10.5t63.5 -25.5t64.5 -43.5
q38 -30 55.5 -76.5t23 -99t3 -105.5t-3.5 -95zM433 477q-1 23 -7 42.5t-17.5 34t-28.5 22.5t-40 6q-34 -3 -54 -33.5t-23 -77.5q-2 -23 -3 -67t0.5 -90.5t7.5 -86.5t19 -55q16 -19 38.5 -25t44.5 -2t39.5 17.5t22.5 34.5q6 26 7.5 65.5t0.5 80.5t-3.5 77.5t-3.5 56.5z" />
    <glyph glyph-name="P" unicode="P" horiz-adv-x="674" 
d="M637 456q-2 -88 -29.5 -148.5t-75.5 -86.5q-34 -17 -84.5 -27t-99.5 -9q-25 1 -40 -7t-23.5 -21.5t-11 -29.5t-2.5 -32v-50.5t1 -48.5q-15 0 -39 0.5t-53.5 0.5t-61.5 -1t-64 -3q3 44 4.5 105t1.5 128.5t-1 138.5t-3.5 135.5t-5.5 118t-8 87.5q49 -1 110.5 0t127.5 7
q36 3 73.5 4.5t73 -1.5t68.5 -11.5t61 -24.5q46 -26 64.5 -82.5t16.5 -141.5zM413 383q9 19 13 41t2 44t-10.5 41t-23.5 31q-13 11 -30 15.5t-34 4t-31 -5.5t-21 -14q-10 -12 -15.5 -38t-6.5 -54.5t3.5 -54t13.5 -36.5q9 -10 28 -15.5t40 -3t41 13t31 31.5z" />
    <glyph glyph-name="Q" unicode="Q" horiz-adv-x="646" 
d="M624 490q5 -52 3 -105t-3 -98t-6 -84t-15.5 -71.5t-28.5 -57.5t-45 -43q-14 -9 -26.5 -21t-12.5 -30q0 -5 3 -14t8 -19.5t10.5 -22t11.5 -21.5q-57 4 -104.5 2t-68.5 -3q-7 20 -15 39t-27 30q-24 14 -46.5 16.5t-48.5 7.5q-49 11 -83 34.5t-55.5 57t-33 74.5t-14.5 86
q-1 14 -2 53.5t0 88.5t5.5 99t13.5 85q9 34 31 63t54 51.5t71 36.5t82 17q44 3 82.5 1.5t73 -10.5t65 -27t59.5 -47t43 -72.5t19 -95.5zM410 482q-1 23 -7.5 42.5t-18.5 34t-29 22.5t-39 6q-32 -3 -53.5 -33.5t-24.5 -77.5q-1 -15 -2 -42t-1 -59t1.5 -65.5t5.5 -62.5
t11 -50.5t17 -29.5q17 -13 38 -16.5t40.5 1t34.5 17t21 33.5q5 15 6.5 53.5t2 82t-0.5 84t-2 60.5z" />
    <glyph glyph-name="R" unicode="R" horiz-adv-x="676" 
d="M653 1q-25 1 -80 0.5t-136 -5.5q3 51 0 84t-7.5 52.5t-9.5 28t-8 10.5q-13 12 -33 18t-40.5 5.5t-38 -6.5t-25.5 -18q-4 -6 -6.5 -26t-3.5 -46.5t-1 -54v-48.5q-15 0 -38 0.5t-50.5 0.5t-59 -0.5t-62.5 -2.5q3 44 4 105t1.5 128.5t-1 138.5t-3.5 135.5t-5.5 118
t-7.5 87.5q49 -1 110.5 0t127.5 7q36 3 73.5 3t73.5 -4t68.5 -12t59.5 -20q49 -23 67.5 -81t14.5 -143q-3 -57 -30.5 -90.5t-90.5 -50.5v-13q15 -1 32.5 -8t34.5 -18t31 -24.5t21 -28.5q12 -24 17 -52.5t5.5 -58t-1.5 -58t-3 -53.5zM413 403q19 38 15 80t-34 67
q-13 11 -30.5 15.5t-34.5 4t-31 -5.5t-21 -14q-10 -12 -14.5 -36.5t-4.5 -51t5 -50.5t15 -35q9 -10 27 -15.5t38.5 -3t39.5 13t30 31.5z" />
    <glyph glyph-name="S" unicode="S" horiz-adv-x="662" 
d="M631 310q8 -19 11 -51t-2 -69t-20 -73.5t-43 -63.5q-57 -55 -152.5 -67t-219.5 8q-52 8 -85 34t-51.5 61.5t-24.5 75.5t-4 76q14 -1 37 -2t50.5 -1.5t58 0t60.5 1.5q2 -28 9 -53.5t25 -36.5q12 -7 28.5 -11t34.5 -4t34.5 6t27.5 19q15 18 17.5 35t-8 32t-32.5 26.5
t-55 16.5q-31 5 -65.5 11t-67.5 16.5t-64 26.5t-56 40q-16 15 -25 45t-11 66t3.5 73t18.5 66q23 52 80.5 82t148.5 40q37 4 74.5 2.5t73 -7.5t66 -16.5t53.5 -25.5q41 -26 58 -83.5t15 -142.5q-23 2 -75 3t-137 -2q2 40 -11.5 73t-42.5 40q-13 3 -32 2.5t-36 -8.5t-28.5 -24
t-10.5 -43q1 -26 14.5 -41t33 -23t42.5 -11.5t43 -6.5q16 -3 31.5 -5.5t31.5 -4.5q31 -5 59.5 -13t52 -20t41 -28.5t26.5 -39.5z" />
    <glyph glyph-name="T" unicode="T" horiz-adv-x="596" 
d="M567 713q-2 -23 -4.5 -67t-2.5 -105q-18 0 -38.5 -1t-38.5 -3.5t-32.5 -7t-21.5 -11.5q-9 -9 -15 -39.5t-10 -74.5t-5 -96.5t0 -106.5t3.5 -104.5t5.5 -89.5q-18 1 -43.5 1.5t-55.5 0.5t-61.5 -1.5t-60.5 -4.5q6 92 9 176.5t1.5 153.5t-7 117.5t-16.5 67.5q-4 8 -19 13
t-35 7t-44 1.5t-46 -2.5q2 15 3.5 36t3 44.5t1.5 47.5t-2 45q26 -1 76.5 -2t120 -1t155 1t179.5 5z" />
    <glyph glyph-name="U" unicode="U" horiz-adv-x="706" 
d="M660 277q4 -92 -19 -148.5t-64 -84.5q-25 -18 -51 -29t-54 -17.5t-60 -9t-70 -2.5q-85 0 -153 24.5t-112 91.5q-13 20 -19 61.5t-8 95t-1.5 115t2 121t2 113.5t-2.5 92q74 -4 134.5 -4t90.5 1q-3 -35 -4 -78t-1.5 -87.5t0 -88.5t2 -81.5t3 -66.5t2.5 -44q5 -54 28 -78.5
t53 -24.5q17 0 30.5 11t23 29t14.5 40.5t6 45.5q1 13 1.5 41t1 65.5t0.5 80t-0.5 84.5t-2 80t-4.5 66q58 -2 116 -3t108 4q1 -66 1.5 -121.5t1.5 -105t2.5 -95.5t2.5 -93z" />
    <glyph glyph-name="V" unicode="V" 
d="M686 704q-6 -24 -17.5 -67.5t-25 -100t-28.5 -123t-29.5 -137.5t-27 -143.5t-20.5 -140.5q-21 1 -59.5 3.5t-89.5 3.5t-110.5 0t-121.5 -5q-2 22 -8.5 71t-23 132t-45.5 205.5t-74 291.5q17 -1 43.5 -1.5t59 -0.5t68.5 1t70 3q3 -51 10.5 -105.5t17 -105.5t20.5 -96.5
t22 -80t21 -54t18 -19.5t17.5 22.5t19.5 59.5t19 84.5t16 99.5t11 103.5t3 95.5q14 -1 38.5 -1.5t56.5 -0.5t70 1.5t79 4.5z" />
    <glyph glyph-name="W" unicode="W" horiz-adv-x="1002" 
d="M1001 706q-6 -24 -17 -66t-24.5 -97t-28.5 -121t-29.5 -137t-28 -144.5t-24.5 -145.5q-15 1 -40 3.5t-56 4t-65 1.5t-68 -3q-9 43 -23.5 90.5t-30.5 87.5t-31 66t-25 26q-8 0 -18.5 -15.5t-21.5 -40.5t-22.5 -56t-21.5 -62.5t-18 -59.5t-12 -47q-95 8 -159.5 7.5
t-93.5 -2.5q-2 35 -10 88t-18.5 116.5t-24.5 133.5t-28.5 137.5t-29 129t-28.5 108.5q89 -5 156 -3t95 3q3 -68 9 -126.5t14 -102t18 -68.5t20 -26q13 -2 26.5 15.5t25 40.5t20 45.5t11.5 31.5q14 49 27.5 101t24.5 90h18h26.5h30h28.5q4 -19 12 -48.5t18.5 -63t22 -67
t23 -60.5t21.5 -43.5t17 -16.5q14 1 26.5 22.5t24 59.5t21.5 92t18 120q23 -1 86 -2t157 4z" />
    <glyph glyph-name="X" unicode="X" horiz-adv-x="770" 
d="M731 715q-19 -33 -43 -77.5t-48.5 -95t-46 -103.5t-36.5 -104q24 -54 50 -110q23 -48 52 -106t61 -113q-19 0 -45 0.5t-55.5 0.5t-59 -1t-56.5 -3q-12 38 -27.5 69t-32 53t-31.5 34t-27 11q-9 -1 -20 -13.5t-23.5 -35t-25.5 -53t-25 -66.5q-13 1 -36 2t-52 1.5t-63 0.5
t-69 -2q41 81 77 164t58 164q-12 41 -33 92t-45 102t-48.5 98t-43.5 81q33 -1 92.5 0.5t138.5 7.5q33 -102 67.5 -153t49.5 -51q12 0 28.5 20t33.5 50t33 66.5t27 70.5q14 0 37.5 -1t53.5 -1h64.5t68.5 1z" />
    <glyph glyph-name="Y" unicode="Y" 
d="M683 705q-10 -22 -26.5 -57.5t-35.5 -79t-40.5 -92.5t-41.5 -98t-38 -95.5t-31 -85.5q-2 -18 -2 -46q0 -24 1.5 -61.5t6.5 -92.5q-27 1 -84 1.5t-149 -3.5q2 25 4.5 73t0.5 117q-40 98 -80 192q-17 40 -36.5 83.5t-39.5 85.5t-40 81.5t-39 72.5q20 -1 47.5 -1.5t59.5 0
t66 2.5t66 5q13 -67 27.5 -117t29 -82.5t26.5 -48t19 -14.5q6 0 17.5 18.5t26 53t29 82.5t25.5 107q15 0 41 -1t57 -1t65.5 0.5t67.5 1.5z" />
    <glyph glyph-name="Z" unicode="Z" horiz-adv-x="635" 
d="M588 174q-2 -27 -4 -73t2 -100q-76 3 -155 3.5t-150 0t-128.5 -1.5t-90.5 -2q26 46 51.5 101.5t47.5 112.5t40 111.5t30 97.5t16.5 71t-0.5 32q-6 6 -27 9.5t-48.5 4.5t-59 0t-58.5 -3q4 63 3 107.5t-3 68.5q62 -6 138.5 -7.5t150.5 -0.5t137.5 3t99.5 3
q-21 -40 -43.5 -94t-44.5 -112t-41 -114.5t-33 -102t-20 -75t-2 -32.5q11 -7 34 -10.5t50.5 -4t56.5 1.5t51 5z" />
    <glyph glyph-name="bracketleft" unicode="[" horiz-adv-x="366" 
d="M330 731q-2 -21 -4 -61.5t1 -100.5q-22 -1 -48 -4t-40 -9q-8 -3 -14 -20t-10.5 -43.5t-7 -61.5t-3.5 -75q-1 -42 -0.5 -77.5t4.5 -62.5t12 -43t23 -19q7 -1 18 -2t23 -2t23.5 -1h20.5q-2 -23 -4 -64t2 -94q-121 5 -189.5 4t-96.5 -3q1 25 3.5 73.5t4.5 111.5t3.5 136
t2 146t-1 143t-6.5 126q13 0 34.5 -0.5t55.5 -0.5t82 1t112 3z" />
    <glyph glyph-name="backslash" unicode="\" horiz-adv-x="580" 
d="M562 6q-19 0 -45 0.5t-55 0.5t-59 -1t-56 -3q-22 70 -49.5 143.5t-57.5 139.5q-60 133 -112 241.5t-91 177.5q24 -2 48.5 -2t52 1t59.5 3.5t71 5.5q20 -65 49.5 -152t67.5 -182t83 -191.5t94 -181.5z" />
    <glyph glyph-name="bracketright" unicode="]" horiz-adv-x="366" 
d="M42 -9q2 21 4 61t-1 100q23 2 49 5t40 9q8 3 14 20t10.5 43.5t7 61t3.5 74.5q1 42 0.5 78t-4.5 63t-12 43t-23 19q-7 1 -18 2t-23 1.5l-24 1t-21 0.5q2 23 4 64t-2 94q121 -5 189.5 -4t97.5 3q-1 -25 -3.5 -73.5t-4.5 -111.5t-3.5 -136t-2 -146t1 -142.5t5.5 -126.5
q-13 0 -34.5 0.5t-55.5 0t-81.5 -1.5t-112.5 -2z" />
    <glyph glyph-name="asciicircum" unicode="^" horiz-adv-x="618" 
d="M602 468q-45 0 -99 -1.5t-95 -4.5q-12 26 -22.5 49t-19.5 40q-14 26 -28.5 38t-25.5 12q-10 0 -23 -12.5t-26.5 -32.5t-25.5 -45t-21 -51q-23 2 -74 3.5t-113 -1.5q16 25 36 57.5t39 67.5t35.5 69t25.5 62q29 -2 65.5 -3t75.5 -1t78.5 2t73.5 5q11 -22 28.5 -55t38 -68.5
t41 -70t36.5 -59.5z" />
    <glyph glyph-name="underscore" unicode="_" horiz-adv-x="476" 
d="M442 161q-2 -23 -4 -62t2 -87q-36 2 -92 1.5t-115 -1.5t-112 -3t-83 -4q3 36 3.5 76t-5.5 78q31 -2 78.5 -3t102.5 -1t113.5 1.5t111.5 4.5z" />
    <glyph glyph-name="grave" unicode="`" horiz-adv-x="274" 
d="M9 696q21 -1 44 -2t46 -1.5t44.5 -0.5h39.5q4 -26 10 -58.5t13 -66t14.5 -65.5t14.5 -59q-28 0 -59.5 -0.5t-59.5 -2.5q-10 33 -22 64.5t-26 62.5q-14 32 -29 63.5t-30 65.5z" />
    <glyph glyph-name="a" unicode="a" horiz-adv-x="572" 
d="M538 379q0 -37 -2.5 -91t-4.5 -112q-1 -49 0 -97.5t6 -88.5q-56 5 -111.5 1.5t-111.5 -6.5q-34 -2 -66.5 -4t-62 -2t-53.5 3.5t-42 12.5q-22 12 -37.5 35.5t-23 52t-6 59.5t12.5 59q14 36 36 55t49 28.5t58 13t63 9.5q53 9 86 22.5t35 50.5q1 15 -5.5 25t-17 17t-23 10
t-22.5 3q-11 0 -23.5 -4.5t-24 -14t-19.5 -25.5t-9 -40q-60 5 -104.5 2.5t-67.5 -3.5q4 95 67 143.5t197 48.5q68 0 112 -16t69.5 -40t35.5 -52.5t10 -54.5zM351 121q14 23 12 48.5t-27 36.5q-11 5 -33 6t-44 -5.5t-37.5 -22.5t-14.5 -45q1 -27 21 -38t45 -11t48 9t30 22z
" />
    <glyph glyph-name="b" unicode="b" horiz-adv-x="588" 
d="M565 192q-1 -40 -13 -74.5t-32 -59.5t-47 -40t-59 -17q-35 -2 -80 -1t-94.5 2t-100.5 1t-99 -3q10 117 13 230.5t2.5 209t-2.5 166.5t-4 104q25 -3 74 -6t119 -2q-3 -26 -4 -56.5t-0.5 -57t3.5 -46t8 -24.5q11 -10 25 -15.5t29 -7t28.5 -0.5t23.5 2q30 2 62.5 -1
t62.5 -22q28 -18 45.5 -48t27 -67.5t12 -80.5t0.5 -86zM379 315q-9 23 -30.5 35t-44.5 14t-44.5 -6.5t-30.5 -27.5q-6 -12 -9.5 -35.5t-3.5 -49.5t4.5 -51.5t13.5 -40.5q10 -17 27 -24t36.5 -5.5t38 10.5t31.5 23t19.5 33t7.5 40.5t-3 43.5t-12 41z" />
    <glyph glyph-name="c" unicode="c" horiz-adv-x="576" 
d="M556 315q-13 1 -34.5 1.5t-47 0.5h-53.5t-54 -1q-1 14 -5.5 30t-13.5 29.5t-22.5 23t-33.5 9.5q-15 1 -27.5 -4.5t-22 -14.5t-16 -20t-8.5 -21q-3 -15 -5 -36.5t-3 -44.5t-0.5 -45t3.5 -39q3 -21 11.5 -35.5t19.5 -24t23.5 -13.5t24.5 -4t24 7t21.5 19t16 28t7.5 34
q26 -2 54 -2.5t55 0t49.5 1t35.5 1.5q-1 -27 -6.5 -52.5t-15.5 -48t-23 -40t-29 -27.5q-21 -14 -42 -23.5t-44 -15.5t-49 -8.5t-58 -2.5q-73 0 -132 20t-87 57q-18 23 -28 58t-14.5 73t-3.5 76t6 68t19.5 67.5t44 69.5t76 54t116.5 22q61 0 116.5 -11.5t87.5 -35.5
q20 -14 32.5 -34t20.5 -44t11 -50t3 -51z" />
    <glyph glyph-name="d" unicode="d" horiz-adv-x="572" 
d="M541 -7q-48 3 -98 3t-98.5 -1t-93 -2t-79.5 1q-65 4 -106 57.5t-45 136.5q-2 44 0.5 88t12 82.5t27.5 69.5t46 49q29 19 61.5 22t63.5 0q9 -1 23.5 -2.5t29 -1.5t28 2t21.5 8q6 4 9 26t4.5 53t0.5 64.5t-4 60.5q70 -1 119 2t74 6q-1 -33 -4.5 -105.5t-5 -170t1 -213
t12.5 -235.5zM355 336q-10 22 -31 29t-43.5 2.5t-42.5 -19t-28 -35.5q-7 -19 -11 -42t-3 -46t7 -43.5t18 -34.5q11 -12 29.5 -20t38 -9.5t37 4.5t25.5 20q9 16 12.5 43.5t3.5 57t-3 55.5t-9 38z" />
    <glyph glyph-name="e" unicode="e" horiz-adv-x="582" 
d="M557 216q-40 0 -83 -0.5t-82.5 -2t-73 -4t-54.5 -5.5q-15 -2 -24.5 -8.5t-15 -14.5t-7.5 -17t-2 -17q0 -13 7 -25t18.5 -20.5t26.5 -13.5t30 -5q38 2 53.5 25.5t17.5 55.5q27 -1 55 -1.5t52.5 0t45 1t33.5 1.5q3 -42 -12.5 -82t-54.5 -68q-16 -12 -39.5 -21t-51 -16
t-58 -10.5t-60.5 -3.5q-70 0 -117 21.5t-75.5 53t-42 68t-16.5 66.5q-3 27 -3.5 64.5t4 76.5t14.5 75t28 58q15 19 37 36.5t50 31.5t60.5 22.5t67.5 8.5q64 0 113 -11.5t87 -44.5q37 -32 58.5 -101.5t13.5 -172.5zM368 322q3 21 -2 38.5t-14.5 30.5t-23 20.5t-28.5 7.5
q-29 0 -52 -25.5t-23 -67.5q0 -9 10.5 -15t26 -8.5t33.5 -2.5t34 2.5t27 7.5t12 12z" />
    <glyph glyph-name="f" unicode="f" horiz-adv-x="566" 
d="M551 465q-23 1 -71 1t-114 1q1 60 -18 94.5t-63 31.5q-26 -2 -44 -19.5t-21 -61.5q-1 -15 -0.5 -37t3 -43t8.5 -37.5t15 -21.5q12 -6 42.5 -9t71 -4t87 -0.5t89.5 1.5q-2 -23 -4 -60t1 -73q-38 2 -85.5 1.5t-92 -3.5t-79 -9t-45.5 -17q-9 -9 -14 -35.5t-3 -62.5
q1 -25 3.5 -52t4.5 -53q-28 2 -78.5 2t-104.5 -3q3 117 3 221t-5 210q-3 71 4 126t32.5 92.5t75.5 56.5t134 19q64 0 115 -11t94 -37q29 -18 44 -74t15 -134z" />
    <glyph glyph-name="g" unicode="g" horiz-adv-x="572" 
d="M538 31q6 -78 -30.5 -134t-99.5 -83q-20 -9 -48 -14t-58 -6.5t-59 0t-53 7.5q-86 19 -121.5 64t-37.5 118q29 -4 76.5 -6t105.5 2q1 -28 12 -45t25 -25q15 -8 31 -8.5t31 5.5t27 17.5t19 27.5q10 23 6 46t-9 43q-21 -7 -58.5 -10t-79 1.5t-81 18t-64.5 39.5
q-35 37 -45 107t4 158q6 39 26.5 69.5t51 52t69.5 33.5t81 14q35 2 69.5 -1.5t69.5 -8.5t70 -8t70 0q-2 -49 -3.5 -117t-1.5 -136t1 -127.5t4 -93.5zM365 271q1 68 -18.5 97t-48.5 29q-25 0 -43.5 -10t-31 -27.5t-19 -40t-6.5 -46.5q0 -23 7 -46t20 -41t31 -28.5t40 -7.5
q41 5 54.5 33t14.5 88z" />
    <glyph glyph-name="h" unicode="h" horiz-adv-x="588" 
d="M558 -3q-25 2 -75 2t-123 -5q1 35 2.5 73.5t1.5 77.5t-1.5 77t-7.5 71q-5 32 -21.5 47.5t-35 14.5t-35.5 -17t-23 -46q-5 -27 -7 -63.5t-2.5 -76t0.5 -79.5t2 -74q-23 1 -71 1.5t-129 -4.5q2 33 5 106t5 171t1 213t-7 231q26 -2 77.5 -4t119.5 1q-3 -22 -5.5 -50.5
t-2.5 -57t3.5 -53.5t11.5 -41q12 -21 38.5 -26.5t59.5 -0.5q19 2 46.5 7.5t45.5 3.5q16 -2 36 -12.5t38.5 -29.5t32.5 -47.5t17 -67.5q4 -42 3.5 -85t-1.5 -85.5t-1.5 -85.5t2.5 -86z" />
    <glyph glyph-name="i" unicode="i" horiz-adv-x="282" 
d="M247 666q0 -34 -25.5 -51t-81.5 -17q-57 0 -82.5 17t-25.5 51t25.5 51t82.5 17q56 0 81.5 -17t25.5 -51zM234 -9q-14 1 -35 2t-45.5 2t-51 0.5t-52.5 -2.5q3 28 6.5 82t5 124.5t0 151.5t-9.5 162q26 -1 75 -1t106 5q-3 -21 -5.5 -61.5t-3.5 -104.5t1 -152.5t9 -207.5z
" />
    <glyph glyph-name="j" unicode="j" horiz-adv-x="284" 
d="M248 666q0 -34 -25.5 -51t-82.5 -17q-56 0 -81.5 17t-25.5 51t25.5 51t81.5 17q57 0 82.5 -17t25.5 -51zM239 164q3 -96 0.5 -176t-16.5 -128q-10 -36 -33.5 -60.5t-55 -40t-68 -22t-73.5 -6.5q-64 0 -108.5 11t-77.5 33q-32 22 -56 56t-26 89q26 -2 75.5 -4t112.5 2
q9 -81 83 -77q14 1 26.5 7t23 19.5t17 35.5t7.5 54v47t-1 85.5t-2.5 108t-3.5 115.5t-4 107.5t-5 83.5q26 -2 74.5 -3.5t108.5 5.5q-4 -75 -1.5 -164.5t3.5 -177.5z" />
    <glyph glyph-name="k" unicode="k" horiz-adv-x="582" 
d="M564 -5q-78 2 -131.5 -1t-73.5 -4q-11 29 -25.5 62t-29.5 60.5t-29 44.5t-23 14q-15 -4 -21.5 -26t-8 -50.5t0.5 -56.5t4 -45q-65 5 -114.5 5.5t-74.5 -0.5q3 71 3.5 146t0.5 148t-1 141t-2.5 125t-3 99.5t-2.5 65.5q37 -2 64 -3.5t49.5 -2t42 0.5t40.5 2
q-2 -31 -3.5 -70t-1.5 -78.5t1 -77.5t3.5 -67t6 -47t7.5 -18q10 0 24.5 13t29.5 34.5t30 49t26 56.5q65 -3 116 -3h78q-44 -77 -68.5 -124t-35.5 -73q-13 -30 -16 -43q-1 -12 13 -45t35 -74t46 -83.5t44 -74.5z" />
    <glyph glyph-name="l" unicode="l" horiz-adv-x="276" 
d="M237 0q-27 2 -78.5 2.5t-121.5 -7.5q1 23 2.5 65.5t3 98.5t2.5 123t0.5 139.5t-2.5 148t-6 147.5q29 -1 84 -1t115 3q-2 -32 -4.5 -86t-4 -119.5t-2 -138t0.5 -141.5t3.5 -130t7.5 -104z" />
    <glyph glyph-name="m" unicode="m" horiz-adv-x="922" 
d="M890 -4q-25 2 -75 2.5t-123 -4.5q2 36 3 77t1 82q1 48 0 91t-6 74q-5 35 -22.5 49.5t-37.5 12.5t-37 -19.5t-21 -46.5t-6 -67.5t-2.5 -80.5t0.5 -84.5t2 -79.5q-25 2 -75 2.5t-125 -5.5q2 34 2.5 71t1.5 74q0 45 -1.5 85.5t-5.5 72.5q-5 38 -22 56.5t-36.5 18
t-36.5 -19.5t-23 -55q-4 -29 -6 -67t-2.5 -79t0.5 -82t2 -76q-23 2 -70.5 2t-128.5 -4q2 29 5.5 86t5 129t0.5 151.5t-7 151.5q31 -3 71 -4.5t83.5 -1.5t87.5 1t83 3q35 2 87.5 7t109.5 10q57 4 109 5t87 -6q16 -3 36.5 -14t39 -31.5t32.5 -50.5t17 -71q2 -32 2 -87v-114
q-1 -47 -1 -90.5t2 -73.5z" />
    <glyph glyph-name="n" unicode="n" horiz-adv-x="596" 
d="M563 -4q-26 2 -75.5 2.5t-122.5 -4.5q1 34 2.5 72t2.5 76q1 45 0.5 87t-5.5 74q-4 27 -21 46.5t-38 24t-39.5 -10t-25.5 -56.5q-6 -32 -7.5 -74t-0.5 -88q1 -38 2 -75.5t3 -71.5q-23 2 -71 2t-129 -4q2 29 5.5 86t5.5 128.5t1 151t-8 151.5q57 -8 106.5 -5t95.5 9
q48 6 95 11.5t96 -0.5q16 -2 36 -13t38.5 -31.5t32.5 -51t18 -71.5q2 -32 2 -87t-1 -114v-90.5t2 -73.5z" />
    <glyph glyph-name="o" unicode="o" horiz-adv-x="574" 
d="M551 330q1 -10 1.5 -36t-1 -58.5t-5.5 -67t-12 -60.5q-7 -24 -26.5 -46.5t-47.5 -40.5t-62.5 -29.5t-70.5 -13.5q-37 -2 -68 -0.5t-59 8t-54 19t-53 32.5q-25 18 -39.5 44.5t-21.5 57.5t-8.5 65.5t-0.5 69.5q1 34 8 69.5t20 67t32.5 55.5t44.5 36q57 26 123.5 32
t134.5 -7q41 -7 71 -26.5t50 -46.5t30.5 -59t13.5 -65zM371 189q2 17 1 47.5t-5.5 62.5t-13 58.5t-22.5 34.5q-16 9 -34 10.5t-33.5 -4t-28 -17t-17.5 -29.5q-4 -14 -6 -35.5t-2.5 -45t0.5 -46t2 -39.5q2 -16 8 -32t17 -28.5t26.5 -19.5t34.5 -6q15 1 27.5 9t22 20.5t16 28
t7.5 31.5z" />
    <glyph glyph-name="p" unicode="p" horiz-adv-x="576" 
d="M547 265q-2 -88 -27 -149.5t-66 -90.5q-14 -10 -36.5 -13.5t-47 -4t-48.5 0.5t-42 -1q-12 -1 -28.5 -5.5t-24.5 -18.5q-7 -14 -10.5 -39.5t-4 -54.5t1 -56.5t2.5 -44.5h-73t-100 -2q3 38 4 98t1 130t-1 144t-2.5 142t-4.5 123.5t-7 87.5q43 -1 89.5 -3.5t103.5 2.5
q32 3 62 6.5t59 4t57.5 -3t55.5 -15.5q23 -10 39.5 -32t27.5 -53.5t16 -70.5t4 -81zM365 181q9 21 12.5 47t1.5 51.5t-10 48t-22 36.5q-13 14 -31 19.5t-35.5 5t-32.5 -7t-22 -17.5q-9 -13 -14 -44t-5.5 -64.5t3 -63t11.5 -41.5q9 -13 29 -19.5t42 -3.5t42.5 15.5t30.5 37.5
z" />
    <glyph glyph-name="q" unicode="q" horiz-adv-x="580" 
d="M540 516q-9 -117 -12.5 -232t-3 -213t3 -171t3.5 -107q-27 4 -74.5 6t-112.5 -6q3 27 6 60t4.5 62.5t0.5 51t-6 25.5q-17 12 -46 12t-63 -1.5t-69 1.5t-65 22q-28 18 -46 49t-27 70t-11.5 83.5t-0.5 89.5q3 85 45 134t105 63q36 7 78 4t89 -7.5t98 -5.5t104 10zM357 162
q6 13 9.5 40.5t3.5 58.5t-4.5 60t-13.5 45q-9 15 -26 19.5t-36 1.5t-37 -11.5t-28 -19.5q-12 -14 -20.5 -34.5t-11.5 -43.5t-1 -47t11 -45q8 -21 29 -35.5t45 -19.5t46.5 2t33.5 29z" />
    <glyph glyph-name="r" unicode="r" horiz-adv-x="580" 
d="M562 267q-25 2 -74 4t-113 -3q0 83 -21 118t-54 33q-23 -2 -46 -20t-28 -62q-2 -17 -3.5 -57.5t-1.5 -90t1.5 -101.5t4.5 -93q-24 1 -70.5 1.5t-111.5 -4.5q2 52 3 124t0.5 146t-3 141t-7.5 108q70 1 129 7t123 12t120 -4.5t99 -36.5q29 -18 42 -75.5t11 -146.5z" />
    <glyph glyph-name="s" unicode="s" horiz-adv-x="588" 
d="M560 360q-29 2 -81 3.5t-105 -1.5q-7 31 -30 50t-49 19q-28 0 -49.5 -18.5t-21.5 -44.5q0 -29 21 -37.5t66 -15.5q30 -5 61.5 -8t61.5 -9q29 -6 53 -17t42 -31q14 -14 21 -37.5t8 -50.5t-4 -54.5t-16 -50.5q-10 -20 -33 -36.5t-53.5 -28t-67 -18t-74.5 -6.5q-66 0 -118 9
t-95 36q-16 10 -27 21t-18.5 26.5t-11 36t-3.5 50.5q26 -2 74.5 -3.5t115.5 2.5q5 -35 26 -52t44 -17q10 0 23.5 3t26 11t21 21.5t6.5 35.5q-2 20 -25.5 31t-63.5 21q-31 8 -68 13.5t-72 12.5q-59 11 -83 45t-26 96q-1 29 10.5 60.5t40.5 58.5t78.5 44.5t122.5 17.5
q72 0 122 -11t82.5 -34t48.5 -58.5t19 -84.5z" />
    <glyph glyph-name="t" unicode="t" horiz-adv-x="588" 
d="M565 286q0 -39 0.5 -78t-7.5 -77q-7 -35 -24 -63.5t-55 -51.5q-21 -13 -42 -20.5t-44 -11.5t-49.5 -5.5t-59.5 -1.5q-36 0 -72.5 7.5t-68 23t-55 41t-34.5 61.5q-14 48 -14 117t5 151q5 76 9 154.5t0 152.5q60 -8 105 -6.5t72 4.5q-3 -21 -4 -43.5t0.5 -42.5t6.5 -36.5
t16 -24.5t33 -12t49.5 -6t59 -1t61.5 2t57 3t45 3q-1 -12 -2 -29.5t-1.5 -36t-0.5 -37.5t1 -36q-33 2 -82.5 2t-96 -3t-82.5 -8t-42 -13q-10 -13 -15.5 -30t-7.5 -36.5t-1.5 -40t0.5 -39.5q1 -25 8 -46.5t17.5 -37.5t24 -24.5t26.5 -8.5q22 0 40.5 19t26.5 49q7 23 6 54
t-1 60q24 -2 52 -2t54 0.5t48.5 2z" />
    <glyph glyph-name="u" unicode="u" horiz-adv-x="590" 
d="M554 506q1 -47 1 -84t-1 -71.5t-3 -70t-4 -77.5q-1 -32 -2 -57.5t-1.5 -48t0.5 -44t2 -45.5q-42 0 -83 -3.5t-80 -7.5t-74.5 -7.5t-66.5 -3.5q-71 0 -112.5 21.5t-64.5 59.5q-10 18 -16 64.5t-8 108t-1 131.5t3 136q60 -2 109 -2h75q-3 -39 -3.5 -86t0 -91.5t2.5 -80
t4 -52.5q2 -19 10.5 -37.5t21 -32.5t29 -20t35.5 0q26 9 35 31t11 57q0 14 0.5 52t-0.5 84t-2.5 92.5t-4.5 79.5q48 -2 97.5 0t91.5 5z" />
    <glyph glyph-name="v" unicode="v" horiz-adv-x="602" 
d="M584 516q-15 -48 -46.5 -178t-63.5 -345q-29 1 -107 2t-213 -1q-3 17 -10.5 53.5t-23.5 98t-40.5 151t-62.5 212.5q29 -1 80 -1t111 3q5 -60 17.5 -122.5t27.5 -114.5t30.5 -84.5t26.5 -32.5t25 36t27 90t21.5 116.5t7.5 114.5q26 -1 76.5 -1.5t116.5 3.5z" />
    <glyph glyph-name="w" unicode="w" horiz-adv-x="872" 
d="M855 521q-11 -35 -24 -80.5t-26.5 -95t-25.5 -100t-22.5 -97t-17.5 -86t-9 -66.5q-27 1 -79 1.5t-132 -5.5q-6 23 -16.5 59t-23.5 69.5t-26 58t-23 24.5q-8 0 -19.5 -21.5t-23.5 -53t-22 -68t-16 -67.5q-29 2 -58 2.5t-54.5 0.5t-47 -0.5t-35.5 -0.5q-15 72 -35 151.5
t-40 152t-37 131.5t-25 89q75 -3 122 -3t69 2q5 -32 14.5 -73t22.5 -77t27.5 -60t27.5 -22q10 1 19.5 16.5t17.5 38t15 49.5t13 52.5t9.5 47t5.5 31.5q30 -2 60 -1.5t48 1.5q3 -10 7.5 -31.5t11.5 -48t15.5 -55t18.5 -52t20.5 -38.5t21.5 -15q9 0 19 20.5t20 54t18 76
t12 85.5q25 -1 78 -0.5t125 4.5z" />
    <glyph glyph-name="x" unicode="x" horiz-adv-x="618" 
d="M602 -2q-45 1 -99 -1t-95 -5q-29 63 -53.5 101t-42.5 39q-10 0 -22.5 -12.5t-24.5 -32.5t-23.5 -45t-20.5 -51q-12 1 -31.5 1.5t-45 1t-55 0t-60.5 -1.5q22 32 47.5 67.5t47.5 71t37 70.5t16 66q0 17 -14.5 48t-36 66.5t-45.5 70.5t-43 60q17 -1 40 -1.5t49 -0.5t52.5 1
t49.5 3q20 -57 42.5 -90.5t40.5 -33.5q7 0 17.5 11t21.5 29t22 40.5t18 44.5q12 -3 32.5 -4t45.5 -0.5t52.5 3t54.5 6.5q-17 -26 -40 -60t-43.5 -69t-34.5 -67.5t-14 -56.5q1 -23 18 -56.5t41.5 -71t51.5 -74.5t47 -67z" />
    <glyph glyph-name="y" unicode="y" horiz-adv-x="594" 
d="M557 511q-6 -126 -9.5 -244t4.5 -225q3 -39 -3 -74.5t-21.5 -64.5t-40 -51.5t-56.5 -34.5q-57 -22 -112 -24.5t-112 5.5q-88 13 -129.5 58t-42.5 112q34 -4 85 -5t108 4q2 -16 7 -30.5t17 -23.5q17 -14 36.5 -16t37.5 4.5t31.5 19t17.5 29.5q6 28 4 50t-9 40
q-24 -4 -60.5 -9t-76.5 -5t-78 10t-64 36q-18 18 -29 41t-16.5 54.5t-7 75t-0.5 101.5q0 16 1.5 36.5t3 42.5t2 43.5t-0.5 39.5q26 -1 53.5 -1.5t53 0t47 1.5t35.5 2q-1 -19 -3 -45t-4 -54t-3 -55t0 -50q2 -31 8.5 -58t17 -45.5t25 -28.5t32.5 -9q17 2 29 13.5t19.5 31
t10.5 45.5t3 56q0 22 -1 49l-2 54t-3 52.5t-4 45.5q29 -2 82.5 -3t116.5 4z" />
    <glyph glyph-name="z" unicode="z" horiz-adv-x="525" 
d="M501 515q-32 -52 -68 -112.5t-64 -114.5t-42 -93.5t-3 -49.5q8 -7 30 -10t47.5 -3t49.5 1.5t36 2.5q-2 -54 -0.5 -88.5t3.5 -54.5q-69 3 -136 3.5t-125.5 0.5t-104.5 -1t-72 -1q21 35 43.5 74t43 78t38.5 75.5t29.5 66t16 50t-1.5 27.5q-7 9 -25 12t-41 3t-48 -2.5
t-46 -5.5q2 22 3.5 58t-1.5 84q53 -3 116.5 -3.5t124.5 0.5t113.5 2t83.5 1z" />
    <glyph glyph-name="braceleft" unicode="{" horiz-adv-x="412" 
d="M376 715q-28 -33 -45.5 -75t-7.5 -92q5 -22 -3.5 -51.5t-24.5 -58t-37 -52.5t-41 -36q21 -15 41 -37.5t35 -49.5t22.5 -57t4.5 -60q-6 -45 6 -78t37 -62q-42 1 -93.5 0.5t-100.5 -3.5q-19 16 -31.5 30.5t-18.5 30.5t-5.5 35.5t7.5 45.5q8 29 1 57.5t-21.5 54.5t-34 49
t-38.5 39q18 19 36 37.5t32 40.5q19 26 29.5 56.5t-0.5 62.5t-10 57.5t9 46.5t21 38.5t27 31.5q22 -1 77.5 -2t126.5 1z" />
    <glyph glyph-name="bar" unicode="|" horiz-adv-x="322" 
d="M277 -1q-16 1 -41.5 2.5t-55.5 2.5t-62.5 0.5t-64.5 -3.5q2 33 5 105.5t4 169t-1.5 208.5t-12.5 224q15 -1 38.5 -1.5t52.5 0t62.5 2t68.5 4.5q-2 -25 -4.5 -77t-3 -138.5t2.5 -209.5t12 -289z" />
    <glyph glyph-name="braceright" unicode="}" horiz-adv-x="412" 
d="M40 4q14 17 26 35.5t19.5 39t10 44t-2.5 48.5q-4 23 4.5 52t24.5 57.5t36.5 52.5t40.5 36q-21 15 -40.5 37.5t-34.5 49.5t-23 56.5t-4 59.5q5 46 -7 79t-37 62q42 -1 93.5 -0.5t101.5 3.5q19 -16 31.5 -30.5t18 -30.5t5 -35.5t-7.5 -45.5q-7 -28 -0.5 -57t21 -55t34 -49
t38.5 -40q-18 -18 -35.5 -37t-32.5 -40q-19 -26 -29.5 -56.5t0.5 -63.5q11 -31 10 -57t-9 -47t-21 -38t-27 -31q-22 1 -77.5 2t-126.5 -1z" />
    <glyph glyph-name="asciitilde" unicode="~" horiz-adv-x="412" 
d="M382 316q-21 -13 -39 -20.5t-36 -8.5t-36.5 5.5t-41.5 21.5q-28 18 -55.5 23.5t-53.5 3t-49.5 -11t-43.5 -18.5q5 39 4.5 80.5t-8.5 78.5q13 9 34.5 20t47 17.5t54 4t55.5 -20.5q24 -16 46.5 -22.5t43.5 -5.5t40 7t37 15q-2 -32 -2.5 -79t3.5 -90z" />
    <glyph glyph-name="uni00A0" unicode="&#xa0;" horiz-adv-x="500" 
 />
    <glyph glyph-name="exclamdown" unicode="&#xa1;" horiz-adv-x="326" 
d="M55 -4q3 27 8.5 79.5t11 119.5t10.5 141.5t7 145.5q23 -1 64.5 -1.5t86.5 2.5q1 -19 2.5 -51t3.5 -73t5.5 -88t7.5 -95t9.5 -95t11.5 -87q-17 1 -43.5 2t-57.5 1.5t-64 0t-63 -1.5zM47 655q0 33 28 50.5t92 17.5q63 0 91.5 -17.5t28.5 -50.5t-28.5 -50.5t-91.5 -17.5
q-64 0 -92 17.5t-28 50.5z" />
    <glyph glyph-name="cent" unicode="&#xa2;" horiz-adv-x="576" 
d="M556 425q-14 1 -35 1.5t-46 1t-52 0t-54 -1.5q-2 12 -6.5 26t-13.5 26t-22.5 20t-33.5 9q-16 0 -29 -6t-22.5 -15t-15.5 -20t-8 -20q-3 -15 -5 -35.5t-3 -42.5t-0.5 -43.5t3.5 -37.5q6 -40 32 -58.5t52 -18.5q27 0 43.5 22.5t21.5 49.5q27 -2 55 -2.5t54 0t48 1.5t36 2
q-2 -63 -22 -103.5t-52 -60.5q-20 -14 -42 -23.5t-55 -17.5q2 -26 3 -48.5t3 -39.5q-27 2 -79 2.5t-122 -7.5q1 15 1.5 37.5t1.5 56.5q-48 14 -77 30t-46 38q-18 23 -27.5 61.5t-13 81t-3 83t3.5 68.5q3 25 12 53t27.5 54.5t49 49t75.5 37.5q-1 25 -1.5 49t-1.5 43
q14 0 36 -0.5t48 -0.5t55.5 1t59.5 2q-1 -17 -1.5 -40t-2.5 -55q39 -10 63.5 -20t40.5 -21q20 -14 32.5 -34t20 -42.5t10.5 -46.5t4 -45z" />
    <glyph glyph-name="sterling" unicode="&#xa3;" horiz-adv-x="635" 
d="M611 459q-20 2 -77.5 3t-134.5 -2q0 44 -12.5 76.5t-41.5 39.5q-15 4 -30.5 3t-28 -8.5t-20 -23t-6.5 -41.5q2 -38 24.5 -64t49.5 -45q60 1 115.5 2.5t100.5 3.5q-2 -22 -4 -59t2 -85q-17 1 -40.5 2t-50 1t-54.5 -1.5t-55 -5.5q-18 -3 -23.5 -15t-4.5 -26t5 -25.5
t5 -12.5q11 -8 44.5 -10.5t75 -2.5t83 2.5t69.5 4.5q-2 -26 -4 -71t2 -98q-72 4 -155 5t-160.5 0t-141.5 -2.5t-99 -2.5q24 45 51 108t59 143q-41 -2 -68.5 -2.5t-44.5 -1.5q3 35 3 75.5t-5 78.5q6 -1 18 -1t49 -2q-40 64 -48 112t6 79q24 55 76.5 95t139.5 49
q74 8 143 -4.5t115 -41.5q41 -26 58 -81t15 -148z" />
    <glyph glyph-name="yen" unicode="&#xa5;" 
d="M663 705q-9 -19 -22.5 -49t-30 -67t-35 -78.5t-36.5 -84.5q10 0 19.5 0.5t19.5 0.5q-3 -22 -5 -60t2 -86q-19 1 -42.5 1h-51.5q-8 -20 -15 -39.5t-13 -37.5q29 1 57.5 1.5t55.5 2.5q-3 -23 -5 -61.5t3 -86.5q-23 1 -51.5 1.5t-61.5 0.5q1 -15 2 -31.5t3 -34.5
q-27 1 -84 1.5t-149 -3.5q1 11 2 27t2 37q-42 -1 -76.5 -2t-57.5 -2q4 35 4.5 74.5t-6.5 77.5q24 -2 57.5 -2.5t72.5 -0.5q-5 12 -12.5 31t-18.5 43q-30 -1 -55 -1.5t-43 -1.5q5 35 5 74t-7 77q8 -1 17 -1.5t20 -0.5q-32 72 -67 145.5t-67 130.5q20 -1 47.5 -1.5t59.5 0
t66 2.5t66 5q13 -67 27.5 -117t29 -82.5t26.5 -48t19 -14.5q6 0 17.5 18.5t26 53t29 82.5t25.5 107q15 0 41 -1t57 -1t65.5 0.5t67.5 1.5z" />
    <glyph glyph-name="section" unicode="&#xa7;" horiz-adv-x="588" 
d="M559 552q-14 1 -34.5 1.5t-45.5 1t-52 0.5t-53 -2q0 22 -8 39t-19.5 28t-25.5 17t-26 6q-13 0 -26 -5t-23 -14t-16 -20.5t-6 -24.5q0 -28 22 -42.5t65 -20.5q26 -3 56 -5.5t60 -8t57 -15.5t46 -29q15 -15 22 -40t4 -53.5t-15 -56.5t-34 -49q23 -19 34.5 -43t14.5 -49
t-2 -49t-16 -44q-10 -18 -32.5 -33.5t-53.5 -27t-67.5 -18t-74.5 -6.5q-66 0 -118 10.5t-96 35.5q-31 17 -45.5 56.5t-13.5 85.5q25 -2 74 -3.5t116 2.5q-2 -19 4.5 -35.5t17.5 -28t24 -18t24 -6.5q9 0 23 3t26.5 11.5t21 22t6.5 34.5q-2 23 -25 37t-49 16q-25 2 -51.5 4.5
t-52.5 6.5t-51 11t-48 19q-30 15 -44.5 40t-16.5 67q-2 24 9.5 50.5t48.5 59.5q-33 25 -44.5 49.5t-13.5 59.5q-1 24 9.5 52t38.5 52.5t76.5 40.5t122.5 16q143 0 208.5 -46.5t67.5 -141.5zM372 360q-1 17 -9.5 29t-20.5 19.5t-25 11.5t-22 4q-8 0 -19.5 -2.5t-22 -8.5
t-18.5 -15t-8 -23q-1 -20 6.5 -33t18.5 -21t23.5 -11.5t21.5 -3.5q10 0 23.5 3.5t25 10t19.5 17t7 23.5z" />
    <glyph glyph-name="dieresis" unicode="&#xa8;" horiz-adv-x="518" 
d="M454 622q0 -42 -20 -60t-58 -18t-57.5 18t-19.5 60t19.5 60t57.5 18t58 -18t20 -60zM204 624q0 -42 -19.5 -60t-57.5 -18t-58 18t-20 60t20 60t58 18t57.5 -18t19.5 -60z" />
    <glyph glyph-name="copyright" unicode="&#xa9;" horiz-adv-x="720" 
d="M698 282q-1 -46 -6.5 -88t-19 -78t-37 -64t-60.5 -46q-74 -37 -160 -45t-173 9q-57 12 -95.5 38t-63.5 62.5t-37 80.5t-16 90q-1 9 -1.5 30.5t-0.5 50t0.5 62.5t2.5 67.5t6 65.5t11 56q11 38 36.5 70t61.5 56t80.5 39t91.5 18t87.5 1t77 -11.5t70.5 -27.5t70 -46
t52.5 -75.5t22 -102t3.5 -111t-3 -101.5zM566 508q-8 25 -25.5 47.5t-45 38.5t-65 24t-84.5 4q-38 -3 -71 -15t-58.5 -30.5t-41.5 -42.5t-21 -52q-3 -18 -7 -46.5t-5 -61.5t1 -68t11 -67t25 -58t43 -42q36 -21 84 -28t94.5 -2.5t84.5 20t54 38.5q21 30 31 76.5t12 96
t-2.5 95t-13.5 73.5zM534 399q-17 0 -52.5 1t-69.5 -1q-1 10 -3.5 21.5t-8.5 21.5t-14.5 16.5t-21.5 6.5q-19 1 -32 -14t-15 -29q-2 -11 -3.5 -26.5t-2 -32t0 -32t1.5 -27.5q5 -30 20.5 -42t30.5 -12q16 0 29.5 18t14.5 44q17 -1 35 -1.5t35.5 -0.5t31.5 1t23 1
q-1 -38 -14 -72t-33 -48q-28 -20 -55.5 -27.5t-69.5 -7.5q-47 0 -84.5 14.5t-55.5 40.5q-11 17 -17.5 41.5t-9.5 51.5t-2.5 54t3.5 48q3 22 12.5 48.5t28.5 50t49 39t75 15.5q39 0 74.5 -8.5t56.5 -25.5q25 -20 34 -56t9 -71z" />
    <glyph glyph-name="ordfeminine" unicode="&#xaa;" horiz-adv-x="476" 
d="M442 161q-2 -23 -4 -62t2 -87q-36 2 -92 1.5t-115 -1.5t-112 -3t-83 -4q3 36 3.5 76t-5.5 78q31 -2 78.5 -3t102.5 -1t113.5 1.5t111.5 4.5zM448 595q0 -34 -2 -82.5t-4 -102.5q-1 -45 -0.5 -89t5.5 -80q-47 5 -93.5 1.5t-93.5 -5.5q-28 -2 -55.5 -4t-52 -2t-44.5 3
t-35 12q-19 11 -31.5 32t-18.5 47t-5 54.5t10 53.5q11 33 29.5 50.5t41 26t48.5 11.5t53 8q22 4 40.5 8.5t31.5 11.5t20.5 18t8.5 28q1 14 -4.5 23.5t-14.5 15.5t-19 8.5t-19 2.5t-19.5 -4t-20 -13t-16 -23.5t-7.5 -35.5q-50 4 -87.5 2t-57.5 -3q4 87 57 130.5t165 43.5
q57 0 94 -14t58 -36t29.5 -48t8.5 -49zM292 360q11 22 9 45t-22 33q-10 4 -28.5 4.5t-36.5 -5.5t-31 -20.5t-12 -40.5q1 -24 17.5 -34t37.5 -10t40.5 8t25.5 20z" />
    <glyph glyph-name="guillemotleft" unicode="&#xab;" horiz-adv-x="788" 
d="M442 626q-19 -25 -43 -58.5t-48 -71t-46 -77.5t-37 -78q24 -41 51 -83q23 -36 52 -79t61 -85q-19 0 -45.5 0.5t-55.5 0.5t-59 -0.5t-56 -2.5q-24 54 -75.5 119.5t-114.5 129.5q36 41 66 81t54.5 77.5t42.5 70t29 57.5q14 0 38 -0.5t54 -1t64 -0.5t68 1zM764 626
q-19 -25 -43 -58.5t-48.5 -71t-46 -77.5t-36.5 -78q24 -41 50 -83q23 -36 52 -79t61 -85q-19 0 -45 0.5t-55.5 0.5t-59 -0.5t-56.5 -2.5q-23 54 -74.5 119.5t-114.5 129.5q36 41 66 81t54.5 77.5t42.5 70t29 57.5q14 0 37.5 -0.5t53.5 -1t64.5 -0.5t68.5 1z" />
    <glyph glyph-name="logicalnot" unicode="&#xac;" horiz-adv-x="610" 
d="M565 119q-46 3 -79 2.5t-50 -2.5q1 29 1 59t-1.5 55t-4.5 43t-8 22q-4 4 -26 6.5t-55 4t-73 1.5t-80 -1t-77 -2.5t-63 -4.5q4 75 4 133t-1 85q218 -16 347.5 -15.5t168.5 2.5q-2 -70 -3 -132.5t-1 -113t0.5 -87t0.5 -55.5z" />
    <glyph glyph-name="registered" unicode="&#xae;" horiz-adv-x="714" 
d="M692 282q-1 -46 -6.5 -88t-19 -78t-37 -64t-60.5 -46q-74 -37 -160 -45t-173 9q-57 12 -95.5 38t-63.5 62.5t-37 80.5t-16 90q0 9 -1 30.5t-1 50t0.5 62.5t2.5 67.5t6 65.5t11 56q11 38 36.5 70t61.5 56t80.5 39t91.5 18t87.5 1t77 -11.5t70.5 -27.5t70 -46t52.5 -75.5
t22 -102t3.5 -111t-3 -101.5zM560 508q-8 25 -25.5 47.5t-45 38.5t-65 24t-84.5 4q-38 -3 -71 -15t-58.5 -30.5t-41.5 -42.5t-21 -52q-3 -18 -7 -46.5t-5 -61.5t1 -68t11 -67t25 -58t43 -42q36 -21 84 -28t94.5 -2.5t84.5 20t54 38.5q21 30 31 76.5t12 96t-2.5 95
t-13.5 73.5zM509 180q-12 1 -38.5 0.5t-66.5 -2.5q2 26 0.5 43t-4 27t-5 14.5t-3.5 5.5q-6 6 -15.5 9t-19.5 3t-18.5 -3.5t-12.5 -9.5q-2 -3 -3.5 -13.5t-2 -24t0 -27.5t0.5 -25q-14 1 -43 1t-59 -2q2 35 2.5 86.5t-0.5 105.5t-3 101.5t-5 73.5q23 0 53 0.5t62 3.5
q35 4 71 0t62 -17q24 -11 33 -41t7 -74q-2 -30 -15 -47t-44 -26v-7q15 -1 32.5 -13t25.5 -27q12 -25 11 -57t-2 -58zM392 387q10 20 8 41.5t-17 34.5q-13 11 -31 10t-25 -10q-5 -6 -7 -19t-2 -26.5t2.5 -25.5t6.5 -18q4 -5 13 -8t18.5 -2t19 6.5t14.5 16.5z" />
    <glyph glyph-name="degree" unicode="&#xb0;" horiz-adv-x="436" 
d="M410 587q1 -8 1 -27.5t-1 -43.5t-4 -49.5t-9 -44.5q-5 -17 -19 -33t-34 -29t-45 -21.5t-52 -10.5q-55 -4 -93.5 5.5t-79.5 37.5q-18 13 -28.5 32t-15.5 41.5t-6 48t0 51.5t6 52t14.5 49t23.5 41t32 26q42 19 91 23.5t99 -5.5q30 -6 52 -20t36.5 -33.5t22 -42.5t9.5 -47z
M287 486q2 12 1 33.5t-5 43.5t-11.5 40.5t-19.5 24.5t-26.5 7t-27.5 -2.5t-23.5 -11t-15.5 -19.5q-11 -27 -9 -58.5t4 -59.5q2 -26 21.5 -45.5t50.5 -17.5q24 1 41 20.5t20 44.5z" />
    <glyph glyph-name="plusminus" unicode="&#xb1;" horiz-adv-x="382" 
d="M352 161q-2 -22 -3 -60.5t1 -86.5q-28 2 -72.5 1.5t-91 -1.5t-88.5 -2.5t-66 -3.5q3 35 3.5 74.5t-4.5 76.5q25 -2 62.5 -3t81 -1t89.5 1.5t88 4.5zM342 515q-2 -23 -3.5 -62t1.5 -88q-13 1 -31 1.5t-51 0.5q2 -35 3.5 -63t3.5 -54q-24 1 -65.5 2t-83.5 -1q2 15 3 41
t3 72q-29 -2 -49.5 -2.5t-34.5 -2.5q4 35 4 75t-6 78q14 -1 32.5 -1.5t52.5 -1.5q-2 38 -4 67.5t-4 55.5q23 -1 62 -0.5t84 3.5q-1 -16 -2 -43.5t-2 -81.5q28 2 48.5 2.5t38.5 2.5z" />
    <glyph glyph-name="acute" unicode="&#xb4;" horiz-adv-x="274" 
d="M236 678q-14 -32 -27.5 -62.5t-26.5 -59.5t-24.5 -59t-20.5 -62q-26 2 -54.5 3t-54.5 0q7 25 14 56t14 62.5t12.5 62t9.5 55.5q33 -1 76.5 0.5t81.5 3.5z" />
    <glyph glyph-name="mu" unicode="&#xb5;" horiz-adv-x="590" 
d="M534 718q1 -47 1 -84t-1 -71.5t-3 -70t-4 -77.5q-1 -32 -2 -57.5t-1.5 -48t0.5 -44t2 -45.5q-40 0 -80 -4t-80 -8.5t-80 -7.5t-80 -2q2 -59 4 -110t7 -88q-27 2 -78.5 2.5t-121.5 -7.5q8 179 9.5 361t-9.5 361q29 -1 84 -1t115 3q-5 -76 -9.5 -156t3.5 -156
q2 -19 10.5 -38t21 -32.5t29 -19.5t35.5 0q26 8 35 30.5t11 57.5q0 14 0.5 51.5t-0.5 83.5t-2.5 93t-4.5 80q48 -2 97.5 -0.5t91.5 5.5z" />
    <glyph glyph-name="mu" unicode="&#x3bc;" horiz-adv-x="590" 
d="M534 718q1 -47 1 -84t-1 -71.5t-3 -70t-4 -77.5q-1 -32 -2 -57.5t-1.5 -48t0.5 -44t2 -45.5q-40 0 -80 -4t-80 -8.5t-80 -7.5t-80 -2q2 -59 4 -110t7 -88q-27 2 -78.5 2.5t-121.5 -7.5q8 179 9.5 361t-9.5 361q29 -1 84 -1t115 3q-5 -76 -9.5 -156t3.5 -156
q2 -19 10.5 -38t21 -32.5t29 -19.5t35.5 0q26 8 35 30.5t11 57.5q0 14 0.5 51.5t-0.5 83.5t-2.5 93t-4.5 80q48 -2 97.5 -0.5t91.5 5.5z" />
    <glyph glyph-name="paragraph" unicode="&#xb6;" horiz-adv-x="926" 
d="M884 706q-5 -34 -8 -87.5t-5.5 -118t-3.5 -135.5t-1 -138.5t1.5 -128.5t4.5 -105q-32 2 -64 3t-61.5 1t-53.5 -0.5t-40 -0.5q1 15 1 39t-0.5 49t-1 47.5t-2.5 35.5q-2 17 -17 28t-33 12t-34 -9t-19 -35q-1 -11 -1.5 -33.5t0 -47.5t1.5 -48.5t2 -37.5q-31 3 -63.5 3.5
t-61.5 0.5t-53.5 -0.5t-40.5 -1.5q2 30 3 58t2 55q1 21 -2 36.5t-12 26.5t-25.5 17t-42.5 8q-47 4 -78 8t-40 9q-48 26 -76 89t-30 151q-2 81 24 138.5t75 86.5q22 13 58.5 21.5t81.5 13.5t95.5 7t100.5 1t96.5 -4t84.5 -7q66 -7 127.5 -7.5t111.5 0.5zM654 361q9 10 13 34
t3.5 51.5t-6 52t-14.5 36.5q-2 2 -14.5 8t-29 8.5t-33 -2.5t-25.5 -25q-7 -15 -10 -36.5t-2 -43.5t6 -42t13 -33q11 -17 27 -21.5t31 -2.5t26.5 7.5t14.5 8.5zM345 512q-4 14 -14.5 21t-22 9t-21.5 0t-15 -6q-15 -12 -23 -30t-10.5 -38.5t1.5 -41.5t13 -39q3 -6 13 -13.5
t23 -10.5t26.5 1.5t23.5 21.5q8 13 11 30.5t3 35.5t-2.5 34t-5.5 26z" />
    <glyph glyph-name="periodcentered" unicode="&#xb7;" horiz-adv-x="294" 
d="M253 365q0 -47 -26.5 -67t-77.5 -20t-77 20t-26 67t26 67t77 20t77.5 -20t26.5 -67z" />
    <glyph glyph-name="periodcentered" unicode="&#x2219;" horiz-adv-x="294" 
d="M253 365q0 -47 -26.5 -67t-77.5 -20t-77 20t-26 67t26 67t77 20t77.5 -20t26.5 -67z" />
    <glyph glyph-name="cedilla" unicode="&#xb8;" horiz-adv-x="564" 
d="M469 126q0 -27 0.5 -52t-2 -48.5t-10 -46t-23.5 -43.5q-42 -57 -112.5 -74t-167.5 -3q7 25 4.5 56t-7.5 57q56 0 84.5 9.5t39.5 28.5t9.5 48t-6.5 68h191z" />
    <glyph glyph-name="ordmasculine" unicode="&#xba;" horiz-adv-x="476" 
d="M442 161q-2 -23 -4 -62t2 -87q-36 2 -92 1.5t-115 -1.5t-112 -3t-83 -4q3 36 3.5 76t-5.5 78q31 -2 78.5 -3t102.5 -1t113.5 1.5t111.5 4.5zM457 552q1 -9 1 -33t-1 -54t-4.5 -61t-9.5 -55q-6 -22 -22 -42.5t-39 -37t-51 -27t-58 -12.5q-61 -5 -104.5 6.5t-88.5 47.5
q-21 17 -32.5 41t-17.5 52t-7 59.5t0 63.5q1 31 6.5 63.5t16 61.5t26.5 51.5t37 33.5q47 23 101.5 28.5t110.5 -5.5q34 -7 58.5 -25t41 -42.5t25.5 -54t11 -59.5zM309 424q2 15 1 42.5t-4.5 57t-10.5 53.5t-19 31q-13 8 -28 9.5t-27.5 -3t-22.5 -15t-15 -26.5
q-3 -13 -5 -32.5t-2 -41t0.5 -42.5t1.5 -36t6.5 -29.5t14.5 -26t21.5 -18t28.5 -5.5q12 1 22.5 8t18.5 18.5t13 26t6 29.5z" />
    <glyph glyph-name="guillemotright" unicode="&#xbb;" horiz-adv-x="788" 
d="M28 93q19 25 43 58t48 71t45.5 78t36.5 78q-24 41 -50 83q-23 36 -52 79.5t-61 84.5q19 0 45 -0.5t55.5 -0.5t59 0.5t56.5 1.5q24 -54 75 -119t115 -129q-36 -40 -66.5 -80.5t-55 -78t-42.5 -70t-29 -57.5q-13 0 -37 0.5t-54 1t-64 0.5t-68 -1zM337 93q19 25 43 58t48 71
t45.5 78t36.5 78q-24 41 -50 83q-23 36 -52 79.5t-61 84.5q19 0 45 -0.5t55.5 -0.5t59 0.5t56.5 1.5q24 -54 75.5 -119t114.5 -129q-36 -40 -66.5 -80.5t-55 -78t-42.5 -70t-29 -57.5q-13 0 -37 0.5t-54 1t-64 0.5t-68 -1z" />
    <glyph glyph-name="questiondown" unicode="&#xbf;" horiz-adv-x="634" 
d="M46 119q-13 29 -15 65t4.5 69.5t22.5 60.5t39 37q31 14 60.5 31.5t52 40.5t35 52.5t10.5 66.5q42 -5 84.5 -2.5t84.5 6.5q6 -33 3.5 -65.5t-11 -60t-21.5 -48t-29 -28.5q-22 -11 -44 -19t-39.5 -19t-29 -29t-11.5 -49q0 -27 11.5 -42.5t28.5 -23.5t35.5 -8.5t31.5 2.5
q29 7 47 42t7 95q70 -5 127 -2.5t85 4.5q1 -54 -4.5 -91.5t-15 -63.5t-23.5 -44.5t-31 -35.5q-20 -21 -51 -35.5t-67.5 -23.5t-76 -11.5t-76.5 1.5q-91 10 -146 43t-78 85zM223 669q0 39 29 56t86 17q56 0 85 -17t29 -56t-29 -55.5t-85 -16.5q-57 0 -86 16.5t-29 55.5z" />
    <glyph glyph-name="Agrave" unicode="&#xc0;" 
d="M685 3q-21 59 -40.5 123.5t-36.5 128t-31 123.5t-25 110t-18.5 87.5t-10.5 56.5q-52 -3 -109.5 -3.5t-111 0.5t-96.5 2.5t-65 2.5q-11 -95 -30 -194.5t-39.5 -188t-38.5 -157t-27 -101.5q77 5 138.5 4t89.5 -2q2 19 5.5 43t17.5 38q9 10 34 17t54.5 8.5t56 -4t38.5 -20.5
q10 -13 12.5 -34t2.5 -42q72 3 134 3t96 -1zM405 259q-8 -10 -25.5 -15t-37 -6t-37.5 3t-27 12q-5 5 -6.5 22t0 40t6.5 48t13.5 46.5t19.5 36t24 15.5q14 1 25.5 -12.5t20.5 -34.5t15 -46t9 -48t3.5 -40t-3.5 -21zM178 836q39 -2 84.5 -2.5t80.5 -0.5q3 -17 8.5 -38
t12.5 -43t14 -43t14 -39h-57t-56 -2q-9 22 -20.5 42.5t-25.5 41.5q-13 20 -27 40.5t-28 43.5z" />
    <glyph glyph-name="Aacute" unicode="&#xc1;" 
d="M685 3q-34 1 -96 1t-134 -3q0 21 -2.5 42t-12.5 34q-12 15 -38.5 20.5t-56 4t-54.5 -8.5t-34 -17q-14 -14 -17.5 -38t-5.5 -43q-28 1 -89.5 2t-138.5 -4q9 33 27 101.5t38.5 157t39.5 188t30 194.5q22 -1 65 -2.5t96.5 -2.5t111 -0.5t109.5 3.5q3 -19 10.5 -56.5
t18.5 -87.5t25 -110t31 -123.5t36.5 -128t40.5 -123.5zM405 259q4 4 3.5 21t-3.5 40t-9 48t-15 46t-20.5 34.5t-25.5 12.5q-13 -1 -24 -15.5t-19.5 -36t-13.5 -46.5t-6.5 -48t0 -40t6.5 -22q9 -8 27 -12t37.5 -3t37 6t25.5 15zM509 820q-15 -21 -29 -40t-28 -39
q-14 -19 -26 -38t-21 -40q-27 2 -57 2h-57q7 17 14.5 36.5t14.5 40t13 40t10 35.5q35 0 80.5 0.5t85.5 2.5z" />
    <glyph glyph-name="Acircumflex" unicode="&#xc2;" 
d="M685 3q-34 1 -96 1t-134 -3q0 21 -2.5 42t-12.5 34q-12 15 -38.5 20.5t-56 4t-54.5 -8.5t-34 -17q-14 -14 -17.5 -38t-5.5 -43q-28 1 -89.5 2t-138.5 -4q9 33 27 101.5t38.5 157t39.5 188t30 194.5q22 -1 65 -2.5t96.5 -2.5t111 -0.5t109.5 3.5q3 -19 10.5 -56.5
t18.5 -87.5t25 -110t31 -123.5t36.5 -128t40.5 -123.5zM405 259q4 4 3.5 21t-3.5 40t-9 48t-15 46t-20.5 34.5t-25.5 12.5q-13 -1 -24 -15.5t-19.5 -36t-13.5 -46.5t-6.5 -48t0 -40t6.5 -22q9 -8 27 -12t37.5 -3t37 6t25.5 15zM570 683q-36 0 -80.5 -1t-77.5 -3
q-18 36 -34 60q-22 34 -44 34q-8 0 -18.5 -8.5t-21 -22t-20 -30.5t-17.5 -34q-19 1 -60 2t-91 -1q13 17 28.5 39t31 45.5t29 46.5t21.5 42q23 -1 52.5 -1.5t61.5 -0.5t64 1t59 3q8 -15 22.5 -37.5t31.5 -46.5t33.5 -47t29.5 -40z" />
    <glyph glyph-name="Atilde" unicode="&#xc3;" 
d="M685 3q-34 1 -96 1t-134 -3q0 21 -2.5 42t-12.5 34q-12 15 -38.5 20.5t-56 4t-54.5 -8.5t-34 -17q-14 -14 -17.5 -38t-5.5 -43q-28 1 -89.5 2t-138.5 -4q9 33 27 101.5t38.5 157t39.5 188t30 194.5q22 -1 65 -2.5t96.5 -2.5t111 -0.5t109.5 3.5q3 -19 10.5 -56.5
t18.5 -87.5t25 -110t31 -123.5t36.5 -128t40.5 -123.5zM405 259q4 4 3.5 21t-3.5 40t-9 48t-15 46t-20.5 34.5t-25.5 12.5q-13 -1 -24 -15.5t-19.5 -36t-13.5 -46.5t-6.5 -48t0 -40t6.5 -22q9 -8 27 -12t37.5 -3t37 6t25.5 15zM507 701q-21 -10 -39 -15.5t-36 -6t-36.5 4.5
t-41.5 16q-28 13 -55.5 17t-54 2t-50 -8t-42.5 -14q5 29 4.5 59.5t-8.5 58.5q13 6 34 14.5t47 13t54 3t55 -15.5q49 -24 91 -20.5t77 16.5q-1 -23 -1.5 -58t2.5 -67z" />
    <glyph glyph-name="Adieresis" unicode="&#xc4;" 
d="M685 3q-21 59 -40.5 123.5t-36.5 128t-31 123.5t-25 110t-18.5 87.5t-10.5 56.5q-52 -3 -109.5 -3.5t-111 0.5t-96.5 2.5t-65 2.5q-11 -95 -30 -194.5t-39.5 -188t-38.5 -157t-27 -101.5q77 5 138.5 4t89.5 -2q2 19 5.5 43t17.5 38q9 10 34 17t54.5 8.5t56 -4t38.5 -20.5
q10 -13 12.5 -34t2.5 -42q72 3 134 3t96 -1zM405 259q-8 -10 -25.5 -15t-37 -6t-37.5 3t-27 12q-5 5 -6.5 22t0 40t6.5 48t13.5 46.5t19.5 36t24 15.5q14 1 25.5 -12.5t20.5 -34.5t15 -46t9 -48t3.5 -40t-3.5 -21zM524 752q0 -42 -20 -60t-58 -18t-57.5 18t-19.5 60t19.5 60
t57.5 18t58 -18t20 -60zM274 754q0 -42 -19.5 -60t-57.5 -18t-58 18t-20 60t20 60t58 18t57.5 -18t19.5 -60z" />
    <glyph glyph-name="Aring" unicode="&#xc5;" 
d="M685 3q-34 1 -96 1t-134 -3q0 21 -2.5 42t-12.5 34q-12 15 -38.5 20.5t-56 4t-54.5 -8.5t-34 -17q-14 -14 -17.5 -38t-5.5 -43q-28 1 -89.5 2t-138.5 -4q9 33 27 101.5t38.5 157t39.5 188t30 194.5q22 -1 65 -2.5t96.5 -2.5t111 -0.5t109.5 3.5q3 -19 10.5 -56.5
t18.5 -87.5t25 -110t31 -123.5t36.5 -128t40.5 -123.5zM405 259q4 4 3.5 21t-3.5 40t-9 48t-15 46t-20.5 34.5t-25.5 12.5q-13 -1 -24 -15.5t-19.5 -36t-13.5 -46.5t-6.5 -48t0 -40t6.5 -22q9 -8 27 -12t37.5 -3t37 6t25.5 15zM520 806q6 -40 -5 -65t-33.5 -39t-53 -19
t-63.5 -7q-42 -2 -83.5 2t-79.5 21q-30 14 -41 39t-6 51t24 48.5t48 30.5q19 6 42 9t47 4t47.5 0t42.5 -3q16 -2 34.5 -6.5t35.5 -12.5t29 -21t15 -32zM406 760q9 20 -3.5 37t-32.5 20q-7 1 -19 1.5t-25 0t-24.5 -2.5t-17.5 -6q-20 -15 -19 -31t22 -28q11 -6 28.5 -10t36 -4
t34 5t20.5 18z" />
    <glyph glyph-name="AE" unicode="&#xc6;" horiz-adv-x="994" 
d="M956 706q-1 -11 -3.5 -32t-3.5 -45t-0.5 -48.5t3.5 -43.5q-32 2 -68.5 2.5t-69 0t-57 -2.5t-33.5 -6q-14 -6 -20.5 -18t-8 -25.5t2 -27t9.5 -22.5q5 -7 30.5 -12t60.5 -7.5t75 -2t75 3.5q-2 -23 -4 -63.5t2 -90.5q-31 2 -64 3t-62.5 0.5t-53 -2t-35.5 -3.5
q-15 -3 -27.5 -17t-16 -31.5t5.5 -32.5t36 -19q25 -4 56 -4.5t62 1t59.5 4t47.5 3.5q-3 -26 -5 -71.5t2 -100.5q-72 3 -148 3.5t-143.5 0t-120.5 -1.5t-79 -2q5 24 5 49.5t-8 39.5q-9 17 -34.5 23t-55 4.5t-56 -9t-37.5 -18.5q-17 -17 -25 -43.5t-13 -47.5q-28 2 -89 3
t-139 -4q10 24 27.5 66.5t39 98.5t46.5 122t49.5 137t48 144.5t42.5 143.5q174 -10 347.5 -7t347.5 8zM457 288q4 4 7 23t4 44t-0.5 53t-6.5 51.5t-14 38.5t-23 14t-27.5 -17t-25.5 -39.5t-22 -52t-16 -54t-7.5 -44.5t2.5 -24q8 -9 25 -13t37 -3.5t38.5 6.5t28.5 17z" />
    <glyph glyph-name="Ccedilla" unicode="&#xc7;" horiz-adv-x="662" 
d="M636 308q-1 -26 -3.5 -58t-10 -63.5t-21.5 -59.5t-38 -46q-20 -16 -51 -26t-68 -16q0 -38 -6 -72.5t-30 -66.5q-42 -57 -112.5 -74t-167.5 -3q7 25 4.5 56t-7.5 57q45 0 71.5 6t41 18t18.5 30t2 42q-66 6 -109 27t-68.5 50.5t-36.5 64t-15 68.5q-2 22 -3 54t-0.5 68
t2.5 73.5t6 72t10 62.5t14 45q14 29 41 52.5t62 40t76 25t84 8.5q77 0 136.5 -13t110.5 -46q19 -12 32 -36t20.5 -56.5t11 -71.5t2.5 -81q-13 0 -38.5 1t-56.5 2t-64.5 1t-63.5 -3q-1 71 -22 108t-53 37q-29 0 -54.5 -23.5t-30.5 -75.5q-3 -23 -3.5 -56t0.5 -67.5t3 -67
t5 -54.5q3 -26 23.5 -46.5t52.5 -20.5q27 0 43.5 14.5t25.5 35t12.5 43.5t3.5 40q65 -6 123.5 -6t95.5 7z" />
    <glyph glyph-name="Egrave" unicode="&#xc8;" horiz-adv-x="574" 
d="M531 644q-180 -4 -306 -5.5t-180 3.5q3 -61 4.5 -128t1 -132.5t-1.5 -126.5t-3 -111.5t-3.5 -86.5t-2.5 -52q26 1 78 2t118.5 1.5t142 0t147.5 -3.5q-4 50 -2 91t5 64q-19 -1 -47.5 -3t-59.5 -3.5t-62 -1t-56 3.5q-27 4 -36 18t-5.5 29t16 28t27.5 15q12 2 35.5 3t53 1.5
t62.5 0t64 -2.5q-4 45 -2 81.5t4 57.5q-35 -3 -75 -3t-75 2t-60.5 6t-30.5 11q-6 8 -9.5 20t-2 24.5t8 23.5t20.5 16q9 3 33.5 5t57 2.5t69 0t68.5 -2.5q-3 17 -3.5 39t0.5 44t3.5 40.5t3.5 28.5zM159 848q39 -2 84.5 -3t79.5 0q4 -17 9.5 -38.5t12 -43.5t13.5 -43t14 -39
q-26 1 -56 0.5t-57 -2.5q-9 23 -20.5 43.5t-24.5 40.5t-27 41t-28 44z" />
    <glyph glyph-name="Eacute" unicode="&#xc9;" horiz-adv-x="574" 
d="M531 644q-1 -10 -3.5 -28.5t-3.5 -40.5t-0.5 -44t3.5 -39q-32 2 -68.5 2.5t-69 0t-57 -2.5t-33.5 -5q-14 -5 -20.5 -16t-8 -23.5t2 -24.5t9.5 -20q5 -7 30.5 -11t60.5 -6t75 -2t75 3q-2 -21 -4 -57.5t2 -81.5q-31 2 -64 2.5t-62.5 0t-53 -1.5t-35.5 -3q-15 -2 -27.5 -15
t-16 -28t5.5 -29t36 -18q25 -3 56 -3.5t62 1t59.5 3.5t47.5 3q-3 -23 -5 -64t2 -91q-72 3 -147.5 3.5t-142 0t-118.5 -1.5t-78 -2q1 16 2.5 52t3.5 86.5t3 111.5t1.5 126.5t-1 132.5t-4.5 128q54 -5 180 -3.5t306 5.5zM453 831q-30 -40 -57 -78q-14 -20 -26 -39t-21 -39
q-27 2 -57 2h-57q7 16 14.5 36t14.5 40t13 40t10 36q35 -1 80.5 -0.5t85.5 2.5z" />
    <glyph glyph-name="Ecircumflex" unicode="&#xca;" horiz-adv-x="574" 
d="M531 644q-1 -10 -3.5 -28.5t-3.5 -40.5t-0.5 -44t3.5 -39q-32 2 -68.5 2.5t-69 0t-57 -2.5t-33.5 -5q-14 -5 -20.5 -16t-8 -23.5t2 -24.5t9.5 -20q5 -7 30.5 -11t60.5 -6t75 -2t75 3q-2 -21 -4 -57.5t2 -81.5q-31 2 -64 2.5t-62.5 0t-53 -1.5t-35.5 -3q-15 -2 -27.5 -15
t-16 -28t5.5 -29t36 -18q25 -3 56 -3.5t62 1t59.5 3.5t47.5 3q-3 -23 -5 -64t2 -91q-72 3 -147.5 3.5t-142 0t-118.5 -1.5t-78 -2q1 16 2.5 52t3.5 86.5t3 111.5t1.5 126.5t-1 132.5t-4.5 128q54 -5 180 -3.5t306 5.5zM520 688q-36 0 -80.5 -1t-77.5 -3q-18 36 -34 60
q-22 34 -44 34q-8 0 -18.5 -8.5t-21 -22t-20 -30.5t-17.5 -34q-19 1 -60 2t-91 -1q13 17 28.5 39t31 45.5t29 46.5t21.5 42q23 -1 52.5 -1.5t61.5 -0.5t64 1t59 3q8 -15 22.5 -37.5t31.5 -46.5t33.5 -47t29.5 -40z" />
    <glyph glyph-name="Edieresis" unicode="&#xcb;" horiz-adv-x="574" 
d="M531 644q-180 -4 -306 -5.5t-180 3.5q3 -61 4.5 -128t1 -132.5t-1.5 -126.5t-3 -111.5t-3.5 -86.5t-2.5 -52q26 1 78 2t118.5 1.5t142 0t147.5 -3.5q-4 50 -2 91t5 64q-19 -1 -47.5 -3t-59.5 -3.5t-62 -1t-56 3.5q-27 4 -36 18t-5.5 29t16 28t27.5 15q12 2 35.5 3t53 1.5
t62.5 0t64 -2.5q-4 45 -2 81.5t4 57.5q-35 -3 -75 -3t-75 2t-60.5 6t-30.5 11q-6 8 -9.5 20t-2 24.5t8 23.5t20.5 16q9 3 33.5 5t57 2.5t69 0t68.5 -2.5q-3 17 -3.5 39t0.5 44t3.5 40.5t3.5 28.5zM513 767q0 -42 -20 -60t-58 -18t-57.5 18t-19.5 60t19.5 60t57.5 18t58 -18
t20 -60zM263 769q0 -42 -19.5 -60t-57.5 -18t-58 18t-20 60t20 60t58 18t57.5 -18t19.5 -60z" />
    <glyph glyph-name="Igrave" unicode="&#xcc;" horiz-adv-x="322" 
d="M277 -1q-9 150 -12 260.5t-2.5 188t3 125t4.5 69.5q-35 -3 -68.5 -4.5t-62.5 -1.5t-52.5 0.5t-38.5 0.5q10 -101 12.5 -202t1.5 -187.5t-4 -151.5t-5 -95q32 2 64.5 2.5t62.5 0t55.5 -2t41.5 -2.5zM0 846q39 -2 84.5 -3t79.5 0q8 -35 21.5 -81.5t27.5 -81.5
q-26 0 -56 -0.5t-57 -1.5q-9 22 -20.5 42.5t-24.5 40.5q-14 21 -27.5 41.5t-27.5 43.5z" />
    <glyph glyph-name="Iacute" unicode="&#xcd;" horiz-adv-x="322" 
d="M277 -1q-16 1 -41.5 2.5t-55.5 2t-62.5 0t-64.5 -2.5q2 30 5 95t4 151.5t-1.5 187.5t-12.5 202q15 0 38.5 -0.5t52.5 -0.5t62.5 1.5t68.5 4.5q-2 -22 -4.5 -69.5t-3 -125t2.5 -188t12 -260.5zM318 831q-14 -20 -28.5 -39.5t-28.5 -38.5q-14 -20 -26 -39t-21 -39
q-27 2 -57 2h-57q7 16 14.5 36t14.5 40t13 40t10 36q35 -1 80.5 -0.5t85.5 2.5z" />
    <glyph glyph-name="Icircumflex" unicode="&#xce;" horiz-adv-x="322" 
d="M277 -1q-16 1 -41.5 2.5t-55.5 2t-62.5 0t-64.5 -2.5q2 30 5 95t4 151.5t-1.5 187.5t-12.5 202q15 0 38.5 -0.5t52.5 -0.5t62.5 1.5t68.5 4.5q-2 -22 -4.5 -69.5t-3 -125t2.5 -188t12 -260.5zM330 683q-26 0 -56.5 -1t-53.5 -3q-7 17 -13 32.5t-11 27.5q-8 17 -16 25.5
t-14 8.5t-13 -8.5t-14.5 -22t-14.5 -31t-12 -34.5q-14 2 -42 2.5t-63 -1.5q9 17 20 39.5t21.5 46t20 46.5t14.5 42q16 -1 36.5 -2t43 -1t44.5 1.5t41 3.5q6 -15 16 -37.5t22 -46.5l23.5 -47t20.5 -40z" />
    <glyph glyph-name="Idieresis" unicode="&#xcf;" horiz-adv-x="322" 
d="M277 -1q-9 150 -12 260.5t-2.5 188t3 125t4.5 69.5q-35 -3 -68.5 -4.5t-62.5 -1.5t-52.5 0.5t-38.5 0.5q10 -101 12.5 -202t1.5 -187.5t-4 -151.5t-5 -95q32 2 64.5 2.5t62.5 0t55.5 -2t41.5 -2.5zM341 768q0 -42 -16 -59.5t-48 -17.5t-48 17.5t-16 59.5t16 60t48 18
t48 -18t16 -60zM135 771q0 -42 -16 -60t-48 -18t-48.5 18t-16.5 60t16.5 59.5t48.5 17.5t48 -17.5t16 -59.5z" />
    <glyph glyph-name="Ntilde" unicode="&#xd1;" horiz-adv-x="748" 
d="M710 4q-15 0 -42.5 0.5t-62.5 0t-75.5 -1.5t-82.5 -3q-13 44 -37.5 95t-50 94t-47.5 70t-30 24q-7 -3 -11.5 -18t-7 -36.5t-2.5 -47.5t1 -50q1 -18 2.5 -30t3 -24.5t3.5 -28.5t4 -43q-29 1 -89 0.5t-133 -5.5q5 42 7 97t2 115.5t-2 123.5t-5 120t-7 105.5t-8 80.5
q32 -2 99 -2t175 7q5 -18 16 -46.5t24.5 -60t28.5 -63.5t29.5 -57.5t27 -42t20.5 -17.5q13 -1 24 32t10 85q-1 38 -2.5 74t-6.5 92q17 -1 42 -1.5t55 -1t62 0.5t61 3q-1 -29 -3 -94t-3 -152t1.5 -189t9.5 -205zM540 701q-21 -10 -39 -15.5t-36 -6t-36.5 4.5t-41.5 16
q-28 13 -55.5 17t-54 2t-50 -8t-42.5 -14q5 29 4.5 59.5t-8.5 58.5q13 6 34.5 14.5t47 13t54 3t55.5 -15.5q48 -24 90.5 -20.5t77.5 16.5q-2 -23 -2.5 -58t2.5 -67z" />
    <glyph glyph-name="Ograve" unicode="&#xd2;" horiz-adv-x="693" 
d="M662 254q1 38 3.5 85.5t-3 94.5t-23 89t-55.5 69q-34 24 -64.5 39t-63.5 23t-69.5 9.5t-82.5 -1.5q-45 -3 -86.5 -15.5t-74.5 -32.5t-56.5 -46t-32.5 -56q-10 -32 -14 -77.5t-5.5 -89t-0.5 -79t2 -48.5q3 -40 15 -77.5t34.5 -67.5t58.5 -51.5t87 -30.5q84 -15 167 -8
t152 38q33 15 54 37.5t34 52.5t18 66t6 77zM433 429q1 -18 3.5 -51t3.5 -70t-0.5 -72.5t-7.5 -58.5q-5 -19 -22.5 -31t-39.5 -15.5t-44.5 2t-38.5 22.5q-13 14 -19 49.5t-7.5 77.5t-0.5 81.5t3 60.5q3 42 23 69.5t54 30.5q23 2 40 -5.5t28.5 -20.5t17.5 -31t7 -38zM183 862
q39 -2 84.5 -2.5t80.5 -0.5q3 -17 8.5 -38t12.5 -43t14 -43t14 -39h-57t-56 -2q-9 22 -20.5 42.5t-25.5 41.5q-13 20 -27 40.5t-28 43.5z" />
    <glyph glyph-name="Oacute" unicode="&#xd3;" horiz-adv-x="693" 
d="M662 254q-1 -41 -6 -77t-18 -66t-34 -52.5t-54 -37.5q-69 -31 -152 -38t-167 8q-51 9 -87 30.5t-58.5 51.5t-34.5 67.5t-15 77.5q-1 13 -2 48.5t0.5 79t5.5 89t14 77.5q9 30 32.5 56t56.5 46t74.5 32.5t86.5 15.5q46 3 82.5 1.5t69.5 -9.5t63.5 -23t64.5 -39
q38 -27 55.5 -69t23 -89t3 -94.5t-3.5 -85.5zM433 429q-1 20 -7 38t-17.5 31t-28.5 20.5t-40 5.5q-34 -3 -54 -30.5t-23 -69.5q-2 -21 -3 -60.5t0.5 -81.5t7.5 -77.5t19 -49.5q16 -17 38.5 -22.5t44.5 -2t39.5 15.5t22.5 31q6 23 7.5 58.5t0.5 72.5t-3.5 70t-3.5 51z
M524 849q-15 -21 -29 -40t-28 -39q-14 -19 -26 -38t-21 -39q-27 1 -57 1.5t-57 -0.5q7 17 14.5 36.5t14.5 40t13 40t10 35.5q35 0 80.5 0.5t85.5 2.5z" />
    <glyph glyph-name="Ocircumflex" unicode="&#xd4;" horiz-adv-x="693" 
d="M662 254q-1 -41 -6 -77t-18 -66t-34 -52.5t-54 -37.5q-69 -31 -152 -38t-167 8q-51 9 -87 30.5t-58.5 51.5t-34.5 67.5t-15 77.5q-1 13 -2 48.5t0.5 79t5.5 89t14 77.5q9 30 32.5 56t56.5 46t74.5 32.5t86.5 15.5q46 3 82.5 1.5t69.5 -9.5t63.5 -23t64.5 -39
q38 -27 55.5 -69t23 -89t3 -94.5t-3.5 -85.5zM433 429q-1 20 -7 38t-17.5 31t-28.5 20.5t-40 5.5q-34 -3 -54 -30.5t-23 -69.5q-2 -21 -3 -60.5t0.5 -81.5t7.5 -77.5t19 -49.5q16 -17 38.5 -22.5t44.5 -2t39.5 15.5t22.5 31q6 23 7.5 58.5t0.5 72.5t-3.5 70t-3.5 51z
M575 698q-36 0 -80.5 -1t-77.5 -3q-18 36 -34 60q-22 34 -44 34q-8 0 -18.5 -8.5t-21 -22t-20 -30.5t-17.5 -34q-19 1 -60 2t-91 -1q13 17 28.5 39t31 45.5t29 46.5t21.5 42q23 -1 52.5 -1.5t61.5 -0.5t64 1t59 3q8 -15 22.5 -37.5t31.5 -46.5t33.5 -47t29.5 -40z" />
    <glyph glyph-name="Otilde" unicode="&#xd5;" horiz-adv-x="693" 
d="M662 254q-1 -41 -6 -77t-18 -66t-34 -52.5t-54 -37.5q-69 -31 -152 -38t-167 8q-51 9 -87 30.5t-58.5 51.5t-34.5 67.5t-15 77.5q-1 13 -2 48.5t0.5 79t5.5 89t14 77.5q9 30 32.5 56t56.5 46t74.5 32.5t86.5 15.5q46 3 82.5 1.5t69.5 -9.5t63.5 -23t64.5 -39
q38 -27 55.5 -69t23 -89t3 -94.5t-3.5 -85.5zM433 429q-1 20 -7 38t-17.5 31t-28.5 20.5t-40 5.5q-34 -3 -54 -30.5t-23 -69.5q-2 -21 -3 -60.5t0.5 -81.5t7.5 -77.5t19 -49.5q16 -17 38.5 -22.5t44.5 -2t39.5 15.5t22.5 31q6 23 7.5 58.5t0.5 72.5t-3.5 70t-3.5 51z
M531 708q-21 -10 -39 -15.5t-36 -6.5t-36.5 4t-41.5 16q-28 14 -55.5 18t-54 2t-50 -8t-42.5 -14q5 29 4.5 59.5t-8.5 58.5q13 6 34 14.5t47 13t54 3t55 -15.5q24 -12 47 -16.5t44 -4t40 5.5t37 11q-2 -23 -2 -58t3 -67z" />
    <glyph glyph-name="Odieresis" unicode="&#xd6;" horiz-adv-x="693" 
d="M662 254q1 38 3.5 85.5t-3 94.5t-23 89t-55.5 69q-34 24 -64.5 39t-63.5 23t-69.5 9.5t-82.5 -1.5q-45 -3 -86.5 -15.5t-74.5 -32.5t-56.5 -46t-32.5 -56q-10 -32 -14 -77.5t-5.5 -89t-0.5 -79t2 -48.5q3 -40 15 -77.5t34.5 -67.5t58.5 -51.5t87 -30.5q84 -15 167 -8
t152 38q33 15 54 37.5t34 52.5t18 66t6 77zM433 429q1 -18 3.5 -51t3.5 -70t-0.5 -72.5t-7.5 -58.5q-5 -19 -22.5 -31t-39.5 -15.5t-44.5 2t-38.5 22.5q-13 14 -19 49.5t-7.5 77.5t-0.5 81.5t3 60.5q3 42 23 69.5t54 30.5q23 2 40 -5.5t28.5 -20.5t17.5 -31t7 -38zM554 772
q0 -42 -20 -60t-58 -18t-57.5 18t-19.5 60t19.5 60t57.5 18t58 -18t20 -60zM304 774q0 -42 -19.5 -60t-57.5 -18t-58 18t-20 60t20 60t58 18t57.5 -18t19.5 -60z" />
    <glyph glyph-name="Oslash" unicode="&#xd8;" horiz-adv-x="693" 
d="M662 282q-1 -46 -6 -86t-18 -73t-34 -58t-54 -41q-51 -26 -110.5 -37t-121.5 -8q-3 -10 -6 -19.5t-5 -19.5q-13 1 -34.5 2t-49 1.5t-59.5 0.5t-65 -1q9 21 18 43t18 45q-49 35 -71.5 91t-27.5 120q-1 14 -2 53.5t0.5 88.5t5.5 99t14 85q9 34 32.5 63t56.5 51.5t74.5 36.5
t86.5 17q20 2 37 2.5t34 -0.5q5 18 9 33q13 0 35.5 -1t51 -1.5t60.5 0t65 1.5q-9 -20 -18.5 -43t-19.5 -49q6 -5 12.5 -10t13.5 -10q38 -30 55.5 -76.5t23 -99t3 -105.5t-3.5 -95zM329 580q-29 -8 -46 -37t-20 -72q-2 -17 -3 -47.5t-1 -65.5q6 18 14 42.5t17 53.5t19 61
t20 65zM433 338q-17 -53 -33.5 -100.5t-30.5 -92.5q23 4 40.5 17.5t22.5 34.5q7 28 8.5 71.5t-0.5 87.5z" />
    <glyph glyph-name="Ugrave" unicode="&#xd9;" horiz-adv-x="706" 
d="M660 249q-1 43 -2.5 84.5t-2.5 86t-1.5 94t-1.5 109.5q-50 -4 -108 -3.5t-116 2.5q3 -25 4.5 -59t2 -72t0.5 -76.5t-0.5 -71.5t-1 -58.5t-1.5 -37.5q-1 -21 -6 -41t-14.5 -36.5t-23 -26.5t-30.5 -10q-30 0 -53 22t-28 71q-2 20 -4.5 67.5t-3 105.5t0.5 119t5 109
q-30 -1 -90.5 -0.5t-134.5 3.5q3 -35 2.5 -83t-2 -102t-2 -109t1.5 -103.5t8 -85.5t19 -55q45 -61 112.5 -83t152.5 -22q38 0 70 2t60 8t54 16t51 26q41 26 64 77t19 133zM191 835q39 -2 84 -2.5t80 -0.5q3 -17 8.5 -38t12.5 -43t14 -43t14 -39h-57t-56 -2q-9 22 -20.5 43
t-24.5 41q-14 20 -27.5 41t-27.5 43z" />
    <glyph glyph-name="Uacute" unicode="&#xda;" horiz-adv-x="706" 
d="M660 249q4 -82 -19 -133t-64 -77q-25 -16 -51 -26t-54 -16t-60 -8t-70 -2q-85 0 -152.5 22t-112.5 83q-13 18 -19 55t-8 85.5t-1.5 103.5t2 109t2 102t-2.5 83q74 -3 134.5 -3.5t90.5 0.5q-4 -48 -5 -109t-0.5 -119t3 -105.5t4.5 -67.5q5 -49 28 -71t53 -22q17 0 30.5 10
t23 26.5t14.5 36.5t6 41q1 12 1.5 37.5t1 58.5t0.5 71.5t-0.5 76.5t-2 72t-4.5 59q58 -2 116 -2.5t108 3.5q1 -60 1.5 -109.5t1.5 -94t2.5 -86t2.5 -84.5zM524 821q-15 -21 -29 -40l-28 -38q-14 -20 -26 -39t-21 -39q-27 2 -57 2h-57q7 16 14.5 36t14.5 40t13 39.5t10 35.5
q35 0 80.5 0.5t85.5 2.5z" />
    <glyph glyph-name="Ucircumflex" unicode="&#xdb;" horiz-adv-x="706" 
d="M660 249q4 -82 -19 -133t-64 -77q-25 -16 -51 -26t-54 -16t-60 -8t-70 -2q-85 0 -152.5 22t-112.5 83q-13 18 -19 55t-8 85.5t-1.5 103.5t2 109t2 102t-2.5 83q74 -3 134.5 -3.5t90.5 0.5q-4 -48 -5 -109t-0.5 -119t3 -105.5t4.5 -67.5q5 -49 28 -71t53 -22q17 0 30.5 10
t23 26.5t14.5 36.5t6 41q1 12 1.5 37.5t1 58.5t0.5 71.5t-0.5 76.5t-2 72t-4.5 59q58 -2 116 -2.5t108 3.5q1 -60 1.5 -109.5t1.5 -94t2.5 -86t2.5 -84.5zM585 678q-36 0 -80.5 -1t-77.5 -3q-18 36 -34 60q-22 34 -44 34q-8 0 -18.5 -8.5t-21 -22t-20 -30.5t-17.5 -34
q-19 1 -60 2t-91 -1q13 17 28.5 39t31 45.5t29 46.5t21.5 42q23 -1 52.5 -1.5t61.5 -0.5t64 1t59 3q8 -15 22.5 -37.5t31.5 -46.5t33.5 -47t29.5 -40z" />
    <glyph glyph-name="Udieresis" unicode="&#xdc;" horiz-adv-x="706" 
d="M660 249q-1 43 -2.5 84.5t-2.5 86t-1.5 94t-1.5 109.5q-50 -4 -108 -3.5t-116 2.5q3 -25 4.5 -59t2 -72t0.5 -76.5t-0.5 -71.5t-1 -58.5t-1.5 -37.5q-1 -21 -6 -41t-14.5 -36.5t-23 -26.5t-30.5 -10q-30 0 -53 22t-28 71q-2 20 -4.5 67.5t-3 105.5t0.5 119t5 109
q-30 -1 -90.5 -0.5t-134.5 3.5q3 -35 2.5 -83t-2 -102t-2 -109t1.5 -103.5t8 -85.5t19 -55q45 -61 112.5 -83t152.5 -22q38 0 70 2t60 8t54 16t51 26q41 26 64 77t19 133zM559 752q0 -42 -20 -60t-58 -18t-57.5 18t-19.5 60t19.5 60t57.5 18t58 -18t20 -60zM309 754
q0 -42 -19.5 -60t-57.5 -18t-58 18t-20 60t20 60t58 18t57.5 -18t19.5 -60z" />
    <glyph glyph-name="Yacute" unicode="&#xdd;" 
d="M683 635q-10 -20 -26.5 -52t-35.5 -71.5t-40.5 -83t-41.5 -88t-38 -86.5t-31 -77q-2 -15 -2 -41q0 -22 1.5 -55.5t6.5 -83.5q-27 2 -84 2t-149 -4q2 23 4.5 66t0.5 106q-40 89 -80 173q-17 36 -36.5 75t-39.5 77t-40 73.5t-39 64.5q20 0 47.5 -0.5t59.5 0t66 2t66 4.5
q13 -61 27.5 -106t29 -74t26.5 -43t19 -14q6 0 17.5 17t26 48t29 74.5t25.5 96.5q15 -1 41 -1.5t57 -0.5t65.5 0.5t67.5 1.5zM523 831q-30 -40 -57 -78q-14 -20 -26 -39t-21 -39q-27 2 -57 2h-57q7 16 14.5 36t14.5 40t13 40t10 36q35 -1 80.5 -0.5t85.5 2.5z" />
    <glyph glyph-name="germandbls" unicode="&#xdf;" horiz-adv-x="639" 
d="M615 147q0 -32 -14.5 -57t-39 -43t-57.5 -29t-70 -17q-32 -5 -68.5 -7t-71.5 0q2 32 4.5 65.5t-2.5 61.5q17 2 39 1.5t45 10.5q18 10 25.5 28.5t5 38t-13 36t-27.5 22.5q-10 3 -25 5t-31.5 -0.5t-31.5 -10.5t-25 -23q-8 -13 -12 -47t-4.5 -75t0.5 -82.5t4 -69.5
q-54 3 -102 2t-95 -2q1 23 2 68t1.5 105.5t0 133.5t-3.5 151q-2 77 33 126.5t91.5 77.5t125 35t132.5 -2q37 -5 68.5 -20t55 -37t38 -49t15.5 -57q4 -63 -23.5 -105.5t-99.5 -65.5v-12q65 -15 98 -51.5t33 -105.5zM380 398q18 23 18.5 50t-30.5 44q-11 6 -27 8t-32 1t-29 -5
t-18 -10q-7 -9 -13.5 -21.5t-8.5 -26.5t0.5 -27.5t11.5 -22.5q10 -10 27.5 -14t36.5 -2.5t36.5 8.5t27.5 18z" />
    <glyph glyph-name="agrave" unicode="&#xe0;" horiz-adv-x="572" 
d="M538 379q0 26 -10 54.5t-35.5 52.5t-69.5 40t-112 16q-134 0 -197 -48.5t-67 -143.5q23 1 67.5 3.5t104.5 -2.5q1 24 9 40t19.5 25.5t24 14t23.5 4.5q10 0 22.5 -3t23 -10t17 -17t5.5 -25q-2 -37 -35 -50.5t-86 -22.5q-32 -6 -63 -9.5t-58 -13t-49 -28.5t-36 -55
q-11 -28 -12.5 -59t6 -59.5t23 -52t37.5 -35.5q18 -9 42 -12.5t53.5 -3.5t62 2t66.5 4q56 3 111.5 6.5t111.5 -1.5q-5 40 -6 88.5t0 97.5q2 58 4.5 112t2.5 91zM351 121q-7 -13 -30 -22t-48 -9t-45 11t-21 38q-1 29 14.5 45t37.5 22.5t44 5.5t33 -6q25 -11 27 -36.5
t-12 -48.5zM154 742q39 -2 84.5 -2.5t79.5 0.5q4 -17 9.5 -38.5t12 -43.5t13.5 -43t14 -39h-56t-57 -2q-9 23 -20.5 43.5t-24.5 40.5q-14 20 -27.5 41t-27.5 43z" />
    <glyph glyph-name="aacute" unicode="&#xe1;" horiz-adv-x="572" 
d="M538 379q0 -37 -2.5 -91t-4.5 -112q-1 -49 0 -97.5t6 -88.5q-56 5 -111.5 1.5t-111.5 -6.5q-34 -2 -66.5 -4t-62 -2t-53.5 3.5t-42 12.5q-22 12 -37.5 35.5t-23 52t-6 59.5t12.5 59q14 36 36 55t49 28.5t58 13t63 9.5q53 9 86 22.5t35 50.5q1 15 -5.5 25t-17 17t-23 10
t-22.5 3q-11 0 -23.5 -4.5t-24 -14t-19.5 -25.5t-9 -40q-60 5 -104.5 2.5t-67.5 -3.5q4 95 67 143.5t197 48.5q68 0 112 -16t69.5 -40t35.5 -52.5t10 -54.5zM351 121q14 23 12 48.5t-27 36.5q-11 5 -33 6t-44 -5.5t-37.5 -22.5t-14.5 -45q1 -27 21 -38t45 -11t48 9t30 22z
M467 729q-14 -21 -28.5 -40t-28.5 -39q-13 -19 -25 -38t-22 -40q-26 2 -56.5 2h-56.5q7 17 14.5 36.5t14.5 40t13 40t10 35.5q35 0 80.5 0.5t84.5 2.5z" />
    <glyph glyph-name="acircumflex" unicode="&#xe2;" horiz-adv-x="572" 
d="M538 379q0 -37 -2.5 -91t-4.5 -112q-1 -49 0 -97.5t6 -88.5q-56 5 -111.5 1.5t-111.5 -6.5q-34 -2 -66.5 -4t-62 -2t-53.5 3.5t-42 12.5q-22 12 -37.5 35.5t-23 52t-6 59.5t12.5 59q14 36 36 55t49 28.5t58 13t63 9.5q53 9 86 22.5t35 50.5q1 15 -5.5 25t-17 17t-23 10
t-22.5 3q-11 0 -23.5 -4.5t-24 -14t-19.5 -25.5t-9 -40q-60 5 -104.5 2.5t-67.5 -3.5q4 95 67 143.5t197 48.5q68 0 112 -16t69.5 -40t35.5 -52.5t10 -54.5zM351 121q14 23 12 48.5t-27 36.5q-11 5 -33 6t-44 -5.5t-37.5 -22.5t-14.5 -45q1 -27 21 -38t45 -11t48 9t30 22z
M490 581q-30 0 -67 -1t-64 -3q-8 17 -15 32.5t-14 26.5q-9 17 -18.5 25.5t-17.5 9.5q-7 0 -16 -8.5t-18 -22t-17 -31t-14 -34.5q-16 2 -50 2.5t-76 -1.5q11 17 24.5 39.5t26 45.5t24 46t17.5 42q19 -1 43.5 -1.5t51 -0.5t53.5 1t50 3q7 -15 19 -37t25.5 -46t27.5 -47t25 -40
z" />
    <glyph glyph-name="atilde" unicode="&#xe3;" horiz-adv-x="572" 
d="M538 379q0 -37 -2.5 -91t-4.5 -112q-1 -49 0 -97.5t6 -88.5q-56 5 -111.5 1.5t-111.5 -6.5q-34 -2 -66.5 -4t-62 -2t-53.5 3.5t-42 12.5q-22 12 -37.5 35.5t-23 52t-6 59.5t12.5 59q14 36 36 55t49 28.5t58 13t63 9.5q53 9 86 22.5t35 50.5q1 15 -5.5 25t-17 17t-23 10
t-22.5 3q-11 0 -23.5 -4.5t-24 -14t-19.5 -25.5t-9 -40q-60 5 -104.5 2.5t-67.5 -3.5q4 95 67 143.5t197 48.5q68 0 112 -16t69.5 -40t35.5 -52.5t10 -54.5zM351 121q14 23 12 48.5t-27 36.5q-11 5 -33 6t-44 -5.5t-37.5 -22.5t-14.5 -45q1 -27 21 -38t45 -11t48 9t30 22z
M474 599q-21 -10 -39 -15.5t-36 -6.5t-36.5 4t-41.5 16q-28 13 -55.5 17t-54 2.5t-50 -7.5t-43.5 -14q5 29 4.5 59.5t-8.5 57.5q13 6 34.5 14.5t47.5 13.5t54 3.5t55 -15.5q24 -12 47 -17t44 -4.5t40 5.5t37 11q-2 -23 -2.5 -57.5t3.5 -66.5z" />
    <glyph glyph-name="adieresis" unicode="&#xe4;" horiz-adv-x="572" 
d="M538 379q0 -37 -2.5 -91t-4.5 -112q-1 -49 0 -97.5t6 -88.5q-56 5 -111.5 1.5t-111.5 -6.5q-34 -2 -66.5 -4t-62 -2t-53.5 3.5t-42 12.5q-22 12 -37.5 35.5t-23 52t-6 59.5t12.5 59q14 36 36 55t49 28.5t58 13t63 9.5q53 9 86 22.5t35 50.5q1 15 -5.5 25t-17 17t-23 10
t-22.5 3q-11 0 -23.5 -4.5t-24 -14t-19.5 -25.5t-9 -40q-60 5 -104.5 2.5t-67.5 -3.5q4 95 67 143.5t197 48.5q68 0 112 -16t69.5 -40t35.5 -52.5t10 -54.5zM351 121q14 23 12 48.5t-27 36.5q-11 5 -33 6t-44 -5.5t-37.5 -22.5t-14.5 -45q1 -27 21 -38t45 -11t48 9t30 22z
M515 652q0 -42 -20 -60t-58 -18t-57.5 18t-19.5 60t19.5 60t57.5 18t58 -18t20 -60zM265 654q0 -42 -19.5 -60t-57.5 -18t-58 18t-20 60t20 60t58 18t57.5 -18t19.5 -60z" />
    <glyph glyph-name="aring" unicode="&#xe5;" horiz-adv-x="572" 
d="M538 379q0 -37 -2.5 -91t-4.5 -112q-1 -49 0 -97.5t6 -88.5q-56 5 -111.5 1.5t-111.5 -6.5q-34 -2 -66.5 -4t-62 -2t-53.5 3.5t-42 12.5q-22 12 -37.5 35.5t-23 52t-6 59.5t12.5 59q14 36 36 55t49 28.5t58 13t63 9.5q53 9 86 22.5t35 50.5q1 15 -5.5 25t-17 17t-23 10
t-22.5 3q-11 0 -23.5 -4.5t-24 -14t-19.5 -25.5t-9 -40q-60 5 -104.5 2.5t-67.5 -3.5q4 95 67 143.5t197 48.5q68 0 112 -16t69.5 -40t35.5 -52.5t10 -54.5zM351 121q14 23 12 48.5t-27 36.5q-11 5 -33 6t-44 -5.5t-37.5 -22.5t-14.5 -45q1 -27 21 -38t45 -11t48 9t30 22z
M465 707q6 -40 -5 -65t-33.5 -38.5t-53 -19t-63.5 -6.5q-42 -2 -83.5 2t-79.5 21q-30 13 -41 38t-6 51.5t24 49t48 30.5q19 5 42 8t47 4t47.5 0.5t42.5 -3.5q16 -2 34.5 -6t35.5 -12.5t29 -21.5t15 -32zM351 661q9 20 -3.5 37.5t-32.5 20.5q-7 1 -19 1.5t-25 0t-24.5 -2.5
t-17.5 -7q-20 -14 -19 -30t22 -28q11 -6 28.5 -10t36 -4.5t34 4.5t20.5 18z" />
    <glyph glyph-name="ae" unicode="&#xe6;" horiz-adv-x="922" 
d="M894 222q-40 0 -82.5 -1t-82 -2.5t-73 -4t-54.5 -5.5q-15 -2 -24.5 -8.5t-15 -14.5t-7.5 -17t-2 -17q0 -13 6.5 -25t18 -20.5t26.5 -13.5t31 -4q38 1 53.5 25t17.5 56q27 -1 54.5 -1.5t52.5 0t45.5 1t33.5 1.5q3 -42 -12.5 -82.5t-54.5 -68.5q-16 -12 -39.5 -21t-51 -16
t-58 -10.5t-60.5 -3.5q-36 0 -66 6t-54 17q-45 1 -91 -2t-91 -5q-34 -2 -66.5 -4t-62 -2t-53.5 3.5t-42 12.5q-22 12 -37.5 35.5t-23 52t-6 59.5t12.5 59q14 36 36 55t49 28.5t58 13t63 9.5q53 9 86 22.5t35 50.5q1 15 -5.5 25t-17 17t-23 10t-22.5 3q-11 0 -23.5 -4.5
t-24 -14t-19.5 -25.5t-9 -40q-60 5 -104.5 2.5t-67.5 -3.5q4 95 67 143.5t197 48.5q54 0 92.5 -10t64.5 -27q32 20 71.5 33t83.5 13q64 0 112.5 -11t87.5 -45q37 -32 58 -101t13 -172zM706 328q3 21 -2 38.5t-14.5 30t-23 20t-28.5 7.5q-29 0 -52 -25.5t-23 -67.5
q0 -13 22 -19.5t48 -6.5t49 6t24 17zM351 121q14 23 12 48.5t-27 36.5q-11 5 -33 6t-44 -5.5t-37.5 -22.5t-14.5 -45q1 -27 21 -38t45 -11t48 9t30 22z" />
    <glyph glyph-name="ccedilla" unicode="&#xe7;" horiz-adv-x="576" 
d="M556 315q-13 1 -34.5 1.5t-47 0.5h-53.5t-54 -1q-1 14 -5.5 30t-13.5 29.5t-22.5 23t-33.5 9.5q-15 1 -27.5 -4.5t-22 -14.5t-16 -20t-8.5 -21q-3 -15 -5 -36.5t-3 -44.5t-0.5 -45t3.5 -39q3 -21 11.5 -35.5t19.5 -24t23.5 -13.5t24.5 -4t24 7t21.5 19t16 28t7.5 34
q26 -2 54 -2.5t55 0t49.5 1t35.5 1.5q-1 -27 -6.5 -52.5t-15.5 -48t-23 -40t-29 -27.5q-39 -26 -79 -37q0 -38 -6 -71t-29 -65q-43 -57 -113 -74.5t-167 -2.5q6 24 4 55t-8 57q44 0 70.5 6t41 17.5t18.5 29t3 41.5q-49 8 -87.5 26t-59.5 45q-18 23 -28 58t-14.5 73t-3.5 76
t6 68t19.5 67.5t44 69.5t76 54t116.5 22q61 0 116.5 -11.5t87.5 -35.5q20 -14 32.5 -34t20.5 -44t11 -50t3 -51z" />
    <glyph glyph-name="egrave" unicode="&#xe8;" horiz-adv-x="582" 
d="M557 216q8 103 -13.5 172.5t-58.5 101.5q-38 33 -87 44.5t-113 11.5q-35 0 -67.5 -8.5t-60.5 -22.5t-50 -31.5t-37 -36.5q-18 -22 -28 -58t-14.5 -75t-4 -76.5t3.5 -64.5q3 -30 16.5 -66.5t42 -68t75.5 -53t117 -21.5q30 0 60.5 3.5t58 10.5t51 16t39.5 21q39 28 54.5 68
t12.5 82q-13 -1 -33.5 -1.5t-45 -1t-52.5 0t-55 1.5q-2 -32 -17.5 -55.5t-53.5 -25.5q-15 0 -30 5t-26.5 13.5t-18.5 20.5t-7 25q0 8 2 17t7.5 17t15 14.5t24.5 8.5q21 3 54.5 5.5t73 4t82.5 2t83 0.5zM368 322q-1 -7 -12 -12t-27 -7.5t-34 -2.5t-33.5 2.5t-26 8.5t-10.5 15
q0 42 23 67.5t52 25.5q15 0 28.5 -7.5t23 -20.5t14.5 -30.5t2 -38.5zM154 742q39 -2 84.5 -2.5t79.5 0.5q4 -17 9.5 -38.5t12 -43.5t13.5 -43t14 -39h-56t-57 -2q-9 23 -20.5 43.5t-24.5 40.5q-14 20 -27.5 41t-27.5 43z" />
    <glyph glyph-name="eacute" unicode="&#xe9;" horiz-adv-x="582" 
d="M557 216q-40 0 -83 -0.5t-82.5 -2t-73 -4t-54.5 -5.5q-15 -2 -24.5 -8.5t-15 -14.5t-7.5 -17t-2 -17q0 -13 7 -25t18.5 -20.5t26.5 -13.5t30 -5q38 2 53.5 25.5t17.5 55.5q27 -1 55 -1.5t52.5 0t45 1t33.5 1.5q3 -42 -12.5 -82t-54.5 -68q-16 -12 -39.5 -21t-51 -16
t-58 -10.5t-60.5 -3.5q-70 0 -117 21.5t-75.5 53t-42 68t-16.5 66.5q-3 27 -3.5 64.5t4 76.5t14.5 75t28 58q15 19 37 36.5t50 31.5t60.5 22.5t67.5 8.5q64 0 113 -11.5t87 -44.5q37 -32 58.5 -101.5t13.5 -172.5zM368 322q3 21 -2 38.5t-14.5 30.5t-23 20.5t-28.5 7.5
q-29 0 -52 -25.5t-23 -67.5q0 -9 10.5 -15t26 -8.5t33.5 -2.5t34 2.5t27 7.5t12 12zM467 729q-14 -21 -28.5 -40t-28.5 -39q-13 -19 -25 -38t-22 -40q-26 2 -56.5 2h-56.5q7 17 14.5 36.5t14.5 40t13 40t10 35.5q35 0 80.5 0.5t84.5 2.5z" />
    <glyph glyph-name="ecircumflex" unicode="&#xea;" horiz-adv-x="582" 
d="M557 216q-40 0 -83 -0.5t-82.5 -2t-73 -4t-54.5 -5.5q-15 -2 -24.5 -8.5t-15 -14.5t-7.5 -17t-2 -17q0 -13 7 -25t18.5 -20.5t26.5 -13.5t30 -5q38 2 53.5 25.5t17.5 55.5q27 -1 55 -1.5t52.5 0t45 1t33.5 1.5q3 -42 -12.5 -82t-54.5 -68q-16 -12 -39.5 -21t-51 -16
t-58 -10.5t-60.5 -3.5q-70 0 -117 21.5t-75.5 53t-42 68t-16.5 66.5q-3 27 -3.5 64.5t4 76.5t14.5 75t28 58q15 19 37 36.5t50 31.5t60.5 22.5t67.5 8.5q64 0 113 -11.5t87 -44.5q37 -32 58.5 -101.5t13.5 -172.5zM368 322q3 21 -2 38.5t-14.5 30.5t-23 20.5t-28.5 7.5
q-29 0 -52 -25.5t-23 -67.5q0 -9 10.5 -15t26 -8.5t33.5 -2.5t34 2.5t27 7.5t12 12zM490 581q-30 0 -67 -1t-64 -3q-8 17 -15 32.5t-14 26.5q-9 17 -18.5 25.5t-17.5 9.5q-7 0 -16 -8.5t-18 -22t-17 -31t-14 -34.5q-16 2 -50 2.5t-76 -1.5q11 17 24.5 39.5t26 45.5t24 46
t17.5 42q19 -1 43.5 -1.5t51 -0.5t53.5 1t50 3q7 -15 19 -37t25.5 -46t27.5 -47t25 -40z" />
    <glyph glyph-name="edieresis" unicode="&#xeb;" horiz-adv-x="582" 
d="M557 216q-40 0 -83 -0.5t-82.5 -2t-73 -4t-54.5 -5.5q-15 -2 -24.5 -8.5t-15 -14.5t-7.5 -17t-2 -17q0 -13 7 -25t18.5 -20.5t26.5 -13.5t30 -5q38 2 53.5 25.5t17.5 55.5q27 -1 55 -1.5t52.5 0t45 1t33.5 1.5q3 -42 -12.5 -82t-54.5 -68q-16 -12 -39.5 -21t-51 -16
t-58 -10.5t-60.5 -3.5q-70 0 -117 21.5t-75.5 53t-42 68t-16.5 66.5q-3 27 -3.5 64.5t4 76.5t14.5 75t28 58q15 19 37 36.5t50 31.5t60.5 22.5t67.5 8.5q64 0 113 -11.5t87 -44.5q37 -32 58.5 -101.5t13.5 -172.5zM368 322q3 21 -2 38.5t-14.5 30.5t-23 20.5t-28.5 7.5
q-29 0 -52 -25.5t-23 -67.5q0 -9 10.5 -15t26 -8.5t33.5 -2.5t34 2.5t27 7.5t12 12zM514 657q0 -42 -20 -60t-58 -18t-57.5 18t-19.5 60t19.5 60t57.5 18t58 -18t20 -60zM264 659q0 -42 -19.5 -60t-57.5 -18t-58 18t-20 60t20 60t58 18t57.5 -18t19.5 -60z" />
    <glyph glyph-name="igrave" unicode="&#xec;" horiz-adv-x="282" 
d="M234 -9q-7 119 -9 207.5t-1 152.5t3.5 104.5t5.5 61.5q-57 -5 -106 -5t-75 1q8 -81 9.5 -162t0 -151.5t-5 -124.5t-6.5 -82q26 2 52.5 2.5t51 -0.5t45.5 -2t35 -2zM-8 730q39 -2 84.5 -2.5t79.5 -0.5q4 -17 9.5 -38.5t12 -43t14 -43t14.5 -38.5h-57t-56 -2
q-9 22 -20.5 42.5t-25.5 40.5q-13 21 -27 41.5t-28 43.5z" />
    <glyph glyph-name="iacute" unicode="&#xed;" horiz-adv-x="282" 
d="M234 -9q-14 1 -35 2t-45.5 2t-51 0.5t-52.5 -2.5q3 28 6.5 82t5 124.5t0 151.5t-9.5 162q26 -1 75 -1t106 5q-3 -21 -5.5 -61.5t-3.5 -104.5t1 -152.5t9 -207.5zM304 729q-14 -21 -28.5 -40t-28.5 -39q-14 -19 -26 -38t-21 -40q-27 2 -57 2h-57q7 17 14.5 36.5t14.5 40
t13 40t10 35.5q35 0 80.5 0.5t85.5 2.5z" />
    <glyph glyph-name="icircumflex" unicode="&#xee;" horiz-adv-x="282" 
d="M234 -9q-14 1 -35 2t-45.5 2t-51 0.5t-52.5 -2.5q3 28 6.5 82t5 124.5t0 151.5t-9.5 162q26 -1 75 -1t106 5q-3 -21 -5.5 -61.5t-3.5 -104.5t1 -152.5t9 -207.5zM274 581q-20 0 -45 -1t-44 -3q-6 17 -10.5 32.5t-9.5 26.5q-12 34 -24 34q-5 0 -11 -8t-12 -21.5t-11.5 -31
t-9.5 -34.5q-11 2 -34 2.5t-52 -1.5q8 17 17 39.5t17.5 45.5t16 46t11.5 42q13 -1 30 -1.5t35 -0.5t36 1t34 3q5 -15 13 -37t17.5 -46t19 -47t16.5 -40z" />
    <glyph glyph-name="idieresis" unicode="&#xef;" horiz-adv-x="282" 
d="M234 -9q-7 119 -9 207.5t-1 152.5t3.5 104.5t5.5 61.5q-57 -5 -106 -5t-75 1q8 -81 9.5 -162t0 -151.5t-5 -124.5t-6.5 -82q26 2 52.5 2.5t51 -0.5t45.5 -2t35 -2zM305 643q0 -42 -15.5 -60t-45.5 -18q-29 0 -44.5 18t-15.5 60t15.5 59.5t44.5 17.5q30 0 45.5 -17.5
t15.5 -59.5zM110 645q0 -42 -15.5 -60t-44.5 -18q-30 0 -45.5 18t-15.5 60t15.5 60t45.5 18q29 0 44.5 -18t15.5 -60z" />
    <glyph glyph-name="ntilde" unicode="&#xf1;" horiz-adv-x="596" 
d="M563 -4q-26 2 -75.5 2.5t-122.5 -4.5q1 34 2.5 72t2.5 76q1 45 0.5 87t-5.5 74q-4 27 -21 46.5t-38 24t-39.5 -10t-25.5 -56.5q-6 -32 -7.5 -74t-0.5 -88q1 -38 2 -75.5t3 -71.5q-23 2 -71 2t-129 -4q2 29 5.5 86t5.5 128.5t1 151t-8 151.5q57 -8 106.5 -5t95.5 9
q48 6 95 11.5t96 -0.5q16 -2 36 -13t38.5 -31.5t32.5 -51t18 -71.5q2 -32 2 -87t-1 -114v-90.5t2 -73.5zM473 599q-21 -10 -39 -15.5t-36 -6.5t-36.5 4t-41.5 16q-28 13 -55.5 17t-54 2.5t-50 -7.5t-43.5 -14q5 29 4.5 59.5t-8.5 57.5q13 6 34.5 14.5t47.5 13.5t54 3.5
t55 -15.5q24 -12 47 -17t44 -4.5t40 5.5t37 11q-2 -23 -2.5 -57.5t3.5 -66.5z" />
    <glyph glyph-name="ograve" unicode="&#xf2;" horiz-adv-x="574" 
d="M551 330q-3 33 -13.5 65t-30.5 59t-50 46.5t-71 26.5q-68 13 -134.5 7t-123.5 -32q-25 -12 -44.5 -36t-32.5 -55.5t-20 -67t-8 -69.5q-1 -35 0.5 -69.5t8.5 -65.5t21.5 -57.5t39.5 -44.5q27 -20 53 -32.5t54 -19t59 -8t68 0.5q36 2 70.5 13.5t62.5 29.5t47.5 40.5
t26.5 46.5q8 26 12 60.5t5.5 67t1 58.5t-1.5 36zM371 189q-1 -16 -7.5 -31.5t-16 -28t-22 -20.5t-27.5 -9q-19 -1 -34.5 6t-26.5 19.5t-17 28.5t-8 32q-1 17 -2 39.5t-0.5 46t2.5 45t6 35.5q5 18 17.5 29.5t28 17t33.5 4t34 -10.5q14 -8 22.5 -34.5t13 -58.5t5.5 -62.5
t-1 -47.5zM132 742q39 -2 84.5 -2.5t80.5 0.5q3 -17 8.5 -38.5t12.5 -43.5t14 -43t14 -39h-57t-56 -2q-9 23 -20.5 43.5t-25.5 40.5q-13 20 -27 41t-28 43z" />
    <glyph glyph-name="oacute" unicode="&#xf3;" horiz-adv-x="574" 
d="M551 330q1 -10 1.5 -36t-1 -58.5t-5.5 -67t-12 -60.5q-7 -24 -26.5 -46.5t-47.5 -40.5t-62.5 -29.5t-70.5 -13.5q-37 -2 -68 -0.5t-59 8t-54 19t-53 32.5q-25 18 -39.5 44.5t-21.5 57.5t-8.5 65.5t-0.5 69.5q1 34 8 69.5t20 67t32.5 55.5t44.5 36q57 26 123.5 32
t134.5 -7q41 -7 71 -26.5t50 -46.5t30.5 -59t13.5 -65zM371 189q2 17 1 47.5t-5.5 62.5t-13 58.5t-22.5 34.5q-16 9 -34 10.5t-33.5 -4t-28 -17t-17.5 -29.5q-4 -14 -6 -35.5t-2.5 -45t0.5 -46t2 -39.5q2 -16 8 -32t17 -28.5t26.5 -19.5t34.5 -6q15 1 27.5 9t22 20.5t16 28
t7.5 31.5zM467 729q-14 -21 -28.5 -40t-28.5 -39q-13 -19 -25 -38t-22 -40q-26 2 -56.5 2h-56.5q7 17 14.5 36.5t14.5 40t13 40t10 35.5q35 0 80.5 0.5t84.5 2.5z" />
    <glyph glyph-name="ocircumflex" unicode="&#xf4;" horiz-adv-x="574" 
d="M551 330q1 -10 1.5 -36t-1 -58.5t-5.5 -67t-12 -60.5q-7 -24 -26.5 -46.5t-47.5 -40.5t-62.5 -29.5t-70.5 -13.5q-37 -2 -68 -0.5t-59 8t-54 19t-53 32.5q-25 18 -39.5 44.5t-21.5 57.5t-8.5 65.5t-0.5 69.5q1 34 8 69.5t20 67t32.5 55.5t44.5 36q57 26 123.5 32
t134.5 -7q41 -7 71 -26.5t50 -46.5t30.5 -59t13.5 -65zM371 189q2 17 1 47.5t-5.5 62.5t-13 58.5t-22.5 34.5q-16 9 -34 10.5t-33.5 -4t-28 -17t-17.5 -29.5q-4 -14 -6 -35.5t-2.5 -45t0.5 -46t2 -39.5q2 -16 8 -32t17 -28.5t26.5 -19.5t34.5 -6q15 1 27.5 9t22 20.5t16 28
t7.5 31.5zM490 581q-30 0 -67 -1t-64 -3q-8 17 -15 32.5t-14 26.5q-9 17 -18.5 25.5t-17.5 9.5q-7 0 -16 -8.5t-18 -22t-17 -31t-14 -34.5q-16 2 -50 2.5t-76 -1.5q11 17 24.5 39.5t26 45.5t24 46t17.5 42q19 -1 43.5 -1.5t51 -0.5t53.5 1t50 3q7 -15 19 -37t25.5 -46
t27.5 -47t25 -40z" />
    <glyph glyph-name="otilde" unicode="&#xf5;" horiz-adv-x="574" 
d="M551 330q1 -10 1.5 -36t-1 -58.5t-5.5 -67t-12 -60.5q-7 -24 -26.5 -46.5t-47.5 -40.5t-62.5 -29.5t-70.5 -13.5q-37 -2 -68 -0.5t-59 8t-54 19t-53 32.5q-25 18 -39.5 44.5t-21.5 57.5t-8.5 65.5t-0.5 69.5q1 34 8 69.5t20 67t32.5 55.5t44.5 36q57 26 123.5 32
t134.5 -7q41 -7 71 -26.5t50 -46.5t30.5 -59t13.5 -65zM371 189q2 17 1 47.5t-5.5 62.5t-13 58.5t-22.5 34.5q-16 9 -34 10.5t-33.5 -4t-28 -17t-17.5 -29.5q-4 -14 -6 -35.5t-2.5 -45t0.5 -46t2 -39.5q2 -16 8 -32t17 -28.5t26.5 -19.5t34.5 -6q15 1 27.5 9t22 20.5t16 28
t7.5 31.5zM474 599q-21 -10 -39 -15.5t-36 -6.5t-36.5 4t-41.5 16q-28 13 -55.5 17t-54 2.5t-50 -7.5t-43.5 -14q5 29 4.5 59.5t-8.5 57.5q13 6 34.5 14.5t47.5 13.5t54 3.5t55 -15.5q24 -12 47 -17t44 -4.5t40 5.5t37 11q-2 -23 -2.5 -57.5t3.5 -66.5z" />
    <glyph glyph-name="odieresis" unicode="&#xf6;" horiz-adv-x="574" 
d="M551 330q1 -10 1.5 -36t-1 -58.5t-5.5 -67t-12 -60.5q-7 -24 -26.5 -46.5t-47.5 -40.5t-62.5 -29.5t-70.5 -13.5q-37 -2 -68 -0.5t-59 8t-54 19t-53 32.5q-25 18 -39.5 44.5t-21.5 57.5t-8.5 65.5t-0.5 69.5q1 34 8 69.5t20 67t32.5 55.5t44.5 36q57 26 123.5 32
t134.5 -7q41 -7 71 -26.5t50 -46.5t30.5 -59t13.5 -65zM371 189q2 17 1 47.5t-5.5 62.5t-13 58.5t-22.5 34.5q-16 9 -34 10.5t-33.5 -4t-28 -17t-17.5 -29.5q-4 -14 -6 -35.5t-2.5 -45t0.5 -46t2 -39.5q2 -16 8 -32t17 -28.5t26.5 -19.5t34.5 -6q15 1 27.5 9t22 20.5t16 28
t7.5 31.5zM510 647q0 -42 -20 -60t-58 -18t-57.5 18t-19.5 60t19.5 60t57.5 18t58 -18t20 -60zM260 649q0 -42 -19.5 -60t-57.5 -18t-58 18t-20 60t20 60t58 18t57.5 -18t19.5 -60z" />
    <glyph glyph-name="divide" unicode="&#xf7;" horiz-adv-x="376" 
d="M342 430q-98 -6 -176.5 -6.5t-129.5 4.5q5 -38 5 -78t-3 -76q24 2 62.5 4t81.5 3t85 1t73 -2q-4 49 -2 88t4 62zM286 123q0 -47 -23.5 -67t-69.5 -20t-69.5 20t-23.5 67t23.5 67t69.5 20t69.5 -20t23.5 -67zM286 577q0 -47 -23.5 -67t-69.5 -20t-69.5 20t-23.5 67
t23.5 67t69.5 20t69.5 -20t23.5 -67z" />
    <glyph glyph-name="oslash" unicode="&#xf8;" horiz-adv-x="574" 
d="M551 330q1 -10 1.5 -36t-1 -58.5t-5.5 -67t-12 -60.5q-7 -24 -26.5 -46.5t-47.5 -40.5t-62.5 -29.5t-70.5 -13.5q-15 -1 -28.5 -1.5t-26.5 0.5q-4 -11 -7 -21.5t-6 -21.5q-21 2 -68.5 3.5t-103.5 -0.5q9 19 17.5 39t17.5 41l-14 10t-15 10q-25 18 -39.5 44.5t-21.5 57.5
t-8.5 65.5t-0.5 69.5q1 34 8 69.5t20 67t32.5 55.5t44.5 36q41 19 87 27.5t94 6.5q4 14 7.5 25.5t6.5 21.5q11 0 29.5 -0.5t41.5 -1t50 -0.5t54 1q-8 -17 -17.5 -38.5t-19.5 -45.5q44 -29 65 -74.5t25 -93.5zM266 400q-17 -5 -30 -17t-18 -31q-6 -20 -8 -54t-1 -66
q3 7 5.5 13.5t4.5 12.5q8 23 20.5 60.5t26.5 81.5zM371 189q1 12 1 32t-2 43l-6 -19q-14 -38 -26.5 -73.5t-23.5 -68.5q23 9 38.5 33.5t18.5 52.5z" />
    <glyph glyph-name="ugrave" unicode="&#xf9;" horiz-adv-x="590" 
d="M554 506q-42 -3 -91.5 -5t-97.5 0q3 -33 4.5 -79.5t2.5 -92.5t0.5 -84t-0.5 -52q-2 -35 -11 -57t-35 -31q-19 -6 -35.5 0t-29 20t-21 32.5t-10.5 37.5q-2 17 -4 52.5t-2.5 80t0 91.5t3.5 86h-75t-109 2q-2 -66 -3 -136t1 -131.5t8 -108t16 -64.5q23 -38 64.5 -59.5
t112.5 -21.5q31 0 66.5 3.5t74.5 7.5t80 7.5t83 3.5q-1 24 -2 45.5t-0.5 44t1.5 48t2 57.5q2 42 4 77.5t3 70t1 71.5t-1 84zM148 727q39 -2 84.5 -3t79.5 0q4 -17 9.5 -38.5t12.5 -43.5t14 -43t14 -39q-27 1 -57 0.5t-56 -2.5q-9 23 -20.5 43.5t-25.5 40.5q-13 20 -27 41
t-28 44z" />
    <glyph glyph-name="uacute" unicode="&#xfa;" horiz-adv-x="590" 
d="M554 506q1 -47 1 -84t-1 -71.5t-3 -70t-4 -77.5q-1 -32 -2 -57.5t-1.5 -48t0.5 -44t2 -45.5q-42 0 -83 -3.5t-80 -7.5t-74.5 -7.5t-66.5 -3.5q-71 0 -112.5 21.5t-64.5 59.5q-10 18 -16 64.5t-8 108t-1 131.5t3 136q60 -2 109 -2h75q-3 -39 -3.5 -86t0 -91.5t2.5 -80
t4 -52.5q2 -19 10.5 -37.5t21 -32.5t29 -20t35.5 0q26 9 35 31t11 57q0 14 0.5 52t-0.5 84t-2.5 92.5t-4.5 79.5q48 -2 97.5 0t91.5 5zM468 717q-15 -21 -29 -40t-28 -39q-14 -19 -26 -38t-22 -39q-26 1 -56 1.5t-57 -0.5q7 17 14.5 36.5t14.5 40t13 40t10 35.5
q35 0 80.5 0.5t85.5 2.5z" />
    <glyph glyph-name="ucircumflex" unicode="&#xfb;" horiz-adv-x="590" 
d="M554 506q1 -47 1 -84t-1 -71.5t-3 -70t-4 -77.5q-1 -32 -2 -57.5t-1.5 -48t0.5 -44t2 -45.5q-42 0 -83 -3.5t-80 -7.5t-74.5 -7.5t-66.5 -3.5q-71 0 -112.5 21.5t-64.5 59.5q-10 18 -16 64.5t-8 108t-1 131.5t3 136q60 -2 109 -2h75q-3 -39 -3.5 -86t0 -91.5t2.5 -80
t4 -52.5q2 -19 10.5 -37.5t21 -32.5t29 -20t35.5 0q26 9 35 31t11 57q0 14 0.5 52t-0.5 84t-2.5 92.5t-4.5 79.5q48 -2 97.5 0t91.5 5zM506 571q-30 0 -67 -1t-64 -3q-8 17 -15 32.5t-14 26.5q-9 17 -18.5 25.5t-17.5 9.5q-7 0 -16 -8.5t-18 -22t-17 -31t-14 -34.5
q-16 2 -50 2.5t-76 -1.5q11 17 24.5 39.5t26 45.5t24 46t17.5 42q19 -1 43.5 -1.5t51 -0.5t53.5 1t50 3q7 -15 19 -37t25.5 -46t27.5 -47t25 -40z" />
    <glyph glyph-name="udieresis" unicode="&#xfc;" horiz-adv-x="590" 
d="M554 506q1 -47 1 -84t-1 -71.5t-3 -70t-4 -77.5q-1 -32 -2 -57.5t-1.5 -48t0.5 -44t2 -45.5q-42 0 -83 -3.5t-80 -7.5t-74.5 -7.5t-66.5 -3.5q-71 0 -112.5 21.5t-64.5 59.5q-10 18 -16 64.5t-8 108t-1 131.5t3 136q60 -2 109 -2h75q-3 -39 -3.5 -86t0 -91.5t2.5 -80
t4 -52.5q2 -19 10.5 -37.5t21 -32.5t29 -20t35.5 0q26 9 35 31t11 57q0 14 0.5 52t-0.5 84t-2.5 92.5t-4.5 79.5q48 -2 97.5 0t91.5 5zM515 642q0 -42 -20 -60t-58 -18t-57.5 18t-19.5 60t19.5 60t57.5 18t58 -18t20 -60zM265 644q0 -42 -19.5 -60t-57.5 -18t-58 18t-20 60
t20 60t58 18t57.5 -18t19.5 -60z" />
    <glyph glyph-name="yacute" unicode="&#xfd;" horiz-adv-x="594" 
d="M557 511q-6 -126 -9.5 -244t4.5 -225q3 -39 -3 -74.5t-21.5 -64.5t-40 -51.5t-56.5 -34.5q-57 -22 -112 -24.5t-112 5.5q-88 13 -129.5 58t-42.5 112q34 -4 85 -5t108 4q2 -16 7 -30.5t17 -23.5q17 -14 36.5 -16t37.5 4.5t31.5 19t17.5 29.5q6 28 4 50t-9 40
q-24 -4 -60.5 -9t-76.5 -5t-78 10t-64 36q-18 18 -29 41t-16.5 54.5t-7 75t-0.5 101.5q0 16 1.5 36.5t3 42.5t2 43.5t-0.5 39.5q26 -1 53.5 -1.5t53 0t47 1.5t35.5 2q-1 -19 -3 -45t-4 -54t-3 -55t0 -50q2 -31 8.5 -58t17 -45.5t25 -28.5t32.5 -9q17 2 29 13.5t19.5 31
t10.5 45.5t3 56q0 22 -1 49l-2 54t-3 52.5t-4 45.5q29 -2 82.5 -3t116.5 4zM467 726q-15 -21 -29 -40t-28 -39q-14 -19 -26 -38.5t-21 -39.5q-27 2 -57 2h-57q7 16 14.5 36t14.5 40.5t13 40t10 35.5q35 0 80.5 0.5t85.5 2.5z" />
    <glyph glyph-name="ydieresis" unicode="&#xff;" horiz-adv-x="594" 
d="M557 511q-6 -126 -9.5 -244t4.5 -225q3 -39 -3 -74.5t-21.5 -64.5t-40 -51.5t-56.5 -34.5q-57 -22 -112 -24.5t-112 5.5q-88 13 -129.5 58t-42.5 112q34 -4 85 -5t108 4q2 -16 7 -30.5t17 -23.5q17 -14 36.5 -16t37.5 4.5t31.5 19t17.5 29.5q6 28 4 50t-9 40
q-24 -4 -60.5 -9t-76.5 -5t-78 10t-64 36q-18 18 -29 41t-16.5 54.5t-7 75t-0.5 101.5q0 16 1.5 36.5t3 42.5t2 43.5t-0.5 39.5q26 -1 53.5 -1.5t53 0t47 1.5t35.5 2q-1 -19 -3 -45t-4 -54t-3 -55t0 -50q2 -31 8.5 -58t17 -45.5t25 -28.5t32.5 -9q17 2 29 13.5t19.5 31
t10.5 45.5t3 56q0 22 -1 49l-2 54t-3 52.5t-4 45.5q29 -2 82.5 -3t116.5 4zM514 642q0 -42 -20 -60t-58 -18t-57.5 18t-19.5 60t19.5 60t57.5 18t58 -18t20 -60zM264 644q0 -42 -19.5 -60t-57.5 -18t-58 18t-20 60t20 60t58 18t57.5 -18t19.5 -60z" />
    <glyph glyph-name="Gbreve" unicode="&#x11e;" horiz-adv-x="664" 
d="M625 396q-15 0 -38.5 1t-52.5 1.5t-61 -0.5t-64 -4q0 26 -7 50.5t-16 32.5q-18 17 -39 20t-40.5 -3.5t-34 -19.5t-19.5 -27q-3 -9 -4.5 -27.5t-2.5 -41t-1 -48v-49t1 -43.5t1 -31q2 -43 25 -65t58 -29q15 -2 33 1.5t32.5 14t21.5 26t0 35.5q-3 9 -25 16t-47 5q2 18 4 48
t-3 71q31 -1 103.5 -2t175.5 3q5 -52 7 -105.5t-9 -105.5q-6 -28 -29 -51.5t-57 -41t-76 -29t-86 -13.5q-88 -5 -160 10.5t-121 57.5q-30 25 -43 67t-17 88.5t-2.5 92t2.5 76.5q2 79 33 136.5t93 85.5q67 30 141 34t153 -10q47 -9 79.5 -30.5t53 -51.5t30 -67.5t8.5 -77.5z
M506 753q2 -26 -11 -42t-37 -24q-14 -5 -29 -8t-31 -5t-34.5 -2.5t-40.5 -0.5q-49 0 -88 7t-64 25q-8 6 -11.5 17.5t-4.5 26.5t-0.5 32.5t1 34t1 31.5t-1.5 26q43 -1 77.5 -1h52.5q-2 -10 -2.5 -22t-1 -24.5t0 -24.5t1.5 -22.5t1.5 -19t1.5 -12.5q3 -15 16 -22t30 -7
q10 0 18 3.5t13.5 8.5t8 11t3.5 13q1 3 1 11t0.5 18.5t0.5 22.5t-0.5 23.5t-1.5 22.5t-2 18q33 0 66.5 -0.5t61.5 1.5q1 -19 1.5 -34.5t1 -29.5t1.5 -26.5t1 -25.5z" />
    <glyph glyph-name="gbreve" unicode="&#x11f;" horiz-adv-x="572" 
d="M538 31q6 -78 -30.5 -134t-99.5 -83q-20 -9 -48 -14t-58 -6.5t-59 0t-53 7.5q-86 19 -121.5 64t-37.5 118q29 -4 76.5 -6t105.5 2q1 -28 12 -45t25 -25q15 -8 31 -8.5t31 5.5t27 17.5t19 27.5q10 23 6 46t-9 43q-21 -7 -58.5 -10t-79 1.5t-81 18t-64.5 39.5
q-35 37 -45 107t4 158q6 39 26.5 69.5t51 52t69.5 33.5t81 14q35 2 69.5 -1.5t69.5 -8.5t70 -8t70 0q-2 -49 -3.5 -117t-1.5 -136t1 -127.5t4 -93.5zM365 271q1 68 -18.5 97t-48.5 29q-25 0 -43.5 -10t-31 -27.5t-19 -40t-6.5 -46.5q0 -23 7 -46t20 -41t31 -28.5t40 -7.5
q41 5 54.5 33t14.5 88zM476 633q2 -26 -11 -42t-37 -24q-14 -5 -29 -8t-31 -5t-34.5 -2.5t-40.5 -0.5q-49 0 -88 7t-64 25q-8 6 -11.5 17.5t-4.5 26.5t-0.5 32.5t1 34t1 31.5t-1.5 26q43 -1 77.5 -1h52.5q-2 -10 -2.5 -22t-1 -24.5t0 -24.5t1.5 -22.5t1.5 -19t1.5 -12.5
q3 -15 16 -22t30 -7q10 0 18 3.5t13.5 8.5t8 11t3.5 13q1 3 1 11t0.5 18.5t0.5 22.5t-0.5 23.5t-1.5 22.5t-2 18q33 0 66.5 -0.5t61.5 1.5q1 -19 1.5 -34.5t1 -29.5t1.5 -26.5t1 -25.5z" />
    <glyph glyph-name="Idotaccent" unicode="&#x130;" horiz-adv-x="322" 
d="M277 -1q-16 1 -41.5 2.5t-55.5 2.5t-62.5 0.5t-64.5 -3.5q2 33 5 105.5t4 169t-1.5 208.5t-12.5 224q15 -1 38.5 -1.5t52.5 0t62.5 2t68.5 4.5q-2 -25 -4.5 -77t-3 -138.5t2.5 -209.5t12 -289zM243 809q0 -42 -19.5 -60t-57.5 -18t-58 18t-20 60t20 60t58 18t57.5 -18
t19.5 -60z" />
    <glyph glyph-name="dotlessi" unicode="&#x131;" horiz-adv-x="282" 
d="M234 -9q-14 1 -35 2t-45.5 2t-51 0.5t-52.5 -2.5q3 28 6.5 82t5 124.5t0 151.5t-9.5 162q26 -1 75 -1t106 5q-3 -21 -5.5 -61.5t-3.5 -104.5t1 -152.5t9 -207.5z" />
    <glyph glyph-name="OE" unicode="&#x152;" horiz-adv-x="972" 
d="M933 706q-1 -11 -3 -32t-3.5 -45t-1 -48.5t3.5 -43.5q-32 2 -68.5 2.5t-69 0t-57 -2.5t-33.5 -6q-14 -6 -20.5 -18t-7.5 -25.5t2.5 -27t9.5 -22.5q5 -7 30 -12t60 -7.5t75 -2t75 3.5q-2 -23 -4 -63.5t2 -90.5q-31 2 -64 3t-62 0.5t-52.5 -2t-35.5 -3.5q-16 -3 -28.5 -17
t-15.5 -31.5t5.5 -32.5t35.5 -19q25 -4 56 -4.5t62 1t59.5 4t47.5 3.5q-2 -26 -4.5 -71.5t2.5 -100.5q-62 3 -126.5 3.5t-124.5 0.5t-111 -1t-86 -2q-59 -17 -122.5 -18.5t-127.5 11.5q-51 11 -87 34.5t-58.5 57t-34.5 74.5t-15 86q-1 14 -2 53.5t0.5 88.5t5.5 99t14 85
q9 34 32.5 63t56.5 51.5t74.5 36.5t86.5 17q70 5 120 -2.5t98 -33.5q69 -2 173 0t238 6zM433 477q-1 23 -7 42.5t-17.5 34t-28.5 22.5t-40 6q-34 -3 -54 -33.5t-23 -77.5q-2 -23 -3 -67t0.5 -90.5t7.5 -86.5t19 -55q16 -19 38.5 -25t44.5 -2t39.5 17.5t22.5 34.5
q6 26 7.5 65.5t0.5 80.5t-3.5 77.5t-3.5 56.5z" />
    <glyph glyph-name="oe" unicode="&#x153;" horiz-adv-x="930" 
d="M899 222q-40 0 -82.5 -1t-82 -2.5t-73 -4t-54.5 -5.5q-15 -2 -24.5 -8.5t-15 -14.5t-7.5 -17t-2 -17q0 -13 6.5 -25t18 -20.5t26.5 -13.5t31 -4q38 1 53.5 25t17.5 56q27 -1 54.5 -1.5t52.5 0t45.5 1t33.5 1.5q3 -42 -12.5 -82.5t-54.5 -68.5q-16 -12 -39.5 -21t-51 -16
t-58 -10.5t-60.5 -3.5q-57 0 -96.5 14.5t-65.5 37.5q-28 -18 -62 -29.5t-70 -13.5q-37 -2 -68 -0.5t-59 8t-54 19t-53 32.5q-25 18 -39.5 44.5t-21.5 57.5t-8.5 65.5t-0.5 69.5q1 34 8 69.5t20 67t32.5 55.5t44.5 36q57 26 123.5 32t134.5 -7q22 -4 40.5 -11.5t34.5 -18.5
q33 23 76 38.5t91 15.5q64 0 112.5 -11t87.5 -45q37 -32 58 -101t13 -172zM711 328q3 21 -2 38.5t-14.5 30t-23 20t-28.5 7.5q-29 0 -52 -25.5t-23 -67.5q0 -13 22 -19.5t48 -6.5t49 6t24 17zM371 189q2 17 1 47.5t-5.5 62.5t-13 58.5t-22.5 34.5q-16 9 -34 10.5t-33.5 -4
t-28 -17t-17.5 -29.5q-4 -14 -6 -35.5t-2.5 -45t0.5 -46t2 -39.5q2 -16 8 -32t17 -28.5t26.5 -19.5t34.5 -6q15 1 27.5 9t22 20.5t16 28t7.5 31.5z" />
    <glyph glyph-name="Scedilla" unicode="&#x15e;" horiz-adv-x="662" 
d="M283 -16q-37 3 -78 10q-52 8 -85 34t-51.5 61.5t-24.5 75.5t-4 76q14 -1 37 -2t50.5 -1.5t58 0t60.5 1.5q2 -28 9 -53.5t25 -36.5q12 -7 28.5 -11t34.5 -4t34.5 6t27.5 19q15 18 17.5 35t-8 32t-32.5 26.5t-55 16.5q-31 5 -65.5 11t-67.5 16.5t-64 26.5t-56 40
q-16 15 -25 45t-11 66t3.5 73t18.5 66q23 52 80.5 82t148.5 40q37 4 74.5 2.5t73 -7.5t66 -16.5t53.5 -25.5q41 -26 58 -83.5t15 -142.5q-23 2 -75 3t-137 -2q2 40 -11.5 73t-42.5 40q-13 3 -32 2.5t-36 -8.5t-28.5 -24t-10.5 -43q1 -26 14.5 -41t33 -23t42.5 -11.5t43 -6.5
q16 -3 31.5 -5.5t31.5 -4.5q31 -5 59.5 -13t52 -20t41 -28.5t26.5 -39.5q8 -19 11 -51t-2 -69t-20 -73.5t-43 -63.5q-43 -42 -108 -59q-1 -9 -1 -18q-3 -24 -10.5 -46.5t-23.5 -43.5q-42 -57 -112.5 -74t-167.5 -3q7 25 4.5 56t-7.5 57q56 0 84.5 9.5t39.5 28.5q6 11 8 24z
" />
    <glyph glyph-name="scedilla" unicode="&#x15f;" horiz-adv-x="588" 
d="M279 -31q-47 1 -87 8q-52 9 -95 36q-16 10 -27 21t-18.5 26.5t-11 36t-3.5 50.5q26 -2 74.5 -3.5t115.5 2.5q5 -35 26 -52t44 -17q10 0 23.5 3t26 11t21 21.5t6.5 35.5q-2 20 -25.5 31t-63.5 21q-31 8 -68 13.5t-72 12.5q-59 11 -83 45t-26 96q-1 29 10.5 60.5t40.5 58.5
t78.5 44.5t122.5 17.5q72 0 122 -11t82.5 -34t48.5 -58.5t19 -84.5q-29 2 -81 3.5t-105 -1.5q-7 31 -30 50t-49 19q-28 0 -49.5 -18.5t-21.5 -44.5q0 -29 21 -37.5t66 -15.5q30 -5 61.5 -8t61.5 -9q29 -6 53 -17t42 -31q14 -14 21 -37.5t8 -50.5t-4 -54.5t-16 -50.5
q-10 -20 -33 -36q-16 -12 -36 -21q0 -12 -1 -24q-3 -24 -10.5 -46.5t-23.5 -43.5q-42 -57 -112.5 -74t-167.5 -3q7 25 4.5 56t-7.5 57q56 0 84.5 9.5t39.5 28.5q2 4 4 9z" />
    <glyph glyph-name="Ydieresis" unicode="&#x178;" 
d="M683 635q-33 -1 -67.5 -1.5t-65.5 -0.5t-57 0.5t-41 1.5q-11 -53 -25.5 -96.5t-29 -74.5t-26 -48t-17.5 -17q-7 0 -19 14t-26.5 43t-29 74t-27.5 106q-32 -3 -66 -4.5t-66 -2t-59.5 0t-47.5 0.5q19 -29 39 -64.5t40 -73.5t39.5 -77t36.5 -75q40 -84 80 -173
q2 -63 -0.5 -106t-4.5 -66q92 4 149 4t84 -2q-5 50 -6.5 83.5t-1.5 55.5q0 26 2 41q13 35 31 77t38 86.5t41.5 88t40.5 83t35.5 71.5t26.5 52zM553 754q0 -42 -20 -60t-58 -18t-57.5 18t-19.5 60t19.5 60.5t57.5 18.5t58 -18.5t20 -60.5zM304 757q0 -42 -20 -60.5t-58 -18.5
t-58 18.5t-20 60.5t20 60t58 18t58 -18t20 -60z" />
    <glyph glyph-name="florin" unicode="&#x192;" horiz-adv-x="446" 
d="M409 741q-2 -26 -2.5 -57t1.5 -57q-13 -3 -30.5 -10t-33.5 -20t-27 -33t-12 -49q-1 -15 0.5 -37.5t3.5 -51.5q17 1 33.5 1.5t33.5 2.5q-2 -23 -4 -62t2 -88q-13 1 -27.5 1.5t-31.5 0.5q0 -43 -4 -84.5t-15 -77.5q-20 -69 -84 -100t-173 -29q2 25 2 54t-3 58q14 3 31.5 10
t33 20.5t27 33.5t13.5 50q2 31 0 61q-21 -1 -39 -1.5t-32 -2.5q3 36 3.5 76t-5.5 78q14 -2 30 -2.5t35 -1.5q-2 48 0 95t16 93q20 69 81.5 100t176.5 29z" />
    <glyph glyph-name="circumflex" unicode="&#x2c6;" horiz-adv-x="491" 
d="M433 566q-30 0 -67 -1t-64 -3q-8 17 -15 32.5t-14 26.5q-9 17 -18.5 25.5t-17.5 9.5q-7 0 -16 -8.5t-18 -22t-17 -31t-14 -34.5q-16 2 -50 2.5t-76 -1.5q11 17 24.5 39.5t26 45.5t24 46t17.5 42q19 -1 43.5 -1.5t51 -0.5t53.5 1t50 3q7 -15 19 -37t25.5 -46t27.5 -47
t25 -40z" />
    <glyph glyph-name="ring" unicode="&#x2da;" horiz-adv-x="428" 
d="M390 663q6 -40 -5 -65t-33.5 -38.5t-53 -19t-63.5 -6.5q-42 -2 -83.5 2t-79.5 21q-30 13 -41 38t-6 51.5t24 49t48 30.5q19 5 42 8t47 4t47.5 0.5t42.5 -3.5q16 -2 34.5 -6t35.5 -12.5t29 -21.5t15 -32zM276 617q9 20 -3.5 37.5t-32.5 20.5q-7 1 -19 1.5t-25 0
t-24.5 -2.5t-17.5 -7q-20 -14 -19 -30t22 -28q11 -6 28.5 -10t36 -4.5t34 4.5t20.5 18z" />
    <glyph glyph-name="tilde" unicode="&#x2dc;" horiz-adv-x="490" 
d="M412 604q-21 -10 -39 -15.5t-36 -6.5t-36.5 4t-41.5 16q-28 13 -55.5 17t-54 2.5t-50 -7.5t-43.5 -14q5 29 4.5 59.5t-8.5 57.5q13 6 34.5 14.5t47.5 13.5t54 3.5t55 -15.5q24 -12 47 -17t44 -4.5t40 5.5t37 11q-2 -23 -2.5 -57.5t3.5 -66.5z" />
    <glyph glyph-name="Delta" unicode="&#x394;" 
d="M686 5q-169 5 -339.5 3t-339.5 -13q6 24 17.5 67.5t25 100t28.5 123t29.5 137.5t27 143t20.5 140q21 -1 59.5 -3.5t89.5 -3.5t110.5 0t121.5 5q2 -22 8.5 -70.5t23 -132t45 -205.5t73.5 -291zM430 144q-9 62 -21.5 119.5t-25.5 102t-25.5 71.5t-21.5 27t-20 -28.5
t-22 -73.5t-21 -102.5t-16 -116.5h84t89 1z" />
    <glyph glyph-name="Delta" unicode="&#x2206;" 
d="M686 5q-169 5 -339.5 3t-339.5 -13q6 24 17.5 67.5t25 100t28.5 123t29.5 137.5t27 143t20.5 140q21 -1 59.5 -3.5t89.5 -3.5t110.5 0t121.5 5q2 -22 8.5 -70.5t23 -132t45 -205.5t73.5 -291zM430 144q-9 62 -21.5 119.5t-25.5 102t-25.5 71.5t-21.5 27t-20 -28.5
t-22 -73.5t-21 -102.5t-16 -116.5h84t89 1z" />
    <glyph glyph-name="Omega" unicode="&#x3a9;" horiz-adv-x="706" 
d="M683 153q-2 -23 -4 -62t2 -88q-66 5 -133.5 0t-133.5 -8q11 69 15.5 138.5t5.5 130t-1 107t-4 69.5q-6 54 -28 79t-53 25q-18 0 -31.5 -11.5t-22.5 -30t-14 -41t-6 -44.5q0 -13 0.5 -41t2 -65.5t4 -80t5 -84.5t5.5 -79.5t6 -65.5q-28 1 -63.5 2t-72 1t-72 -1.5
t-65.5 -4.5q3 35 3.5 74.5t-5.5 77.5q7 -1 22 -1.5t41 -2.5q-10 38 -17 70.5t-11.5 64t-7.5 64.5t-4 70q-2 92 20.5 153t63.5 90q26 18 51.5 29t53.5 17.5t59.5 9t69.5 2.5q43 0 84.5 -9t77.5 -25.5t63.5 -39t40.5 -48.5q9 -18 15 -62t6.5 -104t-5 -132t-19.5 -146l56 3v0z
" />
    <glyph glyph-name="Omega" unicode="&#x2126;" horiz-adv-x="706" 
d="M683 153q-2 -23 -4 -62t2 -88q-66 5 -133.5 0t-133.5 -8q11 69 15.5 138.5t5.5 130t-1 107t-4 69.5q-6 54 -28 79t-53 25q-18 0 -31.5 -11.5t-22.5 -30t-14 -41t-6 -44.5q0 -13 0.5 -41t2 -65.5t4 -80t5 -84.5t5.5 -79.5t6 -65.5q-28 1 -63.5 2t-72 1t-72 -1.5
t-65.5 -4.5q3 35 3.5 74.5t-5.5 77.5q7 -1 22 -1.5t41 -2.5q-10 38 -17 70.5t-11.5 64t-7.5 64.5t-4 70q-2 92 20.5 153t63.5 90q26 18 51.5 29t53.5 17.5t59.5 9t69.5 2.5q43 0 84.5 -9t77.5 -25.5t63.5 -39t40.5 -48.5q9 -18 15 -62t6.5 -104t-5 -132t-19.5 -146l56 3v0z
" />
    <glyph glyph-name="pi" unicode="&#x3c0;" horiz-adv-x="700" 
d="M682 535q-2 -18 -3.5 -51t-1.5 -78q-28 0 -57.5 -3.5t-40.5 -13.5q-7 -7 -11.5 -29.5t-7 -55.5t-3.5 -73t-0.5 -80t2.5 -78t4 -68q-13 0 -32.5 1t-42 1t-46 -1t-45.5 -4q5 69 7 132.5t1 115.5t-5 88t-12 51q-4 8 -13.5 10.5t-20.5 2t-21.5 -4t-15.5 -8.5
q-7 -7 -11.5 -29.5t-7 -55.5t-3.5 -73t-0.5 -80t2.5 -78t4 -68q-13 0 -32.5 1t-42 1t-46 -1t-44.5 -4q5 69 6.5 132.5t0.5 115.5t-5 88t-12 51q-3 6 -14.5 9.5t-26.5 5t-32.5 1t-34.5 -1.5q2 23 4 60.5t0 69.5q165 -5 330 -5t330 7z" />
    <glyph glyph-name="endash" unicode="&#x2013;" horiz-adv-x="376" 
d="M342 430q-2 -23 -4 -62t2 -88q-31 2 -73 2t-85 -1t-81.5 -3t-62.5 -4q3 36 3 76t-5 78q51 -5 129.5 -4.5t176.5 6.5z" />
    <glyph glyph-name="emdash" unicode="&#x2014;" horiz-adv-x="476" 
d="M442 430q-2 -23 -4 -62t2 -88q-36 2 -92 2t-115 -1t-112 -3t-83 -4q3 35 3.5 75.5t-5.5 78.5q31 -2 78.5 -3t102.5 -1t113.5 1.5t111.5 4.5z" />
    <glyph glyph-name="quoteleft" unicode="&#x2018;" horiz-adv-x="254" 
d="M186 733q4 -32 6 -62.5t5 -59.5t7.5 -59t12.5 -62q-26 2 -55 3t-55 0q-7 25 -16 56t-19.5 62.5t-21 62t-19.5 55.5q33 -1 76 0.5t79 3.5z" />
    <glyph glyph-name="quoteright" unicode="&#x2019;" horiz-adv-x="254" 
d="M236 733q-14 -32 -27.5 -62.5t-26.5 -59.5t-24.5 -59t-20.5 -62q-26 2 -54.5 3t-54.5 0q7 25 14 56t14 62.5t12.5 62t9.5 55.5q33 -1 76.5 0.5t81.5 3.5z" />
    <glyph glyph-name="quotesinglbase" unicode="&#x201a;" horiz-adv-x="254" 
d="M216 211q-14 -32 -27.5 -62t-26.5 -60q-13 -29 -24.5 -58.5t-20.5 -61.5q-26 2 -54.5 2.5t-54.5 0.5q7 25 14 55.5t14 62t12.5 62t9.5 55.5q33 -1 76.5 0.5t81.5 3.5z" />
    <glyph glyph-name="quotedblleft" unicode="&#x201c;" horiz-adv-x="472" 
d="M393 727q-3 -62 2.5 -124t13.5 -107q-23 3 -49.5 4.5t-47.5 2.5q-4 23 -11.5 51t-15.5 57t-17 57t-16 51q29 0 69.5 2.5t71.5 5.5zM191 728q9 -60 19.5 -117.5t26.5 -114.5q-24 2 -53 2.5t-50 -0.5q-9 27 -19 56.5t-21.5 59.5t-23 58t-22.5 51q15 0 34 0.5t38.5 1
t37.5 1.5t33 2z" />
    <glyph glyph-name="quotedblright" unicode="&#x201d;" horiz-adv-x="472" 
d="M440 727q-36 -62 -64 -124t-44 -107q-21 3 -47 4.5t-46 2.5q8 23 15.5 51t14.5 57q8 29 14 57t11 51q15 0 33.5 0.5t38 2l39 3t35.5 2.5zM238 728q-23 -60 -43.5 -117.5t-34.5 -114.5q-23 2 -51.5 2.5t-50.5 -0.5q6 27 11.5 56.5t10 59.5t8.5 58t5 51q15 0 34 0.5t38.5 1
t38.5 1.5t34 2z" />
    <glyph glyph-name="quotedblbase" unicode="&#x201e;" horiz-adv-x="472" 
d="M440 207q-36 -62 -64 -123.5t-44 -106.5q-21 2 -47 3.5t-46 2.5q8 23 15.5 51t14.5 57q8 29 14 57t11 51q15 0 33.5 1t38 2t39 2.5t35.5 2.5zM238 208q-23 -60 -43.5 -117.5t-34.5 -113.5q-23 2 -51.5 2h-50.5q6 26 11.5 56t10 59.5t8.5 58t5 51.5h34t38.5 0.5t38.5 1.5
t34 2z" />
    <glyph glyph-name="dagger" unicode="&#x2020;" horiz-adv-x="376" 
d="M342 430q-2 -23 -4 -62t2 -88q-14 1 -30.5 1.5t-34.5 0.5q1 -84 3.5 -157.5t8.5 -124.5q-27 2 -78.5 2.5t-121.5 -7.5q2 35 4 109.5t4 173.5q-17 -1 -31.5 -1.5t-25.5 -2.5q3 36 3 76t-5 78q26 -3 60 -3q-1 72 -2.5 146t-6.5 146q29 -1 84 -1t115 3q-1 -21 -2.5 -52
t-3 -69t-2.5 -81.5t-2 -90.5q16 1 32.5 1.5t33.5 2.5z" />
    <glyph glyph-name="daggerdbl" unicode="&#x2021;" horiz-adv-x="366" 
d="M328 314q-4 -24 -6 -54q-2 -26 -2 -60t5 -73q-11 1 -22.5 1.5t-24.5 0.5q2 -38 4 -70.5t5 -58.5q-27 2 -78.5 2.5t-121.5 -7.5q1 20 2 52.5t3 76.5q-15 -1 -26 -2t-18 -2q7 43 7.5 95t-11.5 97q14 -1 26.5 -2t24.5 -2q1 17 1 34.5v34.5q-16 -1 -28 -2t-20 -2q7 43 7.5 95
t-11.5 97q14 -2 26 -2.5t24 -1.5q-2 39 -3.5 78.5t-3.5 77.5q29 -1 84 -1t115 3q-2 -26 -3.5 -66t-3.5 -89q11 0 23 0.5t26 1.5q-4 -24 -6 -54q-2 -26 -2 -60t5 -73q-24 3 -50 3v-71q12 1 25.5 1.5t27.5 1.5z" />
    <glyph glyph-name="bullet" unicode="&#x2022;" horiz-adv-x="340" 
d="M299 357q0 -57 -32 -81.5t-95 -24.5q-62 0 -94 24.5t-32 81.5t32 81.5t94 24.5q63 0 95 -24.5t32 -81.5z" />
    <glyph glyph-name="ellipsis" unicode="&#x2026;" horiz-adv-x="844" 
d="M228 80q0 -47 -24 -67t-69 -20q-46 0 -70 20t-24 67q0 48 24 67.5t70 19.5q45 0 69 -19.5t24 -67.5zM503 80q0 -47 -24 -67t-69 -20q-46 0 -70 20t-24 67q0 48 24 67.5t70 19.5q45 0 69 -19.5t24 -67.5zM778 80q0 -47 -24 -67t-69 -20q-46 0 -70 20t-24 67q0 48 24 67.5
t70 19.5q45 0 69 -19.5t24 -67.5z" />
    <glyph glyph-name="perthousand" unicode="&#x2030;" horiz-adv-x="1114" 
d="M1088 267q0 -7 0.5 -27t-1 -44t-4 -49.5t-8.5 -44.5q-5 -17 -19 -33t-34.5 -29t-45.5 -21.5t-52 -10.5q-53 -3 -91 5t-76 35q-21 -17 -49 -27.5t-60 -12.5q-55 -4 -93.5 5.5t-78.5 38.5q-22 16 -32.5 40.5t-14.5 53.5q-31 -79 -54 -144q-13 1 -35.5 2t-51.5 1.5t-63 0.5
t-69 -2q21 41 43 86l44 90t41.5 87.5t34.5 78.5q-33 -15 -72 -18q-55 -4 -93.5 5.5t-79.5 37.5q-18 13 -28.5 32t-15.5 41.5t-6 48t0 51.5t6 52t14.5 49t23.5 41t32 26q42 19 91 23.5t99 -5.5q30 -6 52 -20t36.5 -33.5t22.5 -42.5t9 -47v-3q14 38 26.5 72t20.5 60
q14 0 37.5 -1t53.5 -1h64.5t68.5 1q-15 -28 -33.5 -64.5t-37.5 -77.5t-38 -84t-37 -85q74 23 157 6q20 -4 36.5 -11.5t30.5 -18.5q4 4 8.5 7t9.5 5q42 19 91 23.5t100 -5.5q30 -6 52 -20t36.5 -33.5t22 -42.5t9.5 -47zM965 166q1 12 0 33.5t-4.5 44t-11 41t-19.5 23.5
q-13 6 -27.5 7t-27.5 -2.5t-23.5 -11t-15.5 -19.5q-11 -27 -9 -58t4 -60q1 -13 6.5 -24.5t15 -20.5t22.5 -14t28 -4q24 2 41.5 21t20.5 44zM689 166q2 12 1 33.5t-5 44t-11.5 41t-19.5 23.5q-13 6 -27.5 7t-27.5 -2.5t-23 -11t-15 -19.5q-11 -27 -9 -58t4 -60
q1 -13 6.5 -24.5t14.5 -20.5t22 -14t29 -4q23 2 40.5 21t20.5 44zM287 486q2 12 1 33.5t-5 43.5t-11.5 40.5t-19.5 24.5t-26.5 7t-27.5 -2.5t-23.5 -11t-15.5 -19.5q-11 -27 -9 -58.5t4 -59.5q2 -26 21.5 -45.5t50.5 -17.5q24 1 41 20.5t20 44.5z" />
    <glyph glyph-name="guilsinglleft" unicode="&#x2039;" horiz-adv-x="480" 
d="M443 626q-19 -25 -43 -58.5t-48.5 -71t-46 -77.5t-36.5 -78q24 -41 50 -83q23 -36 52 -79t61 -85q-19 0 -45 0.5t-55.5 0.5t-59 -0.5t-56.5 -2.5q-24 54 -75 119.5t-115 129.5q36 41 66.5 81t55 77.5t42.5 70t29 57.5q14 0 37.5 -0.5t53.5 -1t64.5 -0.5t68.5 1z" />
    <glyph glyph-name="guilsinglright" unicode="&#x203a;" horiz-adv-x="480" 
d="M38 93q19 25 43 58t48 71t45.5 78t36.5 78q-24 41 -50 83q-23 36 -52 79.5t-61 84.5q19 0 45 -0.5t55.5 -0.5t59 0.5t56.5 1.5q24 -54 75 -119t115 -129q-36 -40 -66.5 -80.5t-55 -78t-42.5 -70t-29 -57.5q-13 0 -37 0.5t-54 1t-64 0.5t-68 -1z" />
    <glyph glyph-name="fraction" unicode="&#x2044;" horiz-adv-x="562" 
d="M540 715q-18 -33 -40 -78t-45 -94.5t-45 -101t-41 -97.5q-43 -105 -77 -189t-57 -153q-13 1 -35.5 2t-51.5 1.5t-63 0.5t-69 -2q21 42 44.5 89.5t46 94t42.5 90.5t35 80q11 27 28.5 73t37 98t37.5 102t29 85q14 0 38 -1t54 -1h64t68 1z" />
    <glyph glyph-name="fraction" unicode="&#x2215;" horiz-adv-x="562" 
d="M540 715q-18 -33 -40 -78t-45 -94.5t-45 -101t-41 -97.5q-43 -105 -77 -189t-57 -153q-13 1 -35.5 2t-51.5 1.5t-63 0.5t-69 -2q21 42 44.5 89.5t46 94t42.5 90.5t35 80q11 27 28.5 73t37 98t37.5 102t29 85q14 0 38 -1t54 -1h64t68 1z" />
    <glyph glyph-name="Euro" unicode="&#x20ac;" horiz-adv-x="742" 
d="M688 278q-1 -27 -3.5 -61t-10 -67t-21.5 -62.5t-38 -48.5q-19 -15 -46.5 -25t-60.5 -16t-70 -9t-74 -3q-79 0 -131 18.5t-83.5 47.5t-46.5 66.5t-20 74.5q-17 0 -30.5 -0.5t-24.5 -1.5q4 30 4 63.5t-6 65.5q11 -1 24 -1.5t27 -0.5v21t1 21q-15 0 -27.5 -0.5t-22.5 -1.5
q4 31 4 66t-6 68q12 -1 27 -1.5t32 -1.5q5 37 11 67t14 48q14 31 41 55.5t62 42t76 26.5t84 9q77 0 136.5 -14t110.5 -49q19 -13 32 -38t20.5 -59t11 -75t2.5 -86q-13 0 -38.5 1.5t-56.5 2.5t-64.5 0.5t-63.5 -3.5q-2 75 -22.5 114t-52.5 39q-26 0 -49.5 -19t-32.5 -62
q27 1 53 2t51 2q-2 -20 -3.5 -53.5t1.5 -76.5q-20 2 -48.5 2h-60.5v-24t1 -24q29 1 56.5 2t53.5 2q-2 -19 -3.5 -51.5t1.5 -73.5q-19 1 -44.5 1.5t-54.5 0.5q7 -24 26.5 -42.5t48.5 -18.5q27 0 43.5 15.5t25.5 37.5t12 46t4 41q65 -6 123.5 -6t95.5 7z" />
    <glyph glyph-name="trademark" unicode="&#x2122;" horiz-adv-x="798" 
d="M306 711q-2 -12 -3 -34t0 -52q-19 0 -39 -2t-27 -9t-10.5 -36.5t-4.5 -68.5t0.5 -80.5t3.5 -70.5q-9 0 -21.5 0.5t-27.5 0.5t-31 -0.5t-30 -2.5q3 46 4.5 88.5t0.5 76.5t-3.5 58.5t-7.5 34.5q-5 8 -27.5 9.5t-45.5 -0.5q2 15 3.5 40.5t-0.5 46.5q13 -1 38.5 -1.5
t60.5 -0.5t77.5 0.5t89.5 2.5zM762 711q-3 -27 -5.5 -72.5t-4 -96.5t-1 -100.5t4.5 -84.5q-36 2 -64.5 1.5t-42.5 -1.5q2 21 2.5 42.5t0 39.5t-2 31t-4.5 16q-7 8 -14.5 2t-15.5 -19.5t-15.5 -31.5t-14 -35.5t-10.5 -30.5t-5 -17q-5 1 -16 1t-23 -1q-4 14 -13.5 38t-20.5 46
t-21 37.5t-16 13.5q-3 -1 -5 -16t-3 -36t-0.5 -43t2.5 -37q-14 1 -41 1t-69 -2q2 25 3 111t-6 245q8 0 23.5 -0.5t36 0t43 1t44.5 1.5q5 -17 11.5 -42t14.5 -49q9 -30 20 -51t17 -21t13.5 20t15 47t14 54.5t9.5 41.5q54 -4 98 -4t61 1z" />
    <glyph glyph-name="partialdiff" unicode="&#x2202;" horiz-adv-x="664" 
d="M38 148q-7 38 -7 76.5t8 71.5t25.5 57.5t44.5 34.5q38 15 74 22.5t74 10t78 0t85 -7.5q3 17 3 35.5t-1.5 34.5t-4 28.5t-4.5 18.5q-5 19 -20 33t-34.5 20t-41 3t-39.5 -17q-7 -6 -12 -17t-7.5 -25t-3 -29.5t2.5 -29.5q-31 3 -61.5 3.5t-58 0t-49.5 -1.5t-37 -2
q1 53 10 98t28 79.5t50 57.5t77 33q80 17 159 9.5t145 -42.5q31 -16 51 -41.5t32 -58.5t17.5 -73t6.5 -86q1 -25 2 -57.5t1 -68t-3 -72.5t-10 -70t-20.5 -61t-34.5 -45q-32 -26 -62.5 -41.5t-63.5 -23t-70 -8t-81 2.5q-45 3 -87 14.5t-75.5 30.5t-56.5 45t-29 58zM234 244
q-7 -21 -0.5 -39t20 -31.5t32 -21t36.5 -7.5q23 0 43.5 7.5t34 21.5t17.5 34t-7 45q-8 20 -34 29t-55.5 7t-54.5 -13.5t-32 -31.5z" />
    <glyph glyph-name="product" unicode="&#x220f;" horiz-adv-x="946" 
d="M916 713q-2 -23 -4.5 -67t-1.5 -105q-19 0 -39 -1t-38.5 -3.5t-33 -7t-21.5 -11.5q-9 -9 -15 -39.5t-9.5 -74.5t-4.5 -96.5t-0.5 -106.5t3 -104.5t5.5 -89.5q-18 1 -43.5 1.5t-55.5 0.5t-61 -1.5t-60 -4.5q6 92 8.5 176.5t1 153.5t-7 117.5t-15.5 67.5q-5 10 -18 14
t-28 3t-28.5 -5.5t-20.5 -11.5q-9 -9 -15 -39.5t-10 -74.5t-5 -96.5t0 -106.5t3.5 -104.5t5.5 -89.5q-18 1 -43.5 1.5t-55.5 0.5t-61.5 -1.5t-60.5 -4.5q6 92 9 176.5t1.5 153.5t-7 117.5t-16.5 67.5q-4 8 -19 13t-35 7t-44 1.5t-46 -2.5q2 15 3.5 36t3 44.5t1.5 47.5t-2 45
q220 -7 440 -6.5t440 9.5z" />
    <glyph glyph-name="summation" unicode="&#x2211;" horiz-adv-x="635" 
d="M582 714q-2 -24 -3 -68.5t3 -107.5q-27 2 -58.5 3t-59 0t-48.5 -4.5t-27 -9.5q-8 -7 2 -28t25.5 -46t31 -47.5t18.5 -31.5q-16 -28 -32 -60.5t-27.5 -61t-17.5 -48.5t-3 -22q11 -7 34 -10.5t50.5 -4t56.5 1.5t51 5q-2 -27 -4 -73t2 -100q-76 3 -154.5 3.5t-149.5 0
t-129 -1.5t-91 -2q23 39 50.5 84.5t54.5 93t50.5 95.5t38.5 91q-16 44 -41 91.5t-52 94t-53 88t-43 73.5q36 -1 99.5 -3t137.5 -3t150 0.5t138 7.5z" />
    <glyph glyph-name="radical" unicode="&#x221a;" horiz-adv-x="750" 
d="M703 539q-25 0 -50.5 -1t-47 -1.5t-38.5 -1.5t-25 -1q-33 -78 -65.5 -155t-61 -147.5t-52 -132.5t-39.5 -112q-23 26 -56 61.5t-72 76t-83.5 84t-89.5 84.5q23 20 50.5 48.5t62.5 74.5l21 -24.5t33 -36t35 -32.5t26 -15q2 0 12 17t23.5 46t30.5 67.5t33.5 82t31 89.5
t23.5 89q25 -1 59.5 -2.5t74.5 -2.5t81.5 0t80.5 4q-4 -49 -2.5 -89t4.5 -70z" />
    <glyph glyph-name="infinity" unicode="&#x221e;" horiz-adv-x="712" 
d="M687 441q1 -8 1 -27.5t-1 -43.5t-4 -49.5t-9 -44.5q-5 -17 -19 -33t-34.5 -29t-45.5 -21.5t-52 -10.5q-53 -4 -91 4.5t-76 35.5q-22 -17 -50 -27.5t-59 -12.5q-27 -2 -50 -1t-43.5 6t-40 14t-39.5 24q-18 13 -28.5 32t-15.5 41.5t-6 48t0 51.5t6 52t14.5 49t23.5 41
t32 26q42 19 91 23.5t99 -5.5q40 -7 67 -31q11 9 20 13q42 19 90.5 23.5t99.5 -5.5q30 -6 52 -20t36.5 -33.5t22 -42.5t9.5 -47zM564 340q2 12 1 33.5t-5 43.5t-11.5 40.5t-19.5 24.5q-13 6 -27.5 7t-27.5 -2.5t-23 -11t-15 -19.5q-11 -27 -9.5 -58.5t3.5 -59.5
q2 -26 21.5 -45.5t50.5 -17.5q24 1 41.5 20.5t20.5 44.5zM287 340q2 12 1 33.5t-5 43.5t-11.5 40.5t-19.5 24.5t-26.5 7t-27.5 -2.5t-23.5 -11t-15.5 -19.5q-11 -27 -9 -58.5t4 -59.5q2 -26 21.5 -45.5t50.5 -17.5q24 1 41 20.5t20 44.5z" />
    <glyph glyph-name="integral" unicode="&#x222b;" horiz-adv-x="446" 
d="M409 741q-2 -26 -2.5 -57t1.5 -57q-13 -3 -30.5 -10t-33.5 -20t-27 -33t-12 -49q-1 -26 3 -72.5t6 -103.5t-1 -114t-17 -105q-20 -69 -84 -100t-173 -29q2 25 2 54t-3 58q14 3 31.5 10t33 20.5t27 33.5t13.5 50q2 48 -1.5 97.5t-6.5 101.5q-2 50 0 99t16 97
q20 69 81.5 100t176.5 29z" />
    <glyph glyph-name="approxequal" unicode="&#x2248;" horiz-adv-x="412" 
d="M382 404q-21 -13 -39 -21t-36 -8.5t-36.5 6t-41.5 21.5q-28 18 -55.5 23.5t-53.5 3t-49.5 -11t-43.5 -18.5q5 38 4.5 79.5t-8.5 79.5q13 9 34.5 20t47 17t54 4t55.5 -20q24 -17 46.5 -23.5t43.5 -5.5t40 7t37 15q-2 -31 -2.5 -78t3.5 -90zM382 149q-21 -13 -39 -21
t-36 -8.5t-36.5 6t-41.5 21.5q-28 18 -55.5 23.5t-53.5 3t-49.5 -11t-43.5 -19.5q5 39 4.5 80.5t-8.5 78.5q13 9 34.5 20t47 17.5t54 4t55.5 -20.5q24 -16 46.5 -22.5t43.5 -5.5t40 7t37 15q-2 -31 -2.5 -78t3.5 -90z" />
    <glyph glyph-name="notequal" unicode="&#x2260;" horiz-adv-x="428" 
d="M392 664q-8 -20 -17.5 -45t-19.5 -54l35 1q-5 -25 -8 -56q-2 -26 -1.5 -60.5t5.5 -74.5q-42 3 -93 3l-24 -75q25 1 55 2t66 3q-5 -25 -8 -56q-2 -26 -1.5 -60.5t5.5 -74.5q-38 2 -83 3t-89 -1q-6 -23 -12 -44t-11 -41q-17 2 -57 3t-87 -1q7 18 14 37.5t15 39.5
q-17 -1 -28 -3q8 44 8.5 97t-14.5 100q28 -2 51 -4t50 -2q6 19 11.5 37.5t11.5 37.5q-41 -2 -72 -4t-46 -4q8 44 8.5 97t-14.5 100q22 -2 41 -3t39 -2t42.5 -1h52.5q8 31 15.5 58.5t12.5 47.5q18 -1 60 -1.5t87 0.5z" />
    <glyph glyph-name="lessequal" unicode="&#x2264;" horiz-adv-x="424" 
d="M396 145q-2 -20 -3.5 -55t1.5 -80q-33 2 -83.5 1.5t-103.5 -1t-100.5 -2t-74.5 -3.5q3 32 3 68t-5 70q28 -2 71 -3t92.5 -1t102 1.5t100.5 4.5zM393 700q-17 -22 -38.5 -52.5t-43.5 -64.5t-41.5 -70t-33.5 -70q21 -36 45 -74q20 -32 47 -71.5t55 -76.5q-17 0 -40.5 0.5
t-49.5 0t-53 -1t-51 -1.5q-22 48 -68 107.5t-103 116.5q32 36 59.5 72.5t49.5 70t38 63t26 51.5q12 0 33.5 -0.5t48.5 -0.5h58t62 1z" />
    <glyph glyph-name="greaterequal" unicode="&#x2265;" horiz-adv-x="424" 
d="M396 145q-2 -20 -3.5 -55t1.5 -80q-33 2 -83.5 1.5t-103.5 -1t-100.5 -2t-74.5 -3.5q3 32 3 68t-5 70q28 -2 71 -3t92.5 -1t102 1.5t100.5 4.5zM32 220q17 22 38.5 52t43.5 64t41.5 70t32.5 70q-21 37 -45 75q-20 32 -46.5 71.5t-55.5 75.5h41h50t53 0.5t51 1.5
q21 -48 67.5 -107t102.5 -117q-32 -36 -59.5 -72.5t-49.5 -70t-38 -63t-26 -51.5q-12 0 -33.5 0.5t-48.5 1t-57.5 0.5t-61.5 -1z" />
    <glyph glyph-name="lozenge" unicode="&#x25ca;" 
d="M655 378q-36 -40 -66 -80.5t-54.5 -78t-42.5 -70t-29 -57.5q-62 2 -123.5 2.5t-123.5 -2.5q-24 54 -75 119.5t-115 129.5q36 41 66.5 81t55 77.5t42.5 70t29 57.5q62 -2 123.5 -2.5t122.5 1.5q24 -54 75.5 -119t114.5 -129zM413 378q-8 14 -19 32q-9 15 -21.5 34.5
t-27.5 42.5q-23 -35 -42.5 -72.5t-33.5 -73.5q8 -14 19 -32q9 -15 21 -34.5t27 -42.5q23 35 43 72.5t34 73.5z" />
    <glyph glyph-name="uniFB01" unicode="&#xfb01;" horiz-adv-x="846" 
d="M551 465q-23 1 -71 1t-114 1q1 60 -18 94.5t-63 31.5q-26 -2 -44 -19.5t-21 -61.5q-1 -15 -0.5 -37t3 -43t8.5 -37.5t15 -21.5q12 -6 42.5 -9t71 -4t87 -0.5t89.5 1.5q-2 -23 -4 -60t1 -73q-38 2 -85.5 1.5t-92 -3.5t-79 -9t-45.5 -17q-9 -9 -14 -35.5t-3 -62.5
q1 -25 3.5 -52t4.5 -53q-28 2 -78.5 2t-104.5 -3q3 117 3 221t-5 210q-3 71 4 126t32.5 92.5t75.5 56.5t134 19q64 0 115 -11t94 -37q29 -18 44 -74t15 -134zM814 666q0 -34 -25.5 -51t-81.5 -17q-57 0 -82.5 17t-25.5 51t25.5 51t82.5 17q56 0 81.5 -17t25.5 -51zM801 -9
q-14 1 -35 2t-45.5 2t-51 0.5t-52.5 -2.5q3 28 6.5 82t5 124.5t0 151.5t-9.5 162q26 -1 75 -1t106 5q-3 -21 -5.5 -61.5t-3.5 -104.5t1 -152.5t9 -207.5z" />
    <glyph glyph-name="uniFB02" unicode="&#xfb02;" horiz-adv-x="846" 
d="M551 465q-23 1 -71 1t-114 1q1 60 -18 94.5t-63 31.5q-26 -2 -44 -19.5t-21 -61.5q-1 -15 -0.5 -37t3 -43t8.5 -37.5t15 -21.5q12 -6 42.5 -9t71 -4t87 -0.5t89.5 1.5q-2 -23 -4 -60t1 -73q-38 2 -85.5 1.5t-92 -3.5t-79 -9t-45.5 -17q-9 -9 -14 -35.5t-3 -62.5
q1 -25 3.5 -52t4.5 -53q-28 2 -78.5 2t-104.5 -3q3 117 3 221t-5 210q-3 71 4 126t32.5 92.5t75.5 56.5t134 19q64 0 115 -11t94 -37q29 -18 44 -74t15 -134zM807 0q-27 2 -78.5 2.5t-121.5 -7.5q1 23 2.5 65.5t3 98.5t2.5 123t0.5 139.5t-2.5 148t-6 147.5q29 -1 84 -1
t115 3q-2 -32 -4.5 -86t-4 -119.5t-2 -138t0.5 -141.5t3.5 -130t7.5 -104z" />
    <glyph glyph-name="apple" horiz-adv-x="1495" 
d="M1475 690v27l-10 -27h-3l-10 27h-1v-27h-3v31h6l10 -25l9 25h6v-31h-4zM1434 718v-28h-4v28h-9v3h23v-3h-10zM1407 713q11 -14 6.5 -32.5t-16.5 -28.5q-15 -14 -30 -17.5t-38 -4.5q4 2 9 8.5t6 11.5q-5 -8 -21 -14.5t-33 -11.5v-15h-36v-200h-21v-4q0 -91 -42.5 -163.5
t-125.5 -123.5q2 -18 -3.5 -39t-19 -41t-35.5 -36t-54 -23q-7 -2 -11 6q-3 7 3 12q10 6 17.5 17.5t10.5 24.5q2 7 2 16.5t-5 18.5q-123 -44 -283 -44q-111 0 -204 21t-164 63v-62q-45 17 -87 43.5t-75 64t-53 86.5t-20 111q0 31 7 60.5t18.5 55t26.5 46t30 33.5q-7 2 -18 7
t-19 10q5 -10 15 -15q-6 -1 -15 -1t-19.5 2.5t-21.5 7.5t-20 14q-18 19 -14.5 37.5t14.5 26.5q8 7 23.5 8.5t28.5 -8.5q11 8 24.5 8.5t24.5 -6.5q10 -5 12 -13.5t0.5 -17t-5.5 -15t-7 -8.5q2 -7 5 -13t8 -8q2 2 4.5 4t5.5 4q62 95 190 149t305 54q125 0 227.5 -26.5
t174.5 -77.5q20 1 41.5 2t39.5 1q38 0 72.5 1t45.5 1q-5 9 -2.5 21t12.5 19q14 9 27.5 7t23.5 -11q8 8 26 11t32 -14zM1396 690q-1 12 -8.5 16t-12.5 4t-11.5 -4.5t-6.5 -12.5q-1 -8 4 -14t12 -6q2 -11 -10 -21q10 4 17 10q6 5 11.5 12.5t4.5 15.5zM1345 690q0 13 -8.5 17
t-13.5 4t-11 -4.5t-7 -12.5q0 -9 5 -14.5t12 -6.5q2 -12 -11 -20q9 4 17 10q7 5 12.5 12t4.5 15zM1304 664q-9 4 -14 13v-30q6 5 9 8.5t5 8.5zM1174 606l-9 -1q2 -3 4.5 -6.5t4.5 -6.5v14zM1269 659h-111v-30h36v-201l39 -1v202h36v30zM1140 658l-79 -3v-233l36 2v57l40 2
v34l-40 -3l4 111l39 2v31zM997 650l-52 -4l-43 -243l37 6l6 33l60 5l9 -29l37 3zM901 496q-8 -26 -28 -44l15 -15l13 59v0zM845 451q14 12 25 27q9 13 16.5 31t5.5 41q-2 38 -19.5 55.5t-38.5 24.5q-25 8 -55 4v-253l35 7l-1 43l39 -36l40 7zM756 574q-29 -9 -47 -29.5
t-19 -50.5q-1 -27 18.5 -45t47.5 -19v144zM762 412q-25 0 -44 9q-17 8 -30.5 24.5t-15.5 49.5q-1 30 12 49.5t30 30.5q19 13 43 21v37q-36 -9 -63 -27q-23 -16 -42.5 -43.5t-18.5 -72.5q1 -40 18.5 -63t39.5 -34t42.5 -13.5t28.5 -1.5v34zM1215 405q0 1 -0.5 1.5t-0.5 2.5
h-40v149q-7 12 -15.5 23.5t-17.5 22.5l-21 -1v-69l37 2v-73l-40 -3v-56l-114 -10l-11 31l-25 -3l-8 -31q-20 -2 -53.5 -7.5t-56.5 -10.5l-12 10v-13q-10 -2 -21 -4q-9 -2 -20 -4l-22 -4q-20 -4 -41 -1.5t-40 10t-35 19.5t-25 28v-87l-144 -47v79l-17 -39l-18 36v-89l-76 -31
l1 38q-13 -27 -31 -46.5t-41 -19.5q-24 0 -41 15t-28 37.5t-16.5 49t-6.5 49.5q-1 17 3 44t14.5 52t28.5 43t45 18t44.5 -16.5t26.5 -41.5v74l62 21l30 -48l20 61l143 52v-52q17 36 54 59.5t81 28.5q121 14 146 -82l15 93l85 5l26 -108v110h5q2 0 5.5 0.5t7.5 0.5
q-69 43 -163 65t-207 22q-143 0 -256 -37t-182 -107l-4 -4l-4 -4q15 8 31 14.5t32 9.5v-98q-31 -6 -55.5 -24t-41 -43t-25.5 -55t-9 -60q0 -39 14 -71.5t35.5 -57.5t47.5 -43t49 -27v-17q69 -43 162.5 -65t205.5 -22q163 0 284 45q7 3 12 -4q15 -23 9 -55q-5 -15 -10 -25
q19 10 32 24t20.5 29.5t10 31t0.5 27.5q0 7 5 10q81 48 123 117t42 156zM611 586l-36 -12v-248l36 12v248zM545 565l-39 -14l-36 -95l-41 73l-32 -12v-252l36 13v161l39 -61l38 91l-1 -163l36 12v247zM163 614q-1 8 -7 12.5t-11 4.5t-12.5 -4t-8.5 -17q0 -8 5 -15t11 -12
q7 -6 17 -10q-13 8 -11 20q8 1 13 6.5t4 14.5zM112 613q-1 8 -7 12.5t-12 4.5q-5 0 -12.5 -4t-7.5 -16q0 -8 5 -15.5t11 -12.5q7 -6 16 -10q-12 10 -10 20q8 1 13 7t4 14zM378 354q0 19 -3 43.5t-11.5 46.5t-22.5 37t-35 15t-35.5 -16t-23 -37.5t-12 -44.5t-3.5 -38
q1 -17 6 -39.5t14 -43t23 -34.5t32 -14q15 0 27.5 12t22.5 31t15.5 41t5.5 41zM300 138q-26 9 -52.5 28t-48 46.5t-35 63t-12.5 76.5q2 60 22.5 98t45.5 61q29 26 65 39v54q-51 -19 -91 -53q-17 -15 -33.5 -34t-29 -44t-20 -55.5t-7.5 -67.5q0 -36 8.5 -66.5t22.5 -56
t31.5 -45.5t35.5 -36q43 -37 98 -61v53zM951 471l22 127l26 -123zM859 544q2 -14 -5.5 -27t-16.5 -23q-11 -11 -24 -20v116q12 -2 22 -8q8 -5 15.5 -14t8.5 -24zM341 365q0 -41 -9 -68t-26 -28q-9 0 -16 10.5t-12 25.5t-7.5 31t-2.5 27q0 14 2.5 31t7 32t11.5 25.5t16 10.5
q18 0 27 -28.5t9 -68.5zM975 516l-5 -28l11 1zM830 517q5 3 7.5 9t2.5 12t-2.5 11.5t-7.5 8.5v-41v0zM319 364q0 29 -3.5 48.5t-10.5 19.5q-4 0 -6.5 -7t-4.5 -17.5t-3 -22.5t-1 -22q0 -8 1 -19t3.5 -21.5t5 -17.5t5.5 -7q7 0 10.5 19t3.5 47z" />
    </font>
</defs>
</svg>
