<?xml version="1.0" standalone="no"?>
<!DOCTYPE svg PUBLIC "-//W3C//DTD SVG 1.1//EN" "http://www.w3.org/Graphics/SVG/1.1/DTD/svg11.dtd" >
<svg xmlns="http://www.w3.org/2000/svg" xmlns:xlink="http://www.w3.org/1999/xlink" version="1.1">
<metadata>
Created by FontForge 20160407 at Wed Oct 26 09:51:17 2016
 By Jimmy Wärting
Copyright (c) Active Images, 2009. All rights reserved.
</metadata>
<defs>
<font id="Supercell-Magic" horiz-adv-x="651" >
  <font-face 
    font-family="Supercell-Magic"
    font-weight="800"
    font-stretch="normal"
    units-per-em="1000"
    panose-1="3 2 9 2 5 6 2 2 2 5"
    ascent="800"
    descent="-200"
    x-height="544"
    cap-height="689"
    bbox="-166.095 -217.5 1062 887"
    underline-thickness="20"
    underline-position="-153"
    unicode-range="U+0020-FB02"
  />
<missing-glyph horiz-adv-x="750" 
 />
    <glyph glyph-name=".notdef" horiz-adv-x="750" 
 />
    <glyph glyph-name=".null" horiz-adv-x="0" 
 />
    <glyph glyph-name="nonmarkingreturn" horiz-adv-x="303" 
 />
    <glyph glyph-name="space" unicode=" " horiz-adv-x="303" 
 />
    <glyph glyph-name="exclam" unicode="!" horiz-adv-x="331" 
d="M292 703q-11 -73 -21 -143.5t-18.5 -130.5t-14.5 -105.5t-8 -69.5q-11 -4 -33 -6.5t-46 -4.5t-45.5 -3t-30.5 2q-7 119 -6 236t1 232q59 7 116.5 9t105.5 -16zM251 4q-5 -8 -21 -16t-37 -13t-45 -7t-45 -2t-36 4t-20 13q-4 8 -5.5 20.5t-0.5 27.5t3 29t3 23q3 14 15 24.5
t28 17t31.5 11t25.5 5.5q9 1 20.5 0t23.5 -3.5t23.5 -6.5t19.5 -9q10 -27 15.5 -57.5t1.5 -60.5z" />
    <glyph glyph-name="quotedbl" unicode="&#x22;" horiz-adv-x="433" 
d="M196 622v-74t-1.5 -73t-4.5 -67t-9 -56q-20 -10 -45.5 -17t-48.5 -5q-2 34 -8 71t-13.5 72.5t-14.5 67t-11 53.5q37 23 76.5 30.5t79.5 -2.5zM407 604l-14 -72t-14.5 -70.5t-16 -65t-18.5 -53.5q-22 -8 -49.5 -12.5t-50.5 1.5q4 32 5 69t0 72t-2.5 66.5l-2.5 52.5
q42 19 83 21.5t80 -9.5z" />
    <glyph glyph-name="numbersign" unicode="#" horiz-adv-x="541" 
d="M506 135q-10 -1 -27 -1.5t-37 -3.5q0 -32 -1 -63t-1 -59q-34 -10 -67 -8t-65 3v119q-18 0 -36 -1l-36 -2q0 -24 -1 -45.5t-3 -44.5q-6 -6 -24 -9t-39 -4.5t-39.5 -1.5h-26.5q-1 45 -3 95q-14 -2 -26.5 -3.5t-21.5 -2.5q-3 21 -4.5 46.5t0 49.5t3.5 44t5 34q6 0 16.5 0.5
t26.5 1.5v62q-19 -1 -33 -2.5t-24 -3.5q-4 21 -4.5 46.5t0 49t3 44t5.5 33.5q6 0 20.5 1.5t34.5 2.5q1 33 2 64t1 59q34 11 74 13t73 1q-1 -33 -1 -64.5t-1 -64.5q15 1 29 1.5t29 1.5q1 33 1.5 66.5t1.5 67.5q6 5 25.5 9t41 6t41.5 2.5t28 -0.5q1 -35 1.5 -71.5t0.5 -76.5
q16 1 28.5 0.5t18.5 -0.5q1 -14 2 -35t1.5 -44.5t0 -44.5t-2.5 -34q-8 -1 -21 -2.5t-27 -1.5q-1 -18 -1 -34.5t-1 -33.5q20 0 36.5 -0.5t22.5 -2.5q1 -13 2 -34t1.5 -44.5t0 -45t-2.5 -34.5zM307 356l-62 -4l-2 -65l32 2l32 2v65z" />
    <glyph glyph-name="dollar" unicode="$" horiz-adv-x="609" 
d="M568 375q8 -20 9 -49.5t-3.5 -61t-14.5 -59.5t-25 -44q-16 -7 -30 -12l-28 -10t-29 -9.5t-33 -8.5q-2 -39 -4.5 -72t-11.5 -66q-12 -4 -35 -7t-48.5 -5.5t-49.5 -2.5t-37 4q-1 38 -2 67t-2 55q-21 -3 -38 -5.5t-33.5 -5t-32.5 -4.5t-35 -3q-7 8 -12 25t-8.5 35t-5.5 35
t-1 24q24 3 57 8t65.5 10.5t59 11t38.5 11.5q3 2 8 5t9.5 7.5t7.5 8.5t2 7q-2 9 -8.5 14t-15.5 7t-20 3t-20 2q-18 2 -43.5 2h-53.5t-56.5 2t-50.5 8q0 30 2 63t8.5 66t17 64.5t26.5 58.5q23 8 49.5 14t70.5 12q-1 23 -2 41.5t-1.5 35.5t-1 32t-2.5 31q24 10 51 16t55 9
t54.5 3t48.5 -2q-7 -45 -9 -81.5t-6 -68.5q50 4 82.5 7t60.5 1q1 -6 3.5 -20t4 -31t2.5 -33t-1 -29q-26 -1 -59 -4t-67.5 -6.5t-66 -7.5t-54.5 -9q-7 -2 -12.5 -10t-8 -17t-1 -16t8.5 -9q21 -3 59 -8.5t79.5 -11t79.5 -10t60 -7.5z" />
    <glyph glyph-name="percent" unicode="%" horiz-adv-x="759" 
d="M719 40q-13 -18 -39.5 -31t-59.5 -19t-69.5 -6.5t-69.5 6t-59 19.5t-39 33q-2 23 -3 60t-2 75q-26 -52 -50 -103.5t-48 -100.5q-32 -4 -65 -4t-60 1.5t-46.5 4.5t-26.5 4q45 103 85 190t81 166q-31 -2 -62.5 0t-59.5 9t-50.5 19t-33.5 30q-2 25 -3.5 61.5t-1.5 75
t0.5 74.5t2.5 57q16 16 43 28t59.5 18t68 7t67 -5t57 -19t37.5 -32q2 -13 3 -35.5t3 -48.5q20 33 39 65.5t41 66.5q34 4 67 2t61 -5.5t47.5 -7.5t27.5 -7q-48 -74 -97 -159.5t-97 -176.5q34 9 72 10.5t72 -4t61.5 -18t40.5 -33.5q3 -13 4 -36t2 -49.5t1.5 -55.5t0.5 -54
t-0.5 -44t-1.5 -28zM592 108q0 36 1.5 66t-4.5 64q-17 0 -40 2.5t-41 -4.5q-3 -20 -4.5 -36t-1.5 -31t0.5 -30.5t1.5 -34.5q10 -3 22 -4t24.5 -1t24 2t17.5 7zM251 458q0 37 1.5 66.5t-4.5 64.5q-9 0 -19 1t-21 1.5t-21.5 -0.5t-20.5 -5q-2 -20 -4 -35t-2 -30t1 -31t2 -36
q9 -2 21.5 -3t25 -1t23.5 2t18 6z" />
    <glyph glyph-name="ampersand" unicode="&#x26;" horiz-adv-x="591" 
d="M562 204q3 -14 1.5 -30.5t-6 -33t-11 -31.5t-12.5 -25q-20 -3 -51.5 -5.5t-70.5 -3.5q-2 -24 -5 -46.5t-9 -45.5q-12 -4 -35 -7t-48.5 -5.5t-49.5 -2.5t-37 4q-1 32 -1.5 57t-2.5 47q-39 2 -71.5 6.5t-52.5 11.5q-29 37 -48.5 86t-24.5 91q29 29 63 52t81 37
q-17 4 -35 12.5t-34 19t-28.5 23.5t-18.5 27q1 14 8 32t15.5 35t18 32t17.5 22q26 8 50 14.5t46 11.5q-1 43 -2.5 71.5t-3.5 59.5q24 10 51 16t55 9t54.5 3t48.5 -2q-6 -39 -8.5 -71.5t-4.5 -61.5q26 2 54 2h58q7 -4 14.5 -16.5t14 -27.5t10 -32t3.5 -31q-15 -2 -46 -4
t-67.5 -5t-71.5 -8.5t-58 -14.5q-9 -17 -13.5 -30.5t1.5 -35.5q7 -4 25.5 -5t39 -2t40 -1h28.5q10 -19 16 -42.5t4 -44.5q-17 0 -43.5 -2.5t-52.5 -5.5t-48 -7t-30 -10q-1 -30 -0.5 -45t8.5 -25q28 -8 61 -11t68 -4.5t72.5 -1t74.5 0.5z" />
    <glyph glyph-name="quotesingle" unicode="'" horiz-adv-x="276" 
d="M244 624q-7 -35 -14.5 -71.5t-16 -71t-19 -65t-21.5 -53.5q-12 -4 -26 -7t-28.5 -4.5t-29.5 -1.5t-27 2q4 33 5 69.5t-0.5 72t-3 66.5t-2.5 52q47 20 93.5 22.5t89.5 -10.5z" />
    <glyph glyph-name="parenleft" unicode="(" horiz-adv-x="378" 
d="M345 600q-27 -3 -46 -13t-38 -23q-6 -20 -11.5 -57.5t-9 -82t-6 -92.5t-2 -90.5t4.5 -75t12 -48.5q11 -7 27 -18t38 -14q-3 -36 -11 -69t-19 -49q-25 4 -52 11.5t-54 18t-52.5 20.5t-47.5 19q-16 21 -25.5 66.5t-14 104.5t-2.5 125.5t8.5 128t19 112.5t30.5 79
q32 19 90 39t133 31q5 -8 10 -23t9 -32.5t6.5 -35.5t2.5 -32z" />
    <glyph glyph-name="parenright" unicode=")" horiz-adv-x="378" 
d="M32 87q26 4 45 13.5t39 22.5q6 21 11 58t9 82t6.5 92.5t1.5 90t-4.5 75.5t-11.5 48q-11 8 -27.5 18.5t-37.5 13.5q2 36 10.5 69.5t19.5 48.5q25 -3 52 -11t54 -18t52.5 -21t46.5 -19q16 -20 26 -66t14 -105t2.5 -125t-8 -128t-19 -112.5t-30.5 -79.5q-32 -18 -90.5 -39
t-133.5 -30q-4 8 -9.5 22.5t-9 32.5t-6 36t-2.5 31z" />
    <glyph glyph-name="asterisk" unicode="*" horiz-adv-x="454" 
d="M432 350q-8 -6 -18.5 -15t-23 -17t-26.5 -15t-28 -9q-8 9 -23 21.5t-31 24.5q-1 -18 -1.5 -36t-1.5 -36q-5 -3 -19.5 -4.5t-31 -2.5t-31.5 -1.5t-21 0.5q-2 18 -2.5 37.5t-1.5 41.5q-13 -13 -27 -25t-21 -22q-13 -1 -28.5 4t-29.5 12.5t-26 16.5t-20 18q11 12 23.5 28.5
t25.5 32t25 29.5t22 23q-17 16 -31 27t-26 20t-22.5 18t-21.5 22q6 7 16.5 16t24 18t29 18t29.5 15q6 -9 22 -20.5t34 -23.5v38t1 34q27 6 59 7t58 1v-71q11 11 21.5 20t16.5 16q3 2 16 -2t28.5 -10.5t32.5 -15.5t29 -20q-26 -28 -56 -51.5t-56 -54.5q16 -15 29 -26t25 -22
t26 -24.5t32 -34.5z" />
    <glyph glyph-name="plus" unicode="+" horiz-adv-x="406" 
d="M373 229q-15 -2 -36 -2.5t-45 -0.5q0 -14 -1 -30.5t-2.5 -33.5t-2 -34.5t-2.5 -33.5q-7 -3 -29.5 -5.5t-47.5 -4t-48.5 -1.5t-34.5 1q0 14 -1.5 32t-3 37t-2 36t-1.5 32q-22 -2 -41 -3t-33 -4q-4 19 -5 41t0 42.5t2.5 38.5t4.5 29q8 2 27 2.5t43 0.5q0 16 0.5 34.5t1 38
t1.5 37.5t1 33q42 7 91.5 8t90.5 1v-37.5v-40v-39t-1 -33.5q25 0 44 -1t27 -2q1 -12 2.5 -30.5t2 -38.5t0 -38.5t-1.5 -30.5z" />
    <glyph glyph-name="comma" unicode="," horiz-adv-x="289" 
d="M266 154q-17 -31 -34.5 -62.5t-35 -60.5t-35 -54.5t-34.5 -42.5q-24 3 -54.5 11t-53.5 23q13 29 23.5 63t19.5 68t16 64.5t11 50.5q50 -1 94 -16.5t83 -43.5z" />
    <glyph glyph-name="hyphen" unicode="-" horiz-adv-x="300" 
d="M257 200q-51 -7 -106 -7.5t-106 -10.5q-4 23 -5 48t-0.5 49.5t2.5 45t4 33.5q16 3 45 4t60.5 2t60 0t43.5 -3q1 -14 2.5 -36t2 -45.5t0 -45t-2.5 -34.5z" />
    <glyph glyph-name="hyphen" unicode="&#xad;" horiz-adv-x="300" 
d="M257 200q-51 -7 -106 -7.5t-106 -10.5q-4 23 -5 48t-0.5 49.5t2.5 45t4 33.5q16 3 45 4t60.5 2t60 0t43.5 -3q1 -14 2.5 -36t2 -45.5t0 -45t-2.5 -34.5z" />
    <glyph glyph-name="period" unicode="." horiz-adv-x="331" 
d="M266 17q-4 -9 -20 -15.5t-37.5 -11.5t-45 -7.5t-45 -2t-36.5 5t-20 11.5q-4 7 -5 20t-0.5 27t2.5 27.5t3 21.5q2 13 14.5 22.5t28.5 16.5t31.5 10.5t25.5 5.5q9 2 20.5 0.5t23.5 -4t24 -6.5t19 -8q11 -26 16 -55t1 -58z" />
    <glyph glyph-name="slash" unicode="/" horiz-adv-x="606" 
d="M594 688q-50 -76 -99.5 -164t-98.5 -180.5t-95 -187t-87 -183.5q-33 -4 -65.5 -4t-59.5 1.5t-47 4.5t-27 4q49 113 94 209t89.5 182t92 168t101.5 168q33 4 66 2t61 -5.5t47.5 -7.5t27.5 -7z" />
    <glyph glyph-name="zero" unicode="0" horiz-adv-x="733" 
d="M693 122q-25 -34 -47.5 -70t-49.5 -70q-27 -4 -63.5 -7.5t-77.5 -5.5t-86 -2t-88.5 1.5t-83.5 3.5t-73 7q-12 11 -25 31.5t-25 43t-23 45t-17 39.5v96v105t1 102t3 88q10 10 26 30t32.5 40.5t32.5 38.5t27 24q38 3 92 8t112 8t114 1.5t100 -10.5q16 -13 31 -33t30 -41
t28 -42.5t25 -40.5q2 -26 3.5 -60.5t2.5 -72.5t2 -77t1 -73.5t-1 -62.5t-3 -44zM445 159q1 70 3.5 155.5t-8.5 175.5q-22 -1 -41 -1.5t-37 -2.5t-36 -6t-36 -14q-4 -8 -6.5 -32t-3.5 -56.5t-1 -69t0.5 -70t1 -60.5t0.5 -40q17 -9 40 -11.5t46.5 0.5t44.5 11.5t33 20.5z" />
    <glyph glyph-name="one" unicode="1" horiz-adv-x="364" 
d="M314 694q0 -80 -2 -165t-4.5 -171t-6 -172t-6.5 -168q-6 -4 -20.5 -6.5t-32.5 -5t-39 -3.5t-40 -1h-34.5h-23.5q-4 59 -6 126t-3.5 136.5t-1.5 138t1 131.5q-4 0 -13.5 1t-19.5 1.5t-19.5 2t-14.5 3.5q1 30 7.5 64t14.5 58q25 5 60 10.5t72 10t72.5 7t59.5 2.5z" />
    <glyph glyph-name="two" unicode="2" horiz-adv-x="570" 
d="M540 395q-23 -22 -54.5 -45.5t-67.5 -47.5t-75 -48t-80 -47q-3 -2 -4 -8t0 -13.5t4 -13.5t5 -8q8 -3 26.5 -6t43 -4t52.5 -2t55.5 -1t51.5 0.5t40 0.5q1 -11 0.5 -29.5t-3 -39t-6 -40.5t-9.5 -33q-53 -5 -117 -9.5t-129.5 -7t-127 0t-108.5 14.5q-3 25 -6 61t-4 75.5
t1.5 78.5t9.5 72q33 21 76 48t85 52.5t77 47t53 29.5q6 25 3.5 42t-12.5 30q-26 1 -63.5 -0.5t-77 -4t-77 -6t-62.5 -6.5q1 17 3 37.5t5 41t7 39.5t9 31q24 7 58.5 13t74 10.5t81 8t80 4t71 -1t53.5 -6.5q20 -34 31.5 -70t17.5 -75t7.5 -80t1.5 -84z" />
    <glyph glyph-name="three" unicode="3" horiz-adv-x="591" 
d="M574 264q-3 -28 -10 -63t-16.5 -67.5t-21.5 -58t-26 -37.5q-20 -13 -55 -24t-77 -18.5t-88 -12.5t-88.5 -8.5t-77 -4t-54.5 1.5q-4 12 -8.5 30t-7.5 37.5t-4 41t1 42.5q37 5 73.5 8.5t71 9t66.5 13.5t58 22q9 11 11.5 20t2 19.5t-2 24.5t-2.5 34q-8 7 -29.5 11t-47 5.5
t-51 1.5t-43.5 -2q-1 28 4.5 62.5t15.5 61.5q9 1 28 3t39.5 5t38 7.5t24.5 10.5q6 31 2 49.5t-14 39.5q-21 13 -55.5 16.5t-70.5 4t-66.5 -1t-43.5 -0.5q-1 20 2.5 44t9.5 47t13.5 41t14.5 23q56 6 104 8.5t94 0t92.5 -11.5t98.5 -25q8 -9 17.5 -28.5t17.5 -43t14.5 -47.5
t8.5 -43q-6 -20 -18.5 -40t-28 -37t-33 -30.5t-34.5 -21.5q45 -15 85 -43t66 -77z" />
    <glyph glyph-name="four" unicode="4" horiz-adv-x="696" 
d="M665 158q-18 -3 -36.5 -3.5t-37.5 -0.5q-1 -36 -2 -74t-3 -66q-12 -4 -33 -7.5t-44 -6t-46.5 -3t-43.5 -0.5t-34 2t-17 5q2 28 3.5 58.5t1.5 81.5q-27 1 -69 -0.5t-88 -2t-91 0t-79 5.5q-3 17 -7 35t-6.5 35.5t-4 33t-1.5 24.5q11 29 28 66t37.5 77.5t43.5 81.5
t44.5 77.5t41.5 66.5t33 48q17 2 43 2.5t57 -0.5t64 -4t64 -5.5t57 -5.5t42 -3q4 -23 6 -65.5t3 -96.5t1 -112v-112q23 0 41.5 -0.5t29.5 -3.5q1 -12 2.5 -29t2 -34.5t0 -34.5t-2.5 -30zM374 482q0 18 -3.5 25t-10 6.5t-13.5 -7t-13 -17.5q-13 -21 -25.5 -47t-24 -50.5
t-20 -45.5t-13.5 -35q7 -3 24 -5t35.5 -2.5t36 1.5t24.5 7q2 14 2.5 34t0.5 43v47v46z" />
    <glyph glyph-name="five" unicode="5" horiz-adv-x="591" 
d="M542 543q-29 -2 -64 -3.5t-71.5 -2.5t-72 -3.5t-64.5 -6.5q-10 -21 -12 -48t-2 -54q32 -6 68.5 -14t74 -15.5t74 -15.5t69.5 -14q12 -32 16 -70t1 -76.5t-13 -76t-25 -66.5q-50 -27 -105 -47t-111.5 -33.5t-113 -23t-111.5 -17.5q-6 6 -11.5 28.5t-9 49.5t-5 52t-0.5 36
q30 2 67 8t72 13t64.5 16t44.5 17q4 11 5.5 29t0.5 33q-10 7 -29.5 12t-46 9t-56.5 8t-58 8.5t-51 11.5t-37 17q-2 43 0.5 92.5t6.5 98t10 93t11 78.5q51 16 110 23t121.5 9t123.5 1t115 -5q10 -35 12.5 -74t1.5 -77z" />
    <glyph glyph-name="six" unicode="6" horiz-adv-x="663" 
d="M622 374q4 -30 2 -77.5t-9 -97t-18 -93.5t-26 -69q-44 -26 -104.5 -39.5t-127.5 -14t-138 13t-135 43.5q-14 27 -21 76.5t-9 109.5t1.5 126t11 126.5t18.5 109t24 74.5q21 8 56 17t77 16t87 12.5t87 9.5t79 5.5t61 -0.5q4 -10 8 -27.5t8.5 -37.5t6.5 -41t1 -39
q-26 -3 -63.5 -10t-77 -15t-76 -16.5t-61.5 -14.5q-11 -15 -14.5 -38t-3.5 -43q32 -3 79 -7.5t97.5 -12t98 -18.5t81.5 -28zM412 247q-11 7 -32.5 10.5t-45.5 4.5t-47 0.5t-36 -2.5q-1 -62 17 -109q16 -6 37 -7.5t40 0t33 5t18 8.5q2 9 6 21t7 24.5t4.5 24t-1.5 20.5z" />
    <glyph glyph-name="seven" unicode="7" horiz-adv-x="570" 
d="M542 548q-21 -38 -52.5 -100.5t-69 -138t-78.5 -157.5t-81 -161q-23 -2 -51 -1t-57.5 5t-56 11t-45.5 16q31 80 64 153t64.5 139t59 125.5t47.5 110.5q-24 3 -57 1.5t-67 -3t-66 -3.5t-57 1q-3 33 -1 70.5t9 71.5q59 8 121 12t122.5 4t118 -2.5t105.5 -5.5
q6 -17 12 -37.5t10 -40.5t5.5 -38.5t0.5 -31.5z" />
    <glyph glyph-name="eight" unicode="8" horiz-adv-x="685" 
d="M665 245q2 -15 -4 -44t-17.5 -61t-28 -63t-35.5 -52q-24 -16 -64 -25t-88 -13t-100 -3t-100 5.5t-88 12.5t-64 16q-9 20 -17.5 46.5t-15 56t-11 62.5t-4.5 67q11 13 25 26.5t28.5 26.5t29.5 25t27 23q-13 15 -28.5 30t-29.5 29t-25.5 27t-16.5 22q6 63 21.5 118.5
t42.5 108.5q66 10 135 15.5t130 6t108.5 -3.5t70.5 -11q28 -19 49.5 -60.5t30.5 -90.5q-7 -24 -19.5 -48t-28.5 -45t-33.5 -38t-34.5 -25q12 -6 34 -18t46 -29t45 -40.5t30 -53.5zM378 552q-6 10 -19 14t-28 5t-29.5 -1t-23.5 -6q-6 -5 -10 -22.5t-6 -36.5t-1.5 -35.5
t2.5 -19.5q6 -8 21 -11.5t32.5 -3.5t34 2.5t24.5 4.5q5 11 7.5 25.5t3 29t-1.5 29.5t-6 26zM403 257q-10 5 -28.5 7t-40 0.5t-43 -3.5t-37.5 -6q-4 -14 -4.5 -32.5t0.5 -36t4.5 -32t8.5 -19.5q11 -5 27.5 -6.5t33.5 -1.5t34 0.5t29 0.5q9 8 15 26t8 38t0.5 38t-7.5 27z" />
    <glyph glyph-name="nine" unicode="9" horiz-adv-x="631" 
d="M566 82q-55 -27 -108 -45t-106.5 -29.5t-108 -19.5t-114.5 -15q-7 5 -14 25t-12.5 43t-8.5 46t-2 34q32 1 74.5 8t83 17t74.5 20.5t51 18.5q4 12 4 26.5t-2 30.5q-28 4 -72.5 6.5t-93 5.5t-96 8t-82.5 13q-8 43 -5.5 97t12.5 109t25.5 106t32.5 87q56 13 109 19.5t105 7
t106 -5t113 -15.5q23 -53 38 -112.5t22 -119.5t8.5 -117t-2.5 -106t-11.5 -85.5t-19.5 -57.5zM380 412q4 32 3.5 63.5t-3.5 48.5q-10 0 -24 1t-29 1t-29 0.5t-24 -0.5q-12 -19 -20 -49.5t-9 -56.5q14 -2 31 -2.5t36 -1t36.5 -1t31.5 -3.5z" />
    <glyph glyph-name="colon" unicode=":" horiz-adv-x="331" 
d="M266 17q-4 -9 -20 -15.5t-37.5 -11.5t-45 -7.5t-45 -2t-37 5t-19.5 11.5t-5 20t-0.5 27t2.5 27.5t3 21.5q2 13 14.5 22.5t28.5 16.5t31.5 10.5t25.5 5.5q9 2 20.5 0.5t23.5 -4t24 -6.5t19 -8q11 -26 16 -55t1 -58zM257 319q-4 -9 -19 -16.5t-35.5 -12.5t-43.5 -8
t-42.5 -2t-34 5.5t-18.5 11.5q-5 8 -6 21.5t-0.5 29t2.5 29.5t4 23q2 14 13.5 24.5t26.5 17.5t30 11.5t24 5.5q8 2 19 0.5t23 -4.5t22.5 -7t18.5 -8q10 -28 15 -59t1 -62z" />
    <glyph glyph-name="semicolon" unicode=";" horiz-adv-x="294" 
d="M252 127q-16 -31 -33.5 -62.5t-35 -60.5t-35 -54t-34.5 -42q-25 3 -55.5 10.5t-53.5 22.5q13 30 24 64t20 67.5t15.5 64t11.5 51.5q49 -1 93.5 -17t82.5 -44zM250 338q-5 -9 -20 -16.5t-35 -12.5t-43 -7.5t-43 -2t-34.5 4.5t-18.5 12q-4 9 -5 22.5t-0.5 28.5t2.5 29t3 23
q2 15 14 25t27 17.5t30 11t24 5.5q8 2 19 1t22.5 -4.5t22.5 -7.5t18 -9q11 -28 16 -58t1 -62z" />
    <glyph glyph-name="semicolon" unicode="&#x37e;" horiz-adv-x="294" 
d="M252 127q-16 -31 -33.5 -62.5t-35 -60.5t-35 -54t-34.5 -42q-25 3 -55.5 10.5t-53.5 22.5q13 30 24 64t20 67.5t15.5 64t11.5 51.5q49 -1 93.5 -17t82.5 -44zM250 338q-5 -9 -20 -16.5t-35 -12.5t-43 -7.5t-43 -2t-34.5 4.5t-18.5 12q-4 9 -5 22.5t-0.5 28.5t2.5 29t3 23
q2 15 14 25t27 17.5t30 11t24 5.5q8 2 19 1t22.5 -4.5t22.5 -7.5t18 -9q11 -28 16 -58t1 -62z" />
    <glyph glyph-name="less" unicode="&#x3c;" horiz-adv-x="414" 
d="M392 687q-22 -52 -43.5 -98.5t-42 -88.5t-41 -81.5t-39.5 -79.5q16 -37 36.5 -83l41 -92t40.5 -90t37 -78q-23 -4 -51 -8t-54 -7t-45.5 -5t-24.5 -1q-48 89 -90.5 176.5t-79.5 179.5q47 94 88.5 185.5t86.5 188.5q30 4 59.5 2t54.5 -5.5t43 -7.5t24 -7z" />
    <glyph glyph-name="equal" unicode="=" horiz-adv-x="300" 
d="M257 98q-25 -4 -52 -5l-54 -2t-54 -3t-52 -7q-4 22 -5 46.5t-0.5 47.5t2.5 43t4 33q16 2 45 3.5t60.5 2t60 0t43.5 -3.5q1 -13 2.5 -34t2 -44t0 -44t-2.5 -33zM257 334q-25 -2 -52 -3.5t-54 -2t-54 -3t-52 -6.5q-4 21 -5 45t-0.5 48t2.5 44t4 33q16 1 45 3t60.5 2.5t60 0
t43.5 -4.5q1 -12 2.5 -33t2 -44t0 -44.5t-2.5 -34.5z" />
    <glyph glyph-name="greater" unicode="&#x3e;" horiz-adv-x="414" 
d="M36 -1q22 53 43 99t42 88.5t41 82t40 78.5q-17 38 -36.5 83.5t-40.5 91.5t-41 90t-37 79q23 3 51 7t54 7.5t46 5t25 0.5q48 -89 90.5 -176.5t78.5 -178.5q-47 -96 -88.5 -187t-85.5 -188q-30 -3 -60 -1.5t-55 5t-42.5 7.5t-24.5 7z" />
    <glyph glyph-name="question" unicode="?" horiz-adv-x="531" 
d="M488 444q-14 -13 -32.5 -28.5t-38 -30.5t-38 -27t-33.5 -20q-12 -29 -14.5 -56t-9.5 -58q-14 -5 -42 -8.5t-59 -5.5t-60 -3t-44 -1q-3 14 -4.5 34t-1.5 41t1.5 41t3.5 34q9 10 23.5 22t32 24t37.5 24t40 22q4 18 2.5 37t-5.5 34q-10 7 -28.5 9t-41 0.5t-46.5 -4t-45 -6.5
t-37 -7t-24 -6q4 23 8.5 44.5t9.5 42t11 42.5t15 46q24 12 58.5 19.5t74 10t80.5 1.5t77.5 -5.5t66 -11.5t45.5 -16q4 -17 9 -48t8.5 -64.5t4.5 -66.5t-4 -55zM336 20q-14 -15 -44 -24.5t-64.5 -14t-66 -3.5t-45.5 12q-5 2 -7.5 17t-2.5 33t1.5 33.5t4.5 20.5q18 20 45 31
t56.5 13t58 -2.5t49.5 -13.5q1 -4 4.5 -13.5t7 -23t5 -30.5t-1.5 -35z" />
    <glyph glyph-name="at" unicode="@" horiz-adv-x="663" 
d="M628 143q-6 -3 -28 -7t-48.5 -7.5t-50 -4.5t-31.5 0q0 7 -0.5 18.5t-1.5 17.5h-46t-54.5 2t-58 6t-53.5 11q-11 20 -15 63t-2.5 93t9 96.5t19.5 73.5q45 19 90.5 27.5t99.5 6.5q0 9 -2 16q-1 6 -2 12.5t-5 11.5q-16 1 -46 1t-63.5 -4t-65 -13.5t-50.5 -28.5
q-12 -32 -19.5 -80t-10 -103t0.5 -109t12 -99q30 -18 64 -28t71 -16.5t75.5 -11.5t77.5 -10q4 -36 -3 -57.5t-17 -39.5q-17 -4 -50 -4.5t-73.5 2.5t-85 10t-85 16.5t-73 21.5t-49.5 26q-14 31 -21.5 80t-9 106t2 117t10.5 113t17.5 96.5t23.5 66.5q26 16 66 29.5t86.5 22
t97 12.5t99 4.5t91 -2t74.5 -8.5q20 -62 28.5 -134t10.5 -145t-0.5 -141.5t-5.5 -125.5zM465 253q-1 54 -1.5 99.5t0.5 95.5q-11 0 -18.5 -1t-14.5 -3t-14.5 -6t-18.5 -10q-4 -19 -8 -44.5t-5.5 -50.5t0 -48t6.5 -36q13 -5 34.5 -0.5t39.5 4.5z" />
    <glyph glyph-name="A" unicode="A" horiz-adv-x="761" 
d="M755 2q-28 -6 -59 -9t-61.5 -5t-58.5 -2h-50q-6 19 -10.5 33.5t-8 26.5t-7 27t-6.5 34q-27 4 -61 4.5t-67.5 0.5t-63.5 -3t-50 -8q-8 -16 -13.5 -28t-9.5 -24.5t-7.5 -26t-7.5 -31.5q-21 -5 -49.5 -7.5t-58.5 -2.5t-57 2t-47 6q7 49 25 119t41.5 147t50 154.5t49.5 142.5
q-11 1 -21 2q-8 2 -16.5 4t-12.5 4q4 15 7.5 32t7.5 34.5t8.5 33.5t10.5 26q23 6 59.5 11t80.5 8t91 3.5t92 -0.5t83.5 -5t64.5 -11q18 -86 36 -169t35 -167t32.5 -172t28.5 -184zM456 286q-2 25 -6.5 56.5t-10.5 62.5t-13.5 58t-14.5 45q-9 23 -20.5 20.5t-20.5 -20.5
q-2 -4 -7.5 -20.5t-12.5 -39t-15 -48.5t-14.5 -49.5t-10 -41t-3.5 -23.5q13 -3 35 -4.5t45 -1t42 2t27 3.5z" />
    <glyph glyph-name="B" unicode="B" horiz-adv-x="771" 
d="M748 254q-2 -32 -9.5 -70t-17.5 -73t-22.5 -63t-28.5 -40q-20 -4 -52 -9.5t-70.5 -10t-79 -9.5t-75.5 -6q-83 -5 -159.5 -3.5t-140.5 14.5q-5 35 -5.5 97t0.5 137.5t3.5 158t4.5 155.5q-5 1 -13 0.5t-17 -0.5t-18 1.5t-15 4.5q1 43 5.5 80.5t7.5 71.5q36 4 82 9t98 8
t107.5 4t110.5 0.5t107 -4t97 -9.5q8 -10 18 -31t19 -46t15.5 -52t9.5 -47q-7 -22 -20.5 -43t-30 -39.5t-35 -33t-35.5 -23.5q48 -15 90.5 -46t68.5 -83zM457 443q3 17 2.5 37t-4 38t-11.5 32.5t-19 22.5q-21 5 -46.5 1.5t-46.5 -12.5q-1 -17 -2.5 -35.5t-2.5 -37.5t-1 -34
t1 -25q9 -2 28 -2.5t39 1t38 5.5t25 9zM478 265q-8 7 -26 11t-40 6t-44 0t-36 -8q-8 -52 -6 -94.5t7 -70.5q13 -3 29.5 -2.5t32.5 2t31.5 5t26.5 7.5q17 25 22 62t3 82z" />
    <glyph glyph-name="C" unicode="C" horiz-adv-x="615" 
d="M585 153q1 -19 -1 -45t-5.5 -49.5t-9 -42t-13.5 -24.5q-57 0 -121 2.5t-128 9t-126.5 19t-117.5 33.5q-16 22 -24.5 64.5t-11 95.5t1 112.5t12 115.5t22 104t31.5 78q22 12 61 24t87.5 21t100 16t97.5 10t81 2t49 -9q2 -10 3 -26.5t2 -37.5t0 -44.5t-5 -48.5
q-39 -3 -73 -5t-65.5 -4.5t-61.5 -9t-60 -19.5q-8 -32 -16 -75t-11.5 -86.5t-1 -81.5t14.5 -62q13 -8 37 -13.5t53.5 -8t60.5 -4t59 -2.5t49 -2.5t30 -6.5z" />
    <glyph glyph-name="D" unicode="D" horiz-adv-x="792" 
d="M754 559q3 -17 4 -49t1 -71t-0.5 -82.5t-2.5 -83.5t-4 -72.5t-5 -49.5q-13 -21 -28 -43.5t-30.5 -45t-32.5 -42.5t-34 -34q-26 -3 -64 -7t-83 -6.5t-96 -3.5t-102 1t-100 7.5t-93 15.5q-4 51 -5.5 119t-0.5 142t2 149t2 138l-54 3q0 24 2 49t3.5 47t3 39.5t2.5 24.5
q62 9 142.5 15t164.5 7t164 -4t141 -18q18 -16 31.5 -32.5t24.5 -33.5t22.5 -36.5t24.5 -42.5zM505 510q-15 14 -39 21t-50 8.5t-51 -3t-43 -13.5q-1 -10 -1.5 -39.5t-0.5 -68v-81v-79.5t1 -62.5t2 -28.5q19 -6 42 -8.5t46 -2.5t44 2.5t36 8.5q14 39 20.5 86.5t7 95.5
t-3 91.5t-10.5 72.5z" />
    <glyph glyph-name="E" unicode="E" horiz-adv-x="636" 
d="M594 564q-57 -3 -113.5 -1.5t-113.5 -4.5q-6 -9 -10.5 -27t-5.5 -39t1 -41.5t7 -33.5q3 -1 16 -1t33 0.5t44 0.5h46t41 -0.5t29 -2.5q3 -27 4.5 -58.5t-2.5 -57.5q-26 -2 -53 -2.5l-54 -1t-53.5 -2t-51.5 -6.5q-6 -12 -7.5 -30t-1 -38.5t2.5 -39.5t4 -31q17 -5 47.5 -6
t64.5 0t67 1.5t54 -1.5q5 -35 6 -73.5t-9 -72.5q-61 -6 -120 -10t-119.5 -4.5t-123.5 2.5t-131 12q-6 62 -8 132t-2 142.5t1 145.5t3 141q-13 0 -30 0.5t-30 0.5q2 35 6.5 71t11.5 67q39 9 84.5 13.5t94 7t98 3t97 0t91 -2t79.5 -3.5q4 -12 6 -31.5t2 -41t-0.5 -42
t-1.5 -34.5z" />
    <glyph glyph-name="F" unicode="F" horiz-adv-x="595" 
d="M565 706q1 -38 -2 -77.5t-13 -74.5q-28 -6 -58 -6.5t-60.5 0t-60.5 1.5t-59 -1q-7 -5 -9.5 -22t-3.5 -38t0 -40t1 -29q17 -6 46.5 -7t62 -1.5t63.5 0t52 -1.5q5 -19 6.5 -34.5t1 -30t-3 -29.5t-8.5 -34q-27 -3 -54 -4.5l-54 -3t-54.5 -3.5t-54.5 -10q-1 -2 -1 -30v-67
t0.5 -83.5t1.5 -78.5q-14 -6 -42 -11t-60.5 -7.5t-66.5 -2.5t-60 4q-7 71 -8.5 147.5t0 151.5t4.5 144.5t5 125.5q-8 0 -23 4t-24 6q3 41 3.5 76t1.5 50q40 11 88 17t99 8t102 1.5t96 -2t83 -3.5t63 -4z" />
    <glyph glyph-name="G" unicode="G" horiz-adv-x="712" 
d="M673 -55q-18 -2 -44.5 -3.5t-56.5 -1.5t-60 2.5t-54 9.5v45q-35 3 -79 6.5t-90 8t-90.5 12t-78.5 21.5q-28 12 -43 24.5t-23 29.5t-11 41t-5 56q-3 31 -2.5 73.5t5.5 88.5t14.5 92t25 85.5t37 69t50.5 41.5q40 18 96 30t116 20t116.5 11.5t99.5 6.5q12 -37 18.5 -81.5
t4.5 -79.5q-30 -4 -68 -7.5t-77 -8.5t-76 -12.5t-66 -18.5q-12 -12 -21 -34t-15.5 -50t-11 -58.5t-5 -60t2 -54.5t8.5 -43q17 -6 39.5 -12t45 -10.5t42 -5.5t30.5 0q5 18 8 30t4 23t-1 23t-6 29q-22 9 -48 11t-47 0q-4 30 -2.5 55.5t9.5 54.5q31 8 71.5 13t81.5 8t79 4t64 1
q3 -50 5.5 -115t4 -131t2.5 -128.5t1 -110.5z" />
    <glyph glyph-name="H" unicode="H" horiz-adv-x="714" 
d="M662 721q3 -47 4.5 -111.5t1.5 -137.5t-2 -148t-3 -141.5t-3 -119t-2 -79.5q-16 -4 -47 -5t-64.5 -1t-61.5 1t-38 1q-1 27 -0.5 60.5t1.5 69t0.5 70t-6.5 62.5q-10 0 -35 2t-51.5 1.5t-48.5 -5t-28 -16.5q-4 -61 -5.5 -122t0.5 -122q-25 -6 -52.5 -9t-56 -4t-56.5 -0.5
t-54 3.5q-5 32 -7.5 88.5t-3.5 126t-0.5 145.5t1.5 147t2.5 129t2.5 92q13 5 34.5 8t46 4.5t50.5 2.5t47.5 0t36.5 -2.5t18 -6.5q-9 -57 -9 -120.5v-120.5q18 -5 44 -5t52.5 3t48 7.5t29.5 7.5q4 18 4 46t-1 60t-2 64.5t1 57.5q12 6 41.5 10.5t63 7t64 2.5t43.5 -3z" />
    <glyph glyph-name="I" unicode="I" horiz-adv-x="328" 
d="M277 674q0 -162 -5 -326t-13 -330q-6 -4 -20.5 -6.5t-32.5 -5t-39 -3.5t-40 -1h-34.5h-23.5q-5 76 -7.5 162t-3 173t0.5 170.5t3 152.5q25 6 52.5 8.5t56 4t55.5 1.5h51z" />
    <glyph glyph-name="J" unicode="J" horiz-adv-x="574" 
d="M516 702q4 -35 6.5 -89.5t2 -119t-2.5 -133t-5 -131.5t-6 -114.5t-5 -82.5q-22 -14 -60.5 -26t-85.5 -21t-97.5 -15t-95.5 -8t-79 0.5t-48 9.5q-2 21 -5 62.5t5 93.5q30 1 59.5 2t58.5 4t57.5 11t57.5 21q8 34 12.5 97t4.5 136.5t-3 150t-9 139.5q20 5 47.5 10.5
t59.5 8.5t65.5 2t65.5 -8z" />
    <glyph glyph-name="K" unicode="K" horiz-adv-x="700" 
d="M682 656q-11 -22 -33 -61t-47.5 -85.5t-51 -93.5t-43.5 -83q17 -43 38.5 -82.5t44 -76.5t44.5 -73.5t41 -76.5q-20 -8 -51.5 -15t-64 -11.5t-62 -6.5t-46.5 -3q-27 38 -51 75t-44 70t-34.5 57.5t-23.5 36.5q-7 5 -12 5t-8.5 -3.5t-3.5 -14.5q0 -18 0.5 -44.5t0.5 -55.5
t-0.5 -58t-2.5 -52q-7 -4 -24.5 -7.5t-39.5 -5.5t-46.5 -3.5t-47 -2t-40 0t-26.5 3.5q-4 42 -5.5 102.5t-1 127.5t2 136.5t3.5 131t3.5 110t1.5 73.5q22 4 55.5 5t67.5 1t62.5 -1t38.5 -2q-1 -23 -2.5 -51t-1.5 -56.5t1.5 -57.5t5.5 -55q1 -13 11.5 -14t23.5 19q12 18 31 48
t40 63t41 66t34 57q25 2 53 -1.5t56.5 -9.5t57.5 -12.5t55 -12.5z" />
    <glyph glyph-name="L" unicode="L" horiz-adv-x="567" 
d="M536 197q4 -45 4.5 -89t-8.5 -89q-18 -3 -51 -6t-73 -6t-86.5 -6t-93 -4t-91 -1t-81.5 2q-1 37 -3 89.5t-4 113.5t-3.5 127t-2.5 129t-0.5 120t2.5 99q7 4 24.5 7t41 4.5t50.5 3t52 1.5t45.5 -1t31.5 -3q-2 -66 -3 -141t-1 -144v-125v-84q30 -8 62 -9.5t64 0t63.5 5.5
t60.5 7z" />
    <glyph glyph-name="M" unicode="M" horiz-adv-x="926" 
d="M886 2q-17 -10 -45 -14t-60.5 -5t-66.5 1t-62 5q-1 13 -2.5 38.5t-3.5 58.5t-4 68t-3.5 65t-3 50.5t-2.5 24.5q-6 20 -15.5 17.5t-15.5 -15.5q-10 -20 -25 -54.5t-32 -75t-36 -83.5t-36 -81q-21 0 -42 -1t-42 3q-20 36 -37.5 74.5t-32.5 75.5t-27 69.5t-21 57.5
q-4 11 -14.5 14t-16.5 -9q-4 -8 -6.5 -30t-4.5 -51.5t-3 -63.5t-1.5 -64.5t-1 -54.5t-1.5 -36q-47 -9 -93 -9.5t-98 5.5q-2 47 -0.5 110t3.5 132.5t5.5 139.5t7 131t7 108t5.5 69q21 6 49.5 12t59.5 10t61 7t55 4t42.5 1t22.5 -1q19 -58 35 -116.5t40 -113.5
q5 -10 15.5 -15.5t20.5 2.5q4 4 13 21t19 41.5t22 54t22.5 56t18 48t11.5 29.5q22 6 60 9t80.5 3t83 -2t67.5 -6q8 -179 13 -355.5t16 -358.5z" />
    <glyph glyph-name="N" unicode="N" horiz-adv-x="775" 
d="M724 686q2 -165 1 -331.5t-5 -330.5q-24 -4 -57.5 -8t-72 -8t-80.5 -7t-83 -4q-41 67 -74 140.5t-62 149.5q-3 9 -10.5 13t-15 2.5t-13.5 -8.5t-8 -20q-11 -110 -4 -270q-45 -12 -90.5 -14t-94.5 8q-3 28 -5.5 76.5t-4 108t-1.5 125.5v130t1 123t2 103q5 5 26 9.5t52.5 9
t68 8t70.5 5.5t62.5 2.5t41.5 -2.5q24 -76 54 -150t59 -146q3 -6 8.5 -10t12 -3.5t12.5 7t10 19.5q0 3 1 18.5t1 39t1.5 51.5t2 56t1 52.5t1.5 39.5q96 25 192 16z" />
    <glyph glyph-name="O" unicode="O" horiz-adv-x="772" 
d="M729 128q-26 -36 -49.5 -74t-52.5 -73q-28 -6 -66 -9t-82 -5t-91 -2t-92.5 1.5t-88 4t-77.5 7.5q-11 12 -24.5 33t-27.5 45t-25 47.5t-17 41.5q-1 45 -1 100.5t0.5 111t1.5 108t3 91.5q10 12 26.5 33t34.5 42.5t35 40t28 25.5q27 2 61.5 5.5t73.5 6.5t80 5t81 2t77 -2.5
t67 -9.5q16 -14 32.5 -34t32 -42.5t29.5 -45.5t26 -44q2 -26 4 -62.5t3 -76.5t2 -81t1 -78t-1.5 -66t-3.5 -46zM469 167q1 37 2 78t1 85.5t-1.5 91.5t-6.5 93q-24 -1 -44 -1t-39 -2t-37.5 -6.5t-38.5 -14.5q-4 -9 -6.5 -34.5t-3.5 -59t-1.5 -72.5t0 -74t1.5 -63.5t1 -41.5
q18 -10 42 -12.5t49 0.5t46.5 11.5t35.5 21.5z" />
    <glyph glyph-name="P" unicode="P" horiz-adv-x="753" 
d="M724 420q-2 -15 -15 -40.5t-32 -54t-41 -55.5t-42 -44q-36 -11 -76 -20t-80 -15.5t-76.5 -11t-65.5 -6.5q-1 -44 2.5 -91.5t-0.5 -91.5q-20 -2 -47.5 -4t-57 -4t-58.5 -2t-53 2q-2 15 -4 47.5t-2.5 77.5t-0.5 99.5t0.5 112t2.5 114t3 105.5q-8 0 -23 2.5t-28 7.5
q1 22 4.5 44.5t7 42.5t7 36t3.5 26q20 5 61 9t93 6t110 3t111.5 0t96.5 -2.5t66 -3.5q31 -33 52 -65.5t36 -67t25.5 -73t20.5 -83.5zM469 406q-2 39 -10 72.5t-16 47.5q-7 9 -23 13.5t-34 5.5t-35 -1t-29 -5q-2 -13 -5 -34.5t-5.5 -46t-3 -50.5t3.5 -48q13 -1 34 1t43.5 8
t44 15.5t35.5 21.5z" />
    <glyph glyph-name="Q" unicode="Q" horiz-adv-x="769" 
d="M722 160q-19 -25 -35.5 -52t-34.5 -53q16 -15 28 -27l20 -20q-10 -16 -27 -29t-38.5 -23t-46.5 -18t-51 -13q-15 18 -31 38t-32 41q-50 -2 -98 -2.5t-91.5 0t-80 1.5t-61.5 2q-12 13 -25.5 32.5t-26.5 42t-24 44.5t-17 40q-6 48 -8.5 100t-3 104t1.5 101t5 91
q26 28 53 63t56 66q32 6 74 10.5t86.5 7t89 3.5t82 1t65 0.5t38.5 0.5q16 -14 32.5 -33.5t31.5 -40.5t29.5 -42.5t26.5 -41.5q3 -26 6 -61t5 -73.5t3 -78t1 -74.5t-0.5 -62.5t-1.5 -44.5zM465 241q1 34 1.5 71.5t0 74.5t-3 71t-7.5 62q-16 0 -35.5 2t-40 3t-41 -0.5
t-37.5 -10.5q-6 -39 -9 -82t-3 -86t1.5 -86t4.5 -84q15 -3 34.5 -5.5t39.5 -3.5q-14 27 -23.5 50.5t-13.5 40.5q15 16 41.5 23.5t51.5 10.5q14 -24 39 -51z" />
    <glyph glyph-name="R" unicode="R" horiz-adv-x="736" 
d="M704 34q-13 -8 -38.5 -16t-55.5 -14.5t-62 -12t-57 -5.5q-17 21 -31 39.5t-27 37.5t-26 38.5t-29 41.5q-6 9 -13 18t-14 16t-15 10.5t-16 0.5q-11 -5 -13.5 -18.5t-2.5 -26.5q1 -35 0.5 -70t-1.5 -71q-14 -4 -37.5 -8t-52 -6.5t-61 -2.5t-65.5 4q-5 64 -8 133t-4 137.5
t0 137.5t1 133h-23t-27 3q0 18 1 38t3 40.5t5 39t7 33.5q20 7 60 11t90 6.5t107 2.5t110 -2t99 -5t76 -9q21 -19 43.5 -51.5t40 -73.5t27 -87.5t5.5 -95.5q-17 -21 -45.5 -55t-61.5 -65q7 -11 17 -30.5t21 -42t22.5 -47t22 -45.5t17.5 -37t11 -24zM458 396q1 15 -1 33
t-4.5 35t-5.5 30t-4 18q-7 8 -26 13.5t-40.5 8t-41.5 0.5t-30 -9q-1 -19 -2 -43t-1 -48t1 -45t5 -35q14 0 35 2t42.5 6.5t41 12t31.5 21.5z" />
    <glyph glyph-name="S" unicode="S" horiz-adv-x="622" 
d="M572 547q-64 -10 -128 -15.5t-128 -18.5q-12 -22 -16 -47t-4 -51q68 -14 137 -25t139 -24q13 -32 17 -70.5t0.5 -77t-13.5 -75t-26 -66.5q-54 -27 -112 -47t-117.5 -34t-120 -23.5t-118.5 -16.5q-6 5 -12 28.5t-9 51.5t-5 53.5t-1 36.5q32 2 70 6.5t74 11.5t66 15t45 17
q4 11 5.5 28.5t0.5 33.5q-9 6 -30 11t-48 9t-58 8.5t-59.5 9t-52.5 11t-38 16.5q-4 86 11 171.5t48 162.5q54 21 112.5 35t118.5 23t120 12t117 1q11 -36 13.5 -79.5t1.5 -81.5z" />
    <glyph glyph-name="T" unicode="T" horiz-adv-x="669" 
d="M644 690q2 -17 2 -39.5t-1.5 -45t-4 -43t-5.5 -33.5q-40 -5 -79 -8.5t-80 -5.5q-4 -19 -7.5 -54.5t-7 -81t-6 -96.5t-4.5 -101t-2.5 -95t-0.5 -79q-56 -10 -113 -18.5t-114 -3.5q-7 76 -10 139t-3.5 121.5t0 118t1.5 128.5q-21 1 -45 1t-49 -1.5t-49 -4.5t-44 -4
q-2 43 1.5 91t14.5 93q10 5 39 9t69.5 7t90 5.5t100.5 3.5t101 2t92 0.5t72 -2t42 -3.5z" />
    <glyph glyph-name="U" unicode="U" horiz-adv-x="730" 
d="M685 680q-1 -58 -2.5 -127t-2 -138.5t-0.5 -135t1 -116.5q-5 -17 -15.5 -37t-24 -41.5t-27 -42t-26.5 -35.5q-43 -2 -100 -5t-118 -5t-121.5 -2t-110.5 5q-10 11 -23.5 30.5t-26.5 41t-23.5 43t-15.5 37.5q0 27 -1 69.5t-2 91.5t-1.5 101t0 98.5t2 86t4.5 62.5
q60 7 116.5 8.5t119.5 -5.5q-5 -72 -6.5 -135t-1 -120.5t3 -110t5.5 -105.5q15 -8 36.5 -11t44 -1t43 9t33.5 21q0 54 -1 112.5t-1.5 118.5t-0.5 117t1 106q60 14 119.5 14t122.5 1z" />
    <glyph glyph-name="V" unicode="V" horiz-adv-x="688" 
d="M669 670q-26 -74 -55.5 -157t-60 -169t-61 -173t-58.5 -169q-27 -4 -58.5 -6.5t-63.5 -4t-63 -1.5t-59 1q-14 44 -31 100t-33.5 117.5t-32 125.5t-28.5 125t-23 115t-16 96q27 4 61.5 8.5t67 8.5t56.5 5.5t30 -1.5q3 -22 8.5 -51t12 -60.5t13 -63.5t13 -60t11.5 -49.5
t8 -33.5q1 -4 4 -13.5t7 -19t9 -17.5t9 -8q6 0 11 5.5t8.5 12t6 13.5t4.5 12q22 80 50 166t53 166q37 4 70 3t59 -5t45 -9t26 -9z" />
    <glyph glyph-name="W" unicode="W" horiz-adv-x="981" 
d="M965 700q-2 -53 -8.5 -116t-15.5 -129.5t-19 -132.5t-20 -126t-19 -109.5t-16 -82.5q-41 -3 -77.5 -5.5t-72 -4t-71.5 -2t-74 -0.5q-2 8 -5 27t-7 45.5t-9 56t-9.5 56.5t-8.5 49t-7 32q-2 14 -8 20t-12 6t-11 -7t-9 -19q-4 -18 -12 -47.5t-17.5 -66t-19 -76.5t-19.5 -79
q-41 -3 -75.5 -4.5t-67.5 -1t-66 2t-69 3.5q-19 87 -33 173t-26 172t-24 172.5t-28 173.5q54 9 110 13.5t117 -7.5q13 -72 25 -145t23 -147q2 -8 11 -10t11 4q12 30 24 70.5t24 82.5t22.5 82.5t19.5 70.5q52 4 105.5 7t104.5 -7q24 -73 46 -144.5t44 -145.5q1 -4 4.5 -8
t7.5 -3.5t8 7t6 23.5q18 137 34 277q42 9 90 6.5t99 -6.5z" />
    <glyph glyph-name="X" unicode="X" horiz-adv-x="702" 
d="M698 688q-28 -52 -54.5 -98t-52 -88.5t-50.5 -82t-49 -79.5q20 -38 45 -83t50.5 -92t50.5 -90t45 -79q-27 -3 -62 -6.5t-67.5 -7.5t-57 -6t-30.5 1q-9 19 -22.5 41.5t-26.5 45t-25 41t-18 28.5q-3 4 -7.5 12.5t-13.5 8.5q-12 0 -19 -11t-11 -16q-21 -35 -45 -75.5
t-40 -78.5q-37 -4 -73.5 -4t-66.5 1.5t-51 4.5t-30 4q14 38 32.5 82.5t41.5 91.5t48 93.5t51 87.5q-11 15 -24.5 41.5t-28.5 58.5t-30 68t-28.5 69.5t-23.5 63.5t-15 51q20 2 48.5 5.5t58.5 7t59 4.5t50 0l20 -42t19 -40.5t17 -36t12 -26.5q1 -3 4.5 -8.5t7.5 -11.5t9 -10
t9 -4q12 0 19.5 10t10.5 16q7 12 17.5 31t22.5 40.5t25 43t24 41.5q37 4 74 2t67.5 -5.5t52.5 -7.5t31 -7z" />
    <glyph glyph-name="Y" unicode="Y" horiz-adv-x="723" 
d="M703 686q-27 -44 -57 -97t-61 -110l-62 -114t-60 -105q-2 -70 -3.5 -134t-3.5 -120q-26 -5 -53.5 -7t-55.5 -1.5t-55.5 2t-52.5 1.5q0 67 -1.5 133.5t-3.5 133.5q-16 22 -36.5 55t-41.5 71t-42 79.5t-38.5 81t-30.5 73.5t-18 58q29 1 65 4.5t70 5.5t59 3t32 -1
q4 -20 16.5 -48t26.5 -56l26 -52t16 -34q0 -2 3.5 -7.5t8 -12t9.5 -11t9 -4.5q13 0 21.5 10t10.5 15q24 49 45 100.5t47 99.5q38 2 73 1.5t63 -3t47 -5.5t28 -5z" />
    <glyph glyph-name="Z" unicode="Z" horiz-adv-x="570" 
d="M533 131q3 -34 0 -69.5t-11 -71.5q-58 -9 -120 -12t-123 -3t-118 2.5t-105 5.5q-6 18 -12 39.5t-10 42.5t-5.5 40.5t-0.5 33.5q34 51 71.5 110t73 116t65.5 108t46 84q-28 3 -58 1.5t-60 -2t-60 0t-57 6.5q-10 35 -12.5 70.5t-0.5 74.5q37 2 94.5 8t124 9t136 0
t129.5 -19q0 -17 2 -38.5t2.5 -43.5t0 -43t-3.5 -38q-29 -63 -59 -116t-60 -101t-60 -94t-59 -95q25 -3 58 -3h67.5h67t57.5 -3z" />
    <glyph glyph-name="bracketleft" unicode="[" horiz-adv-x="394" 
d="M362 112q2 -26 2 -60t-4 -60q-70 -8 -145 -5t-146 9q-5 76 -6.5 166.5t-1.5 182.5t1.5 179.5t3.5 157.5q31 6 68.5 12t76.5 9t75.5 3t65.5 -6q2 -12 4 -29.5t3.5 -36t2 -35t-1.5 -29.5q-19 -2 -42 -4.5t-43 -3.5q-4 -44 -6.5 -100.5t-4.5 -116t-1.5 -116t3.5 -100.5
q30 -8 56 -10.5t40 -6.5z" />
    <glyph glyph-name="backslash" unicode="\" horiz-adv-x="533" 
d="M520 -4q-24 -4 -56 -8t-61 -7t-50.5 -5t-27.5 -1q-9 19 -28.5 59t-44.5 89.5t-51.5 105t-48.5 104.5q-8 17 -20 44t-25.5 59t-28 67t-26.5 68.5t-21.5 63t-14.5 50.5q19 2 44.5 5.5t52.5 6.5t53 5t46 0q11 -33 30 -81.5t43.5 -109t53.5 -128t59.5 -135t61.5 -132.5
t60 -120z" />
    <glyph glyph-name="bracketright" unicode="]" horiz-adv-x="394" 
d="M61 576q-3 26 -3 60t4 60q70 8 145.5 5.5t145.5 -9.5q5 -76 7 -166.5t2 -182.5t-2 -179.5t-4 -155.5q-30 -7 -68 -12.5t-77 -9.5t-75.5 -4t-65.5 5q-2 13 -4 30.5t-3 35.5t-1.5 35.5t0.5 29.5q19 3 42.5 5t42.5 3q5 44 7.5 101t4 116t1 116t-2.5 100q-31 9 -57 11.5
t-39 5.5z" />
    <glyph glyph-name="asciicircum" unicode="^" horiz-adv-x="534" 
d="M524 319q-22 -3 -48.5 -6t-51 -6t-43 -4.5t-23.5 0.5q-7 16 -16.5 35.5t-20 38.5t-19.5 35.5t-14 23.5q-2 5 -5.5 11.5t-9.5 6.5q-10 0 -15.5 -9t-7.5 -13q-16 -29 -35 -64.5t-31 -68.5q-27 -3 -55 -3t-50.5 1t-39 3.5t-22.5 3.5q11 33 25 71.5t31.5 79t36.5 81t38 75.5
q20 4 52 5.5t66.5 2t65 -1t46.5 -1.5q16 -32 34.5 -71t38 -79.5t38.5 -78t35 -68.5z" />
    <glyph glyph-name="underscore" unicode="_" horiz-adv-x="477" 
d="M434 4q-47 -3 -95.5 -4.5t-98 -2.5t-98 -3t-94.5 -7q-7 22 -9 46.5t-1 48.5t4.5 44t8.5 33q19 1 49.5 2t66 2t74.5 1h74t65 -1t48 -3q2 -12 4.5 -33.5t3.5 -44.5t0.5 -44.5t-2.5 -33.5z" />
    <glyph glyph-name="grave" unicode="`" horiz-adv-x="289" 
d="M19 561q38 19 83 30t95 11q5 -13 11.5 -33.5t15.5 -43.5t20 -47t24 -43q-12 -5 -25.5 -9t-28 -6.5t-29 -4.5t-26.5 -3q-35 24 -71 66t-69 83z" />
    <glyph glyph-name="a" unicode="a" horiz-adv-x="625" 
d="M586 16q-26 -7 -65 -13.5t-84 -11.5t-93 -8.5t-93 -4.5t-83 0.5t-62 6.5q-10 13 -22.5 30t-24 35t-21.5 35.5t-15 30.5q2 49 14 97t29 81q18 11 51.5 21.5t74 20t84.5 18t85 14.5q-3 9 -5 20.5t-4 16.5q-18 11 -48.5 16t-67 6.5t-74 1t-67.5 -0.5q-1 18 1 39t5 40t8 33.5
t12 21.5q51 5 104.5 8t107.5 1.5t106.5 -9t101.5 -20.5q14 -18 23.5 -54.5t15.5 -84t8.5 -101.5t3 -106t-1 -99t-4.5 -81zM376 116q0 34 -0.5 65t-1.5 63q-30 -6 -57.5 -9.5t-55.5 -16.5q-5 -10 -7.5 -23t-1.5 -27t3.5 -27.5t6.5 -24.5q17 -7 45.5 -5.5t68.5 5.5z" />
    <glyph glyph-name="b" unicode="b" horiz-adv-x="676" 
d="M648 317q-3 -31 -9.5 -76t-15.5 -88t-20.5 -78.5t-24.5 -47.5q-18 -4 -47.5 -9.5t-63.5 -10.5t-70.5 -9.5t-68.5 -5.5q-75 -5 -144 -3.5t-126 14.5q-2 23 -3.5 68.5t-2 104.5t1 126.5t2.5 135.5t2.5 131t2.5 113q24 7 53 13.5t58 10.5t55.5 5.5t45.5 0.5q-1 -18 -2.5 -50
t-2 -66.5t-0.5 -63v-38.5q13 2 39 4t56.5 4t61 3t53.5 1q22 -9 46 -29t48 -47t44 -56.5t32 -56.5zM405 328q-7 7 -24 11.5t-36.5 6t-39 0t-32.5 -7.5q-3 -26 -4 -57t-1 -60.5t2 -54t4 -38.5q12 -4 26.5 -3t29 2.5t28 5t24.5 7.5q8 12 13 34t7.5 49t3 55t-0.5 50z" />
    <glyph glyph-name="c" unicode="c" horiz-adv-x="553" 
d="M526 123q1 -16 -0.5 -36.5t-4.5 -39.5t-8 -34t-12 -19q-53 0 -110 2t-115 7t-114 15t-105 27q-14 17 -22 51t-10.5 76.5t0.5 90t11 92.5t20.5 83t28.5 62q19 10 55 20t79 17t89.5 13t87.5 8t72.5 0.5t44.5 -6.5q2 -16 4.5 -51t-4.5 -74q-35 -3 -66 -4t-59 -4t-54.5 -8
t-53.5 -16q-8 -26 -15 -60t-10.5 -68.5t-1 -65t13.5 -49.5q12 -6 33.5 -10.5t47.5 -6.5t54 -3.5t53.5 -2t44.5 -2t26 -4.5z" />
    <glyph glyph-name="d" unicode="d" horiz-adv-x="695" 
d="M640 686v-167.5v-184t-2 -182t-8 -159.5q-39 -9 -83.5 -14.5t-90.5 -7.5t-91 -0.5t-86 4.5t-75 6.5t-58 6.5q-31 27 -59.5 69.5t-52.5 79.5q-6 30 -0.5 74.5t18.5 91t33 87t45 64.5q34 7 69 15t71 14t73.5 9t75.5 1q0 21 1 47.5t1.5 53.5t1.5 52t2 44q22 9 51 12t59 2
t57.5 -6t47.5 -12zM416 331q-30 8 -68 6.5t-68 -16.5q-13 -54 -18.5 -103.5t2.5 -89.5q14 -4 32.5 -6.5t39.5 -2.5t41.5 2.5t38.5 6.5q2 6 2.5 33t0 60t-1 64.5t-1.5 45.5z" />
    <glyph glyph-name="e" unicode="e" horiz-adv-x="648" 
d="M620 226q-24 -3 -66.5 -7.5t-93 -8.5t-104.5 -7t-99 -4q2 -14 5 -25t8 -20q11 -6 34.5 -12t52 -9t59.5 -6t58.5 -5.5t48 -4.5t27.5 -5q1 -16 -0.5 -36.5t-4.5 -39.5t-8 -34t-12 -19q-52 0 -112.5 3.5t-122 11t-121 20.5t-108.5 29q-15 17 -22.5 51t-10 77t0.5 90.5t11 92
t20 82.5t28 62q19 10 57.5 20t86.5 17.5t99.5 13t97 7.5t80 1t47.5 -7q17 -30 29.5 -69t20.5 -82t12 -88.5t2 -88.5zM400 330q2 21 0 44.5t-12 41.5q-12 -1 -24 -1.5t-24 -2t-26 -4.5t-31 -10q-7 -22 -13 -39t-10 -46q42 -2 78 4t62 13z" />
    <glyph glyph-name="f" unicode="f" horiz-adv-x="585" 
d="M567 600q-42 -3 -87 -12.5t-80 -32.5q-6 -12 -10.5 -32.5t-7.5 -64.5q21 -4 39 -5t35 -1t34.5 0.5t36.5 -0.5q5 -20 6.5 -35t1 -30t-3.5 -30t-7 -34q-28 -3 -44 -4.5t-30 -3t-30 -3.5t-44 -8v-81.5v-85.5v-76t1 -53q-24 -5 -52.5 -8t-57.5 -4.5t-55.5 -1t-46.5 3.5
q-1 19 -3 51.5t-3 73.5t-2 87t-1 95q-31 -1 -59.5 -2.5t-51.5 -5.5q-4 18 -5 38.5t-0.5 40t2.5 36.5t4 28q16 1 46.5 2t66.5 1q1 41 4 77.5t8 67t11 52t14 32.5q49 18 90 27.5t80.5 14t81.5 5t94 1.5q6 -4 11 -18t8.5 -31t5 -36.5t0.5 -34.5z" />
    <glyph glyph-name="g" unicode="g" horiz-adv-x="641" 
d="M597 575q1 -10 1 -47.5v-86.5t-1 -106t-2.5 -108.5t-4 -92t-5.5 -55.5q-6 -31 -15 -60.5t-21.5 -54t-30 -43t-39.5 -26.5q-37 -13 -87 -22.5t-103 -16t-104.5 -10t-90.5 -4.5q-11 28 -17 64t-3 65q26 2 60.5 4.5t69.5 6.5t68.5 10t59.5 16q7 6 12.5 25t9.5 46
q-77 -4 -153.5 0t-143.5 22q-14 15 -22 46.5t-10.5 72t0.5 85t11 86.5t20.5 79t28.5 60q27 14 66 25t85 18t95 10.5t97 3.5t91.5 -3t77.5 -9zM370 448q-24 -3 -46 -8t-44 -14q-8 -26 -15 -54t-10.5 -54.5t-1 -50t13.5 -41.5q13 -7 40 -9.5t59 -1.5q3 58 3.5 116.5t0.5 116.5
z" />
    <glyph glyph-name="h" unicode="h" horiz-adv-x="642" 
d="M596 577q3 -37 4.5 -89t1 -110t-2 -118.5t-2.5 -113.5t-3 -95t-2 -64q-14 -2 -42 -3t-58 -1t-55.5 0.5t-34.5 1.5q-2 20 -0.5 46.5t2 55.5t0 56.5t-5.5 50.5q-10 0 -32 1.5t-46 1t-44 -4t-25 -13.5q-3 -49 -5 -98t0 -97q-44 -10 -97 -11t-100 3q-4 25 -6.5 70.5t-3.5 101
t-0.5 117t1.5 117.5t2.5 103t1.5 74q12 3 31 5.5t42 4.5t46 2.5t42.5 0t32.5 -2.5t16 -6q-7 -45 -7 -96v-97q15 -4 38.5 -4t47.5 2t43.5 6t27.5 7q2 13 2 36t-0.5 48.5t-1 52t0.5 45.5q11 5 37.5 9t57 6t57.5 2t39 -3z" />
    <glyph glyph-name="i" unicode="i" horiz-adv-x="295" 
d="M249 503q0 -65 -1 -124t-3.5 -118t-5 -119.5t-6.5 -127.5q-8 -4 -32 -7t-51 -4.5t-52 -1.5t-36 1q-8 122 -9 250t3 240q23 4 47.5 6.5t49.5 3.5t49.5 1h46.5zM257 602q-4 -9 -20.5 -16.5t-37.5 -12t-45 -7t-45 -1.5t-36 4.5t-20 10.5q-4 9 -5.5 21.5t-0.5 27t3 28t3 20.5
q3 14 15 23.5t28 16.5t32 10t26 6q8 1 19.5 -0.5t23.5 -4.5t23.5 -6.5t19.5 -8.5q10 -25 15.5 -53.5t1.5 -57.5z" />
    <glyph glyph-name="j" unicode="j" horiz-adv-x="323" 
d="M268 542q4 -28 5 -77t0.5 -107.5t-3 -121.5t-5.5 -120.5t-6.5 -103.5t-6.5 -70q-14 -23 -47 -40.5t-75 -29t-87.5 -18t-86.5 -9t-72.5 0t-43.5 8.5q-3 17 -5.5 50t5.5 75q27 1 53.5 1t52.5 3t51.5 9t52.5 18q5 18 8 54.5t4.5 83.5t1.5 100.5t-1 105t-3.5 97.5t-6.5 80
q18 5 43.5 9t53.5 6.5t58.5 1.5t59.5 -6zM270 638q-5 -10 -21 -16.5t-37.5 -11.5t-45 -7t-45 -1t-36.5 4.5t-19 10.5q-4 9 -5.5 21.5t-0.5 27t2.5 27.5t3.5 21q2 14 14.5 23.5t28 16t31.5 10t26 6.5q9 1 20.5 -0.5t23.5 -4.5t23 -7t20 -8q10 -26 15.5 -54.5t1.5 -57.5z" />
    <glyph glyph-name="k" unicode="k" horiz-adv-x="630" 
d="M614 524l-30 -48t-43 -69t-46 -74.5t-38 -66.5q15 -35 34 -66t39 -60.5t40.5 -58.5t37.5 -61q-18 -6 -46.5 -12t-57.5 -9t-55.5 -5.5t-42.5 -3.5q-24 30 -46 60.5t-39.5 56.5t-30.5 45.5t-22 29.5q-6 3 -11 3q-3 0 -6.5 -2t-3.5 -11q0 -14 0.5 -35.5t0.5 -45t-0.5 -47
t-2.5 -41.5q-10 -5 -38.5 -8t-61 -5t-61 -2t-40.5 3q-4 34 -5 92.5t-1 129.5t1 146t3 140.5t3 115t2 70.5q19 3 49.5 4t61.5 0.5t56 -1.5t34 -2q0 -12 -1 -37t-1.5 -56.5t-0.5 -66t0.5 -66t2 -58t3.5 -40.5q2 -10 10.5 -10.5t21.5 14.5q10 14 27.5 38t36 51l37 54t31.5 45
q21 1 46.5 -1.5t51 -7t51.5 -10t50 -11.5z" />
    <glyph glyph-name="l" unicode="l" horiz-adv-x="331" 
d="M280 686q-1 -35 -1.5 -95.5t-1 -131.5t-0.5 -146v-139v-111v-61q-26 -4 -42.5 -5.5t-37 -2t-49.5 1t-79 3.5q-1 29 -2.5 81.5t-3 116t-3.5 133.5t-2.5 135.5t0 121t2.5 89.5q6 3 22 5.5t37 4t45.5 2t47 0.5t41 -0.5t27.5 -1.5z" />
    <glyph glyph-name="m" unicode="m" horiz-adv-x="833" 
d="M797 1q-15 -7 -40.5 -10.5t-54.5 -4t-59.5 1.5t-56.5 3q0 10 -1 31.5t-3 47t-3.5 54t-3.5 52t-3 40t-2 19.5q-5 15 -14.5 13.5t-13.5 -11.5q-9 -17 -22.5 -44t-29 -59.5t-32 -67t-32.5 -65.5q-20 0 -38.5 -0.5t-37.5 2.5q-18 29 -33.5 60t-29 60t-24.5 56t-19 46
q-4 8 -13 10.5t-15 -6.5q-3 -5 -5.5 -23t-4 -42t-3 -51t-2 -51.5t-1 -44t-0.5 -27.5q-42 -8 -83.5 -8.5t-88.5 4.5q-1 36 -0.5 87t3 106.5t5.5 111.5t6 105t6 86.5t5 53.5q20 6 45.5 10.5t52.5 8t54.5 5.5t50 4t38.5 2t20 -1q17 -47 31.5 -94.5t36.5 -90.5q4 -9 13.5 -13
t18.5 2q4 3 11.5 17t17 34t20 43t20 44.5t16.5 38t10 23.5q21 5 55 7.5t72 3t74.5 -1.5t60.5 -6q7 -142 12 -283t14 -288z" />
    <glyph glyph-name="n" unicode="n" horiz-adv-x="697" 
d="M652 549q1 -132 0.5 -265t-4.5 -264q-22 -4 -52 -7t-65 -7t-72 -6t-75 -3q-37 54 -66.5 113t-55.5 120q-3 6 -9.5 9.5t-13.5 2.5t-12.5 -6.5t-6.5 -16.5q-6 -45 -7 -98t3 -117q-40 -10 -81 -11.5t-85 5.5q-4 22 -6 61t-3 87t-1.5 100t-0.5 104t0.5 99t2.5 83q4 4 23.5 7
t47.5 7t61 6.5t63.5 4.5t56.5 2t38 -3q21 -60 47.5 -118.5t53.5 -117.5q2 -5 7.5 -8.5t11.5 -2.5t11 6t8 15q1 4 2 29t2 58.5l2 67t1 51.5q43 10 86.5 13t87.5 0z" />
    <glyph glyph-name="o" unicode="o" horiz-adv-x="660" 
d="M623 112q-21 -26 -42 -55t-45 -56q-36 -7 -90 -10t-114 -3t-118.5 2t-102.5 8q-10 10 -21.5 25.5t-22.5 33.5t-21 36t-15 31q-1 35 -1 77.5v84.5t1 82t3 70q9 9 23 24.5t29.5 32t29.5 30t24 19.5q35 3 83.5 7t100.5 6.5t102.5 1.5t89.5 -9q28 -22 55 -58t49 -68
q2 -30 4 -75.5t2.5 -92t0 -86t-3.5 -58.5zM400 146q2 56 3.5 125t-7.5 141q-20 -1 -37.5 -1.5t-33.5 -2t-31.5 -5t-32.5 -10.5q-4 -7 -5.5 -26.5t-3 -45t-1.5 -55v-56.5t1 -48t1 -32q15 -7 36 -9t42 0.5t39.5 9t29.5 15.5z" />
    <glyph glyph-name="p" unicode="p" horiz-adv-x="678" 
d="M638 288q-1 -14 -12.5 -38.5t-29 -51.5t-37.5 -52.5t-38 -41.5q-32 -10 -68 -18.5t-72 -15t-69 -10.5t-59 -6q0 -21 0.5 -45.5t1.5 -48.5t1 -48t-1 -45q-19 -2 -43.5 -4.5t-51 -3.5t-52.5 -1t-48 1q-2 47 -3.5 106.5t-3 124t-1.5 131.5t0.5 128.5t3 113.5t5.5 88
q17 5 52 9t79 6t92.5 2h93.5t82 -1.5t58 -4.5q27 -30 46.5 -61t32.5 -64t22.5 -70t18.5 -79zM409 264q-2 45 -9.5 84.5t-13.5 57.5q-7 10 -21.5 15t-30.5 6.5t-32 -0.5t-26 -6q-2 -16 -5 -41.5t-4.5 -54t-1.5 -59t3 -56.5q11 -2 29.5 1t39.5 9.5t40.5 17.5t31.5 26z" />
    <glyph glyph-name="q" unicode="q" horiz-adv-x="676" 
d="M34 234q3 32 9.5 76.5t15.5 87.5t21 78.5t24 48.5q18 3 47.5 8t64 10t70.5 9.5t68 6.5q75 4 144 3.5t126 -14.5q3 -23 4 -68.5t1 -104.5t-0.5 -126.5t-1.5 -135.5t-3 -131t-2 -112q-25 -8 -54 -15t-58 -10.5t-55.5 -5.5t-44.5 0q1 17 2 49t1.5 67t1 64t-1.5 39
q-13 -3 -38 -5.5t-55.5 -4.5t-62 -2.5t-53.5 -0.5q-21 8 -45.5 28.5t-48.5 47.5t-44 57t-32 56zM278 222q7 -7 23.5 -11t36 -5.5t39 0.5t33.5 7q3 26 4 57t0 60t-2.5 54t-3.5 39q-12 3 -26.5 3t-29 -2t-28.5 -5.5t-24 -7.5q-8 -12 -12.5 -34.5t-7 -49.5t-3 -55t0.5 -50z" />
    <glyph glyph-name="r" unicode="r" horiz-adv-x="658" 
d="M628 21q-12 -6 -35.5 -12.5t-51.5 -12.5t-57.5 -10.5t-52.5 -5.5q-15 18 -28 33t-25.5 31t-24.5 32t-27 35q-5 7 -11.5 14.5t-13 13t-14 8.5t-15.5 0q-10 -4 -12 -15t-1 -21v-58t-2 -58q-13 -4 -35 -7t-48 -5.5t-56.5 -2.5t-61.5 4q-2 24 -4 72t-3.5 106t-2 121t0.5 118
t3.5 96.5t7.5 58.5q18 5 52.5 8t76.5 4t89 0t92.5 -3.5t85.5 -5.5t66 -7q20 -16 40 -42t35.5 -58t24 -69.5t4.5 -77.5q-15 -18 -41.5 -45.5t-56.5 -53.5q9 -13 24.5 -40.5t31.5 -56.5t29 -54.5t17 -33.5zM400 319q1 12 -0.5 26.5t-4 28.5t-5 25t-3.5 14q-7 8 -25 12.5
t-38 6.5t-38 0t-26 -7q-2 -16 -3 -36t-1 -39t1.5 -36.5t3.5 -29.5q14 0 33.5 1.5t39 5.5t37 10.5t29.5 17.5z" />
    <glyph glyph-name="s" unicode="s" horiz-adv-x="560" 
d="M515 438q-57 -8 -114.5 -13t-115.5 -15q-12 -17 -15 -37.5t-4 -40.5q62 -11 124 -20.5t124 -19.5q12 -25 16 -55.5t1 -61.5t-12.5 -60.5t-23.5 -53.5q-48 -23 -100.5 -38.5t-106 -26t-107.5 -18.5t-107 -13q-6 3 -11 22t-8 41t-4.5 43t-0.5 29q28 3 62 6.5t66.5 9t60 12
t41.5 12.5q3 9 4.5 23.5t-0.5 26.5q-8 6 -27 9.5t-43 7.5t-52 7t-54 6.5t-47 9t-34 13.5q-4 68 9.5 137t43.5 130q49 16 102 28t107 18.5t107.5 9t105.5 1.5q10 -29 12 -64t1 -65z" />
    <glyph glyph-name="t" unicode="t" horiz-adv-x="589" 
d="M573 506q1 -13 1 -31t-1 -36t-3 -34.5t-4 -26.5q-18 -2 -40.5 -3.5l-45 -3t-44.5 -2.5t-40 -2q-5 -23 -7.5 -67t-3.5 -96t-0.5 -105t1.5 -92q-52 -7 -103 -15t-101 -3q-6 61 -9 104t-3.5 82t0 79t0.5 95q-38 3 -79 0t-77 -7q-3 34 0.5 73t13.5 75q24 10 149 16
q0 18 0.5 42.5t0.5 49.5t1 48.5t2 39.5q21 5 50 7t59 3.5t58 1.5h50v-43v-51t-0.5 -50.5t-0.5 -42.5h58.5t52 -0.5t41 -1.5t24.5 -3z" />
    <glyph glyph-name="u" unicode="u" 
d="M616 544q0 -47 -1.5 -101.5t-2.5 -110.5t-1 -108t2 -94q-5 -13 -14 -29t-21 -33.5t-25 -33.5t-24 -29q-39 -1 -90 -3t-106 -4t-109 -2t-100 4q-9 9 -21 24.5t-23.5 32.5t-21 34.5t-14.5 30.5q0 22 -0.5 56t-1.5 73t-1.5 79.5t-0.5 78.5t1.5 69.5t4.5 50.5q54 7 104.5 8
t108.5 -6q-5 -58 -6.5 -108t-1 -96.5t2.5 -88.5t6 -84q13 -6 32.5 -8t39.5 -1t38 7t30 16q0 44 -0.5 91t-1 94.5t-0.5 93.5t1 85q54 10 107.5 10t109.5 2z" />
    <glyph glyph-name="v" unicode="v" horiz-adv-x="619" 
d="M602 536q-24 -59 -50.5 -125.5t-54 -135.5l-55 -138t-52.5 -135q-24 -3 -52 -5t-57 -3.5t-57 -1.5h-53q-21 54 -44 126t-43.5 149t-37 148t-24.5 121q25 3 56.5 6.5t60 7t50.5 4.5t27 -1q4 -27 12.5 -64.5t18 -75t17.5 -69.5t11 -46q1 -2 4 -10t7 -15.5t8 -13.5t8 -6
q6 0 10 3.5t7.5 9t6 11.5t3.5 9q20 65 45 133.5t48 131.5q32 4 62 3.5t53.5 -4t40.5 -7.5t24 -7z" />
    <glyph glyph-name="w" unicode="w" horiz-adv-x="882" 
d="M868 560q-2 -42 -8 -92.5t-14 -104t-17 -105.5t-18 -100t-17 -88t-14 -67q-36 -3 -69 -4.5t-65 -2.5t-64 -1h-68q-1 5 -3.5 20.5t-6.5 36.5t-8.5 44.5t-8.5 45.5t-7.5 39t-5.5 25q-6 23 -18 21.5t-18 -21.5q-4 -14 -11.5 -37.5t-15.5 -52.5t-17 -61t-18 -63
q-36 -2 -67.5 -4t-61 -2t-59 2t-63.5 3q-17 69 -29.5 138t-23 138.5t-21.5 138t-25 138.5q49 6 99.5 10t104.5 -5q12 -59 22.5 -117t21.5 -117q0 -3 3 -5t6 -2.5t6 0t4 2.5q11 24 22 56.5t21.5 66.5t20.5 66.5t18 55.5q47 5 95 6t94 -6q20 -59 40.5 -116t39.5 -116
q2 -3 5 -6t6.5 -3t7 5.5t5.5 18.5q8 54 16 110t14 112q38 7 81.5 5.5t88.5 -5.5z" />
    <glyph glyph-name="x" unicode="x" horiz-adv-x="631" 
d="M628 551q-25 -42 -48.5 -79t-47 -70.5t-46 -65.5t-44.5 -64q18 -31 41 -67t45.5 -73t45 -72t41.5 -63q-25 -2 -56.5 -5.5t-60.5 -6t-51 -4t-27 -0.5q-9 15 -20.5 34t-23.5 36.5t-22.5 32t-16.5 22.5q-3 4 -7 10.5t-12 6.5q-10 0 -17 -8.5t-10 -12.5q-19 -28 -41 -60
t-36 -64q-33 -3 -65.5 -3t-59.5 1.5t-47 3t-27 4.5q12 29 29.5 65t38 73.5t43 75t45.5 70.5q-14 18 -34.5 54.5t-40.5 78.5t-36.5 82.5t-23.5 64.5q19 2 44 5t52 6t53 4.5t45 -0.5q18 -34 36 -66.5t26 -50.5q0 -2 3 -6.5t7.5 -9t8.5 -8t8 -3.5q10 0 17 8t10 13q6 11 15 25.5
t20.5 31.5t23 35t21.5 33q33 3 66 2t60.5 -4t47.5 -6.5t28 -5.5z" />
    <glyph glyph-name="y" unicode="y" 
d="M632 548q-24 -34 -50.5 -77t-54.5 -88.5t-56.5 -90.5t-54.5 -84q-1 -56 -2.5 -107.5t-3.5 -95.5q-22 -4 -47 -5.5t-50.5 -1.5t-50 1.5t-47.5 1.5q0 54 -1.5 106.5t-2.5 106.5q-15 18 -33 44t-37 56.5t-38 64t-35 65.5t-27.5 59t-16.5 45q26 2 59 4.5t63 4.5t53 2.5
t28 -0.5q5 -16 16 -39t23.5 -45.5t23 -41t14.5 -27.5q0 -2 3 -6.5t7.5 -9t9 -8t8.5 -3.5q11 0 18.5 7.5t9.5 12.5q21 38 40 79.5t42 78.5q36 3 67 3t56 -2t42.5 -5t24.5 -5z" />
    <glyph glyph-name="z" unicode="z" horiz-adv-x="513" 
d="M480 105q3 -29 -0.5 -56.5t-9.5 -56.5q-53 -7 -108.5 -9.5t-110.5 -2.5t-106 2t-95 4q-6 14 -11 31.5t-8.5 35t-5 32.5t0.5 26q30 41 64 88t66 93t58.5 86t41.5 68q-52 2 -107 -1t-105 5q-9 28 -11 56.5t-1 59.5q33 2 85.5 7t112 7.5t122 0t116.5 -15.5q1 -14 2 -31
t1.5 -34.5t0 -34.5t-2.5 -31q-27 -50 -53.5 -92.5t-53.5 -81t-54 -75.5t-53 -75q23 -4 52.5 -4h60.5h60.5t51.5 -1z" />
    <glyph glyph-name="braceleft" unicode="{" horiz-adv-x="378" 
d="M351 615q-27 -3 -49 -16t-37 -33q-6 -8 -2.5 -27t9.5 -42t12 -48.5t4 -48.5q-1 -10 -9 -19t-18 -16q-11 -9 -25 -17q12 -16 22 -31q8 -13 15 -25t7 -21q0 -27 -7 -52t-14.5 -45.5t-11.5 -35.5t2 -23q4 -5 11.5 -11.5t18 -12t21.5 -10.5t22 -7q-3 -36 -11.5 -67t-19.5 -46
q-25 4 -54.5 11.5t-59 18.5t-55.5 23.5t-44 23.5q-12 8 -13.5 28t2 48t9 61t8.5 67q2 12 -6 30t-17 35q-11 19 -27 41q16 12 28 26q11 11 20.5 24.5t10.5 29.5q4 31 -2 61.5t-11.5 59.5t-5.5 53.5t16 42.5q33 37 92.5 54t134.5 25q5 -8 11 -21t11 -28t8.5 -31t3.5 -29z" />
    <glyph glyph-name="bar" unicode="|" horiz-adv-x="430" 
d="M399 527q-15 -1 -34.5 -2t-36.5 -1q-1 -93 -4 -186t-7 -187q17 0 35.5 -0.5t29.5 -2.5q2 -12 3.5 -32t2.5 -41t0.5 -41t-2.5 -32q-39 -2 -82.5 -3.5t-88 -2t-88 -2.5t-81.5 -7q-6 20 -7.5 43t-0.5 45t3.5 41t6.5 30q5 0 13.5 1t17.5 1t19 0.5t18 0.5q-4 91 -4.5 185
t0.5 181q-7 0 -17 -0.5t-20.5 -1t-20.5 -1.5t-18 -2q-6 22 -8 47t-1 49.5t4 45t8 33.5q17 1 45.5 2t63 1.5t71 1t70 0.5t62 -1t43.5 -3q3 -13 4.5 -34.5t3 -44.5t0.5 -44.5t-3 -35.5z" />
    <glyph glyph-name="braceright" unicode="}" horiz-adv-x="378" 
d="M29 77q27 4 49.5 17t37.5 33q6 8 2.5 26.5t-10 42.5t-12.5 49.5t-4 46.5q2 10 10 19.5t18 16.5q11 10 26 17q-13 16 -23 30q-8 13 -15.5 26t-7.5 21q0 27 7.5 52t15 45.5t11 35.5t-2.5 23q-3 6 -11 12t-18 12t-21 10.5t-22 5.5q3 36 11 67t19 47q25 -4 54.5 -12t59 -19
t55.5 -23t44 -24q12 -7 14 -27t-1.5 -48.5t-9 -61.5t-9.5 -66q-1 -11 6.5 -29t17.5 -36q12 -20 26 -41q-15 -12 -28 -25q-10 -12 -19.5 -26t-11.5 -28q-3 -31 3 -62.5t11.5 -59.5t5 -53t-16.5 -43q-16 -20 -39.5 -32.5t-52.5 -21t-63.5 -14.5t-71.5 -12q-5 9 -11 22
t-11 27.5t-8.5 30.5t-3.5 29z" />
    <glyph glyph-name="asciitilde" unicode="~" horiz-adv-x="532" 
d="M510 528q-5 -9 -16.5 -27.5t-25.5 -41t-30 -46t-33 -42.5t-33 -30.5t-30 -10.5q-22 3 -51 17t-56 29.5t-49 26.5t-30 7q-5 -4 -12.5 -10.5t-14.5 -16t-15 -20.5t-14 -21q-28 15 -45.5 32.5t-26.5 35.5q12 27 27 58.5t33 59.5t37 50.5t37 31.5q20 12 41 5.5t44 -21
t47.5 -32.5t49.5 -31q18 -9 35 1t31 24q15 18 30 44q21 -13 40.5 -31t29.5 -41z" />
    <glyph glyph-name="uni00A0" unicode="&#xa0;" horiz-adv-x="300" 
 />
    <glyph glyph-name="exclamdown" unicode="&#xa1;" horiz-adv-x="331" 
d="M41 -2q11 72 21.5 142.5t18.5 131t14 105.5t9 70q11 1 32.5 4t46 5.5t46 3.5t30.5 -2q8 -118 6 -235t-2 -233q-59 -8 -116 -9t-106 17zM82 696q5 9 21 16.5t37 12.5t45 7.5t45 2t36.5 -4.5t19.5 -12q5 -8 6 -21.5t0.5 -28t-2.5 -28.5t-4 -24q-2 -14 -14 -23.5t-28 -16.5
t-32 -11t-26 -5q-8 -3 -20 -1.5t-24 4.5t-23 7t-19 8q-11 27 -16 57t-2 61z" />
    <glyph glyph-name="cent" unicode="&#xa2;" horiz-adv-x="582" 
d="M532 490q-26 -1 -56 -5.5t-60.5 -11t-59 -13t-52.5 -11.5q-8 -17 -15.5 -43t-10.5 -54.5t-0.5 -56.5t13.5 -49q11 -5 41 -10t66 -9l72 -8t61 -6q1 -7 -1 -24t-5.5 -35.5t-8.5 -35.5t-12 -25q-19 1 -32 2t-25 1t-26 1t-34 4q-1 -25 -1 -50.5t-1 -65.5q-14 -4 -38 -6
t-50 -2.5t-49.5 0.5t-35.5 4q-9 34 -11 67t-5 71q-18 5 -38 7t-39.5 6t-38 11.5t-34.5 20.5q-8 38 -8.5 94t6 113t19 106t28.5 76q11 3 21.5 6t22.5 6.5t27.5 6.5t37.5 6q-1 24 -2 42.5t-1.5 35t-1.5 31.5t-2 31q24 10 51 16t54.5 9t54.5 3t49 -2q-8 -44 -9.5 -80.5
t-5.5 -69.5q25 3 44 5t35 3t29.5 1.5t28.5 -0.5q1 -6 3 -20t3.5 -30.5t2.5 -33t-1 -29.5z" />
    <glyph glyph-name="sterling" unicode="&#xa3;" horiz-adv-x="570" 
d="M548 553q-30 -5 -57 -8.5t-52.5 -6.5t-51.5 -7.5t-57 -9.5q-12 -19 -12 -40t7 -33q25 -7 43 -11t36 -6.5t37 -5t47 -7.5q2 -26 2.5 -58.5t-2.5 -58.5q-10 -1 -19.5 -4t-23 -6t-31.5 -5.5t-44 -2.5q-20 -29 -41 -61t-51 -70h58t60 0.5t59.5 0t57.5 -5.5q11 -34 13 -67.5
t0 -70.5q-24 -1 -58.5 -4.5t-75 -6.5t-85.5 -5.5t-90.5 -1.5t-90 5.5t-84.5 13.5q-1 17 -2.5 37t-2 41t0 41t2.5 37q32 46 49.5 73t28.5 43q-21 -2 -37 -3t-25 -4q-8 45 -6 78t7 58q8 2 32 2.5t59 1.5q-19 14 -42 32.5t-44 33.5q3 32 8 73.5t18 79.5q104 37 220 52.5
t225 11.5q5 -17 8 -35t5 -36.5t2 -37.5v-36z" />
    <glyph glyph-name="yen" unicode="&#xa5;" horiz-adv-x="688" 
d="M664 708q-21 -40 -47.5 -97t-54.5 -121q17 0 30.5 -1t22.5 -2q1 -13 2.5 -34t2 -43.5t0 -44t-2.5 -33.5q-31 -4 -63 -5t-65 -3q-18 -40 -34 -73q21 1 44.5 1.5t45 0.5t40.5 -1t30 -3q1 -13 2.5 -34t2 -43.5t0 -43.5t-2.5 -34q-41 -5 -85 -5.5t-86 -5.5l-5 -91
q-6 -4 -21.5 -7t-36.5 -5t-44 -4t-44.5 -2h-38.5h-24q-2 28 -3 57t-3 59q-40 -2 -81.5 -3t-80.5 -9q-4 22 -5 46t-0.5 47.5t2.5 44t4 32.5q11 1 30 2.5t40.5 2t44 1t43.5 -0.5v16q-17 25 -35 57q-31 -1 -62.5 -3t-61.5 -7q-4 22 -5 46t-0.5 47.5t2.5 43.5t4 33q15 1 44 2
q-27 61 -49 117.5t-37 100.5q9 2 30 5.5t50 6t64.5 3t71.5 -2.5q18 -56 41 -107t45 -102q3 -6 10.5 -16.5t19.5 -10.5q8 0 13 9t6 14q4 10 15 36.5t25 58.5t27 64.5t22 54.5q6 2 28 1.5t51.5 -2.5t62 -5t59.5 -5z" />
    <glyph glyph-name="section" unicode="&#xa7;" horiz-adv-x="609" 
d="M567 486q14 -53 17 -110.5t-2.5 -113t-18.5 -106t-30 -90.5q-48 -19 -102.5 -33t-111.5 -24.5t-114 -17.5t-111 -12q-7 8 -12 25.5t-8.5 36.5t-5 36t-0.5 24q16 3 39 6t49.5 6.5t53.5 7t50.5 8t41.5 8.5t25 8q5 2 9.5 8.5t6 13.5t-3 13.5t-17.5 7.5q-13 2 -34.5 5
t-41.5 5q-17 2 -42.5 4.5t-53.5 6t-56 8.5t-50 11q-6 33 -8 74.5t0 86t7 89.5t13 85t19 71.5t25 49.5q22 6 56 12.5t75 12t85 11t86 8.5t78 5t60 1q2 -7 4 -21.5t4 -31.5t2.5 -33t-0.5 -29q-26 -2 -61 -6t-71.5 -9t-71 -9.5t-60.5 -8.5q-10 -10 -14 -26.5t2 -31.5
q13 -3 35.5 -6.5t50.5 -7.5t58 -8t59 -8t52.5 -7t37.5 -5zM382 374q-10 0 -27 2.5t-36 6t-38.5 7t-36.5 6.5q-10 -20 -11 -33.5t4 -32.5q15 -6 36 -10t41.5 -6.5t38.5 -3.5t27 -1q6 20 7 34.5t-5 30.5z" />
    <glyph glyph-name="dieresis" unicode="&#xa8;" horiz-adv-x="490" 
d="M445 455q-5 -14 -27.5 -24t-48 -14.5t-47 -0.5t-26.5 17q-3 8 -3.5 22.5t-0.5 29.5t2 30.5t2 24.5q2 15 11 26t20 18t23 11.5t19 6.5q13 2 32 -5t31 -16q8 -29 12 -61t1 -65zM213 450q-4 -10 -16.5 -18.5t-29 -14t-36 -8.5t-35.5 -2.5t-28.5 5t-15.5 12.5q-3 10 -4.5 25
t-1 31.5t2 32.5t3.5 25q2 16 11.5 27.5t22 19t25 12.5t20.5 7q7 1 16.5 0t19 -4.5t18.5 -8.5t15 -9q8 -31 12.5 -64.5t0.5 -67.5z" />
    <glyph glyph-name="copyright" unicode="&#xa9;" horiz-adv-x="769" 
d="M722 148q-25 -36 -47.5 -72.5t-48.5 -70.5q-63 -8 -133 -12t-136 -4.5t-122.5 1t-91.5 2.5q-12 13 -25.5 33t-26.5 42.5t-24 44.5t-17 40q-6 48 -8.5 100t-3 103.5t1.5 101t5 90.5q26 29 53 64t56 65q32 6 74 10.5t86.5 7t89 3.5t82 1t65 0.5t38.5 0.5q16 -13 32.5 -33
t31.5 -41t29.5 -42.5t26.5 -40.5q3 -27 6 -61.5t5 -73t3 -78t1 -74.5t-0.5 -63t-1.5 -44zM555 110q13 55 16.5 118.5t0 126.5t-12.5 122t-22 105q-39 10 -87.5 14t-94.5 1t-83 -13t-53 -25q-19 -32 -28 -89.5t-10.5 -121.5t6 -126.5t23.5 -103.5q38 -13 86 -21.5t96 -9.5
t91.5 4.5t71.5 18.5zM522 136q-12 -2 -34 -2.5t-49.5 1.5t-57.5 6t-57.5 9t-49.5 12t-34 14q-10 18 -15 45t-6 58t1.5 64t7 62.5t12.5 53.5t16 37q54 28 112.5 39t121.5 12q4 -4 8 -13.5t6.5 -22.5t4 -26.5t1.5 -24.5q-7 -4 -25.5 -8t-39.5 -8t-41 -10t-30 -14
q-7 -14 -9.5 -35t-2.5 -45t2.5 -48.5t6.5 -43.5q16 -8 33.5 -11t36.5 -4t39.5 -1.5t41.5 -1.5q4 -30 3 -55.5t-3 -38.5z" />
    <glyph glyph-name="ordfeminine" unicode="&#xaa;" horiz-adv-x="472" 
d="M435 232q-6 -3 -28.5 -7.5t-48.5 -7.5t-50 -4t-32 -1q0 8 -0.5 19t-1.5 18h-45.5t-54.5 2t-57.5 5.5t-54.5 11.5q-10 19 -14 62.5t-3 93t9 96.5t20 73q14 6 41 12.5t59.5 12t68.5 11t69.5 8.5t62.5 5t47 2q6 -51 9 -106.5t4.5 -110t1 -105t-1.5 -90.5zM272 341
q-2 54 -2.5 99.5t0.5 96.5q-10 -1 -18 -1.5t-14.5 -3t-14.5 -6t-19 -9.5q-4 -20 -7.5 -45.5t-5 -50.5t-0.5 -47.5t6 -35.5q14 -5 35.5 -1t39.5 4zM434 4q-47 -3 -95.5 -4.5t-98 -2.5t-98 -3t-94.5 -7q-7 22 -9 46.5t-1 48.5t4.5 44t8.5 33q19 1 49.5 2t66 2t74.5 1h74t65 -1
t48 -3q2 -12 4.5 -33.5t3.5 -44.5t0.5 -44.5t-2.5 -33.5z" />
    <glyph glyph-name="guillemotleft" unicode="&#xab;" horiz-adv-x="690" 
d="M392 606q-22 -43 -43.5 -79.5t-42 -70.5t-41 -65.5t-39.5 -63.5q16 -31 36.5 -67t41 -73t40.5 -72t37 -63q-23 -2 -51 -5t-54 -6t-45.5 -4.5t-24.5 0.5q-48 70 -90.5 140.5t-79.5 142.5q47 76 88.5 149.5t86.5 150.5q30 2 59.5 1t54.5 -3.5t43 -6t24 -5.5zM660 606
q-22 -43 -43 -79.5t-42 -70.5t-41 -65.5t-40 -63.5q17 -31 36.5 -67t40.5 -73t41 -72t37 -63q-23 -2 -51 -5t-54 -6t-46 -4.5t-24 0.5q-49 70 -91.5 140.5t-78.5 142.5q47 76 89 149.5l86 150.5q30 2 59.5 1t54.5 -3.5t42.5 -6t24.5 -5.5z" />
    <glyph glyph-name="logicalnot" unicode="&#xac;" horiz-adv-x="691" 
d="M457 21q3 30 6 63.5t4.5 67t0 67.5t-7.5 64h-72h-104.5t-120.5 -0.5t-119 -2.5q-1 11 -2 32.5t-1 47.5t1 54t2.5 53t4 44t5.5 25q36 2 83.5 2.5t100.5 0t108 -2.5t106.5 -4t95.5 -3.5t75 -2.5q3 -38 3 -85.5t-1.5 -96.5t-3.5 -98t-4.5 -91.5t-5.5 -76.5t-5 -54
q-38 -8 -74.5 -8t-74.5 5z" />
    <glyph glyph-name="registered" unicode="&#xae;" horiz-adv-x="769" 
d="M722 148q-25 -36 -47.5 -72.5t-48.5 -70.5q-63 -8 -133 -12t-136 -4.5t-122.5 1t-91.5 2.5q-12 13 -25.5 33t-26.5 42.5t-24 44.5t-17 40q-6 48 -8.5 100t-3 103.5t1.5 101t5 90.5q26 29 53 64t56 65q32 6 74 10.5t86.5 7t89 3.5t82 1t65 0.5t38.5 0.5q16 -13 32.5 -33
t31.5 -41t29.5 -42.5t26.5 -40.5q3 -27 6 -61.5t5 -73t3 -78t1 -74.5t-0.5 -63t-1.5 -44zM555 110q13 55 16.5 118.5t0 126.5t-12.5 122t-22 105q-39 10 -87.5 14t-94.5 1t-83 -13t-53 -25q-19 -32 -28 -89.5t-10.5 -121.5t6 -126.5t23.5 -103.5q38 -13 86 -21.5t96 -9.5
t91.5 4.5t71.5 18.5zM544 151q-18 -15 -46 -19t-56 0q-11 15 -19.5 27.5t-15.5 25.5t-14 25.5t-17 26.5q-5 11 -12.5 16.5t-15.5 0.5q-2 0 -4 -5t-3 -11t-1.5 -12t-0.5 -8q-1 -24 0 -38t-1 -38h-23h-27t-27.5 2t-24.5 2q-2 12 -3 39t-1 63.5t0.5 78t2 79.5t2.5 69t2 45
q9 4 27 6.5t40 4.5t46.5 3.5t47 2t41.5 0.5t30 -1q29 -35 44 -75t24 -89q-1 -8 -9 -20.5t-17.5 -26t-18 -25t-10.5 -16.5q8 -14 17.5 -35t18.5 -40.5t15.5 -36t8.5 -21.5zM418 365q3 22 -3.5 37.5t-8.5 27.5q-3 4 -10.5 6.5t-16 3t-16.5 -0.5t-14 -3q-1 -7 -2.5 -18.5
t-2.5 -24.5t-1 -27t1 -26q6 0 16 1.5t21 4.5t21 7.5t16 11.5z" />
    <glyph glyph-name="degree" unicode="&#xb0;" horiz-adv-x="411" 
d="M378 331q-13 -19 -39.5 -32t-59.5 -19t-69.5 -6.5t-69.5 6t-59 20t-39 32.5q-2 25 -3.5 61.5t-1.5 75.5t0.5 74.5t2.5 56.5q16 16 43 28t59.5 18t68 7t67 -5t57 -19t37.5 -32q3 -19 5 -59t2.5 -82.5t0.5 -78t-2 -46.5zM251 398q0 36 1.5 66t-4.5 64q-9 0 -19 1t-21 1.5
t-21.5 0t-20.5 -5.5q-2 -19 -4 -34.5t-2 -30.5t1 -31t2 -35q9 -2 21.5 -3.5t25 -1.5t23.5 2t18 7z" />
    <glyph glyph-name="plusminus" unicode="&#xb1;" horiz-adv-x="406" 
d="M373 350q-15 -1 -36 -1.5t-45 -2.5q0 -13 -1 -29t-2.5 -33.5t-2 -35t-2.5 -33.5q-7 -3 -29.5 -5.5t-47.5 -3.5t-48.5 -1t-34.5 1q0 14 -1.5 32l-3 36t-2 36t-1.5 32q-22 -2 -41 -3t-33 -3q-4 19 -5 40.5t0 42.5t2.5 39t4.5 28q8 2 27 2.5t43 1.5q0 16 0.5 34t1 37t1.5 38
t1 33q42 7 91.5 8.5t90.5 0.5v-37v-40v-39t-1 -35h44t27 -2l2.5 -30t2 -38.5t0 -39t-1.5 -30.5zM369 9q-39 -2 -80 -3.5t-82 -2t-81.5 -3t-79.5 -6.5q-6 21 -7.5 44.5t-0.5 45.5t4 42t7 32q15 1 41 1.5t56 1.5t62 1h62t55 -1t39 -2q3 -12 4.5 -32.5t3 -42.5t0.5 -42t-3 -33z
" />
    <glyph glyph-name="acute" unicode="&#xb4;" horiz-adv-x="289" 
d="M268 557q-33 -41 -68.5 -82.5t-71.5 -65.5q-24 1 -55 7t-54 15q13 20 23.5 43.5t19.5 46.5t16 43.5t11 33.5q51 0 96 -10.5t83 -30.5z" />
    <glyph glyph-name="mu" unicode="&#xb5;" horiz-adv-x="720" 
d="M671 688q6 -56 7 -119t-1 -126t-5.5 -122t-7.5 -108q-44 -23 -84 -35.5t-68 -17.5q-61 -2 -125 -6t-120 -4q-1 -24 -2 -41t-2 -32t-2 -32.5t-2 -41.5q-6 -4 -20.5 -6.5t-32.5 -4.5t-39 -3.5t-40 -2t-34.5 -0.5t-23.5 1q-11 166 -12 339.5t6 347.5q5 4 21 6.5t39 4t48 2
t48.5 0.5t42 -0.5t27.5 -1.5q-3 -41 -6 -85.5t-6 -90t-4 -89.5t1 -84q5 -4 26.5 -7t47.5 -3.5t52 1t40 5.5q4 24 6.5 68.5t3.5 96t0 101.5t-3 84q19 3 53 4.5t69 2.5t64 1t38 -2z" />
    <glyph glyph-name="mu" unicode="&#x3bc;" horiz-adv-x="720" 
d="M671 688q6 -56 7 -119t-1 -126t-5.5 -122t-7.5 -108q-44 -23 -84 -35.5t-68 -17.5q-61 -2 -125 -6t-120 -4q-1 -24 -2 -41t-2 -32t-2 -32.5t-2 -41.5q-6 -4 -20.5 -6.5t-32.5 -4.5t-39 -3.5t-40 -2t-34.5 -0.5t-23.5 1q-11 166 -12 339.5t6 347.5q5 4 21 6.5t39 4t48 2
t48.5 0.5t42 -0.5t27.5 -1.5q-3 -41 -6 -85.5t-6 -90t-4 -89.5t1 -84q5 -4 26.5 -7t47.5 -3.5t52 1t40 5.5q4 24 6.5 68.5t3.5 96t0 101.5t-3 84q19 3 53 4.5t69 2.5t64 1t38 -2z" />
    <glyph glyph-name="paragraph" unicode="&#xb6;" horiz-adv-x="769" 
d="M725 680q2 -77 3.5 -162.5t1.5 -174.5t-3 -179t-9 -175q-30 -4 -60 -4t-56.5 2.5t-48 6.5t-34.5 8q-1 18 -2.5 39.5t-3 44t-2 44.5t-0.5 39q-15 2 -45 5q-2 -86 -2 -181q-42 -1 -85.5 -3t-86.5 8q-2 47 -3 96.5t-3 101.5q-47 8 -85.5 15.5t-58.5 14.5q-15 14 -32 33
t-33.5 40t-31.5 42t-26 39q-4 49 4.5 95.5t23.5 87t35.5 73t39.5 52.5q27 4 77 6t110.5 3.5t126 1t123.5 -2.5t102.5 -6t63.5 -10zM517 525q-5 4 -16.5 5.5t-28.5 2.5v-89t-1 -87q31 -3 44 -3q3 14 4 35t1 45t-1 48t-2 43zM286 524q-26 -6 -31 -12q-1 -5 -3.5 -18t-5.5 -30
t-4.5 -35t0.5 -33q6 -3 17 -6.5t26 -7.5q0 36 0.5 71t0.5 71z" />
    <glyph glyph-name="periodcentered" unicode="&#xb7;" horiz-adv-x="331" 
d="M270 231q-4 -9 -20.5 -16t-38 -11.5t-45 -7t-45 -2t-36.5 4.5t-19 12q-4 7 -5.5 20t-0.5 27t2.5 27t3.5 22q2 13 14.5 22.5t28 16t31.5 10.5t26 6q9 2 20.5 0.5t23.5 -4t23.5 -7t19.5 -7.5q10 -27 15.5 -55.5t1.5 -57.5z" />
    <glyph glyph-name="periodcentered" unicode="&#x2219;" horiz-adv-x="331" 
d="M270 231q-4 -9 -20.5 -16t-38 -11.5t-45 -7t-45 -2t-36.5 4.5t-19 12q-4 7 -5.5 20t-0.5 27t2.5 27t3.5 22q2 13 14.5 22.5t28 16t31.5 10.5t26 6q9 2 20.5 0.5t23.5 -4t23.5 -7t19.5 -7.5q10 -27 15.5 -55.5t1.5 -57.5z" />
    <glyph glyph-name="cedilla" unicode="&#xb8;" horiz-adv-x="607" 
d="M436 196q2 -28 2.5 -65.5t-2 -74.5t-8.5 -69.5t-18 -48.5q-27 -11 -62 -17t-72 -9t-72.5 -3.5t-63.5 -0.5q-4 3 -7 13.5t-4.5 24t-2.5 27.5t-1 24q17 1 36.5 3.5t38 5t34.5 7t26 12.5q6 12 9 31.5t4 43.5t0.5 51t-1.5 53q14 2 37 2t47.5 -1.5t46 -4.5t33.5 -4z" />
    <glyph glyph-name="ordmasculine" unicode="&#xba;" horiz-adv-x="472" 
d="M434 4q-47 -3 -95.5 -4.5t-98 -2.5t-98 -3t-94.5 -7q-7 22 -9 46.5t-1 48.5t4.5 44t8.5 33q19 1 49.5 2t66 2t74.5 1h74t65 -1t48 -3q2 -12 4.5 -33.5t3.5 -44.5t0.5 -44.5t-2.5 -33.5zM430 281q-14 -20 -44 -34.5t-68 -22t-79 -7.5t-78.5 7t-67.5 22t-44 38
q-3 26 -4.5 67.5t-1.5 85.5t0.5 83.5t2.5 62.5q17 19 48 32.5t68.5 21t77.5 7.5t76 -6.5t65 -20.5t43 -37q2 -14 3.5 -40t3 -56t2 -61.5t0.5 -60t-0.5 -50.5t-2.5 -31zM286 357q0 40 2 74t-6 72q-9 0 -20.5 1.5t-24 1.5t-25 -0.5t-22.5 -5.5q-4 -22 -5.5 -39.5t-1.5 -34
t1 -34.5t2 -40q11 -2 25 -4t28.5 -2t26.5 3t20 8z" />
    <glyph glyph-name="guillemotright" unicode="&#xbb;" horiz-adv-x="676" 
d="M36 52q22 43 43 80t42 70.5t41 65.5t40 65q-17 30 -36.5 66t-40.5 73t-41 72t-37 64q23 1 51 4.5t54 6.5t46 4t25 -1q48 -70 90.5 -140t78.5 -144q-47 -76 -88.5 -148t-85.5 -151q-30 -2 -60 -1t-55 4t-42.5 6t-24.5 4zM297 52q22 43 43.5 80t42 70.5t40.5 65.5t40 65
q-17 30 -37 66t-40.5 73t-40.5 72t-37 64q23 1 51 4.5t54 6.5t45.5 4t24.5 -1q49 -70 91 -140t79 -144q-47 -75 -89 -148t-86 -151q-30 -2 -60 -1t-54.5 4t-42 6t-24.5 4z" />
    <glyph glyph-name="questiondown" unicode="&#xbf;" horiz-adv-x="531" 
d="M28 246q14 12 32.5 27.5t38 30.5t38 27.5t33.5 20.5q12 29 14.5 56t9.5 58q14 5 42 8t59.5 5.5t60 3.5t43.5 1q4 -14 5 -34.5t1 -41t-1.5 -40.5t-3.5 -35q-9 -9 -23.5 -21t-32 -24.5t-37.5 -24.5t-40 -23q-4 -18 -2.5 -37t5.5 -33q10 -6 28.5 -8t41 -1.5t46.5 3t45 7
t37.5 8t23.5 5.5q-4 -23 -8.5 -44.5t-9.5 -42t-11 -42t-15 -45.5q-24 -13 -58.5 -20.5t-73.5 -10t-80 -1.5t-77.5 5.5t-66 12t-46.5 16.5q-4 18 -9 48t-8.5 64t-4.5 67t4 55zM180 670q9 9 26 16.5t38.5 13.5t44.5 9t45 3t39.5 -3t26.5 -9q5 -2 7.5 -17t2.5 -33t-1.5 -34
t-4.5 -20q-17 -21 -44 -31.5t-56.5 -13t-58.5 2.5t-50 14q-1 4 -4.5 13t-7 22.5t-5 31t1.5 35.5z" />
    <glyph glyph-name="Agrave" unicode="&#xc0;" horiz-adv-x="761" 
d="M755 2q-28 -5 -59 -8t-61.5 -4.5t-58.5 -2t-50 0.5q-6 17 -10.5 30t-8 24t-7 24t-6.5 30q-27 3 -61 4t-67.5 0.5t-63.5 -3t-50 -6.5q-8 -15 -13.5 -25.5t-9.5 -21.5t-7.5 -23.5t-7.5 -28.5q-21 -5 -49.5 -7t-58.5 -2t-57 2t-47 5q7 44 25 107t41.5 132t50 139.5
t49.5 127.5q-11 1 -21 4q-8 1 -16.5 3t-12.5 3q4 13 7.5 28.5t7.5 31.5t8.5 30t10.5 24q23 6 59.5 10t80.5 6t91 3t92 -0.5t83.5 -4.5t64.5 -9q18 -77 36 -152t35 -150.5t32.5 -155t28.5 -165.5zM456 257q-2 23 -6.5 51.5t-10.5 56t-13.5 52.5t-14.5 41q-9 20 -20.5 18
t-20.5 -18q-2 -4 -7.5 -19t-12.5 -35.5t-15 -43.5t-14.5 -44.5t-10 -37.5t-3.5 -21q13 -3 35 -3.5t45 -0.5t42 1.5t27 2.5zM235 812q77 40 178 42q5 -15 11.5 -35t15.5 -43t20 -46.5t24 -43.5q-12 -5 -25.5 -8.5t-28 -6.5t-29 -4.5t-26.5 -2.5q-17 12 -35 29t-36 36
t-35.5 41t-33.5 42z" />
    <glyph glyph-name="Aacute" unicode="&#xc1;" horiz-adv-x="761" 
d="M755 2q-28 -5 -59 -8t-61.5 -4.5t-58.5 -2t-50 0.5q-6 17 -10.5 30t-8 24t-7 24t-6.5 30q-27 3 -61 4t-67.5 0.5t-63.5 -3t-50 -6.5q-8 -15 -13.5 -25.5t-9.5 -21.5t-7.5 -23.5t-7.5 -28.5q-21 -5 -49.5 -7t-58.5 -2t-57 2t-47 5q7 44 25 107t41.5 132t50 139.5
t49.5 127.5q-11 1 -21 4q-8 1 -16.5 3t-12.5 3q4 13 7.5 28.5t7.5 31.5t8.5 30t10.5 24q23 6 59.5 10t80.5 6t91 3t92 -0.5t83.5 -4.5t64.5 -9q18 -77 36 -152t35 -150.5t32.5 -155t28.5 -165.5zM456 257q-2 23 -6.5 51.5t-10.5 56t-13.5 52.5t-14.5 41q-9 20 -20.5 18
t-20.5 -18q-2 -4 -7.5 -19t-12.5 -35.5t-15 -43.5t-14.5 -44.5t-10 -37.5t-3.5 -21q13 -3 35 -3.5t45 -0.5t42 1.5t27 2.5zM570 809q-34 -42 -69.5 -83t-70.5 -65q-25 1 -55.5 7t-54.5 16q14 20 25 43.5t20 46t15.5 43t11.5 34.5q50 -1 95 -11.5t83 -30.5z" />
    <glyph glyph-name="Acircumflex" unicode="&#xc2;" horiz-adv-x="761" 
d="M755 2q-28 -5 -59 -8t-61.5 -4.5t-58.5 -2t-50 0.5q-6 17 -10.5 30t-8 24t-7 24t-6.5 30q-27 3 -61 4t-67.5 0.5t-63.5 -3t-50 -6.5q-8 -15 -13.5 -25.5t-9.5 -21.5t-7.5 -23.5t-7.5 -28.5q-21 -5 -49.5 -7t-58.5 -2t-57 2t-47 5q7 44 25 107t41.5 132t50 139.5
t49.5 127.5q-11 1 -21 4q-8 1 -16.5 3t-12.5 3q4 13 7.5 28.5t7.5 31.5t8.5 30t10.5 24q23 6 59.5 10t80.5 6t91 3t92 -0.5t83.5 -4.5t64.5 -9q18 -77 36 -152t35 -150.5t32.5 -155t28.5 -165.5zM456 257q-2 23 -6.5 51.5t-10.5 56t-13.5 52.5t-14.5 41q-9 20 -20.5 18
t-20.5 -18q-2 -4 -7.5 -19t-12.5 -35.5t-15 -43.5t-14.5 -44.5t-10 -37.5t-3.5 -21q13 -3 35 -3.5t45 -0.5t42 1.5t27 2.5zM582 676q-16 0 -36 -2.5t-38 -4t-32 -2.5t-18 0q-5 9 -12.5 21.5t-15 24t-14 21.5t-10.5 15q-2 3 -5 7t-7 4q-7 0 -11 -5.5t-7 -8.5
q-12 -18 -25.5 -39t-22.5 -42q-21 -2 -41.5 -2.5t-38 0.5t-30 3t-16.5 2q7 20 18 43.5t24 48t27.5 49.5t29.5 47q14 1 38.5 2.5t50.5 1.5h48.5t34.5 -1q11 -21 25.5 -44.5t29 -48t28.5 -48t26 -42.5z" />
    <glyph glyph-name="Atilde" unicode="&#xc3;" horiz-adv-x="761" 
d="M755 2q-28 -5 -59 -8t-61.5 -4.5t-58.5 -2t-50 0.5q-6 17 -10.5 30t-8 24t-7 24t-6.5 30q-27 3 -61 4t-67.5 0.5t-63.5 -3t-50 -6.5q-8 -15 -13.5 -25.5t-9.5 -21.5t-7.5 -23.5t-7.5 -28.5q-21 -5 -49.5 -7t-58.5 -2t-57 2t-47 5q7 44 25 107t41.5 132t50 139.5
t49.5 127.5q-11 1 -21 4q-8 1 -16.5 3t-12.5 3q4 13 7.5 28.5t7.5 31.5t8.5 30t10.5 24q23 6 59.5 10t80.5 6t91 3t92 -0.5t83.5 -4.5t64.5 -9q18 -77 36 -152t35 -150.5t32.5 -155t28.5 -165.5zM456 257q-2 23 -6.5 51.5t-10.5 56t-13.5 52.5t-14.5 41q-9 20 -20.5 18
t-20.5 -18q-2 -4 -7.5 -19t-12.5 -35.5t-15 -43.5t-14.5 -44.5t-10 -37.5t-3.5 -21q13 -3 35 -3.5t45 -0.5t42 1.5t27 2.5zM616 794q-7 -10 -25 -32t-39.5 -44.5t-45 -39t-41.5 -15.5q-20 2 -46 11t-50.5 19.5t-44 17.5t-26.5 5q-10 -4 -24.5 -17.5t-26.5 -28.5
q-50 21 -64 46q11 18 24 38.5t29 39t33 33.5t34 21q17 8 36 4t40 -13.5t43 -21.5t45 -21q16 -6 31 0t28 16q14 12 28 30q18 -9 35 -21t27 -27z" />
    <glyph glyph-name="Adieresis" unicode="&#xc4;" horiz-adv-x="761" 
d="M755 2q-28 -5 -59 -8t-61.5 -4.5t-58.5 -2t-50 0.5q-6 17 -10.5 30t-8 24t-7 24t-6.5 30q-27 3 -61 4t-67.5 0.5t-63.5 -3t-50 -6.5q-8 -15 -13.5 -25.5t-9.5 -21.5t-7.5 -23.5t-7.5 -28.5q-21 -5 -49.5 -7t-58.5 -2t-57 2t-47 5q7 44 25 107t41.5 132t50 139.5
t49.5 127.5q-11 1 -21 4q-8 1 -16.5 3t-12.5 3q4 13 7.5 28.5t7.5 31.5t8.5 30t10.5 24q23 6 59.5 10t80.5 6t91 3t92 -0.5t83.5 -4.5t64.5 -9q18 -77 36 -152t35 -150.5t32.5 -155t28.5 -165.5zM456 257q-2 23 -6.5 51.5t-10.5 56t-13.5 52.5t-14.5 41q-9 20 -20.5 18
t-20.5 -18q-2 -4 -7.5 -19t-12.5 -35.5t-15 -43.5t-14.5 -44.5t-10 -37.5t-3.5 -21q13 -3 35 -3.5t45 -0.5t42 1.5t27 2.5zM620 713q-4 -9 -15.5 -17t-27 -13.5t-33 -8t-33 -1.5t-26.5 5t-14 12t-4 22.5t-0.5 30t2 31t2.5 24.5q2 16 10.5 26t20 17t23 11.5t19.5 7.5
q6 1 14.5 0t17.5 -4.5t17.5 -8t13.5 -9.5q8 -28 11.5 -60t1.5 -65zM388 707q-4 -9 -17 -18t-29 -14t-35.5 -8t-36 -2.5t-28.5 5t-16 13.5q-2 9 -3.5 24t-1 31.5t2 32.5t2.5 25q3 16 12.5 27.5t21.5 19t25 12.5t21 6q7 2 16.5 0.5t18.5 -5t18 -8t15 -9.5q8 -30 13 -63.5
t1 -68.5z" />
    <glyph glyph-name="Aring" unicode="&#xc5;" horiz-adv-x="761" 
d="M755 2q-28 -5 -59 -8t-61.5 -4.5t-58.5 -2t-50 0.5q-6 17 -10.5 30t-8 24t-7 24t-6.5 30q-27 3 -61 4t-67.5 0.5t-63.5 -3t-50 -6.5q-8 -15 -13.5 -25.5t-9.5 -21.5t-7.5 -23.5t-7.5 -28.5q-21 -5 -49.5 -7t-58.5 -2t-57 2t-47 5q7 44 25 107t41.5 132t50 139.5
t49.5 127.5q-11 1 -21 4q-8 1 -16.5 3t-12.5 3q4 13 7.5 28.5t7.5 31.5t8.5 30t10.5 24q23 6 59.5 10t80.5 6t91 3t92 -0.5t83.5 -4.5t64.5 -9q18 -77 36 -152t35 -150.5t32.5 -155t28.5 -165.5zM456 257q-2 23 -6.5 51.5t-10.5 56t-13.5 52.5t-14.5 41q-9 20 -20.5 18
t-20.5 -18q-2 -4 -7.5 -19t-12.5 -35.5t-15 -43.5t-14.5 -44.5t-10 -37.5t-3.5 -21q13 -3 35 -3.5t45 -0.5t42 1.5t27 2.5zM590 693q-14 -9 -42 -15t-62 -9t-72 -3t-72.5 3t-61.5 9.5t-41 15.5q-3 12 -4.5 29t-1.5 36t1 35.5t2 25.5q16 9 44.5 14t62.5 8.5t71.5 3.5
t70.5 -2.5t59.5 -8.5t39.5 -15q2 -9 4 -28t3 -39t0.5 -37.5t-1.5 -22.5zM458 724q0 18 1 32t-6 31q-17 0 -41 1t-44 -3q-6 -19 -5.5 -31t2.5 -32q10 0 22.5 -0.5t26 -0.5t25 0.5t19.5 2.5z" />
    <glyph glyph-name="AE" unicode="&#xc6;" horiz-adv-x="1035" 
d="M1001 563q-28 -1 -58.5 -1h-61.5t-61 -0.5t-59 -3.5q-6 -9 -9 -27t-2.5 -39t3.5 -41.5t10 -33.5q2 -1 16 -1t34 0.5t44 0.5h47t42 -0.5t29 -2.5q3 -27 4.5 -58.5t-1.5 -57.5q-26 -2 -52 -2.5t-52.5 -1.5l-53 -2t-50.5 -6q-5 -12 -5.5 -30t1 -38.5t5 -40t6.5 -30.5
q17 -5 45 -6t60 0t62.5 1.5t51.5 -2.5q5 -34 6 -72.5t-8 -72.5q-60 -6 -118 -9t-115.5 -3.5t-116 1t-118.5 2.5q-6 30 -12 58.5t-8 58.5q-25 9 -59 11.5t-68 1.5t-64.5 -5.5t-49.5 -9.5q-10 -16 -16.5 -28t-12.5 -24.5t-11 -26t-11 -31.5q-20 -5 -49 -7.5t-59 -2.5t-57 2
t-46 6q12 49 37.5 119t57.5 147t67 154.5t65 142.5q-11 1 -21 2q-8 2 -16.5 4t-12.5 4q2 14 5 31.5t7 35t9.5 33t11.5 26.5q23 5 59 9t79.5 6.5t90 4.5t88.5 2q55 4 118.5 6t126 2t120 -1.5t100.5 -3.5q5 -12 6.5 -31.5t2 -41t-0.5 -42.5t-2 -35zM489 286q1 25 0 56.5
t-4 62.5t-7.5 58t-9.5 45q-7 23 -18.5 20.5t-21.5 -20.5q-4 -4 -11 -20.5t-16.5 -39t-20 -48.5t-19.5 -49.5t-15 -41t-6 -23.5q10 -6 32 -7t45 -0.5t44 3t28 4.5z" />
    <glyph glyph-name="Ccedilla" unicode="&#xc7;" horiz-adv-x="615" 
d="M585 224q1 -16 -1 -38.5t-5.5 -44t-9 -37.5t-13.5 -22q-28 0 -57 0.5t-61 1.5q-2 -45 -8 -85.5t-20 -60.5q-27 -11 -62 -17t-72 -9t-72.5 -3.5t-63.5 -0.5q-4 3 -7 13.5t-4.5 24t-2.5 27.5t-1 24q17 1 36.5 3.5t38 5t34.5 7t26 12.5q6 10 8.5 29t3.5 41q-55 6 -108 16.5
t-101 27.5q-16 19 -24.5 56t-11 84t1 99.5t12 102t22 91.5t31.5 68q22 12 61 22t87.5 18.5t100 14.5t97.5 8.5t81 1.5t49 -7q2 -9 3 -24t2 -33t0 -38.5t-5 -42.5q-39 -4 -73 -5t-65.5 -4t-61.5 -8.5t-60 -17.5q-8 -28 -16 -65.5t-11.5 -76t-1 -72t14.5 -54.5q13 -8 37 -12.5
t53.5 -6.5t60.5 -4t59 -2.5t49 -2t30 -5.5z" />
    <glyph glyph-name="Egrave" unicode="&#xc8;" horiz-adv-x="636" 
d="M594 506q-57 -1 -113.5 0.5t-113.5 -4.5q-6 -8 -10.5 -24.5t-5.5 -35t1 -37t7 -30.5q3 -1 16 -1t33 0.5t44 1t46 0.5t41 -1t29 -2q3 -24 4.5 -52.5t-2.5 -52.5q-26 -2 -53 -2.5t-54 -0.5t-53.5 -1.5t-51.5 -6.5q-6 -9 -7.5 -26t-1 -35.5t2.5 -35.5t4 -28q17 -5 47.5 -5.5
t64.5 0t67 1t54 -1.5q5 -30 6 -65t-9 -65q-61 -6 -120 -9t-119.5 -3.5t-123.5 2t-131 10.5q-6 56 -8 119t-2 128t1 131t3 127q-13 0 -30 0.5t-30 0.5q2 30 6.5 63t11.5 61q39 6 84.5 11.5t94 7.5t98 2t97 -0.5t91 -1.5t79.5 -4q4 -10 6 -27.5t2 -37.5t-0.5 -38.5t-1.5 -31.5
zM172 821q39 21 84 31.5t95 11.5q5 -14 11.5 -34.5t15.5 -43.5t20 -46.5t24 -42.5q-12 -6 -26 -9.5t-28.5 -7t-28.5 -5t-26 -2.5q-35 25 -71 66t-70 82z" />
    <glyph glyph-name="Eacute" unicode="&#xc9;" horiz-adv-x="636" 
d="M594 506q-57 -1 -113.5 0.5t-113.5 -4.5q-6 -8 -10.5 -24.5t-5.5 -35t1 -37t7 -30.5q3 -1 16 -1t33 0.5t44 1t46 0.5t41 -1t29 -2q3 -24 4.5 -52.5t-2.5 -52.5q-26 -2 -53 -2.5t-54 -0.5t-53.5 -1.5t-51.5 -6.5q-6 -9 -7.5 -26t-1 -35.5t2.5 -35.5t4 -28q17 -5 47.5 -5.5
t64.5 0t67 1t54 -1.5q5 -30 6 -65t-9 -65q-61 -6 -120 -9t-119.5 -3.5t-123.5 2t-131 10.5q-6 56 -8 119t-2 128t1 131t3 127q-13 0 -30 0.5t-30 0.5q2 30 6.5 63t11.5 61q39 6 84.5 11.5t94 7.5t98 2t97 -0.5t91 -1.5t79.5 -4q4 -10 6 -27.5t2 -37.5t-0.5 -38.5t-1.5 -31.5
zM506 815q-34 -41 -69.5 -82.5t-70.5 -65.5q-12 1 -26 2.5t-29 4.5t-29 7t-26 9q14 20 25 43.5t20 46t15.5 43t11.5 34.5q50 -1 95 -11.5t83 -30.5z" />
    <glyph glyph-name="Ecircumflex" unicode="&#xca;" horiz-adv-x="636" 
d="M594 506q-57 -1 -113.5 0.5t-113.5 -4.5q-6 -8 -10.5 -24.5t-5.5 -35t1 -37t7 -30.5q3 -1 16 -1t33 0.5t44 1t46 0.5t41 -1t29 -2q3 -24 4.5 -52.5t-2.5 -52.5q-26 -2 -53 -2.5t-54 -0.5t-53.5 -1.5t-51.5 -6.5q-6 -9 -7.5 -26t-1 -35.5t2.5 -35.5t4 -28q17 -5 47.5 -5.5
t64.5 0t67 1t54 -1.5q5 -30 6 -65t-9 -65q-61 -6 -120 -9t-119.5 -3.5t-123.5 2t-131 10.5q-6 56 -8 119t-2 128t1 131t3 127q-13 0 -30 0.5t-30 0.5q2 30 6.5 63t11.5 61q39 6 84.5 11.5t94 7.5t98 2t97 -0.5t91 -1.5t79.5 -4q4 -10 6 -27.5t2 -37.5t-0.5 -38.5t-1.5 -31.5
zM526 685q-15 -1 -35 -3t-38.5 -4t-32.5 -3t-17 0q-5 10 -13 22t-15 24t-14 21.5t-11 15.5q-1 2 -4 6.5t-8 4.5q-6 0 -10.5 -6t-6.5 -9l-26 -39t-23 -42q-21 -2 -41.5 -2.5t-37.5 0.5t-29.5 3t-17.5 2q8 21 19 44t24 48t27.5 49.5t28.5 46.5q15 2 39 3t50 1h49t35 -2
q11 -19 25.5 -43.5l29 -49t28 -47t25.5 -41.5z" />
    <glyph glyph-name="Edieresis" unicode="&#xcb;" horiz-adv-x="636" 
d="M594 506q-57 -1 -113.5 0.5t-113.5 -4.5q-6 -8 -10.5 -24.5t-5.5 -35t1 -37t7 -30.5q3 -1 16 -1t33 0.5t44 1t46 0.5t41 -1t29 -2q3 -24 4.5 -52.5t-2.5 -52.5q-26 -2 -53 -2.5t-54 -0.5t-53.5 -1.5t-51.5 -6.5q-6 -9 -7.5 -26t-1 -35.5t2.5 -35.5t4 -28q17 -5 47.5 -5.5
t64.5 0t67 1t54 -1.5q5 -30 6 -65t-9 -65q-61 -6 -120 -9t-119.5 -3.5t-123.5 2t-131 10.5q-6 56 -8 119t-2 128t1 131t3 127q-13 0 -30 0.5t-30 0.5q2 30 6.5 63t11.5 61q39 6 84.5 11.5t94 7.5t98 2t97 -0.5t91 -1.5t79.5 -4q4 -10 6 -27.5t2 -37.5t-0.5 -38.5t-1.5 -31.5
zM535 722q-4 -10 -15.5 -17t-27 -13t-33 -8.5t-32.5 -1.5t-26.5 5t-14.5 12t-3.5 22.5t-0.5 30t2 31t2 24.5q2 16 11 26t20.5 17t23 11.5t19.5 6.5q6 2 14.5 1t17 -4.5t17 -8t13.5 -8.5q8 -29 12 -61t1 -65zM304 716q-6 -15 -30 -25.5t-52 -15t-51.5 -0.5t-28.5 17
q-3 9 -4.5 23.5t-1 31.5t2 33t3.5 26q2 15 12 26.5t22 19.5t25 12t20 6t16.5 0.5t19 -5t18.5 -8t15 -9.5q8 -30 12.5 -63.5t1.5 -68.5z" />
    <glyph glyph-name="Igrave" unicode="&#xcc;" horiz-adv-x="328" 
d="M277 607q0 -147 -5 -294t-13 -297q-6 -3 -20.5 -5.5t-32.5 -4.5t-39 -3t-40 -1.5t-34.5 0t-23.5 0.5q-5 69 -7.5 146.5t-3 155.5t0.5 153t3 137q25 4 52.5 7t56 4.5t55.5 1.5h51zM14 791q78 39 179 41q4 -14 11 -34t16 -43.5t19.5 -46.5t24.5 -43q-23 -10 -54 -15.5
t-56 -6.5q-17 11 -35 28t-35.5 36.5t-34.5 41t-35 42.5z" />
    <glyph glyph-name="Iacute" unicode="&#xcd;" horiz-adv-x="328" 
d="M277 607q0 -147 -5 -294t-13 -297q-6 -3 -20.5 -5.5t-32.5 -4.5t-39 -3t-40 -1.5t-34.5 0t-23.5 0.5q-5 69 -7.5 146.5t-3 155.5t0.5 153t3 137q25 4 52.5 7t56 4.5t55.5 1.5h51zM339 792q-17 -21 -34.5 -42t-35 -41t-35.5 -37t-35 -28q-12 0 -26.5 2t-29 4.5t-28.5 6.5
t-25 9q13 20 23.5 43.5t19.5 46t16 43.5t11 34q51 0 96 -10.5t83 -30.5z" />
    <glyph glyph-name="Icircumflex" unicode="&#xce;" horiz-adv-x="328" 
d="M277 607q0 -147 -5 -294t-13 -297q-6 -3 -20.5 -5.5t-32.5 -4.5t-39 -3t-40 -1.5t-34.5 0t-23.5 0.5q-5 69 -7.5 146.5t-3 155.5t0.5 153t3 137q25 4 52.5 7t56 4.5t55.5 1.5h51zM318 653q-13 -1 -29 -3t-31 -4t-26.5 -3.5t-13.5 0.5q-5 9 -11 21.5t-12 24.5t-11.5 21.5
t-8.5 14.5q-2 2 -3.5 6.5t-5.5 4.5q-6 0 -9.5 -6t-4.5 -8q-10 -18 -21.5 -39t-18.5 -43q-18 -1 -34 -1t-30.5 0.5t-24 2.5t-13.5 2q6 20 15 43.5t19.5 48t22 49t23.5 45.5q11 2 31 3t40.5 1.5t39.5 0t29 -0.5q8 -20 20 -44t23.5 -48t23 -47t21.5 -42z" />
    <glyph glyph-name="Idieresis" unicode="&#xcf;" horiz-adv-x="328" 
d="M277 607q0 -147 -5 -294t-13 -297q-6 -3 -20.5 -5.5t-32.5 -4.5t-39 -3t-40 -1.5t-34.5 0t-23.5 0.5q-5 69 -7.5 146.5t-3 155.5t0.5 153t3 137q25 4 52.5 7t56 4.5t55.5 1.5h51zM328 688q-4 -14 -21.5 -24.5t-38 -14.5t-38.5 -0.5t-22 16.5q-2 8 -2.5 22.5t0 30.5
t1.5 31t1 24q2 15 9.5 25.5t16.5 18t18.5 11.5t15.5 6q10 4 25.5 -3.5t25.5 -16.5q6 -30 9.5 -61.5t-0.5 -64.5zM141 682q-5 -15 -24 -26t-42 -15t-42 -0.5t-23 17.5q-2 9 -3 24t-0.5 31.5t2 32t1.5 25.5q2 17 10 28t18 18.5t20 12t16 6.5t13 0.5t15 -5t15 -8t13 -9.5
q7 -30 10.5 -64t0.5 -68z" />
    <glyph glyph-name="Ntilde" unicode="&#xd1;" horiz-adv-x="775" 
d="M724 617q2 -147 1 -297t-5 -298q-24 -4 -57.5 -8t-72 -7.5t-80.5 -6.5t-83 -3q-41 60 -74 126.5t-62 134.5q-3 8 -10.5 12t-15 2.5t-13.5 -7t-8 -18.5q-11 -100 -4 -243q-45 -12 -90.5 -13t-94.5 6q-3 26 -5.5 69.5t-4 97t-1.5 113.5v118t1 111t2 92q5 4 26 8.5t52.5 8
t68 7t70.5 5t62.5 1.5t41.5 -2q24 -68 54 -134t59 -132q3 -6 8.5 -9.5t12 -3t12.5 6.5t10 18q0 2 1 16t1 35.5t1.5 46.5t2 50t1 47.5t1.5 36.5q95 22 192 13zM622 778q-8 -8 -26 -30.5t-39.5 -45t-45 -39.5t-41.5 -16q-20 2 -46 11.5t-50 19.5t-44 17t-27 4
q-10 -3 -24.5 -16.5t-26.5 -26.5q-24 9 -40.5 20.5t-23.5 23.5q11 18 24.5 38.5t29 39t33 33.5t33.5 22q18 8 37 3.5t39.5 -13.5t42.5 -21.5t45 -21.5q16 -6 31 1t28 16q14 12 28 29q19 -8 35.5 -20t27.5 -28z" />
    <glyph glyph-name="Ograve" unicode="&#xd2;" horiz-adv-x="772" 
d="M729 116q-26 -34 -49.5 -68t-52.5 -65q-28 -5 -66 -8t-82 -5t-91 -2t-92.5 1t-88 4t-77.5 6q-11 12 -24.5 30.5t-27.5 40.5t-25 43t-17 37q-1 41 -1 91t0.5 99.5t1.5 97t3 82.5q10 12 26.5 30.5t34.5 38t35 36t28 21.5q27 3 61.5 6t73.5 5.5t80 4.5t81 2t77 -2.5t67 -7.5
q16 -14 32.5 -31.5t32 -38t29.5 -41t26 -39.5q3 -36 5 -89.5t3.5 -108.5t1 -101.5t-4.5 -68.5zM469 150q1 33 2 70t1 77.5t-1.5 82.5t-6.5 84q-24 0 -44 -0.5t-39 -2.5t-37.5 -6t-38.5 -13q-4 -8 -6.5 -31t-3.5 -53.5t-1.5 -65.5t0 -66.5t1.5 -57t1 -37.5q18 -8 42 -10.5
t49 0.5t46.5 11t35.5 18zM231 822q38 20 83 30.5t96 10.5q5 -13 11.5 -34t15.5 -44t20 -46t24 -43q-23 -10 -54 -15.5t-56 -6.5q-17 11 -35 28t-35.5 37t-35 41t-34.5 42z" />
    <glyph glyph-name="Oacute" unicode="&#xd3;" horiz-adv-x="772" 
d="M729 116q-26 -34 -49.5 -68t-52.5 -65q-28 -5 -66 -8t-82 -5t-91 -2t-92.5 1t-88 4t-77.5 6q-11 12 -24.5 30.5t-27.5 40.5t-25 43t-17 37q-1 41 -1 91t0.5 99.5t1.5 97t3 82.5q10 12 26.5 30.5t34.5 38t35 36t28 21.5q27 3 61.5 6t73.5 5.5t80 4.5t81 2t77 -2.5t67 -7.5
q16 -14 32.5 -31.5t32 -38t29.5 -41t26 -39.5q3 -36 5 -89.5t3.5 -108.5t1 -101.5t-4.5 -68.5zM469 150q1 33 2 70t1 77.5t-1.5 82.5t-6.5 84q-24 0 -44 -0.5t-39 -2.5t-37.5 -6t-38.5 -13q-4 -8 -6.5 -31t-3.5 -53.5t-1.5 -65.5t0 -66.5t1.5 -57t1 -37.5q18 -8 42 -10.5
t49 0.5t46.5 11t35.5 18zM539 818q-16 -22 -33.5 -43t-35.5 -40.5t-36 -37t-35 -28.5q-25 1 -55 6.5t-54 16.5q13 19 24 42.5t20 46.5t15.5 43.5t11.5 34.5q50 0 95 -11t83 -30z" />
    <glyph glyph-name="Ocircumflex" unicode="&#xd4;" horiz-adv-x="772" 
d="M729 116q-26 -34 -49.5 -68t-52.5 -65q-28 -5 -66 -8t-82 -5t-91 -2t-92.5 1t-88 4t-77.5 6q-11 12 -24.5 30.5t-27.5 40.5t-25 43t-17 37q-1 41 -1 91t0.5 99.5t1.5 97t3 82.5q10 12 26.5 30.5t34.5 38t35 36t28 21.5q27 3 61.5 6t73.5 5.5t80 4.5t81 2t77 -2.5t67 -7.5
q16 -14 32.5 -31.5t32 -38t29.5 -41t26 -39.5q3 -36 5 -89.5t3.5 -108.5t1 -101.5t-4.5 -68.5zM469 150q1 33 2 70t1 77.5t-1.5 82.5t-6.5 84q-24 0 -44 -0.5t-39 -2.5t-37.5 -6t-38.5 -13q-4 -8 -6.5 -31t-3.5 -53.5t-1.5 -65.5t0 -66.5t1.5 -57t1 -37.5q18 -8 42 -10.5
t49 0.5t46.5 11t35.5 18zM571 688q-16 -1 -36 -3.5t-38.5 -4t-32 -3t-17.5 0.5q-5 10 -12.5 22t-15 23.5t-14.5 21.5t-11 15q-1 2 -4 6.5t-8 4.5q-6 0 -10.5 -5.5t-6.5 -7.5q-12 -18 -25.5 -39.5t-23.5 -42.5q-20 -2 -41 -2t-38 0.5t-29.5 2.5t-17.5 3q8 19 19 42.5t24 48.5
t27.5 49.5t29.5 46.5q14 1 38 2t50 2t49 0t34 -2q11 -19 25.5 -43t29 -48.5t29 -47.5t26.5 -42z" />
    <glyph glyph-name="Otilde" unicode="&#xd5;" horiz-adv-x="772" 
d="M729 116q-26 -34 -49.5 -68t-52.5 -65q-28 -5 -66 -8t-82 -5t-91 -2t-92.5 1t-88 4t-77.5 6q-11 12 -24.5 30.5t-27.5 40.5t-25 43t-17 37q-1 41 -1 91t0.5 99.5t1.5 97t3 82.5q10 12 26.5 30.5t34.5 38t35 36t28 21.5q27 3 61.5 6t73.5 5.5t80 4.5t81 2t77 -2.5t67 -7.5
q16 -14 32.5 -31.5t32 -38t29.5 -41t26 -39.5q3 -36 5 -89.5t3.5 -108.5t1 -101.5t-4.5 -68.5zM469 150q1 33 2 70t1 77.5t-1.5 82.5t-6.5 84q-24 0 -44 -0.5t-39 -2.5t-37.5 -6t-38.5 -13q-4 -8 -6.5 -31t-3.5 -53.5t-1.5 -65.5t0 -66.5t1.5 -57t1 -37.5q18 -8 42 -10.5
t49 0.5t46.5 11t35.5 18zM616 796q-7 -8 -25 -30.5t-39.5 -45t-45 -39t-41.5 -15.5q-20 2 -46 11t-50.5 19t-44 17.5t-26.5 4.5q-10 -3 -24.5 -16.5t-26.5 -27.5q-50 20 -64 45q11 18 24 38.5t29 38.5t33 33.5t34 21.5q17 8 36 3.5t40 -13.5t43 -21.5t45 -21.5q16 -5 31 1.5
t28 15.5q14 12 28 29q18 -8 35 -20t27 -28z" />
    <glyph glyph-name="Odieresis" unicode="&#xd6;" horiz-adv-x="772" 
d="M729 116q-26 -34 -49.5 -68t-52.5 -65q-28 -5 -66 -8t-82 -5t-91 -2t-92.5 1t-88 4t-77.5 6q-11 12 -24.5 30.5t-27.5 40.5t-25 43t-17 37q-1 41 -1 91t0.5 99.5t1.5 97t3 82.5q10 12 26.5 30.5t34.5 38t35 36t28 21.5q27 3 61.5 6t73.5 5.5t80 4.5t81 2t77 -2.5t67 -7.5
q16 -14 32.5 -31.5t32 -38t29.5 -41t26 -39.5q3 -36 5 -89.5t3.5 -108.5t1 -101.5t-4.5 -68.5zM469 150q1 33 2 70t1 77.5t-1.5 82.5t-6.5 84q-24 0 -44 -0.5t-39 -2.5t-37.5 -6t-38.5 -13q-4 -8 -6.5 -31t-3.5 -53.5t-1.5 -65.5t0 -66.5t1.5 -57t1 -37.5q18 -8 42 -10.5
t49 0.5t46.5 11t35.5 18zM580 716q-4 -10 -15.5 -17t-27 -13t-33 -8.5t-32.5 -2t-26.5 5t-14.5 12.5t-4 22.5t0 30l2 31t2 24.5q3 15 11.5 25.5t19.5 17.5t22.5 11.5t19.5 6.5q13 4 32 -4t31 -16q8 -29 12 -61.5t1 -64.5zM348 710q-4 -10 -16.5 -18.5t-29.5 -14t-35.5 -8
t-35.5 -2t-29 4.5t-15 14q-3 8 -4 23t-1 32t1.5 32.5t3.5 26.5q2 15 11.5 26.5t21.5 19.5t25 12t21 6q6 2 15.5 0.5t19 -5t18.5 -8t15 -9.5q9 -30 13.5 -64t0.5 -68z" />
    <glyph glyph-name="Oslash" unicode="&#xd8;" horiz-adv-x="772" 
d="M730 146q-26 -34 -49.5 -69t-52.5 -68q-25 -5 -58 -8t-71.5 -4.5t-79.5 -2t-83 -0.5q-7 -15 -13.5 -29.5t-12.5 -28.5q-36 -4 -70 -4.5t-63 1.5t-49.5 5t-27.5 6q6 16 13.5 32t14.5 32q-12 12 -26 31t-27 41t-24 44t-17 37q0 43 -0.5 93.5t0 102.5t1 100.5t3.5 85.5
q11 11 27.5 30t34.5 39.5t35 37t28 23.5q28 2 64.5 5.5t77 6t83.5 4.5t84 2q6 9 12.5 20t13.5 20q35 4 70 2.5t64.5 -5.5t50.5 -8.5t28 -7.5q-13 -20 -26.5 -42.5t-26.5 -45.5q19 -23 36 -49t32 -49q2 -24 3.5 -58t3 -71t2 -75t0.5 -72.5t-1 -61.5t-4 -42zM363 500
q-15 -3 -29 -7t-30 -11q-5 -10 -7 -41.5t-3 -72.5q17 34 34 66.5t35 65.5zM472 278q-15 -31 -30 -61t-30 -61q17 4 32 10.5t25 15.5q1 22 1.5 45.5t1.5 50.5z" />
    <glyph glyph-name="Ugrave" unicode="&#xd9;" horiz-adv-x="730" 
d="M685 612q-1 -52 -2.5 -114t-2 -125t-0.5 -121.5t1 -104.5q-5 -16 -15.5 -34.5t-24 -37l-27 -37t-26.5 -33.5q-43 -1 -100 -3.5t-118 -4t-121.5 -1.5t-110.5 4q-10 10 -23.5 27.5t-26.5 37t-23.5 38.5t-15.5 33q0 25 -1 63.5t-2 82.5t-1.5 90t0 89t2 78t4.5 56
q60 7 116.5 8t119.5 -6q-5 -65 -6.5 -122t-1 -108t3 -99t5.5 -96q15 -6 36.5 -8.5t44 -0.5t43 8t33.5 18q0 49 -1 102t-1.5 107t-0.5 105t1 95q60 13 119.5 12.5t122.5 1.5zM191 790q78 40 179 42q4 -14 11 -34.5t16 -44t20 -46.5t24 -43q-12 -6 -26 -9t-28.5 -6t-28.5 -4.5
t-26 -2.5q-18 11 -36 28.5t-35.5 36.5t-35 41t-34.5 42z" />
    <glyph glyph-name="Uacute" unicode="&#xda;" horiz-adv-x="730" 
d="M685 612q-1 -52 -2.5 -114t-2 -125t-0.5 -121.5t1 -104.5q-5 -16 -15.5 -34.5t-24 -37l-27 -37t-26.5 -33.5q-43 -1 -100 -3.5t-118 -4t-121.5 -1.5t-110.5 4q-10 10 -23.5 27.5t-26.5 37t-23.5 38.5t-15.5 33q0 25 -1 63.5t-2 82.5t-1.5 90t0 89t2 78t4.5 56
q60 7 116.5 8t119.5 -6q-5 -65 -6.5 -122t-1 -108t3 -99t5.5 -96q15 -6 36.5 -8.5t44 -0.5t43 8t33.5 18q0 49 -1 102t-1.5 107t-0.5 105t1 95q60 13 119.5 12.5t122.5 1.5zM547 784q-34 -42 -69.5 -83t-71.5 -66q-12 1 -26 3t-28.5 5t-28.5 6.5t-26 8.5q13 21 24 44t20 46
t16 43.5t11 34.5q50 -1 95 -11.5t84 -30.5z" />
    <glyph glyph-name="Ucircumflex" unicode="&#xdb;" horiz-adv-x="730" 
d="M685 612q-1 -52 -2.5 -114t-2 -125t-0.5 -121.5t1 -104.5q-5 -16 -15.5 -34.5t-24 -37l-27 -37t-26.5 -33.5q-43 -1 -100 -3.5t-118 -4t-121.5 -1.5t-110.5 4q-10 10 -23.5 27.5t-26.5 37t-23.5 38.5t-15.5 33q0 25 -1 63.5t-2 82.5t-1.5 90t0 89t2 78t4.5 56
q60 7 116.5 8t119.5 -6q-5 -65 -6.5 -122t-1 -108t3 -99t5.5 -96q15 -6 36.5 -8.5t44 -0.5t43 8t33.5 18q0 49 -1 102t-1.5 107t-0.5 105t1 95q60 13 119.5 12.5t122.5 1.5zM556 658q-16 -1 -36 -3.5t-38.5 -4t-32 -2.5t-17.5 0q-5 10 -13 22t-15.5 24t-14.5 21t-10 15
q-2 2 -4.5 7t-6.5 4q-8 0 -12 -5.5t-6 -7.5q-12 -18 -26 -40t-22 -43q-22 -1 -42.5 -1t-37.5 0.5t-29.5 2t-16.5 2.5q7 20 18 43.5t23.5 48.5t27.5 49.5t29 46.5q14 1 38.5 2.5t50 1.5t48.5 -0.5t35 -0.5q12 -20 26 -44.5t28.5 -48.5t29 -47.5t26.5 -41.5z" />
    <glyph glyph-name="Udieresis" unicode="&#xdc;" horiz-adv-x="730" 
d="M685 612q-1 -52 -2.5 -114t-2 -125t-0.5 -121.5t1 -104.5q-5 -16 -15.5 -34.5t-24 -37l-27 -37t-26.5 -33.5q-43 -1 -100 -3.5t-118 -4t-121.5 -1.5t-110.5 4q-10 10 -23.5 27.5t-26.5 37t-23.5 38.5t-15.5 33q0 25 -1 63.5t-2 82.5t-1.5 90t0 89t2 78t4.5 56
q60 7 116.5 8t119.5 -6q-5 -65 -6.5 -122t-1 -108t3 -99t5.5 -96q15 -6 36.5 -8.5t44 -0.5t43 8t33.5 18q0 49 -1 102t-1.5 107t-0.5 105t1 95q60 13 119.5 12.5t122.5 1.5zM566 700q-4 -10 -16 -17.5t-27 -13t-33 -7.5t-33 -1.5t-26 5t-14 12.5t-4 22.5t-0.5 30t2 30.5
t2.5 23q2 16 10.5 26t20 18t23 12t19.5 6q12 4 31.5 -4t31.5 -16q8 -29 11.5 -61t1.5 -65zM334 694q-6 -15 -30 -25.5t-52 -14.5t-51.5 -0.5t-28.5 16.5q-3 9 -4.5 23.5t-0.5 31.5t2.5 33t2.5 26q2 16 12 27t22 19t25 12.5t20 6.5q7 1 16.5 0t19 -4.5t18.5 -8t15 -9.5
q8 -31 13 -64.5t1 -68.5z" />
    <glyph glyph-name="Yacute" unicode="&#xdd;" horiz-adv-x="688" 
d="M703 617q-27 -39 -57 -87t-61 -99l-62 -102t-60 -96q-2 -61 -3.5 -119t-3.5 -109q-26 -4 -53.5 -5.5t-55.5 -1.5t-55.5 1.5t-52.5 1.5q0 60 -1.5 120t-3.5 121q-16 18 -36.5 48t-41.5 64t-42 72t-38.5 73t-30.5 66t-18 52q29 2 65 4.5t70 4.5t59 3.5t32 -1.5
q4 -18 16.5 -43t26.5 -50.5t26 -47t16 -30.5q0 -2 3.5 -7t8 -10.5t9.5 -9.5t9 -4q13 -1 21.5 8.5t10.5 13.5q24 44 45 90t47 90q38 3 73 2t63 -3t47 -4.5t28 -5.5zM528 790q-16 -20 -34 -41.5t-35.5 -41t-35.5 -36.5t-35 -29q-25 2 -55.5 7.5t-54.5 14.5q14 21 25 44t20 46
t15.5 43.5t11.5 34.5q50 0 95 -10.5t83 -31.5z" />
    <glyph glyph-name="germandbls" unicode="&#xdf;" horiz-adv-x="732" 
d="M710 253q1 -17 -5 -38.5t-18 -45.5t-29 -48t-36 -45q-18 -11 -51 -19t-73 -14t-81 -10t-72 -5q-3 12 -6 25.5t-4.5 29t-1 34.5t4.5 43q19 2 37.5 5t34.5 7q15 12 24 27t12.5 30t1.5 29t-8 23q-10 5 -30 8t-42.5 4.5t-44 0.5t-33.5 -5q-3 -9 -3.5 -30t-0.5 -49t1.5 -61.5
t3 -67.5t4 -65.5t5.5 -56.5q-31 0 -60 -1.5t-57.5 -2t-57.5 0.5t-59 7q-4 45 -6 107.5t-3 132t-0.5 141.5t1.5 137.5t3.5 118.5t4.5 84q46 7 98 12t104.5 7.5t102.5 3t92.5 -1t74.5 -4.5t48 -8q15 -9 28 -24.5t24 -35t18.5 -42.5t11.5 -47q-6 -23 -19.5 -47t-29.5 -44.5
t-34.5 -36.5t-36.5 -25q13 -7 36 -18t47.5 -28t46 -40.5t32.5 -51.5zM411 554q-7 10 -21.5 14t-32 5t-33.5 -1.5t-25 -5.5q-7 -6 -10.5 -25t-5.5 -41.5t-1 -41t3 -22.5q7 -8 23.5 -8t35.5 3t37 7.5t27 7.5q4 11 7 25t3.5 28.5t-1 28.5t-6.5 26z" />
    <glyph glyph-name="agrave" unicode="&#xe0;" horiz-adv-x="625" 
d="M586 16q-26 -7 -65 -13.5t-84 -11.5t-93 -8.5t-93 -4.5t-83 0.5t-62 6.5q-10 13 -22.5 30t-24 35t-21.5 35.5t-15 30.5q2 49 14 97t29 81q18 11 51.5 21.5t74 20t84.5 18t85 14.5q-3 9 -5 20.5t-4 16.5q-18 11 -48.5 16t-67 6.5t-74 1t-67.5 -0.5q-1 18 1 39t5 40t8 33.5
t12 21.5q51 5 104.5 8t107.5 1.5t106.5 -9t101.5 -20.5q14 -18 23.5 -54.5t15.5 -84t8.5 -101.5t3 -106t-1 -99t-4.5 -81zM376 116q0 34 -0.5 65t-1.5 63q-30 -6 -57.5 -9.5t-55.5 -16.5q-5 -10 -7.5 -23t-1.5 -27t3.5 -27.5t6.5 -24.5q17 -7 45.5 -5.5t68.5 5.5zM179 709
q38 19 83 30t95 11q5 -13 11.5 -33.5t15.5 -43.5t20 -47t24 -43q-12 -5 -25.5 -9t-28 -6.5t-29 -4.5t-26.5 -3q-35 24 -71 66t-69 83z" />
    <glyph glyph-name="aacute" unicode="&#xe1;" horiz-adv-x="625" 
d="M586 16q-26 -7 -65 -13.5t-84 -11.5t-93 -8.5t-93 -4.5t-83 0.5t-62 6.5q-10 13 -22.5 30t-24 35t-21.5 35.5t-15 30.5q2 49 14 97t29 81q18 11 51.5 21.5t74 20t84.5 18t85 14.5q-3 9 -5 20.5t-4 16.5q-18 11 -48.5 16t-67 6.5t-74 1t-67.5 -0.5q-1 18 1 39t5 40t8 33.5
t12 21.5q51 5 104.5 8t107.5 1.5t106.5 -9t101.5 -20.5q14 -18 23.5 -54.5t15.5 -84t8.5 -101.5t3 -106t-1 -99t-4.5 -81zM376 116q0 34 -0.5 65t-1.5 63q-30 -6 -57.5 -9.5t-55.5 -16.5q-5 -10 -7.5 -23t-1.5 -27t3.5 -27.5t6.5 -24.5q17 -7 45.5 -5.5t68.5 5.5zM511 711
q-33 -41 -68.5 -82.5t-71.5 -65.5q-24 1 -55 7t-54 15q13 20 23.5 43.5t19.5 46.5t16 43.5t11 33.5q51 0 96 -10.5t83 -30.5z" />
    <glyph glyph-name="acircumflex" unicode="&#xe2;" horiz-adv-x="625" 
d="M586 16q-26 -7 -65 -13.5t-84 -11.5t-93 -8.5t-93 -4.5t-83 0.5t-62 6.5q-10 13 -22.5 30t-24 35t-21.5 35.5t-15 30.5q2 49 14 97t29 81q18 11 51.5 21.5t74 20t84.5 18t85 14.5q-3 9 -5 20.5t-4 16.5q-18 11 -48.5 16t-67 6.5t-74 1t-67.5 -0.5q-1 18 1 39t5 40t8 33.5
t12 21.5q51 5 104.5 8t107.5 1.5t106.5 -9t101.5 -20.5q14 -18 23.5 -54.5t15.5 -84t8.5 -101.5t3 -106t-1 -99t-4.5 -81zM376 116q0 34 -0.5 65t-1.5 63q-30 -6 -57.5 -9.5t-55.5 -16.5q-5 -10 -7.5 -23t-1.5 -27t3.5 -27.5t6.5 -24.5q17 -7 45.5 -5.5t68.5 5.5zM532 594
q-15 0 -35 -2.5t-38.5 -4.5t-32.5 -2.5t-17 -0.5q-5 10 -13 22.5t-15.5 24t-14.5 21t-10 14.5q-2 2 -4.5 7t-7.5 5q-6 0 -11 -6t-6 -8q-12 -18 -26 -40t-23 -42q-21 -2 -41.5 -2t-37.5 1t-29.5 2t-17.5 2q8 21 19 44.5t24 48t27 49t28 46.5q16 1 40 2t49.5 1.5t48.5 0
t35 -0.5q11 -20 25.5 -44l29 -48t28.5 -47.5t26 -42.5z" />
    <glyph glyph-name="atilde" unicode="&#xe3;" horiz-adv-x="625" 
d="M586 16q-26 -7 -65 -13.5t-84 -11.5t-93 -8.5t-93 -4.5t-83 0.5t-62 6.5q-10 13 -22.5 30t-24 35t-21.5 35.5t-15 30.5q2 49 14 97t29 81q18 11 51.5 21.5t74 20t84.5 18t85 14.5q-3 9 -5 20.5t-4 16.5q-18 11 -48.5 16t-67 6.5t-74 1t-67.5 -0.5q-1 18 1 39t5 40t8 33.5
t12 21.5q51 5 104.5 8t107.5 1.5t106.5 -9t101.5 -20.5q14 -18 23.5 -54.5t15.5 -84t8.5 -101.5t3 -106t-1 -99t-4.5 -81zM376 116q0 34 -0.5 65t-1.5 63q-30 -6 -57.5 -9.5t-55.5 -16.5q-5 -10 -7.5 -23t-1.5 -27t3.5 -27.5t6.5 -24.5q17 -7 45.5 -5.5t68.5 5.5zM544 706
q-8 -9 -25.5 -31t-39.5 -45t-45.5 -39.5t-41.5 -15.5q-20 1 -46 11t-50 20t-43.5 17t-27.5 5q-9 -4 -24 -17.5t-27 -28.5q-24 10 -40.5 22t-23.5 24q11 18 24.5 38.5t29.5 39t33 33.5t33 21q18 8 37.5 4t40 -13t42.5 -21t45 -22q15 -6 30.5 0t28.5 16q14 12 28 30
q18 -8 35 -20t27 -28z" />
    <glyph glyph-name="adieresis" unicode="&#xe4;" horiz-adv-x="625" 
d="M586 16q-26 -7 -65 -13.5t-84 -11.5t-93 -8.5t-93 -4.5t-83 0.5t-62 6.5q-10 13 -22.5 30t-24 35t-21.5 35.5t-15 30.5q2 49 14 97t29 81q18 11 51.5 21.5t74 20t84.5 18t85 14.5q-3 9 -5 20.5t-4 16.5q-18 11 -48.5 16t-67 6.5t-74 1t-67.5 -0.5q-1 18 1 39t5 40t8 33.5
t12 21.5q51 5 104.5 8t107.5 1.5t106.5 -9t101.5 -20.5q14 -18 23.5 -54.5t15.5 -84t8.5 -101.5t3 -106t-1 -99t-4.5 -81zM376 116q0 34 -0.5 65t-1.5 63q-30 -6 -57.5 -9.5t-55.5 -16.5q-5 -10 -7.5 -23t-1.5 -27t3.5 -27.5t6.5 -24.5q17 -7 45.5 -5.5t68.5 5.5zM545 637
q-5 -14 -27.5 -24t-48 -14.5t-47 -0.5t-26.5 17q-3 8 -3.5 22.5t-0.5 29.5t2 30.5t2 24.5q2 15 11 26t20 18t23 11.5t19 6.5q13 2 32 -5t31 -16q8 -29 12 -61t1 -65zM313 632q-4 -10 -16.5 -18.5t-29 -14t-36 -8.5t-35.5 -2.5t-28.5 5t-15.5 12.5q-3 10 -4.5 25t-1 31.5
t2 32.5t3.5 25q2 16 11.5 27.5t22 19t25 12.5t20.5 7q7 1 16.5 0t19 -4.5t18.5 -8.5t15 -9q8 -31 12.5 -64.5t0.5 -67.5z" />
    <glyph glyph-name="aring" unicode="&#xe5;" horiz-adv-x="625" 
d="M586 16q-26 -7 -65 -13.5t-84 -11.5t-93 -8.5t-93 -4.5t-83 0.5t-62 6.5q-10 13 -22.5 30t-24 35t-21.5 35.5t-15 30.5q2 49 14 97t29 81q18 11 51.5 21.5t74 20t84.5 18t85 14.5q-3 9 -5 20.5t-4 16.5q-18 11 -48.5 16t-67 6.5t-74 1t-67.5 -0.5q-1 18 1 39t5 40t8 33.5
t12 21.5q51 5 104.5 8t107.5 1.5t106.5 -9t101.5 -20.5q14 -18 23.5 -54.5t15.5 -84t8.5 -101.5t3 -106t-1 -99t-4.5 -81zM376 116q0 34 -0.5 65t-1.5 63q-30 -6 -57.5 -9.5t-55.5 -16.5q-5 -10 -7.5 -23t-1.5 -27t3.5 -27.5t6.5 -24.5q17 -7 45.5 -5.5t68.5 5.5zM517 616
q-13 -8 -41 -14t-62.5 -9t-72.5 -3t-72.5 3t-61.5 9t-41 15q-2 12 -3.5 29.5t-1.5 36t0.5 35t2.5 26.5q16 8 44 14t62.5 9t71.5 3t70.5 -3t59.5 -9t39 -15q3 -9 5 -27.5t2.5 -39t0 -37.5t-1.5 -23zM385 649q0 17 1 31t-6 30q-17 0 -41 1t-43 -1q-7 -20 -6.5 -32.5t3.5 -31.5
q9 -1 22 -1.5t26 -0.5t25 1t19 4z" />
    <glyph glyph-name="ae" unicode="&#xe6;" horiz-adv-x="1002" 
d="M974 228q-24 -4 -66.5 -8.5t-93 -8.5t-104.5 -6.5t-99 -4.5q2 -14 5 -25t8 -19q11 -8 34.5 -13t52 -9t59.5 -6.5t58.5 -4.5t48 -4.5t27.5 -6.5q1 -14 -0.5 -35t-4.5 -40t-8 -34t-12 -19q-35 0 -73.5 1.5t-79 5t-81.5 8.5t-80 11q-29 -6 -68 -12t-83 -10t-88.5 -7
t-85.5 -3.5t-76 1t-58 6.5q-10 13 -22.5 30t-24 35t-21.5 35.5t-15 30.5q2 49 14 97t29 81q18 11 51.5 21.5t74 20t84.5 18t85 14.5q-3 9 -5 20.5t-4 16.5q-18 11 -48.5 16t-67 6.5t-74 1t-67.5 -0.5q-1 18 1 39t5 40t8 33.5t12 21.5q51 5 104.5 8t107.5 1.5t106.5 -9
t101.5 -20.5q4 -6 6 -10q33 7 69.5 12.5t74 9t72.5 6t64.5 2.5t51 -1t31.5 -6q17 -29 29.5 -68.5t20.5 -82.5t12 -88.5t2 -87.5zM754 332q2 20 0 43.5t-12 41.5q-12 -1 -24 -1.5t-24 -2t-26 -4.5t-31 -10q-7 -22 -13 -39t-10 -46q42 -2 78 4t62 14zM376 116q0 34 -0.5 65
t-1.5 63q-30 -6 -57.5 -9.5t-55.5 -16.5q-5 -10 -7.5 -23t-1.5 -27t3.5 -27.5t6.5 -24.5q17 -7 45.5 -5.5t68.5 5.5z" />
    <glyph glyph-name="ccedilla" unicode="&#xe7;" horiz-adv-x="553" 
d="M516 48q-17 -4 -49.5 -4t-72.5 1q-2 -32 -7.5 -60t-16.5 -41q-25 -9 -56.5 -14.5t-64.5 -7.5t-65 -3t-58 -1q-3 3 -5.5 11.5t-4.5 19.5t-2.5 22t-0.5 19q15 2 33 3.5t34.5 4t31 6.5t22.5 9q4 7 6.5 19t3.5 26q-30 4 -58 8t-53 9.5t-44.5 11t-31.5 11.5q-16 23 -23.5 58
t-9.5 76t1.5 84t12 81.5t20 70.5t24.5 48q88 38 184 51.5t200 16.5q6 -5 12 -17.5t10.5 -29.5t7 -35t1.5 -33q-11 -5 -41 -10t-64.5 -10.5t-67 -13t-50.5 -18.5q-10 -17 -15 -45t-5 -59.5t4.5 -63t12.5 -56.5q26 -10 54.5 -14t59.5 -5.5t64 -2.5t67 -4q4 -19 4.5 -37
t0 -33.5t-1.5 -28t-3 -20.5z" />
    <glyph glyph-name="egrave" unicode="&#xe8;" horiz-adv-x="648" 
d="M620 226q-24 -3 -66.5 -7.5t-93 -8.5t-104.5 -7t-99 -4q2 -14 5 -25t8 -20q11 -6 34.5 -12t52 -9t59.5 -6t58.5 -5.5t48 -4.5t27.5 -5q1 -16 -0.5 -36.5t-4.5 -39.5t-8 -34t-12 -19q-52 0 -112.5 3.5t-122 11t-121 20.5t-108.5 29q-15 17 -22.5 51t-10 77t0.5 90.5t11 92
t20 82.5t28 62q19 10 57.5 20t86.5 17.5t99.5 13t97 7.5t80 1t47.5 -7q17 -30 29.5 -69t20.5 -82t12 -88.5t2 -88.5zM400 330q2 21 0 44.5t-12 41.5q-12 -1 -24 -1.5t-24 -2t-26 -4.5t-31 -10q-7 -22 -13 -39t-10 -46q42 -2 78 4t62 13zM146 695q38 19 83 30t95 11
q5 -13 11.5 -33.5t15.5 -43.5t20 -47t24 -43q-12 -5 -25.5 -9t-28 -6.5t-29 -4.5t-26.5 -3q-35 24 -71 66t-69 83z" />
    <glyph glyph-name="eacute" unicode="&#xe9;" horiz-adv-x="648" 
d="M620 226q-24 -3 -66.5 -7.5t-93 -8.5t-104.5 -7t-99 -4q2 -14 5 -25t8 -20q11 -6 34.5 -12t52 -9t59.5 -6t58.5 -5.5t48 -4.5t27.5 -5q1 -16 -0.5 -36.5t-4.5 -39.5t-8 -34t-12 -19q-52 0 -112.5 3.5t-122 11t-121 20.5t-108.5 29q-15 17 -22.5 51t-10 77t0.5 90.5t11 92
t20 82.5t28 62q19 10 57.5 20t86.5 17.5t99.5 13t97 7.5t80 1t47.5 -7q17 -30 29.5 -69t20.5 -82t12 -88.5t2 -88.5zM400 330q2 21 0 44.5t-12 41.5q-12 -1 -24 -1.5t-24 -2t-26 -4.5t-31 -10q-7 -22 -13 -39t-10 -46q42 -2 78 4t62 13zM523 695q-33 -41 -68.5 -82.5
t-71.5 -65.5q-24 1 -55 7t-54 15q13 20 23.5 43.5t19.5 46.5t16 43.5t11 33.5q51 0 96 -10.5t83 -30.5z" />
    <glyph glyph-name="ecircumflex" unicode="&#xea;" horiz-adv-x="648" 
d="M620 226q-24 -3 -66.5 -7.5t-93 -8.5t-104.5 -7t-99 -4q2 -14 5 -25t8 -20q11 -6 34.5 -12t52 -9t59.5 -6t58.5 -5.5t48 -4.5t27.5 -5q1 -16 -0.5 -36.5t-4.5 -39.5t-8 -34t-12 -19q-52 0 -112.5 3.5t-122 11t-121 20.5t-108.5 29q-15 17 -22.5 51t-10 77t0.5 90.5t11 92
t20 82.5t28 62q19 10 57.5 20t86.5 17.5t99.5 13t97 7.5t80 1t47.5 -7q17 -30 29.5 -69t20.5 -82t12 -88.5t2 -88.5zM400 330q2 21 0 44.5t-12 41.5q-12 -1 -24 -1.5t-24 -2t-26 -4.5t-31 -10q-7 -22 -13 -39t-10 -46q42 -2 78 4t62 13zM522 568q-15 0 -35 -2.5t-38.5 -4.5
t-32.5 -2.5t-17 -0.5q-5 10 -13 22.5t-15.5 24t-14.5 21t-10 14.5q-2 2 -4.5 7t-7.5 5q-6 0 -11 -6t-6 -8q-12 -18 -26 -40t-23 -42q-21 -2 -41.5 -2t-37.5 1t-29.5 2t-17.5 2q8 21 19 44.5t24 48t27 49t28 46.5q16 1 40 2t49.5 1.5t48.5 0t35 -0.5q11 -20 25.5 -44l29 -48
t28.5 -47.5t26 -42.5z" />
    <glyph glyph-name="edieresis" unicode="&#xeb;" horiz-adv-x="648" 
d="M620 226q-24 -3 -66.5 -7.5t-93 -8.5t-104.5 -7t-99 -4q2 -14 5 -25t8 -20q11 -6 34.5 -12t52 -9t59.5 -6t58.5 -5.5t48 -4.5t27.5 -5q1 -16 -0.5 -36.5t-4.5 -39.5t-8 -34t-12 -19q-52 0 -112.5 3.5t-122 11t-121 20.5t-108.5 29q-15 17 -22.5 51t-10 77t0.5 90.5t11 92
t20 82.5t28 62q19 10 57.5 20t86.5 17.5t99.5 13t97 7.5t80 1t47.5 -7q17 -30 29.5 -69t20.5 -82t12 -88.5t2 -88.5zM400 330q2 21 0 44.5t-12 41.5q-12 -1 -24 -1.5t-24 -2t-26 -4.5t-31 -10q-7 -22 -13 -39t-10 -46q42 -2 78 4t62 13zM544 613q-5 -14 -27.5 -24t-48 -14.5
t-47 -0.5t-26.5 17q-3 8 -3.5 22.5t-0.5 29.5t2 30.5t2 24.5q2 15 11 26t20 18t23 11.5t19 6.5q13 2 32 -5t31 -16q8 -29 12 -61t1 -65zM312 608q-4 -10 -16.5 -18.5t-29 -14t-36 -8.5t-35.5 -2.5t-28.5 5t-15.5 12.5q-3 10 -4.5 25t-1 31.5t2 32.5t3.5 25q2 16 11.5 27.5
t22 19t25 12.5t20.5 7q7 1 16.5 0t19 -4.5t18.5 -8.5t15 -9q8 -31 12.5 -64.5t0.5 -67.5z" />
    <glyph glyph-name="igrave" unicode="&#xec;" horiz-adv-x="295" 
d="M249 548q0 -130 -4.5 -265t-11.5 -269q-8 -4 -32 -7t-51 -4.5t-52 -1.5t-36 1q-4 61 -6.5 131t-3 141.5t0.5 139.5t3 123q23 5 47.5 7t49.5 3t49.5 1h46.5zM-1 717q38 19 83 30t95 11q5 -13 11.5 -33.5t15.5 -43.5t20 -47t24 -43q-12 -5 -25.5 -9t-28 -6.5t-29 -4.5
t-26.5 -3q-35 24 -71 66t-69 83z" />
    <glyph glyph-name="iacute" unicode="&#xed;" horiz-adv-x="295" 
d="M249 548q0 -130 -4.5 -265t-11.5 -269q-8 -4 -32 -7t-51 -4.5t-52 -1.5t-36 1q-4 61 -6.5 131t-3 141.5t0.5 139.5t3 123q23 5 47.5 7t49.5 3t49.5 1h46.5zM309 709q-33 -41 -68.5 -82.5t-71.5 -65.5q-24 1 -55 7t-54 15q13 20 23.5 43.5t19.5 46.5t16 43.5t11 33.5
q51 0 96 -10.5t83 -30.5z" />
    <glyph glyph-name="icircumflex" unicode="&#xee;" horiz-adv-x="295" 
d="M314 614q-14 -1 -30.5 -3t-32 -4t-27 -2.5t-14.5 -0.5q-4 10 -10.5 21.5t-13 22.5t-12 21t-8.5 15q-2 2 -4 6t-6 4q-6 0 -9.5 -5.5t-4.5 -7.5q-11 -18 -22.5 -38.5t-19.5 -40.5q-18 -2 -35 -2t-31 1t-24.5 2t-13.5 2q6 20 15 42.5t19.5 46.5t23 47.5t24.5 43.5
q12 3 32 3.5t41.5 1t41 0t29.5 -1.5q10 -18 21.5 -41t24 -47t24.5 -46t22 -40zM249 548q0 -130 -4.5 -265t-11.5 -269q-8 -4 -32 -7t-51 -4.5t-52 -1.5t-36 1q-4 61 -6.5 131t-3 141.5t0.5 139.5t3 123q23 5 47.5 7t49.5 3t49.5 1h46.5z" />
    <glyph glyph-name="idieresis" unicode="&#xef;" horiz-adv-x="295" 
d="M309 640q-5 -11 -22.5 -19t-38 -11.5t-38 -0.5t-21.5 13q-2 6 -3 17.5t-0.5 24t1.5 25t2 19.5q1 12 8.5 20.5t16.5 14t18.5 9.5t15.5 6q10 2 26 -4t24 -13q7 -23 10 -48.5t1 -52.5zM122 636q-4 -8 -14 -15t-24 -11t-29 -6.5t-28.5 -2t-23.5 4t-13 10.5q-2 8 -3 19.5
t-0.5 25t2 26t1.5 20.5q2 12 10 21t18 15.5t20 10.5t17 5q6 1 13 0t15 -4t15 -6.5t12 -7.5q7 -24 10.5 -51t1.5 -54zM250 548q0 -130 -4.5 -265t-11.5 -269q-8 -4 -32 -7t-51 -4.5t-52 -1.5t-36 1q-5 61 -7 131t-2.5 141.5t0.5 139.5t3 123q23 5 47.5 7t49.5 3t49.5 1h46.5z
" />
    <glyph glyph-name="ntilde" unicode="&#xf1;" horiz-adv-x="697" 
d="M652 549q1 -132 0.5 -265t-4.5 -264q-22 -4 -52 -7t-65 -7t-72 -6t-75 -3q-37 54 -66.5 113t-55.5 120q-3 6 -9.5 9.5t-13.5 2.5t-12.5 -6.5t-6.5 -16.5q-6 -45 -7 -98t3 -117q-40 -10 -81 -11.5t-85 5.5q-4 22 -6 61t-3 87t-1.5 100t-0.5 104t0.5 99t2.5 83q4 4 23.5 7
t47.5 7t61 6.5t63.5 4.5t56.5 2t38 -3q21 -60 47.5 -118.5t53.5 -117.5q2 -5 7.5 -8.5t11.5 -2.5t11 6t8 15q1 4 2 29t2 58.5l2 67t1 51.5q43 10 86.5 13t87.5 0zM563 678q-8 -9 -25.5 -31t-39.5 -45t-45.5 -39.5t-41.5 -15.5q-20 1 -46 11t-50 20t-43.5 17t-27.5 5
q-9 -4 -24 -17.5t-27 -28.5q-24 10 -40.5 22t-23.5 24q11 18 24.5 38.5t29.5 39t33 33.5t33 21q18 8 37.5 4t40 -13t42.5 -21t45 -22q15 -6 30.5 0t28.5 16q14 12 28 30q18 -8 35 -20t27 -28z" />
    <glyph glyph-name="ograve" unicode="&#xf2;" horiz-adv-x="660" 
d="M623 112q-21 -26 -42 -55t-45 -56q-36 -7 -90 -10t-114 -3t-118.5 2t-102.5 8q-10 10 -21.5 25.5t-22.5 33.5t-21 36t-15 31q-1 35 -1 77.5v84.5t1 82t3 70q9 9 23 24.5t29.5 32t29.5 30t24 19.5q35 3 83.5 7t100.5 6.5t102.5 1.5t89.5 -9q28 -22 55 -58t49 -68
q2 -30 4 -75.5t2.5 -92t0 -86t-3.5 -58.5zM400 146q2 56 3.5 125t-7.5 141q-20 -1 -37.5 -1.5t-33.5 -2t-31.5 -5t-32.5 -10.5q-4 -7 -5.5 -26.5t-3 -45t-1.5 -55v-56.5t1 -48t1 -32q15 -7 36 -9t42 0.5t39.5 9t29.5 15.5zM144 695q38 19 83 30t95 11q5 -13 11.5 -33.5
t15.5 -43.5t20 -47t24 -43q-12 -5 -25.5 -9t-28 -6.5t-29 -4.5t-26.5 -3q-35 24 -71 66t-69 83z" />
    <glyph glyph-name="oacute" unicode="&#xf3;" horiz-adv-x="660" 
d="M623 112q-21 -26 -42 -55t-45 -56q-36 -7 -90 -10t-114 -3t-118.5 2t-102.5 8q-10 10 -21.5 25.5t-22.5 33.5t-21 36t-15 31q-1 35 -1 77.5v84.5t1 82t3 70q9 9 23 24.5t29.5 32t29.5 30t24 19.5q35 3 83.5 7t100.5 6.5t102.5 1.5t89.5 -9q28 -22 55 -58t49 -68
q2 -30 4 -75.5t2.5 -92t0 -86t-3.5 -58.5zM400 146q2 56 3.5 125t-7.5 141q-20 -1 -37.5 -1.5t-33.5 -2t-31.5 -5t-32.5 -10.5q-4 -7 -5.5 -26.5t-3 -45t-1.5 -55v-56.5t1 -48t1 -32q15 -7 36 -9t42 0.5t39.5 9t29.5 15.5zM533 702q-33 -41 -68.5 -82.5t-71.5 -65.5
q-24 1 -55 7t-54 15q13 20 23.5 43.5t19.5 46.5t16 43.5t11 33.5q51 0 96 -10.5t83 -30.5z" />
    <glyph glyph-name="ocircumflex" unicode="&#xf4;" horiz-adv-x="660" 
d="M623 112q-21 -26 -42 -55t-45 -56q-36 -7 -90 -10t-114 -3t-118.5 2t-102.5 8q-10 10 -21.5 25.5t-22.5 33.5t-21 36t-15 31q-1 35 -1 77.5v84.5t1 82t3 70q9 9 23 24.5t29.5 32t29.5 30t24 19.5q35 3 83.5 7t100.5 6.5t102.5 1.5t89.5 -9q28 -22 55 -58t49 -68
q2 -30 4 -75.5t2.5 -92t0 -86t-3.5 -58.5zM400 146q2 56 3.5 125t-7.5 141q-20 -1 -37.5 -1.5t-33.5 -2t-31.5 -5t-32.5 -10.5q-4 -7 -5.5 -26.5t-3 -45t-1.5 -55v-56.5t1 -48t1 -32q15 -7 36 -9t42 0.5t39.5 9t29.5 15.5zM522 580q-15 0 -35 -2.5t-38.5 -4.5t-32.5 -2.5
t-17 -0.5q-5 10 -13 22.5t-15.5 24t-14.5 21t-10 14.5q-2 2 -4.5 7t-7.5 5q-6 0 -11 -6t-6 -8q-12 -18 -26 -40t-23 -42q-21 -2 -41.5 -2t-37.5 1t-29.5 2t-17.5 2q8 21 19 44.5t24 48t27 49t28 46.5q16 1 40 2t49.5 1.5t48.5 0t35 -0.5q11 -20 25.5 -44l29 -48t28.5 -47.5
t26 -42.5z" />
    <glyph glyph-name="otilde" unicode="&#xf5;" horiz-adv-x="660" 
d="M623 112q-21 -26 -42 -55t-45 -56q-36 -7 -90 -10t-114 -3t-118.5 2t-102.5 8q-10 10 -21.5 25.5t-22.5 33.5t-21 36t-15 31q-1 35 -1 77.5v84.5t1 82t3 70q9 9 23 24.5t29.5 32t29.5 30t24 19.5q35 3 83.5 7t100.5 6.5t102.5 1.5t89.5 -9q28 -22 55 -58t49 -68
q2 -30 4 -75.5t2.5 -92t0 -86t-3.5 -58.5zM400 146q2 56 3.5 125t-7.5 141q-20 -1 -37.5 -1.5t-33.5 -2t-31.5 -5t-32.5 -10.5q-4 -7 -5.5 -26.5t-3 -45t-1.5 -55v-56.5t1 -48t1 -32q15 -7 36 -9t42 0.5t39.5 9t29.5 15.5zM545 690q-8 -9 -25.5 -31t-39.5 -45t-45.5 -39.5
t-41.5 -15.5q-20 1 -46 11t-50 20t-43.5 17t-27.5 5q-9 -4 -24 -17.5t-27 -28.5q-24 10 -40.5 22t-23.5 24q11 18 24.5 38.5t29.5 39t33 33.5t33 21q18 8 37.5 4t40 -13t42.5 -21t45 -22q15 -6 30.5 0t28.5 16q14 12 28 30q18 -8 35 -20t27 -28z" />
    <glyph glyph-name="odieresis" unicode="&#xf6;" horiz-adv-x="660" 
d="M623 112q-21 -26 -42 -55t-45 -56q-36 -7 -90 -10t-114 -3t-118.5 2t-102.5 8q-10 10 -21.5 25.5t-22.5 33.5t-21 36t-15 31q-1 35 -1 77.5v84.5t1 82t3 70q9 9 23 24.5t29.5 32t29.5 30t24 19.5q35 3 83.5 7t100.5 6.5t102.5 1.5t89.5 -9q28 -22 55 -58t49 -68
q2 -30 4 -75.5t2.5 -92t0 -86t-3.5 -58.5zM400 146q2 56 3.5 125t-7.5 141q-20 -1 -37.5 -1.5t-33.5 -2t-31.5 -5t-32.5 -10.5q-4 -7 -5.5 -26.5t-3 -45t-1.5 -55v-56.5t1 -48t1 -32q15 -7 36 -9t42 0.5t39.5 9t29.5 15.5zM535 613q-5 -14 -27.5 -24t-48 -14.5t-47 -0.5
t-26.5 17q-3 8 -3.5 22.5t-0.5 29.5t2 30.5t2 24.5q2 15 11 26t20 18t23 11.5t19 6.5q13 2 32 -5t31 -16q8 -29 12 -61t1 -65zM303 608q-4 -10 -16.5 -18.5t-29 -14t-36 -8.5t-35.5 -2.5t-28.5 5t-15.5 12.5q-3 10 -4.5 25t-1 31.5t2 32.5t3.5 25q2 16 11.5 27.5t22 19
t25 12.5t20.5 7q7 1 16.5 0t19 -4.5t18.5 -8.5t15 -9q8 -31 12.5 -64.5t0.5 -67.5z" />
    <glyph glyph-name="divide" unicode="&#xf7;" horiz-adv-x="405" 
d="M368 247q-39 -3 -79.5 -4t-81 -2.5t-80.5 -3t-78 -7.5q-5 23 -7 48t-1.5 49.5t3.5 45t7 33.5q16 1 41 2.5t54.5 2t61.5 1t61.5 0.5t54 -1t39.5 -3q2 -14 4 -36t2.5 -45t0.5 -45t-2 -35zM301 49q-5 -9 -19 -16t-32 -12t-39 -7.5t-39.5 -2t-32 4.5t-17.5 12q-4 7 -4.5 20.5
t0 28t2 28l2.5 22.5q2 13 13 23t24.5 16.5t27.5 11t23 5.5q8 2 18 0.5t20.5 -4.5t20 -6.5t16.5 -8.5q10 -26 14.5 -55.5t1.5 -59.5zM292 505q-3 -11 -16.5 -18.5t-31 -12.5t-37 -8t-37 -2t-30 5t-16.5 12t-5 22.5t-0.5 29.5t2 30t3.5 24q2 15 12 25.5t23 18t26 11.5t21 5
q8 3 17 1t19.5 -5t20 -7t15.5 -8q9 -29 13.5 -60.5t0.5 -62.5z" />
    <glyph glyph-name="oslash" unicode="&#xf8;" horiz-adv-x="660" 
d="M623 122q-21 -28 -42 -56.5t-45 -55.5q-20 -4 -47.5 -6t-58 -4t-64.5 -2h-68q-6 -14 -11 -26t-10 -25q-27 -4 -53.5 -4t-48.5 1.5t-37.5 4t-21.5 4.5q5 13 9.5 26t9.5 25q-6 1 -12 1.5t-12 1.5q-10 9 -21.5 25t-22.5 34t-21 36t-15 32q-1 34 -1 76.5v85t1 82t3 69.5
q9 9 23 25t29.5 32t29.5 30t24 20q23 1 51.5 3.5t61.5 5t67.5 4t67.5 1.5q9 15 16.5 30.5t17.5 29.5q26 4 53 2t49.5 -5t38.5 -7t22 -6q-11 -18 -21 -37.5t-21 -40.5q22 -22 41 -49.5t36 -50.5q2 -31 4 -76.5t2.5 -92t0 -86t-3.5 -57.5zM310 416q-24 -4 -49 -14
q-2 -5 -4 -16t-3 -26.5t-2 -33.5t-1 -38q15 33 30 64.5t29 63.5zM404 244q-13 -27 -25 -54t-23 -55q13 3 24.5 8t19.5 12q1 21 2 43.5t2 45.5z" />
    <glyph glyph-name="ugrave" unicode="&#xf9;" 
d="M616 544q0 -47 -1.5 -101.5t-2.5 -110.5t-1 -108t2 -94q-5 -13 -14 -29t-21 -33.5t-25 -33.5t-24 -29q-39 -1 -90 -3t-106 -4t-109 -2t-100 4q-9 9 -21 24.5t-23.5 32.5t-21 34.5t-14.5 30.5q0 22 -0.5 56t-1.5 73t-1.5 79.5t-0.5 78.5t1.5 69.5t4.5 50.5q54 7 104.5 8
t108.5 -6q-5 -58 -6.5 -108t-1 -96.5t2.5 -88.5t6 -84q13 -6 32.5 -8t39.5 -1t38 7t30 16q0 44 -0.5 91t-1 94.5t-0.5 93.5t1 85q54 10 107.5 10t109.5 2zM145 672q38 19 83 30t95 11q5 -13 11.5 -33.5t15.5 -43.5t20 -47t24 -43q-12 -5 -25.5 -9t-28 -6.5t-29 -4.5
t-26.5 -3q-35 24 -71 66t-69 83z" />
    <glyph glyph-name="uacute" unicode="&#xfa;" 
d="M616 544q0 -47 -1.5 -101.5t-2.5 -110.5t-1 -108t2 -94q-5 -13 -14 -29t-21 -33.5t-25 -33.5t-24 -29q-39 -1 -90 -3t-106 -4t-109 -2t-100 4q-9 9 -21 24.5t-23.5 32.5t-21 34.5t-14.5 30.5q0 22 -0.5 56t-1.5 73t-1.5 79.5t-0.5 78.5t1.5 69.5t4.5 50.5q54 7 104.5 8
t108.5 -6q-5 -58 -6.5 -108t-1 -96.5t2.5 -88.5t6 -84q13 -6 32.5 -8t39.5 -1t38 7t30 16q0 44 -0.5 91t-1 94.5t-0.5 93.5t1 85q54 10 107.5 10t109.5 2zM510 674q-33 -41 -68.5 -82.5t-71.5 -65.5q-24 1 -55 7t-54 15q13 20 23.5 43.5t19.5 46.5t16 43.5t11 33.5
q51 0 96 -10.5t83 -30.5z" />
    <glyph glyph-name="ucircumflex" unicode="&#xfb;" 
d="M616 544q0 -47 -1.5 -101.5t-2.5 -110.5t-1 -108t2 -94q-5 -13 -14 -29t-21 -33.5t-25 -33.5t-24 -29q-39 -1 -90 -3t-106 -4t-109 -2t-100 4q-9 9 -21 24.5t-23.5 32.5t-21 34.5t-14.5 30.5q0 22 -0.5 56t-1.5 73t-1.5 79.5t-0.5 78.5t1.5 69.5t4.5 50.5q54 7 104.5 8
t108.5 -6q-5 -58 -6.5 -108t-1 -96.5t2.5 -88.5t6 -84q13 -6 32.5 -8t39.5 -1t38 7t30 16q0 44 -0.5 91t-1 94.5t-0.5 93.5t1 85q54 10 107.5 10t109.5 2zM524 557q-15 0 -35 -2.5t-38.5 -4.5t-32.5 -2.5t-17 -0.5q-5 10 -13 22.5t-15.5 24t-14.5 21t-10 14.5q-2 2 -4.5 7
t-7.5 5q-6 0 -11 -6t-6 -8q-12 -18 -26 -40t-23 -42q-21 -2 -41.5 -2t-37.5 1t-29.5 2t-17.5 2q8 21 19 44.5t24 48t27 49t28 46.5q16 1 40 2t49.5 1.5t48.5 0t35 -0.5q11 -20 25.5 -44l29 -48t28.5 -47.5t26 -42.5z" />
    <glyph glyph-name="udieresis" unicode="&#xfc;" 
d="M616 544q0 -47 -1.5 -101.5t-2.5 -110.5t-1 -108t2 -94q-5 -13 -14 -29t-21 -33.5t-25 -33.5t-24 -29q-39 -1 -90 -3t-106 -4t-109 -2t-100 4q-9 9 -21 24.5t-23.5 32.5t-21 34.5t-14.5 30.5q0 22 -0.5 56t-1.5 73t-1.5 79.5t-0.5 78.5t1.5 69.5t4.5 50.5q54 7 104.5 8
t108.5 -6q-5 -58 -6.5 -108t-1 -96.5t2.5 -88.5t6 -84q13 -6 32.5 -8t39.5 -1t38 7t30 16q0 44 -0.5 91t-1 94.5t-0.5 93.5t1 85q54 10 107.5 10t109.5 2zM528 595q-5 -14 -27.5 -24t-48 -14.5t-47 -0.5t-26.5 17q-3 8 -3.5 22.5t-0.5 29.5t2 30.5t2 24.5q2 15 11 26t20 18
t23 11.5t19 6.5q13 2 32 -5t31 -16q8 -29 12 -61t1 -65zM296 590q-4 -10 -16.5 -18.5t-29 -14t-36 -8.5t-35.5 -2.5t-28.5 5t-15.5 12.5q-3 10 -4.5 25t-1 31.5t2 32.5t3.5 25q2 16 11.5 27.5t22 19t25 12.5t20.5 7q7 1 16.5 0t19 -4.5t18.5 -8.5t15 -9q8 -31 12.5 -64.5
t0.5 -67.5z" />
    <glyph glyph-name="yacute" unicode="&#xfd;" 
d="M632 548q-24 -34 -50.5 -77t-54.5 -88.5t-56.5 -90.5t-54.5 -84q-1 -56 -2.5 -107.5t-3.5 -95.5q-22 -4 -47 -5.5t-50.5 -1.5t-50 1.5t-47.5 1.5q0 54 -1.5 106.5t-2.5 106.5q-15 18 -33 44t-37 56.5t-38 64t-35 65.5t-27.5 59t-16.5 45q26 2 59 4.5t63 4.5t53 2.5
t28 -0.5q5 -16 16 -39t23.5 -45.5t23 -41t14.5 -27.5q0 -2 3 -6.5t7.5 -9t9 -8t8.5 -3.5q11 0 18.5 7.5t9.5 12.5q21 38 40 79.5t42 78.5q36 3 67 3t56 -2t42.5 -5t24.5 -5zM516 657q-33 -41 -68.5 -82.5t-71.5 -65.5q-24 1 -55 7t-54 15q13 20 23.5 43.5t19.5 46.5t16 43.5
t11 33.5q51 0 96 -10.5t83 -30.5z" />
    <glyph glyph-name="ydieresis" unicode="&#xff;" 
d="M632 548q-24 -34 -50.5 -77t-54.5 -88.5t-56.5 -90.5t-54.5 -84q-1 -56 -2.5 -107.5t-3.5 -95.5q-22 -4 -47 -5.5t-50.5 -1.5t-50 1.5t-47.5 1.5q0 54 -1.5 106.5t-2.5 106.5q-15 18 -33 44t-37 56.5t-38 64t-35 65.5t-27.5 59t-16.5 45q26 2 59 4.5t63 4.5t53 2.5
t28 -0.5q5 -16 16 -39t23.5 -45.5t23 -41t14.5 -27.5q0 -2 3 -6.5t7.5 -9t9 -8t8.5 -3.5q11 0 18.5 7.5t9.5 12.5q21 38 40 79.5t42 78.5q36 3 67 3t56 -2t42.5 -5t24.5 -5zM526 619q-5 -14 -27.5 -24t-48 -14.5t-47 -0.5t-26.5 17q-3 8 -3.5 22.5t-0.5 29.5t2 30.5t2 24.5
q2 15 11 26t20 18t23 11.5t19 6.5q13 2 32 -5t31 -16q8 -29 12 -61t1 -65zM294 614q-4 -10 -16.5 -18.5t-29 -14t-36 -8.5t-35.5 -2.5t-28.5 5t-15.5 12.5q-3 10 -4.5 25t-1 31.5t2 32.5t3.5 25q2 16 11.5 27.5t22 19t25 12.5t20.5 7q7 1 16.5 0t19 -4.5t18.5 -8.5t15 -9
q8 -31 12.5 -64.5t0.5 -67.5z" />
    <glyph glyph-name="Gbreve" unicode="&#x11e;" horiz-adv-x="712" 
d="M475 686q-13 -24 -23 -43q22 2 44 3q58 4 100 6q12 -33 18.5 -74.5t4.5 -73.5q-30 -4 -68 -7t-77 -7.5t-76 -11.5t-66 -17q-12 -11 -21 -31t-15.5 -46t-11 -54t-5 -55t2 -50.5t8.5 -39.5q17 -6 39.5 -11.5t45 -9.5t42 -5t30.5 0q5 17 8 27.5t4 21t-1 21.5t-6 27
q-22 9 -48 10t-47 0q-4 27 -2.5 50.5t9.5 51.5q31 6 71.5 10.5t81.5 7t79 4.5t64 2q3 -48 5.5 -107t4 -120t2.5 -118.5t1 -102.5q-18 -1 -44.5 -2.5t-56.5 -1.5t-60 2t-54 9v41q-35 4 -79 7t-90 7t-90.5 10.5t-78.5 20.5q-28 11 -43 22.5t-23 27t-11 37.5t-5 52
q-3 29 -2.5 68t5.5 81t14.5 84.5t25 79t36.5 63.5q21 26 51 38q42 17 96 28q56 10 116 18q11 2 25 2q-18 1 -39 1q-26 0 -50 1t-39 3q-15 23 -29 48.5t-27 51.5t-24 50.5t-19 45.5q5 1 17.5 2.5t29.5 2t38 0.5t41 -1q10 -22 23.5 -44.5t25.5 -41.5q2 -3 6.5 -9t10.5 -6
q5 0 7.5 5t4.5 7q4 6 10.5 15.5t14 22t15.5 25.5t13 23q4 1 17.5 0t32 -3t38.5 -4.5t36 -2.5q-12 -20 -26.5 -44.5t-29 -49.5t-28.5 -50z" />
    <glyph glyph-name="gbreve" unicode="&#x11f;" horiz-adv-x="641" 
d="M597 516q1 -10 1 -44v-79.5t-1 -98t-2.5 -99.5t-4 -84t-5.5 -51q-6 -28 -15 -55.5t-21.5 -50t-30 -39.5t-39.5 -25q-37 -12 -87 -20.5t-103 -14.5t-104.5 -9t-90.5 -4q-11 26 -17 58.5t-3 59.5q26 2 60.5 4.5t69.5 6t68.5 9.5t59.5 14q7 6 12.5 23.5t9.5 42.5
q-77 -4 -153.5 0t-143.5 20q-14 14 -22 43t-10.5 66t0.5 78t11 80t20.5 73t28.5 55q27 13 66 23t85 16t95 9.5t97 3.5t91.5 -2.5t77.5 -8.5zM370 399q-24 -3 -46 -7.5t-44 -12.5q-8 -24 -15 -49.5t-10.5 -50t-1 -46t13.5 -38.5q13 -6 40 -8.5t59 -1.5q3 53 3.5 107t0.5 107z
M426 542q-12 0 -35 -0.5t-49 0t-50 1.5t-38 2q-15 23 -29 49t-27.5 51.5t-24 50t-18.5 46.5q5 0 17 2t29.5 2.5t38 0.5t41.5 -1q9 -22 23 -45t26 -42q2 -2 6 -8t11 -6q5 0 7.5 5l3.5 7q4 5 11 15t14.5 22t15 25t13.5 23q4 1 17 0.5t32 -3t39 -4.5t36 -3q-12 -20 -26.5 -44
t-29 -49t-29 -51t-25.5 -46z" />
    <glyph glyph-name="Idotaccent" unicode="&#x130;" horiz-adv-x="328" 
d="M277 607q0 -147 -5 -294t-13 -297q-6 -3 -20.5 -5.5t-32.5 -4.5t-39 -3t-40 -1.5t-34.5 0t-23.5 0.5q-5 69 -7.5 146.5t-3 155.5t0.5 153t3 137q25 4 52.5 7t56 4.5t55.5 1.5h51zM257 700q-4 -9 -20.5 -16.5t-37.5 -12t-45 -7t-45 -1.5t-36 4t-20 11q-4 8 -5.5 21
t-0.5 27t3 27.5t3 21.5q3 13 15 23t28 16.5t32 10t26 5.5q8 2 19.5 0.5t23.5 -4.5t23.5 -7t19.5 -8q10 -26 15.5 -54.5t1.5 -56.5z" />
    <glyph glyph-name="dotlessi" unicode="&#x131;" horiz-adv-x="295" 
d="M249 548q0 -130 -4.5 -265t-11.5 -269q-8 -4 -32 -7t-51 -4.5t-52 -1.5t-36 1q-4 61 -6.5 131t-3 141.5t0.5 139.5t3 123q23 5 47.5 7t49.5 3t49.5 1h46.5z" />
    <glyph glyph-name="OE" unicode="&#x152;" horiz-adv-x="1020" 
d="M987 566q-57 -4 -113.5 -2t-113.5 -4q-7 -9 -11 -27t-5.5 -39.5t1 -41.5t7.5 -34h16h33.5h43h46h41t28.5 -2q3 -27 5 -58.5t-2 -57.5q-25 -3 -52 -3.5t-54 -0.5t-54 -2t-52 -7q-5 -10 -7 -29t-1.5 -39t2.5 -39.5t4 -31.5q17 -5 47 -5.5t64.5 0t67 1.5t53.5 -2
q6 -34 6.5 -72.5t-7.5 -73.5q-46 -4 -90 -6.5t-88 -3t-88.5 -1.5t-91.5 -4q-29 -1 -67 -3t-81.5 -3.5t-90 -2t-91.5 0t-86.5 3t-75.5 6.5q-12 13 -25.5 34t-27 44.5t-24.5 47t-17 41.5q-1 45 -1.5 100.5t0 111.5t1.5 108t3 92q11 11 27 32.5t34 43t35 40t29 24.5
q36 4 86.5 6.5t105 3t110 0.5t102.5 -1q53 0 109 -0.5t110 -0.5t103.5 -1t90.5 -2q5 -12 6 -30.5t1.5 -38.5t0 -39t-1.5 -32zM468 172q1 37 2.5 78t1.5 85.5t-2 91t-7 93.5q-23 0 -43.5 -1t-39.5 -2.5t-37.5 -6.5t-38.5 -15q-3 -9 -5.5 -34t-4 -59t-1.5 -72.5v-74t1 -63.5
t1 -41q18 -9 42.5 -12t49 0t46 12t35.5 21z" />
    <glyph glyph-name="oe" unicode="&#x153;" horiz-adv-x="1042" 
d="M1000 226q-24 -3 -66.5 -7.5t-93.5 -8.5t-104.5 -7t-98.5 -4q1 -14 4 -25t9 -20q11 -6 34 -12t51.5 -9t59.5 -6t58.5 -5.5t48 -4.5t28.5 -5q1 -16 -0.5 -36.5t-5 -39.5t-8.5 -34t-12 -19q-38 0 -82 2t-90 6.5t-92 11t-90 15.5l-14 -16q-36 -6 -90 -9.5t-114 -3.5
t-118.5 2t-102.5 8q-10 10 -21.5 25.5t-22.5 33.5t-21 36t-15 32q-1 34 -1 76v84.5t1 83t3 69.5q9 9 23 24.5t29.5 32t29.5 30.5t24 19q35 3 83.5 7t100.5 6t102.5 1.5t89.5 -8.5q8 -5 14.5 -11.5l13.5 -13.5q32 7 70.5 13t79 10.5t79 7.5t71.5 4t57 -0.5t34 -6.5
q18 -30 31 -69t20.5 -82t11.5 -88.5t2 -88.5zM780 330q2 21 0 44.5t-12 41.5q-13 -1 -24.5 -1.5t-24 -2t-26 -4.5t-31.5 -10q-6 -22 -12 -39t-10 -46q41 -2 77.5 4t62.5 13zM400 148q2 55 3.5 124t-7.5 141q-20 -1 -37.5 -1.5t-33.5 -1.5t-31.5 -5t-32.5 -11
q-4 -7 -5.5 -26.5t-3 -45t-1.5 -55v-56.5t1 -48t1 -32q15 -7 36 -8.5t42 0.5t39.5 9t29.5 16z" />
    <glyph glyph-name="Scedilla" unicode="&#x15e;" horiz-adv-x="622" 
d="M486 11q-2 -51 -4 -96t-6 -74q-15 -11 -43.5 -20t-64.5 -16t-75 -12.5t-73 -6.5t-60 0t-36 8q-1 18 -3 50t3 74q22 1 38.5 1.5t32.5 3.5t32.5 9t35.5 16q1 16 0 36q-31 -6 -62 -11q-60 -9 -119 -17q-6 5 -12 28.5t-9 51.5t-5 53.5t-1 36.5q32 2 70 6.5t74 11.5t66 15
t45 17q4 11 5.5 28.5t0.5 33.5q-9 6 -30 11t-48 9t-58 8.5t-59.5 9t-52.5 11t-38 16.5q-4 86 11 171.5t48 162.5q54 21 112.5 35t118.5 23t120 12t117 1q11 -36 13.5 -79.5t1.5 -81.5q-64 -10 -128 -15.5t-128 -18.5q-12 -22 -16 -47t-4 -51q68 -14 137 -25t139 -24
q13 -32 17 -70.5t0.5 -77t-13.5 -75t-26 -66.5q-32 -15 -64 -29v-37z" />
    <glyph glyph-name="scedilla" unicode="&#x15f;" horiz-adv-x="560" 
d="M466 8q-1 -52 -3.5 -96.5t-6.5 -73.5q-14 -10 -43 -19.5t-64.5 -17t-74.5 -12.5t-73.5 -6t-60 0t-35.5 8q-1 18 -3 50t3 73q21 2 38 3t32.5 3.5t32 8.5t36.5 16v43q-32 -6 -63 -10q-54 -8 -107 -13q-6 3 -11 22t-8 41t-4.5 43t-0.5 29q28 3 62 6.5t66.5 9t60 12
t41.5 12.5q3 9 4.5 23.5t-0.5 26.5q-8 6 -27 9.5t-43 7.5t-52 7t-54 6.5t-47 9t-34 13.5q-4 68 9.5 137t43.5 130q49 16 102 28t107 18.5t107.5 9t105.5 1.5q10 -29 12 -64t1 -65q-57 -8 -114.5 -13t-115.5 -15q-12 -17 -15 -37.5t-4 -40.5q62 -11 124 -20.5t124 -19.5
q12 -25 16 -55.5t1 -61.5t-12.5 -60.5t-23.5 -53.5q-14 -7 -29 -13v-40z" />
    <glyph glyph-name="Ydieresis" unicode="&#x178;" horiz-adv-x="688" 
d="M703 617q-27 -39 -57 -87t-61 -99l-62 -102t-60 -96q-2 -61 -3.5 -119t-3.5 -109q-26 -4 -53.5 -5.5t-55.5 -1.5t-55.5 1.5t-52.5 1.5q0 60 -1.5 120t-3.5 121q-16 18 -36.5 48t-41.5 64t-42 72t-38.5 73t-30.5 66t-18 52q29 2 65 4.5t70 4.5t59 3.5t32 -1.5
q4 -18 16.5 -43t26.5 -50.5t26 -47t16 -30.5q0 -2 3.5 -7t8 -10.5t9.5 -9.5t9 -4q13 -1 21.5 8.5t10.5 13.5q24 44 45 90t47 90q38 3 73 2t63 -3t47 -4.5t28 -5.5zM543 710q-4 -10 -15 -17t-27 -13t-33 -8.5t-32.5 -1.5t-26.5 5t-15 12q-2 8 -3 22.5t-0.5 30t2 31t1.5 24.5
q3 16 11.5 26t19.5 17t23 11.5t19 6.5t15 1t17 -4.5t17.5 -8t13.5 -8.5q8 -29 12 -61t1 -65zM312 704q-6 -15 -30 -25.5t-52 -15t-51.5 -0.5t-28.5 17q-3 9 -4 23.5t-0.5 31.5t1.5 33t3 26q2 15 12 26.5t22 19.5t25 12t21 6q6 2 15.5 0.5t19 -5t18.5 -8t15 -9.5
q8 -30 12.5 -63.5t1.5 -68.5z" />
    <glyph glyph-name="florin" unicode="&#x192;" horiz-adv-x="589" 
d="M564 584q-45 -6 -81 -14t-62 -30q-7 -15 -11 -48.5t-5 -77.5q22 -1 39 -1.5t29 -1.5q3 -13 5.5 -33t3.5 -42t0.5 -42.5t-4.5 -33.5q-18 -1 -37.5 -1.5t-39.5 -2.5q-1 -68 -2.5 -129.5t-7.5 -99.5q-15 -11 -43.5 -20t-64 -16t-74.5 -12.5t-73.5 -6.5t-60 0t-35.5 8
q-2 18 -4 50t4 74q21 1 37.5 1.5t32.5 3.5t32.5 9t35.5 16v53t-2 63q-22 0 -44 -1.5t-44 -4.5q-7 21 -9 45t-0.5 46.5t5 42.5t8.5 31q14 2 35 2.5t47 0.5q1 38 2.5 74t6.5 67.5t12 58t17 44.5q37 18 79 27.5t86 14t87 5.5t81 2q5 -5 8.5 -18t6 -31t3.5 -36.5t1 -35.5z" />
    <glyph glyph-name="circumflex" unicode="&#x2c6;" horiz-adv-x="484" 
d="M442 416q-15 0 -35 -2.5t-38.5 -4.5t-32.5 -2.5t-17 -0.5q-5 10 -13 22.5t-15.5 24t-14.5 21t-10 14.5q-2 2 -4.5 7t-7.5 5q-6 0 -11 -6t-6 -8q-12 -18 -26 -40t-23 -42q-21 -2 -41.5 -2t-37.5 1t-29.5 2t-17.5 2q8 21 19 44.5t24 48t27 49t28 46.5q16 1 40 2t49.5 1.5
t48.5 0t35 -0.5q11 -20 25.5 -44l29 -48t28.5 -47.5t26 -42.5z" />
    <glyph glyph-name="caron" unicode="&#x2c7;" horiz-adv-x="610" 
d="M584 551q1 -13 1 -31t-1 -36t-3.5 -34t-4.5 -27q-18 -2 -40 -3.5t-44.5 -3t-45 -2.5t-40.5 -2q-2 -15 -4.5 -43.5t-4 -65t-2 -77.5t-0.5 -81t0.5 -76t0.5 -62q-51 -7 -102 -15t-102 -3q-6 61 -8.5 111.5t-3.5 97t0 94t1 102.5q-39 4 -80 0.5t-77 -7.5q-2 34 1 73t14 75
q10 4 36.5 7t64.5 5.5t83 4.5t92 2.5t92 0.5h81.5t62 -0.5t33.5 -3.5z" />
    <glyph glyph-name="ring" unicode="&#x2da;" horiz-adv-x="411" 
d="M393 466q-13 -8 -41 -14t-62.5 -9t-72.5 -3t-72.5 3t-61.5 9t-41 15q-2 12 -3.5 29.5t-1.5 36t0.5 35t2.5 26.5q16 8 44 14t62.5 9t71.5 3t70.5 -3t59.5 -9t39 -15q3 -9 5 -27.5t2.5 -39t0 -37.5t-1.5 -23zM261 499q0 17 1 31t-6 30q-17 0 -41 1t-43 -1
q-7 -20 -6.5 -32.5t3.5 -31.5q9 -1 22 -1.5t26 -0.5t25 1t19 4z" />
    <glyph glyph-name="ogonek" unicode="&#x2db;" horiz-adv-x="631" 
d="M590 -7q-10 -1 -27 -3t-38 -4t-43.5 -3t-42.5 -1.5t-35 -1t-21 0.5q-1 14 -1.5 41.5t-1 61.5t-1 72t-2 72t-3 62.5t-4.5 43.5q-20 1 -49 2.5t-69 -11.5q-2 -24 -3 -71.5t-2.5 -100t-1.5 -99.5t1 -71q-22 -5 -47 -4.5t-51 3t-52 6.5t-50 5q-3 26 -5.5 80t-2.5 123v144.5
t1 145t3 125t2 82.5q12 4 31 6t42 3.5t46 2.5t42.5 0t32.5 -2.5t16 -4.5q-4 -23 -5.5 -52t-2 -59t-0.5 -59v-52q20 2 44 8t50.5 11t54 6t52.5 -5q17 -14 35.5 -32t36 -38t32 -38.5t22.5 -34.5q5 -37 8 -91t5.5 -107.5t3 -97.5t0.5 -64z" />
    <glyph glyph-name="tilde" unicode="&#x2dc;" horiz-adv-x="481" 
d="M462 542q-8 -9 -25.5 -31t-39.5 -45t-45.5 -39.5t-41.5 -15.5q-20 1 -46 11t-50 20t-43.5 17t-27.5 5q-9 -4 -24 -17.5t-27 -28.5q-24 10 -40.5 22t-23.5 24q11 18 24.5 38.5t29.5 39t33 33.5t33 21q18 8 37.5 4t40 -13t42.5 -21t45 -22q15 -6 30.5 0t28.5 16
q14 12 28 30q18 -8 35 -20t27 -28z" />
    <glyph glyph-name="hungarumlaut" unicode="&#x2dd;" horiz-adv-x="547" 
d="M530 578q-30 -4 -65 -7.5t-69 -8.5t-62.5 -12t-45.5 -18q-7 -12 -11.5 -43.5t-7.5 -76.5q21 -3 51 -4t61 -1t60.5 0.5t48.5 -1.5q4 -19 5.5 -34t1 -30t-3.5 -30t-7 -34q-27 -4 -54.5 -5t-56.5 -2.5t-56.5 -3.5t-54.5 -7q-1 -38 -1 -75v-70.5t0.5 -61t1.5 -45.5
q-24 -5 -52.5 -8t-57.5 -4.5t-55.5 -1t-47.5 3.5q-1 22 -3 59t-3.5 83t-2 98t0 104t3.5 102t7 90.5t12 71t18 44.5q49 18 101.5 27t106.5 13.5t107.5 5.5t104.5 2q7 -5 11.5 -18.5t8 -30.5t5 -37t1.5 -34z" />
    <glyph glyph-name="Delta" unicode="&#x394;" horiz-adv-x="688" 
d="M665 4q-38 -4 -88.5 -8t-107.5 -6t-117.5 -3t-120 0t-115 4.5t-102.5 8.5q17 46 35.5 106t37.5 124t39 130.5t38 127.5t34 114.5t28 91.5q54 3 113.5 3t114.5 -8q19 -45 39.5 -99.5t40.5 -115t39 -123.5t36 -124.5t31.5 -118.5t24.5 -104zM407 165q-13 43 -25 84.5
t-24 83.5q-1 5 -3.5 12t-6.5 14t-9 11.5t-11 4.5q-3 0 -6.5 -3.5t-6 -9.5t-4.5 -11.5t-3 -9.5q-2 -9 -7 -27t-11 -42t-14 -52t-16 -57q36 1 73.5 1.5t73.5 0.5z" />
    <glyph glyph-name="Delta" unicode="&#x2206;" horiz-adv-x="688" 
d="M665 4q-38 -4 -88.5 -8t-107.5 -6t-117.5 -3t-120 0t-115 4.5t-102.5 8.5q17 46 35.5 106t37.5 124t39 130.5t38 127.5t34 114.5t28 91.5q54 3 113.5 3t114.5 -8q19 -45 39.5 -99.5t40.5 -115t39 -123.5t36 -124.5t31.5 -118.5t24.5 -104zM407 165q-13 43 -25 84.5
t-24 83.5q-1 5 -3.5 12t-6.5 14t-9 11.5t-11 4.5q-3 0 -6.5 -3.5t-6 -9.5t-4.5 -11.5t-3 -9.5q-2 -9 -7 -27t-11 -42t-14 -52t-16 -57q36 1 73.5 1.5t73.5 0.5z" />
    <glyph glyph-name="Omega" unicode="&#x3a9;" horiz-adv-x="769" 
d="M720 164q2 -13 0.5 -36.5t-3.5 -48.5t-4.5 -47.5t-4.5 -35.5q-26 -3 -59 -3h-68t-68 -1t-59 -6q-14 39 -23 78.5t-7 83.5q13 49 20.5 98.5t11.5 96t4 88t-4 77.5q-14 4 -33.5 7t-40.5 3t-42 -3.5t-38 -12.5q-5 -38 -6 -81.5t2 -89t10 -91.5t19 -89q0 -41 -3.5 -82.5
t-11.5 -72.5q-26 -3 -62 -3h-73t-73 -1t-61 -6q-4 22 -6.5 46.5t-3.5 47.5t0 42.5t3 33.5q10 2 32 5.5t46 4.5q-15 27 -29.5 67.5t-24.5 90t-15 106.5t0 118q26 28 53 63t56 66q32 6 74 10.5t86.5 7t89 3t82 0.5t65 1t38.5 1q16 -14 32.5 -33.5t31.5 -40.5t29.5 -42.5
t26.5 -41.5q1 -64 -4 -120.5t-14 -104t-21 -85.5t-25 -65q26 -1 46 -1t29 -2z" />
    <glyph glyph-name="Omega" unicode="&#x2126;" horiz-adv-x="769" 
d="M720 164q2 -13 0.5 -36.5t-3.5 -48.5t-4.5 -47.5t-4.5 -35.5q-26 -3 -59 -3h-68t-68 -1t-59 -6q-14 39 -23 78.5t-7 83.5q13 49 20.5 98.5t11.5 96t4 88t-4 77.5q-14 4 -33.5 7t-40.5 3t-42 -3.5t-38 -12.5q-5 -38 -6 -81.5t2 -89t10 -91.5t19 -89q0 -41 -3.5 -82.5
t-11.5 -72.5q-26 -3 -62 -3h-73t-73 -1t-61 -6q-4 22 -6.5 46.5t-3.5 47.5t0 42.5t3 33.5q10 2 32 5.5t46 4.5q-15 27 -29.5 67.5t-24.5 90t-15 106.5t0 118q26 28 53 63t56 66q32 6 74 10.5t86.5 7t89 3t82 0.5t65 1t38.5 1q16 -14 32.5 -33.5t31.5 -40.5t29.5 -42.5
t26.5 -41.5q1 -64 -4 -120.5t-14 -104t-21 -85.5t-25 -65q26 -1 46 -1t29 -2z" />
    <glyph glyph-name="pi" unicode="&#x3c0;" horiz-adv-x="606" 
d="M574 393q-8 -2 -24 -2h-36q-2 -94 -5.5 -187.5t-8.5 -188.5q-9 -5 -30 -8t-45.5 -4t-46.5 -1h-32q-6 90 -8.5 194t-0.5 202h-31.5t-22.5 -3q-5 -91 -6 -187.5t0 -190.5q-34 -17 -79 -18.5t-88 4.5q-4 12 -6 39.5t-3 63.5t-2 77t-1 80.5v72.5v53q-16 2 -30.5 -1t-36.5 -2
q-5 21 -6 40t0.5 38t4.5 37.5t6 40.5q60 6 128.5 9t139.5 4t140.5 -1.5t129.5 -7.5q7 -43 9 -78.5t-9 -74.5z" />
    <glyph glyph-name="afii10023" unicode="&#x401;" horiz-adv-x="630" 
d="M586 0h-552v689h552v-159h-355v-100h279v-162h-279v-108h355v-160zM109 878h189v-160h-189v160zM326 878h188v-160h-188v160z" />
    <glyph glyph-name="afii10051" unicode="&#x402;" horiz-adv-x="808" 
d="M440 155h104q9 0 14 6t5 15v93q0 15 -9 24t-27 9q-48 0 -99 -4l-28 -2q-14 0 -22 -0.5t-22 -1.5v-294h-198v530h-133v159h501v-159h-170v-76q13 1 28.5 1.5t27.5 1.5q39 3 81 5t84 2q185 0 185 -195v-123q0 -70 -42 -112.5t-119 -42.5q-38 0 -78 2.5t-83 8.5v153z" />
    <glyph glyph-name="afii10052" unicode="&#x403;" horiz-adv-x="580" 
d="M224 0h-198v689h183l67 189h206l-123 -189h209v-159h-344v-530z" />
    <glyph glyph-name="afii10053" unicode="&#x404;" horiz-adv-x="647" 
d="M592 10q-113 -9 -203.5 -14t-159.5 -5q-101 0 -147.5 46t-46.5 147v302q0 53 11.5 91.5t36.5 63.5t63 36.5t92 11.5h354v-159h-316q-43 0 -43 -44v-65h251v-162h-251v-75q0 -14 9 -23.5t23 -9.5q19 0 43 0.5t48 0.5q6 0 12 0.5t12 0.5q32 1 82.5 4t129.5 9v-156z" />
    <glyph glyph-name="afii10054" unicode="&#x405;" horiz-adv-x="687" 
d="M43 166q130 -7 224 -11t140 -4q15 0 24.5 9.5t9.5 23.5v72h-204q-53 0 -91.5 11.5t-63 36t-36.5 63t-12 91.5v28q0 53 12 91.5t36.5 63.5t63 36.5t91.5 11.5h346v-159h-308q-43 0 -43 -44v-19q0 -42 43 -42h169q101 0 147.5 -46.5t46.5 -147.5v-47q0 -101 -46.5 -147
t-147.5 -46q-22 0 -45 0.5t-48 0.5h-9l-87 5q-48 1 -104.5 5t-107.5 8v156z" />
    <glyph glyph-name="afii10055" unicode="&#x406;" horiz-adv-x="440" 
d="M404 0h-368v160h84v370h-84v159h368v-159h-85v-370h85v-160z" />
    <glyph glyph-name="afii10056" unicode="&#x407;" horiz-adv-x="479" 
d="M417 0h-368v160h85v370h-85v159h368v-159h-85v-370h85v-160zM30 869h189v-160h-189v160zM247 869h189v-160h-189v160z" />
    <glyph glyph-name="afii10057" unicode="&#x408;" horiz-adv-x="465" 
d="M21 156q37 -2 82 -3.5t84 -1.5q15 0 24 9.5t9 23.5v346h-123v159h321v-505q0 -101 -46.5 -147t-145.5 -46q-44 0 -95 2.5t-110 8.5v154z" />
    <glyph glyph-name="afii10058" unicode="&#x409;" horiz-adv-x="1117" 
d="M38 155h56q12 0 20 8.5t8 21.5l30 504h518v-225h190q105 0 153.5 -49t48.5 -155v-57q0 -105 -48.5 -154t-153.5 -49h-378v530h-148l-22 -380q-4 -38 -16.5 -67t-33 -49.5t-47 -31.5t-57.5 -11q-30 0 -59.5 2.5t-60.5 8.5v153zM864 260q0 42 -42 42h-152v-142h152
q42 0 42 43v57z" />
    <glyph glyph-name="afii10059" unicode="&#x40a;" horiz-adv-x="1059" 
d="M616 443h188q53 0 91.5 -11.5t63 -36t36.5 -62.5t12 -92v-38q0 -105 -48.5 -154t-154.5 -49h-377v283h-185v-283h-198v689h198v-246h185v246h189v-246zM809 241q0 42 -43 42h-150v-123h150q43 0 43 43v38z" />
    <glyph glyph-name="afii10060" unicode="&#x40b;" horiz-adv-x="812" 
d="M764 0h-198v269q0 15 -9 24t-28 9q-47 0 -99 -4l-30 -2l-42 -3v-293h-199v530h-132v159h500v-159h-169v-76q13 1 28.5 1.5t28.5 1.5q38 3 79.5 5t83.5 2q186 0 186 -195v-269z" />
    <glyph glyph-name="afii10061" unicode="&#x40c;" horiz-adv-x="673" 
d="M230 670l66 190h206l-122 -190h-150zM524 699q21 0 99 -11v-156h-52q-10 0 -18 -6t-12 -14v1l-86 -163q23 -42 47 -86t49 -89t49.5 -89.5t46.5 -85.5h-213l-146 268h-62v-268h-198v689h198v-259h62l90 171q24 45 58 71.5t88 26.5z" />
    <glyph glyph-name="afii10062" unicode="&#x40e;" horiz-adv-x="762" 
d="M263 -9q-25 0 -53 2.5t-59 8.5v153h99q18 0 25 15q6 14 0 26l-271 493h222l160 -315q33 78 67.5 158t66.5 157h220l-250 -538q-18 -39 -39 -69t-45 -49q-55 -42 -143 -42zM330 689q-136 0 -136 137v43h150v-37q0 -8 6 -14t14 -6h28q8 0 13 6t5 14v37h152v-43
q0 -137 -138 -137h-94z" />
    <glyph glyph-name="afii10145" unicode="&#x40f;" horiz-adv-x="686" 
d="M32 0v689h198v-529h207v529h199v-689h-204q-2 -14 -3 -30t-2 -32.5t-2 -32t-2 -28.5h-179l-10 123h-202z" />
    <glyph glyph-name="afii10017" unicode="&#x410;" horiz-adv-x="771" 
d="M225 0h-215l261 689h209l260 -689h-214l-43 118h-216zM320 269h112q-8 23 -14.5 41.5t-13 38t-13.5 39.5t-15 45z" />
    <glyph glyph-name="afii10018" unicode="&#x411;" horiz-adv-x="702" 
d="M237 434h213q106 0 154.5 -48t48.5 -155v-28q0 -105 -48.5 -154t-154.5 -49h-410v689h551v-159h-354v-96zM454 231q0 43 -42 43h-175v-114h175q42 0 42 43v28z" />
    <glyph glyph-name="afii10019" unicode="&#x412;" horiz-adv-x="702" 
d="M40 689h392q100 0 147 -45.5t47 -137.5q0 -51 -18 -85.5t-48 -54.5q60 -27 84 -100q9 -32 9 -72q0 -102 -46.5 -148t-146.5 -46h-420v689zM454 222q0 43 -42 43h-175v-105h175q42 0 42 43v19zM427 486q0 44 -43 44h-147v-105h147q43 0 43 42v19z" />
    <glyph glyph-name="afii10020" unicode="&#x413;" horiz-adv-x="597" 
d="M236 0h-198v689h543v-159h-345v-530z" />
    <glyph glyph-name="afii10021" unicode="&#x414;" horiz-adv-x="822" 
d="M171 689h523v-529h71v-283h-188l-10 123h-341q-1 -14 -2 -30t-2.5 -32.5t-2.5 -32t-2 -28.5h-189v283h69q24 30 35.5 65t13.5 64zM495 160v370h-146l-14 -223q-3 -62 -31 -121l1 1q-2 -8 -4.5 -14t-6.5 -13h201z" />
    <glyph glyph-name="afii10022" unicode="&#x415;" horiz-adv-x="624" 
d="M590 0h-552v689h552v-159h-354v-100h279v-162h-279v-108h354v-160z" />
    <glyph glyph-name="afii10024" unicode="&#x416;" horiz-adv-x="1093" 
d="M910 699q24 0 98 -11v-156h-52q-9 0 -16.5 -6t-13.5 -14l1 1l-85 -163l191 -350h-213l-145 268h-44v-268h-197v268h-44q-35 -65 -72.5 -134.5t-73.5 -133.5h-213l193 350l-88 163l1 -1q-4 8 -11.5 14t-17.5 6h-52v156q74 11 99 11q54 0 87 -26.5t57 -71.5l91 -171h44v259
h197v-259h44l91 171q11 22 24.5 40t31 31t39.5 20t49 7z" />
    <glyph glyph-name="afii10025" unicode="&#x417;" horiz-adv-x="671" 
d="M36 166q121 -7 212.5 -11t142.5 -4q15 0 24 9.5t9 23.5v38q0 43 -42 43h-242v160h222q43 0 43 42v19q0 44 -43 44h-316v159h364q100 0 146.5 -45.5t46.5 -137.5q0 -51 -19.5 -86t-53.5 -55q58 -27 82 -99q6 -17 8 -35t2 -37v-10q0 -101 -46 -147t-148 -46q-82 0 -179 4.5
t-213 14.5v156z" />
    <glyph glyph-name="afii10026" unicode="&#x418;" horiz-adv-x="702" 
d="M644 0h-199v365q-51 -91 -103 -183.5t-102 -181.5h-201v689h198v-365q51 91 103.5 183.5t101.5 181.5h202v-689z" />
    <glyph glyph-name="afii10027" unicode="&#x419;" horiz-adv-x="687" 
d="M439 0v365q-51 -91 -103.5 -183.5t-102.5 -181.5h-200v689h198v-365q50 91 102.5 183.5t102.5 181.5h202v-689h-199zM284 709q-138 0 -138 136v42h151v-37q0 -8 5.5 -13.5t13.5 -5.5h28q19 0 19 19v37h151v-42q0 -136 -137 -136h-93z" />
    <glyph glyph-name="afii10028" unicode="&#x41a;" horiz-adv-x="701" 
d="M536 699q20 0 98 -11v-156h-52q-10 0 -18 -6t-11 -14v1l-87 -163q23 -42 47.5 -86t49.5 -89t49 -89.5t46 -85.5h-212l-146 268h-62v-268h-198v689h198v-259h62l90 171q24 45 57.5 71.5t88.5 26.5z" />
    <glyph glyph-name="afii10029" unicode="&#x41b;" horiz-adv-x="754" 
d="M28 155h58q10 0 18 8.5t9 21.5l29 504h552v-689h-200v530h-170l-22 -380q-3 -38 -15.5 -67t-33 -49.5t-47 -31.5t-58.5 -11q-30 0 -59.5 2.5t-60.5 8.5v153z" />
    <glyph glyph-name="afii10030" unicode="&#x41c;" horiz-adv-x="871" 
d="M608 328l-110 -196h-148l-111 196v-328h-198v689h202l180 -332l181 332h202v-689h-198v328z" />
    <glyph glyph-name="afii10031" unicode="&#x41d;" horiz-adv-x="702" 
d="M644 0h-199v268h-208v-268h-198v689h198v-259h208v259h199v-689z" />
    <glyph glyph-name="afii10032" unicode="&#x41e;" horiz-adv-x="736" 
d="M481 496q0 42 -43 42h-160q-42 0 -42 -42v-302q0 -43 42 -43h160q43 0 43 43v302zM680 194q0 -54 -12 -92t-37 -63t-63.5 -36.5t-91.5 -11.5h-236q-53 0 -91.5 11.5t-63.5 36.5t-36.5 63t-11.5 92v302q0 52 11.5 91t36.5 63.5t63.5 36.5t91.5 12h236q106 0 155 -48.5
t49 -154.5v-302z" />
    <glyph glyph-name="afii10033" unicode="&#x41f;" horiz-adv-x="702" 
d="M644 0h-199v530h-208v-530h-198v689h605v-689z" />
    <glyph glyph-name="afii10034" unicode="&#x420;" horiz-adv-x="684" 
d="M40 689h410q106 0 154.5 -48.5t48.5 -154.5v-94q0 -54 -12 -92t-36.5 -63t-63.5 -36.5t-91 -11.5h-213v-189h-197v689zM454 486q0 44 -42 44h-175v-181h175q42 0 42 43v94z" />
    <glyph glyph-name="afii10035" unicode="&#x421;" horiz-adv-x="647" 
d="M592 10q-113 -9 -203.5 -14t-159.5 -5q-101 0 -147.5 46t-46.5 147v302q0 53 11.5 91.5t36.5 63.5t63 36.5t92 11.5h354v-159h-316q-43 0 -43 -44v-302q0 -14 9 -23.5t23 -9.5q19 0 43 0.5t48 0.5q6 0 12.5 0.5t12.5 0.5q32 1 82.5 4t128.5 9v-156z" />
    <glyph glyph-name="afii10036" unicode="&#x422;" horiz-adv-x="644" 
d="M412 0h-198v530h-198v159h595v-159h-199v-530z" />
    <glyph glyph-name="afii10037" unicode="&#x423;" horiz-adv-x="772" 
d="M272 -9q-25 0 -53 2.5t-59 8.5v153h100q17 0 24 15q7 14 0 26l-270 493h221l160 -315q33 78 67 158t67 157h219l-249 -538q-17 -39 -38.5 -69t-45.5 -49q-54 -42 -143 -42z" />
    <glyph glyph-name="afii10038" unicode="&#x424;" horiz-adv-x="888" 
d="M833 250q0 -106 -48 -154.5t-153 -48.5h-101v-66h-197v66h-100q-53 0 -91.5 11.5t-63 36.5t-36 63t-11.5 92v189q0 53 11.5 91.5t36 63.5t63 37t91.5 12h100v65h197v-65h101q105 0 153 -49t48 -155v-189zM635 439q0 43 -42 43h-71v-274h71q42 0 42 42v189zM229 250
q0 -42 43 -42h72v274h-72q-43 0 -43 -43v-189z" />
    <glyph glyph-name="afii10039" unicode="&#x425;" horiz-adv-x="755" 
d="M487 689h223l-222 -344l227 -345h-223l-125 196q-31 -48 -62 -98.5t-62 -97.5h-223l227 345l-223 344h222l122 -195z" />
    <glyph glyph-name="afii10040" unicode="&#x426;" horiz-adv-x="753" 
d="M25 0v689h198v-529h207v529h199v-529h71v-283h-188l-10 123h-477z" />
    <glyph glyph-name="afii10041" unicode="&#x427;" horiz-adv-x="670" 
d="M414 216q-52 -4 -102 -6t-98 -2q-107 0 -154 48q-48 47 -48 145v288h199v-288q0 -15 9 -23.5t24 -8.5q37 0 78.5 2t91.5 5v313h199v-689h-199v216z" />
    <glyph glyph-name="afii10042" unicode="&#x428;" horiz-adv-x="971" 
d="M902 0h-859v689h198v-529h133v529h198v-529h132v529h198v-689z" />
    <glyph glyph-name="afii10043" unicode="&#x429;" horiz-adv-x="1023" 
d="M27 0v689h198v-529h133v529h198v-529h132v529h198v-529h71v-283h-187l-10 123h-733z" />
    <glyph glyph-name="afii10044" unicode="&#x42a;" horiz-adv-x="811" 
d="M358 689v-225h213q106 0 154.5 -49t48.5 -155v-57q0 -105 -48.5 -154t-154.5 -49h-411v530h-132v159h330zM575 260q0 42 -43 42h-174v-142h174q43 0 43 43v57z" />
    <glyph glyph-name="afii10045" unicode="&#x42b;" horiz-adv-x="960" 
d="M241 464h203q106 0 154.5 -49t48.5 -155v-57q0 -105 -48.5 -154t-154.5 -49h-401v689h198v-225zM892 0h-198v689h198v-689zM448 260q0 42 -42 42h-165v-142h165q42 0 42 43v57z" />
    <glyph glyph-name="afii10046" unicode="&#x42c;" horiz-adv-x="681" 
d="M237 464h213q106 0 154.5 -49t48.5 -155v-57q0 -105 -48.5 -154t-154.5 -49h-410v689h197v-225zM454 260q0 42 -42 42h-175v-142h175q42 0 42 43v57z" />
    <glyph glyph-name="afii10047" unicode="&#x42d;" horiz-adv-x="646" 
d="M36 166q116 -7 200.5 -11t125.5 -4q15 0 23.5 9.5t8.5 23.5v75h-251v162h251v65q0 44 -42 44h-306v159h345q105 0 153.5 -48.5t48.5 -154.5v-302q0 -101 -46 -147t-147 -46q-71 0 -161.5 5t-202.5 14v156z" />
    <glyph glyph-name="afii10048" unicode="&#x42e;" horiz-adv-x="958" 
d="M892 194q0 -54 -12 -92t-36 -63t-62.5 -36.5t-92.5 -11.5h-189q-53 0 -91.5 11.5t-63 36.5t-36 63t-11.5 92v74h-57v-268h-198v689h198v-259h57v66q0 106 48 154.5t154 48.5h189q107 0 155 -48.5t48 -154.5v-302zM694 496q0 42 -42 42h-114q-42 0 -42 -42v-302
q0 -43 42 -43h114q42 0 42 43v302z" />
    <glyph glyph-name="afii10049" unicode="&#x42f;" horiz-adv-x="716" 
d="M656 0h-198v217h-105q-28 -53 -59 -108.5t-59 -108.5h-212l126 231q-56 19 -81.5 64t-25.5 125v66q0 106 48 154.5t155 48.5h411v-689zM241 420q0 -42 43 -42h174v152h-174q-43 0 -43 -44v-66z" />
    <glyph glyph-name="afii10065" unicode="&#x430;" horiz-adv-x="650" 
d="M296 154q25 0 55.5 5.5t64.5 13.5v49h-147q-13 0 -21 -8t-8 -21v-10q0 -13 8 -21t21 -8h27zM91 566q103 11 192.5 16t166.5 5q38 0 67 -11.5t52 -33.5q47 -47 47 -121v-421h-178l-10 49q-22 -15 -49 -26t-46 -18q-26 -8 -49.5 -11.5t-41.5 -3.5h-37q-38 0 -68.5 12
t-52 33.5t-33 52t-11.5 68.5v48q0 76 45 121q45 47 120 47h211v34q0 11 -8 20t-21 9q-35 0 -73 -2t-80 -5q-19 -1 -38.5 -2.5t-38.5 -2.5t-36 -2.5t-30 -2.5v148z" />
    <glyph glyph-name="afii10066" unicode="&#x431;" horiz-adv-x="621" 
d="M225 437q77 17 143 17h41q34 0 62.5 -11t48.5 -31t31 -48.5t11 -62.5v-148q0 -77 -43.5 -119.5t-118.5 -42.5h-204q-76 0 -119 42.5t-43 119.5v327q0 73 50 122q49 49 130 59l328 39l16 -158l-301 -34q-32 -3 -32 -32v-39zM349 143q24 0 24 23v116q0 19 -19 19h-32
q-29 0 -54 -3t-43 -6v-126q0 -23 22 -23h102z" />
    <glyph glyph-name="afii10067" unicode="&#x432;" horiz-adv-x="652" 
d="M50 0v578h378q74 0 120 -44q48 -44 48 -100q0 -42 -17 -74t-47 -52q36 -19 58 -46q18 -19 27.5 -46t9.5 -60q0 -68 -46 -112q-22 -22 -52.5 -33t-68.5 -11h-410zM426 189q0 11 -8 20t-21 9h-145v-76h145q13 0 21 8t8 22v17zM393 406q0 11 -8 20t-21 9h-112v-80h112
q13 0 21 8t8 21v22z" />
    <glyph glyph-name="afii10068" unicode="&#x433;" horiz-adv-x="527" 
d="M521 578v-159h-269v-419h-202v578h471z" />
    <glyph glyph-name="afii10069" unicode="&#x434;" horiz-adv-x="776" 
d="M343 273q-2 -28 -11 -58t-23 -57h162v261h-117zM670 578v-420h82v-286h-192l-12 128h-307l-14 -128h-191v286h74q20 26 30 51t12 53l22 316h496z" />
    <glyph glyph-name="afii10070" unicode="&#x435;" horiz-adv-x="644" 
d="M280 440q-32 0 -32 -34v-51h162v51q0 34 -32 34h-98zM590 11q-108 -10 -202 -15.5t-176 -5.5q-38 0 -69 12t-52.5 33.5t-33.5 52t-12 68.5v255q0 84 47 130t130 46h212q84 0 131.5 -46t47.5 -130v-203h-365v-36q0 -14 7 -22t20 -8q53 0 134.5 5t180.5 13v-149z" />
    <glyph glyph-name="afii10072" unicode="&#x436;" horiz-adv-x="1026" 
d="M266 0h-220l163 286l-51 105q-15 28 -46 28h-44v157l32 7q23 4 53 4q31 0 60 -7.5t49 -23.5q19 -14 34 -33t24 -39l56 -112h46v206h201v-206h45l56 112v0q36 70 106 95q24 8 49 8q38 0 67 -4q7 -2 15.5 -3.5t16.5 -3.5v-157h-44q-30 0 -45 -27q-8 -13 -14 -26l-12 -26
l-25 -54q40 -70 81.5 -142.5t81.5 -143.5h-219l-117 212h-42v-212h-201v212h-39z" />
    <glyph glyph-name="afii10073" unicode="&#x437;" horiz-adv-x="630" 
d="M46 154q101 -7 184.5 -11t141.5 -4q13 0 21 7.5t8 20.5v16q0 13 -8 21t-21 8h-241v149h219q14 0 22.5 8t8.5 21v10q0 13 -8.5 21.5t-22.5 8.5h-293v148h359q73 0 119 -44q47 -44 47 -100q0 -85 -73 -127q41 -21 67.5 -60t26.5 -95q0 -35 -11.5 -64.5t-35.5 -52.5
q-45 -45 -120 -45q-88 0 -185 5.5t-205 15.5v143z" />
    <glyph glyph-name="afii10074" unicode="&#x438;" horiz-adv-x="663" 
d="M420 578h207v-578h-201v288l-169 -288h-207v578h202v-288z" />
    <glyph glyph-name="afii10075" unicode="&#x439;" horiz-adv-x="650" 
d="M273 615q-72 0 -108.5 36.5t-36.5 108.5v40h153v-34q0 -12 8.5 -21t20.5 -9h33q11 0 20 9t9 21v34h152v-40q0 -145 -144 -145h-107zM413 578h207v-578h-201v288l-169 -288h-206v578h200v-288z" />
    <glyph glyph-name="afii10076" unicode="&#x43a;" horiz-adv-x="686" 
d="M317 212h-67v-212h-201v578h201v-206h71q6 12 13.5 26.5t15.5 29.5t15 29.5t13 26.5q16 34 43 58t60 37q27 8 49 8q18 0 36 -1t33 -3q8 -2 15.5 -3.5t15.5 -3.5v-157h-44q-32 0 -47 -29l-50 -104q41 -70 82 -142.5t81 -143.5h-218z" />
    <glyph glyph-name="afii10077" unicode="&#x43b;" horiz-adv-x="701" 
d="M151 -10q-23 0 -50.5 2.5t-63.5 8.5v153h51q31 0 34 35l20 389h525v-578h-201v419h-134l-15 -264q-1 -37 -14 -67t-36 -53q-47 -45 -116 -45z" />
    <glyph glyph-name="afii10078" unicode="&#x43c;" horiz-adv-x="813" 
d="M489 95h-148l-79 143l-13 -2v-236h-201v578h206l160 -288l160 288h209v-578h-202v236l-13 3z" />
    <glyph glyph-name="afii10079" unicode="&#x43d;" horiz-adv-x="663" 
d="M426 372v206h201v-578h-201v212h-174v-212h-202v578h202v-206h174z" />
    <glyph glyph-name="afii10080" unicode="&#x43e;" horiz-adv-x="675" 
d="M644 167q0 -85 -47.5 -131t-130.5 -46h-242q-84 0 -131.5 46t-47.5 131v244q0 84 47.5 130t131.5 46h242q83 0 130.5 -46t47.5 -130v-244zM443 395q0 35 -35 35h-128q-32 0 -32 -35v-212q0 -35 32 -35h128q35 0 35 35v212z" />
    <glyph glyph-name="afii10081" unicode="&#x43f;" horiz-adv-x="663" 
d="M627 578v-578h-201v419h-174v-419h-202v578h577z" />
    <glyph glyph-name="afii10082" unicode="&#x440;" horiz-adv-x="650" 
d="M371 419q-27 0 -56 -4.5t-64 -14.5v-242h150q35 0 35 35v197q0 12 -8 20.5t-21 8.5h-36zM251 0v-181h-201v759h180l10 -48q26 15 48.5 25t44.5 16q28 9 50.5 12.5t40.5 3.5h46q38 0 69 -12t53 -33.5t34 -52.5t12 -68v-243q0 -42 -12.5 -75t-35.5 -56t-56 -35t-74 -12
h-209z" />
    <glyph glyph-name="afii10083" unicode="&#x441;" horiz-adv-x="606" 
d="M570 11q-105 -10 -194 -15.5t-164 -5.5q-37 0 -68.5 12t-53 33.5t-33.5 52t-12 68.5v244q0 84 47.5 131t130.5 47h347v-159h-289q-33 0 -33 -35v-206q0 -13 7.5 -21.5t20.5 -8.5q44 0 117.5 4.5t176.5 12.5v-154z" />
    <glyph glyph-name="afii10084" unicode="&#x442;" horiz-adv-x="594" 
d="M404 419v-419h-202v419h-174v159h550v-159h-174z" />
    <glyph glyph-name="afii10085" unicode="&#x443;" horiz-adv-x="705" 
d="M262 -190q-27 0 -63 1.5t-81 7.5v155h102q27 0 38.5 9t11.5 26q0 8 -2 18t-7 21l-222 530h215l126 -342q12 39 25.5 82.5t27 87.5t27 87.5t26.5 84.5h213l-216 -594v1q-31 -83 -83 -129t-138 -46z" />
    <glyph glyph-name="afii10086" unicode="&#x444;" horiz-adv-x="805" 
d="M798 178q0 -84 -46.5 -131t-131.5 -47h-108v-181h-202v181h-108q-84 0 -130.5 47t-46.5 131v222q0 84 46.5 131t130.5 47h108v180h202v-180h108q85 0 131.5 -47t46.5 -131v-222zM226 193q0 -35 34 -35h67v261h-67q-34 0 -34 -35v-191zM597 384q0 19 -8.5 27t-27.5 8h-54
v-261h54q19 0 27.5 9t8.5 26v191z" />
    <glyph glyph-name="afii10087" unicode="&#x445;" horiz-adv-x="735" 
d="M471 578h227l-185 -292l191 -286h-228l-102 161q-24 -38 -50.5 -80.5t-49.5 -80.5h-227l191 286q-20 30 -41 64t-42 65l-104 163h227l96 -162z" />
    <glyph glyph-name="afii10088" unicode="&#x446;" horiz-adv-x="714" 
d="M487 0h-456v578h202v-420h174v420h201v-420h80v-286h-190z" />
    <glyph glyph-name="afii10089" unicode="&#x447;" horiz-adv-x="634" 
d="M255 317q41 0 75 1.5t66 3.5v256h202v-578h-202v169q-58 -5 -108 -7t-95 -2q-39 0 -69.5 11.5t-52.5 33t-34 52t-12 69.5v252h202v-231q0 -13 7.5 -21.5t20.5 -8.5z" />
    <glyph glyph-name="afii10090" unicode="&#x448;" horiz-adv-x="891" 
d="M47 0v578h201v-420h105v420h202v-420h105v420h202v-578h-815z" />
    <glyph glyph-name="afii10091" unicode="&#x449;" horiz-adv-x="941" 
d="M720 0h-693v578h201v-420h104v420h203v-420h105v420h202v-420h79v-286h-188z" />
    <glyph glyph-name="afii10092" unicode="&#x44a;" horiz-adv-x="768" 
d="M383 578v-175h209q77 0 122 -46q45 -47 45 -121v-69q0 -37 -11.5 -68t-33.5 -53t-52.5 -34t-69.5 -12h-410v419h-149v159h350zM530 148q12 0 19.5 8.5t7.5 21.5v48q0 12 -7.5 19.5t-19.5 7.5h-147v-105h147z" />
    <glyph glyph-name="afii10093" unicode="&#x44b;" horiz-adv-x="895" 
d="M47 0v578h201v-175h198q78 0 121 -46q47 -47 47 -121v-69q0 -37 -12 -68t-34 -53t-53 -34t-69 -12h-399zM384 148q10 0 19.5 8.5t9.5 21.5v46q0 12 -9.5 20t-19.5 8h-136v-104h136zM867 0h-201v578h201v-578z" />
    <glyph glyph-name="afii10094" unicode="&#x44c;" horiz-adv-x="636" 
d="M50 0v578h202v-175h208q38 0 68.5 -11t52.5 -35q24 -24 35 -54t11 -67v-69q0 -37 -12 -68t-34 -53t-53 -34t-68 -12h-410zM397 148q13 0 21 8.5t8 21.5v48q0 12 -8 19.5t-21 7.5h-145v-105h145z" />
    <glyph glyph-name="afii10095" unicode="&#x44d;" horiz-adv-x="603" 
d="M404 -10q-78 0 -167 5.5t-191 15.5v143q106 -8 177 -11.5t117 -3.5q12 0 21 7.5t9 20.5v45h-240v149h240v34q0 35 -36 35h-278v148h337q83 0 130.5 -47t47.5 -131v-244q0 -38 -12 -68.5t-34 -52t-52.5 -33.5t-68.5 -12z" />
    <glyph glyph-name="afii10096" unicode="&#x44e;" horiz-adv-x="892" 
d="M311 372v39q0 84 47.5 130t130.5 46h202q84 0 130 -46t46 -130v-244q0 -85 -46 -131t-130 -46h-202q-83 0 -130.5 46t-47.5 131v45h-63v-212h-201v578h201v-206h63zM666 395q0 35 -34 35h-85q-35 0 -35 -35v-212q0 -35 35 -35h85q34 0 34 35v212z" />
    <glyph glyph-name="afii10097" unicode="&#x44f;" horiz-adv-x="675" 
d="M639 578v-578h-200v175h-79l-100 -175h-215l107 189q-42 21 -66 59.5t-24 92.5v70q0 37 12 68t33.5 53t52 34t68.5 12h411zM291 430q-12 0 -20 -8.5t-8 -21.5v-48q0 -12 8 -21t20 -9h148v108h-148z" />
    <glyph glyph-name="afii10071" unicode="&#x451;" horiz-adv-x="638" 
d="M106 789h198v-164h-198v164zM350 789h196v-164h-196v164zM278 440q-33 0 -33 -34v-51h163v51q0 34 -34 34h-96zM588 11q-108 -10 -202 -15.5t-176 -5.5q-38 0 -69 12t-52.5 33.5t-33.5 52t-12 68.5v255q0 84 46.5 130t130.5 46h211q83 0 131 -46t48 -130v-203h-365v-36
q0 -14 7.5 -22t19.5 -8q26 0 60.5 2t75 4t86 5.5t94.5 6.5v-149z" />
    <glyph glyph-name="afii10099" unicode="&#x452;" horiz-adv-x="698" 
d="M302 473q49 9 92.5 14t79.5 5h47q39 0 69.5 -11.5t52 -33t33.5 -52.5t12 -69v-170q0 -37 -11.5 -67.5t-34.5 -53.5q-46 -45 -118 -45q-65 0 -149 11v153h83q13 0 21.5 8t8.5 21v121q0 13 -8.5 21.5t-21.5 8.5h-37q-26 0 -47.5 -2.5t-40.5 -4.5l-31 -3v-324h-201v524h-65
v149h66l4 15q4 18 9.5 36t8.5 34h178v-85h132v-149h-132v-51z" />
    <glyph glyph-name="afii10100" unicode="&#x453;" horiz-adv-x="510" 
d="M509 578v-159h-269v-419h-202v578h471zM161 604l69 196h214q-34 -52 -64 -98t-64 -98h-155z" />
    <glyph glyph-name="afii10101" unicode="&#x454;" horiz-adv-x="604" 
d="M570 11q-105 -10 -194 -15.5t-164 -5.5q-37 0 -68.5 12t-53 33.5t-33.5 52t-12 68.5v244q0 84 47.5 131t130.5 47h337v-148h-279q-33 0 -33 -35v-34h237v-149h-237v-45q0 -13 7.5 -20.5t20.5 -7.5q45 0 118 4t176 11v-143z" />
    <glyph glyph-name="afii10102" unicode="&#x455;" horiz-adv-x="659" 
d="M55 165q108 -8 196 -12.5t151 -4.5q14 0 21.5 8.5t7.5 21.5v30h-220q-39 0 -69.5 11.5t-52.5 33t-33.5 52.5t-11.5 69v37q0 37 11.5 68t33.5 53t52.5 34t69.5 12h368v-154h-304q-13 0 -21 -9t-8 -20q0 -13 8 -21t21 -8h191q37 0 68 -12t53 -34t34 -52.5t12 -67.5v-44
q0 -38 -12 -68.5t-34 -52t-53 -33.5t-68 -12q-93 0 -195 5.5t-216 15.5v154z" />
    <glyph glyph-name="afii10103" unicode="&#x456;" horiz-adv-x="349" 
d="M304 557v-557h-201v397h-81v160h282zM103 768h201v-164h-201v164z" />
    <glyph glyph-name="afii10104" unicode="&#x457;" horiz-adv-x="493" 
d="M28 768h196v-164h-196v164zM272 768h196v-164h-196v164zM376 557v-557h-200v397h-80v160h280z" />
    <glyph glyph-name="afii10105" unicode="&#x458;" horiz-adv-x="438" 
d="M231 -190q-48 0 -100 2t-109 8v154h145q13 0 21 8.5t8 19.5v555h202v-581q0 -38 -12 -69t-34 -52.5t-53 -33t-68 -11.5zM196 768h202v-164h-202v164z" />
    <glyph glyph-name="afii10106" unicode="&#x459;" horiz-adv-x="987" 
d="M152 -10q-45 0 -114 11v153h50q32 0 34 35l22 389h486v-186h184q73 0 120 -45q47 -48 47 -121v-59q0 -75 -47 -121q-48 -46 -120 -46h-374v419h-108l-12 -264q-2 -37 -15.5 -67t-36.5 -53q-46 -45 -116 -45zM751 142q13 0 20.5 8t7.5 22v37q0 14 -7.5 22t-20.5 8h-121
v-97h121z" />
    <glyph glyph-name="afii10107" unicode="&#x45a;" horiz-adv-x="942" 
d="M395 0v239h-148v-239h-201v578h201v-186h148v186h191v-186h183q74 0 121 -45q24 -24 34.5 -54.5t10.5 -66.5v-59q0 -76 -45 -121q-48 -46 -121 -46h-374zM706 154q11 0 19.5 8t8.5 21v26q0 14 -8.5 22t-19.5 8h-120v-85h120z" />
    <glyph glyph-name="afii10108" unicode="&#x45b;" horiz-adv-x="700" 
d="M302 473q50 9 93.5 14t79.5 5h47q38 0 69 -11.5t52.5 -33t33 -52.5t11.5 -69v-326h-199v304q0 13 -9 21.5t-21 8.5h-37q-26 0 -47.5 -2.5t-40.5 -4.5l-32 -3v-324h-200v524h-65v149h66l3 15q4 18 10 36t8 34h178v-85h133v-149h-133v-51z" />
    <glyph glyph-name="afii10109" unicode="&#x45c;" horiz-adv-x="660" 
d="M232 604l68 196h214q-34 -52 -64.5 -98t-63.5 -98h-154zM302 212h-66v-212h-202v578h202v-206h71q13 25 28.5 56.5t28.5 55.5q16 34 43 58t60 37q27 8 50 8q17 0 34.5 -1t32.5 -3q8 -2 16 -3.5t16 -3.5v-157h-44q-32 0 -48 -29l-49 -104q40 -70 81 -142.5t82 -143.5h-219
z" />
    <glyph glyph-name="afii10110" unicode="&#x45e;" horiz-adv-x="697" 
d="M308 604q-146 0 -146 145v40h153v-34q0 -13 9.5 -21t19.5 -8h33q13 0 21 8t8 21v34h154v-40q0 -145 -146 -145h-106zM255 -190q-29 0 -65 1.5t-80 7.5v155h103q49 0 49 35q0 7 -2.5 17t-5.5 21l-222 531h213l126 -342q12 39 26 82.5t28 87.5t27.5 87.5t25.5 84.5h212
l-214 -594v1q-31 -83 -83.5 -129t-137.5 -46z" />
    <glyph glyph-name="afii10193" unicode="&#x45f;" horiz-adv-x="645" 
d="M41 0v578h201v-420h176v420h199v-578h-183q-3 -31 -6.5 -64t-5.5 -64h-186l-10 128h-185z" />
    <glyph glyph-name="endash" unicode="&#x2013;" horiz-adv-x="412" 
d="M368 200q-39 -4 -79.5 -5t-81 -2.5t-80.5 -3t-78 -7.5q-5 23 -7 48t-1.5 49.5t3.5 45t7 33.5q16 1 41 2.5t54.5 2t61.5 1t61.5 0.5t54 -1t39.5 -2q2 -14 4 -36t2.5 -45.5t0.5 -45t-2 -34.5z" />
    <glyph glyph-name="emdash" unicode="&#x2014;" horiz-adv-x="522" 
d="M477 200q-51 -4 -104.5 -5t-108 -2.5t-107.5 -3t-105 -7.5q-7 23 -9.5 48t-1 49.5t5 45t9.5 33.5q20 1 54 2.5t74 2t82 1t81 0.5t72 -1t53 -2q3 -14 5 -36t3.5 -45.5t1 -45t-4.5 -34.5z" />
    <glyph glyph-name="quoteleft" unicode="&#x2018;" horiz-adv-x="276" 
d="M197 662q6 -36 11.5 -72.5t10 -72t6 -68t-0.5 -59.5q-19 -19 -45.5 -38.5t-51.5 -28.5q-8 32 -20 65.5t-25.5 65t-25.5 59t-22 46.5q36 42 77.5 67.5t85.5 35.5z" />
    <glyph glyph-name="quoteright" unicode="&#x2019;" horiz-adv-x="276" 
d="M266 574l-32.5 -65t-34 -63t-34.5 -56t-34 -44q-23 4 -51.5 13t-50.5 25q13 31 23.5 67t19.5 71.5t15.5 67t11.5 53.5q47 -3 89 -20t78 -49z" />
    <glyph glyph-name="quotesinglbase" unicode="&#x201a;" horiz-adv-x="276" 
d="M266 200q-16 -34 -32.5 -66.5t-34 -63t-34.5 -55.5t-34 -43q-23 2 -51.5 11.5t-50.5 25.5q13 31 23.5 67t19.5 71.5t15.5 67t11.5 53.5q47 -2 89 -19.5t78 -48.5z" />
    <glyph glyph-name="quotedblleft" unicode="&#x201c;" horiz-adv-x="433" 
d="M160 621q11 -35 21.5 -69.5t19 -68.5t15 -65t8.5 -57q-16 -17 -38 -34t-45 -25q-11 31 -27 63.5t-33 63t-33 57t-26 44.5q28 38 63 60.5t75 30.5zM368 655q4 -36 8 -73.5t6.5 -72.5t3 -67t-3.5 -58q-17 -15 -41.5 -30.5t-48.5 -20.5q-5 32 -14.5 67.5t-20.5 68t-21.5 61
t-17.5 48.5q34 35 72 53.5t78 23.5z" />
    <glyph glyph-name="quotedblright" unicode="&#x201d;" horiz-adv-x="433" 
d="M226 616q-10 -34 -21 -69.5t-22 -68t-23 -61.5t-25 -49q-20 -1 -46.5 2.5t-48.5 15.5q8 32 13 70t8.5 74t6 69t3.5 55q84 11 155 -38zM431 542q-15 -30 -32 -62t-34.5 -60.5t-34 -54t-33.5 -43.5q-22 2 -49 9.5t-47 21.5q13 29 24 63t20.5 68t17 64l12.5 50q89 0 156 -56
z" />
    <glyph glyph-name="quotedblbase" unicode="&#x201e;" horiz-adv-x="448" 
d="M229 256q-11 -35 -22 -70.5t-22.5 -67.5t-23 -61t-24.5 -50q-21 -2 -47 2.5t-47 16.5q7 32 12.5 69t9 73.5t5.5 69t4 54.5q42 7 81 -2.5t74 -33.5zM438 211q-16 -31 -33 -62t-34.5 -60.5t-34 -54t-32.5 -42.5q-22 1 -49.5 8.5t-47.5 21.5q13 29 24 63t21 68t17 64t12 50
q45 1 84 -14t73 -42z" />
    <glyph glyph-name="dagger" unicode="&#x2020;" horiz-adv-x="349" 
d="M318 236q-12 -2 -29.5 -2.5t-30.5 -1.5q-2 -54 -3.5 -106t-4.5 -106q-7 -6 -26.5 -9t-42 -5t-43 -2h-30.5q-3 52 -4.5 107t-3.5 113q-12 0 -27 -2t-27 -3q-4 22 -5.5 47t-1 49.5t3.5 45t6 33.5q8 1 22.5 1.5t27.5 1.5q0 72 0.5 138.5t2.5 124.5q43 10 88.5 12t87.5 2
q0 -69 -7 -137.5t-9 -137.5q13 -1 29 -1.5t23 -1.5q2 -14 4 -35t2.5 -45t0 -45t-2.5 -35z" />
    <glyph glyph-name="daggerdbl" unicode="&#x2021;" horiz-adv-x="355" 
d="M321 119q-13 -2 -31.5 -2.5t-32.5 -0.5q-1 -26 -1.5 -51t-1.5 -49q-9 -6 -28.5 -9.5t-42.5 -5.5t-44 -2.5t-31 1.5q-2 52 -4 108q-12 -2 -29 -2.5t-29 -2.5q-4 21 -5.5 45t-1 47t3.5 43.5t6 33.5h23t28 1q-1 18 -1 34.5v34.5q-11 -2 -26.5 -2t-26.5 -2q-4 20 -5.5 44.5
t-1 47.5t3.5 43t6 33q7 0 22.5 0.5t27.5 1.5q1 41 1 79.5t2 73.5q44 9 84 11.5t83 1.5v-82t-1 -82q12 -2 27 -2t22 -1q3 -13 4 -34t2 -43t0.5 -43t-2.5 -34q-11 -1 -28 -1.5t-28 -1.5q-1 -18 -1.5 -37t-1.5 -37q14 -2 30.5 -2t24.5 -2q3 -12 4 -33t2 -43.5t0.5 -43
t-2.5 -33.5z" />
    <glyph glyph-name="bullet" unicode="&#x2022;" horiz-adv-x="331" 
d="M281 220q-5 -12 -22 -21.5t-40 -16t-49.5 -9.5t-49 -2.5t-39.5 6t-21 15.5t-6 27.5t-1 36.5t3 37t4 30q3 18 16 31.5t30 22.5t34.5 14t28.5 8q9 1 21.5 0t26 -5t25.5 -9.5t20 -10.5q12 -36 18 -75t1 -79z" />
    <glyph glyph-name="ellipsis" unicode="&#x2026;" horiz-adv-x="855" 
d="M225 16q-4 -8 -16.5 -16t-29.5 -13.5t-36 -8t-36 -1.5t-29 5t-16 12q-3 8 -4 22t-0.5 30t2.5 30.5t2 23.5q2 15 12 25t22.5 17t25 11.5t20.5 6.5q7 2 16.5 1t19 -4.5t18.5 -7.5t16 -9q8 -28 12.5 -59.5t0.5 -64.5zM485 31q-3 -10 -16 -18t-30 -12.5t-36 -7.5t-36 -2
t-29 5t-16 12q-2 8 -3.5 22t-0.5 30t2.5 31t1.5 24q3 14 12.5 24t22 17.5t25 12t21.5 6.5q7 1 16 -0.5t18.5 -5t18.5 -7.5t16 -8q8 -29 12.5 -60.5t0.5 -62.5zM752 20q-4 -9 -16.5 -16.5t-29.5 -13t-36 -8t-36 -2t-29 5t-15 12.5q-4 7 -5 21.5t0 30t2.5 30t2.5 24.5
q2 14 11.5 24.5t22 17.5t25.5 11.5t21 6.5q6 2 15.5 0.5t19 -4.5t18.5 -7.5t16 -8.5q8 -28 12.5 -60t0.5 -64z" />
    <glyph glyph-name="perthousand" unicode="&#x2030;" horiz-adv-x="997" 
d="M956 36q-16 -23 -52 -37.5t-78.5 -19t-86 1t-75.5 21.5q-34 -13 -76.5 -17t-83 1t-73.5 19t-48 37q-2 23 -3 60t-2 75q-26 -52 -50 -103.5t-48 -100.5q-32 -4 -65 -4t-60 1.5t-46.5 4.5t-26.5 4q45 103 85 190t81 166q-31 -2 -62.5 0t-59.5 9t-50.5 19t-33.5 30
q-2 25 -3.5 61.5t-1.5 75t0.5 74.5t2.5 57q16 16 43 28t59.5 18t68 7t67 -5t57 -19t37.5 -32q2 -13 3 -35.5t3 -48.5q20 33 39 65.5t41 66.5q34 4 67 2t61 -5.5t47.5 -7.5t27.5 -7q-48 -74 -97 -159.5t-97 -176.5q27 7 55 9.5t55.5 1t53 -7.5t45.5 -16q34 13 75.5 17t81 0
t71.5 -17t46 -37q3 -19 5 -59t2.5 -82.5t0.5 -78t-2 -46.5zM830 103q0 36 1 66t-5 64q-8 0 -18.5 1t-21 1.5t-21.5 0t-20 -5.5q-3 -19 -4.5 -34.5t-1.5 -30.5t0.5 -31t1.5 -36q10 -2 22.5 -3t24.5 -1t23.5 1.5t18.5 7.5zM592 108q0 36 1.5 66t-4.5 64q-17 0 -40 2.5
t-41 -4.5q-3 -20 -4.5 -36t-1.5 -31t0.5 -30.5t1.5 -34.5q10 -3 22 -4t24.5 -1t24 2t17.5 7zM251 458q0 37 1.5 66.5t-4.5 64.5q-9 0 -19 1t-21 1.5t-21.5 -0.5t-20.5 -5q-2 -20 -4 -35t-2 -30t1 -31t2 -36q9 -2 21.5 -3t25 -1t23.5 2t18 6z" />
    <glyph glyph-name="guilsinglleft" unicode="&#x2039;" horiz-adv-x="414" 
d="M392 606q-22 -43 -43.5 -79.5t-42 -70.5t-41 -65.5t-39.5 -63.5q16 -31 36.5 -67t41 -73t40.5 -72t37 -63q-23 -2 -51 -5t-54 -6t-45.5 -4.5t-24.5 0.5q-48 70 -90.5 140.5t-79.5 142.5q47 76 88.5 149.5t86.5 150.5q30 2 59.5 1t54.5 -3.5t43 -6t24 -5.5z" />
    <glyph glyph-name="guilsinglright" unicode="&#x203a;" horiz-adv-x="414" 
d="M36 52q22 43 43 80t42 70.5t41 65.5t40 65q-17 30 -36.5 66t-40.5 73t-41 72t-37 64q23 1 51 4.5t54 6.5t46 4t25 -1q48 -70 90.5 -140t78.5 -144q-47 -76 -88.5 -148t-85.5 -151q-30 -2 -60 -1t-55 4t-42.5 6t-24.5 4z" />
    <glyph glyph-name="fraction" unicode="&#x2044;" horiz-adv-x="606" 
d="M594 688q-50 -76 -99.5 -164t-98.5 -180.5t-95 -187t-87 -183.5q-33 -4 -65.5 -4t-59.5 1.5t-47 4.5t-27 4q49 113 94 209t89.5 182t92 168t101.5 168q33 4 66 2t61 -5.5t47.5 -7.5t27.5 -7z" />
    <glyph glyph-name="fraction" unicode="&#x2215;" horiz-adv-x="606" 
d="M594 688q-50 -76 -99.5 -164t-98.5 -180.5t-95 -187t-87 -183.5q-33 -4 -65.5 -4t-59.5 1.5t-47 4.5t-27 4q49 113 94 209t89.5 182t92 168t101.5 168q33 4 66 2t61 -5.5t47.5 -7.5t27.5 -7z" />
    <glyph glyph-name="Euro" unicode="&#x20ac;" horiz-adv-x="625" 
d="M604 120q0 -19 -1 -40t-4.5 -39.5t-9 -33t-11.5 -19.5q-55 1 -112.5 2.5t-115.5 8t-114 18.5t-108 34q-12 18 -20.5 49t-13.5 72q-10 0 -20 -0.5t-21 -1.5q-9 19 -13.5 39.5t-4.5 38.5t4 34t10 25q8 0 18 0.5t21 0.5q0 12 0.5 23.5t1.5 24.5q-10 -2 -19.5 -2.5
t-20.5 -0.5q-9 16 -10.5 34.5t1.5 36.5t9 34t12 25q9 0 19.5 0.5t22.5 0.5q7 40 16.5 73t22.5 57q21 12 58 24t82 21t93.5 15.5t91.5 9.5t75.5 2t46.5 -9q1 -9 3.5 -23t4.5 -31t2.5 -37.5t-3.5 -44.5q-36 -4 -69.5 -6t-64 -4.5t-60 -9t-57.5 -19.5q0 -4 -1 -7.5t-2 -7.5
q61 0 115 -1.5t86 -2.5q4 -9 7 -26t4 -36t0.5 -35.5t-4.5 -27.5q-56 -1 -113 -1h-114q-2 -13 -2.5 -25t-1.5 -24q36 0 70.5 -0.5t65.5 -1t56.5 -1.5t42.5 -2q4 -9 4.5 -26t0 -35t-3 -35t-6.5 -26q-56 -3 -112 -3.5t-112 -0.5q3 -11 7 -19q12 -10 34.5 -15t50 -7.5t57 -4
t55.5 -2.5t46 -3t28 -6z" />
    <glyph glyph-name="afii61352" unicode="&#x2116;" horiz-adv-x="1083" 
d="M697 311h310v-122h-310v122zM650 0h-202l-206 358v-358h-197v689h200l206 -357v357h199v-689zM1028 453q0 -63 -35.5 -97.5t-98.5 -34.5h-85q-63 0 -98 34.5t-35 97.5v113q0 65 35 99t98 34h85q63 0 98.5 -34t35.5 -99v-113zM885 566q0 19 -18 19h-29q-19 0 -19 -19v-113
q0 -19 19 -19h29q18 0 18 19v113z" />
    <glyph glyph-name="trademark" unicode="&#x2122;" horiz-adv-x="712" 
d="M686 282q-23 -4 -46.5 -6.5t-49.5 2.5q-4 36 -7 72t-5 72q0 4 -4 5t-6 -2q-4 -14 -9 -34t-10 -41.5t-10 -40.5t-9 -35q-22 -1 -46.5 -2.5t-46.5 2.5q-9 36 -19 71t-19 72q-1 5 -6 6t-5 -15l-4 -68t-3 -68q-18 -4 -36.5 -3.5t-40.5 3.5q0 40 2.5 88.5t6 97t8 90t6.5 66.5
q35 2 69.5 3.5t67.5 1.5q1 -5 3.5 -23t5.5 -39.5t6 -41t5 -26.5q3 -14 8.5 -13.5t8.5 13.5q4 18 12 55.5t17 75.5q35 4 69 3.5t65 -2.5q5 -85 9.5 -169t12.5 -170zM288 526q-8 -1 -18 -0.5t-21 1.5t-20 2t-15 -1q-3 -58 -5.5 -118t-2.5 -120q-7 -5 -19.5 -8t-25.5 -3.5
t-26 0.5t-24 3q-2 10 -3.5 42.5t-2 71t-1 74.5t-0.5 54q-16 6 -38 4t-35 -6q-5 26 -2.5 48.5t4.5 49.5q29 4 61 6t66 2t67 -1t61 -5q3 -26 4 -48.5t-4 -47.5z" />
    <glyph glyph-name="partialdiff" unicode="&#x2202;" horiz-adv-x="663" 
d="M38 374q35 17 82.5 28t97.5 18.5t97 12t81 7.5q0 20 -4 43t-14 38q-26 6 -63 14.5t-76 16.5t-76.5 15t-63.5 10q-1 18 1 39t6 41t9 37.5t8 27.5q25 2 61.5 0.5t78.5 -5.5t87 -9.5t86.5 -12.5t76.5 -16t57 -17q14 -26 24 -74.5t18 -109t11 -126.5t1.5 -126t-8.5 -109.5
t-21 -76.5q-65 -30 -135.5 -43.5t-138 -13t-127.5 14t-104 39.5q-15 25 -26.5 69t-18.5 93.5t-9 97t2 77.5zM249 247q-3 -9 -2 -20.5t4.5 -24t7 -24.5t6.5 -21q3 -5 17.5 -8.5t33.5 -5t39.5 0t36.5 7.5q18 47 18 109q-13 2 -36 2.5t-47.5 -0.5t-45.5 -4.5t-32 -10.5z" />
    <glyph glyph-name="product" unicode="&#x220f;" horiz-adv-x="673" 
d="M638 491q-10 -2 -27.5 -2.5t-39.5 0.5q-5 -235 -16 -470q-9 -6 -32.5 -9.5t-50 -5.5t-51.5 -2t-37 1q-3 56 -5.5 117.5t-3.5 124.5t-1.5 127t0.5 124h-35t-25 -2q-6 -114 -6.5 -234.5t0.5 -238.5q-19 -10 -41.5 -15t-46.5 -7t-49 0t-49 5q-4 15 -6.5 49t-4 79.5
t-1.5 96.5v100.5v90.5v67q-18 2 -34.5 -1.5t-41.5 -1.5q-6 25 -6.5 48.5t1 47.5t5 47.5t6.5 50.5q66 8 143 11t155.5 4t155.5 -2t144 -9q8 -53 10 -97t-10 -94z" />
    <glyph glyph-name="summation" unicode="&#x2211;" horiz-adv-x="574" 
d="M536 545q-24 -2 -56.5 -0.5t-66.5 3.5t-66.5 3.5t-57.5 -1.5q25 -48 51.5 -93t57.5 -93q-19 -30 -33.5 -58t-28.5 -56t-28 -53t-30 -45h61.5t68 0.5t67.5 0t61 -5.5q10 -34 5.5 -71t-15.5 -67q-24 -1 -58.5 -4.5t-75 -6.5t-85.5 -5.5t-90.5 -1.5t-90 5.5t-84.5 13.5
q-1 17 -2.5 37t-2 41t0 41t2.5 37q19 27 32.5 52.5t24.5 50.5t22 48.5t25 46.5q-33 51 -62 99.5t-48 84.5q-2 13 -0.5 31.5t6 38.5t10 40.5t12.5 37.5q48 2 105 4.5t118 2.5t123 -3.5t120 -11.5q8 -35 9.5 -72t-1.5 -71z" />
    <glyph glyph-name="radical" unicode="&#x221a;" horiz-adv-x="726" 
d="M704 682q-2 -36 -8 -69.5t-20 -67.5q-27 -5 -56 -6.5t-58.5 -1.5t-58.5 0.5t-57 -1.5q-8 -41 -18.5 -98t-22 -120.5t-21.5 -129.5t-20 -126q-7 -11 -19.5 -21t-28.5 -20.5t-33 -19.5t-32 -15q-30 35 -58.5 66.5t-57 66.5t-58.5 76.5t-63 95.5q18 29 36.5 53.5t41.5 43.5
q18 -18 31 -34t25 -29.5t23 -26t25 -25.5q10 55 18.5 101t19 93t24.5 98.5t34 117.5q42 5 80.5 7t84.5 1t105 -3t142 -6z" />
    <glyph glyph-name="infinity" unicode="&#x221e;" horiz-adv-x="685" 
d="M614 120q-18 -8 -42 -17.5t-50.5 -16.5t-53 -9.5t-46.5 4.5q-15 8 -25.5 19.5t-20.5 24t-18.5 24.5t-19.5 21q-10 -6 -22.5 -18.5l-24.5 -24.5t-23 -22.5t-19 -15.5q-25 -3 -53 0t-53 10t-46.5 18.5t-34.5 24.5q-10 54 -14 110t-4.5 106t3 88t9.5 57q7 12 19.5 24.5
t29.5 23.5t36 19.5t40 11.5q19 -6 38.5 -16t37 -22.5t31.5 -27t21 -28.5q5 10 15 26t24 32t33 31t44 24q14 1 37.5 -4t50 -14t52 -22t43.5 -29q13 -20 20.5 -52.5t11 -72t2 -82t-5 -81.5t-9.5 -71.5t-13 -52.5zM523 374q-8 8 -22.5 12.5t-30.5 6t-31 0t-23 -6.5
q-4 -8 -5 -22.5t-1 -32t2 -35.5t5 -31q11 -3 26.5 -3.5t30 0.5t26.5 3.5t17 7.5q3 9 5 22t2 27.5t-0.5 28t-0.5 23.5zM262 364q-8 4 -20 6t-24 2.5t-24 -1t-22 -4.5q-8 -5 -11.5 -16t-4 -23t1 -24t4.5 -18q4 -6 18.5 -9t30 -5t29.5 -1t16 2q7 5 9.5 17.5t2.5 27t-1.5 27.5
t-4.5 19z" />
    <glyph glyph-name="integral" unicode="&#x222b;" horiz-adv-x="589" 
d="M564 584q-45 -6 -81 -14t-62 -30q-7 -16 -11 -52t-5.5 -83.5t-2 -101.5t-1.5 -105.5t-3.5 -96.5t-6.5 -74q-15 -11 -43.5 -20t-64 -16t-74.5 -12.5t-73.5 -6.5t-60 0t-35.5 8q-2 18 -4 50t4 74q21 1 37.5 1.5t32.5 3.5t32.5 9t35.5 16q1 32 -0.5 76t-2.5 93.5t-1 102
t4 100t11.5 87t22.5 63.5q37 18 79 27.5t86 14t87 5.5t81 2q5 -5 8.5 -18t6 -31t3.5 -36.5t1 -35.5z" />
    <glyph glyph-name="approxequal" unicode="&#x2248;" horiz-adv-x="532" 
d="M512 538q-5 -9 -16.5 -27.5t-25 -41t-30 -46t-33.5 -42.5t-33 -30.5t-30 -10.5q-22 3 -50.5 16.5t-56 29.5t-49.5 27t-30 6q-5 -3 -12 -9.5t-14.5 -16t-15 -20.5t-14.5 -21q-27 15 -45 32.5t-26 35.5q11 27 26.5 58t33 59.5t36.5 50.5t37 33q20 11 41 4.5t44.5 -20.5
t48 -32.5t49.5 -31.5q17 -9 34 0.5t31 25.5q17 18 31 43q21 -13 40 -31t29 -41zM506 222q-6 -9 -17 -27.5t-25 -41t-30.5 -46t-33.5 -42.5t-33 -31t-29 -10q-23 3 -51.5 17t-56 29.5t-49 26.5t-29.5 7q-6 -4 -13 -10.5t-14.5 -16t-15 -20.5t-14.5 -21q-27 15 -45 32.5
t-26 35.5q11 27 26.5 58.5t33 59.5t37 50.5t37.5 31.5q19 12 40.5 5.5t44.5 -20.5t47.5 -32.5t49.5 -31.5q18 -9 35 1t31 24q16 18 30 44q21 -13 40 -31t30 -41z" />
    <glyph glyph-name="notequal" unicode="&#x2260;" horiz-adv-x="358" 
d="M341 625q-10 -28 -21.5 -58t-22.5 -61q5 -1 9 -1t8 -1q2 -13 4 -34t2.5 -43.5t0 -43.5t-2.5 -33q-19 -3 -37.5 -3.5t-38.5 -1.5q-6 -18 -11.5 -36.5t-11.5 -37.5q30 0 55 -1t40 -3q2 -12 4 -33.5t2.5 -44t0 -43.5t-2.5 -34q-36 -3 -73.5 -4t-75.5 -2q-6 -24 -13 -45.5
t-13 -43.5q-17 -3 -34 -3t-31 1t-24 3.5l-14 3.5q6 20 11 39t10 37h-7.5t-7.5 -2q-4 22 -5.5 46t-1 47.5t3.5 43.5t6 33q10 1 25.5 1.5t35.5 1.5l10 36t11 36q-44 -3 -85 -8q-4 22 -5.5 46.5t-1 47.5t3.5 43t6 32q21 2 59 3.5t79 2.5q24 64 49 132q18 3 35 1.5t31.5 -4.5
t25 -7t13.5 -5z" />
    <glyph glyph-name="lessequal" unicode="&#x2264;" horiz-adv-x="406" 
d="M369 9q-39 -2 -80 -3.5t-82 -2t-81.5 -3t-79.5 -6.5q-6 21 -7.5 44.5t-0.5 45.5t4 42t7 32q15 1 41 1.5t56 1.5t62 1h62t55 -1t39 -2q3 -12 4.5 -32.5t3 -42.5t0.5 -42t-3 -33zM369 673q-41 -70 -80 -122.5t-75 -104.5q15 -24 33.5 -54t38 -59.5t38.5 -58t34 -51.5
q-20 -3 -46.5 -5.5t-51 -4t-43 -2.5t-23.5 0q-45 57 -84.5 114t-73.5 116q44 61 83 120t81 122q27 3 55 2t51 -3t40 -5t23 -4z" />
    <glyph glyph-name="greaterequal" unicode="&#x2265;" horiz-adv-x="406" 
d="M369 9q-39 -2 -80 -3.5t-82 -2t-81.5 -3t-79.5 -6.5q-6 21 -7.5 44.5t-0.5 45.5t4 42t7 32q15 1 41 1.5t56 1.5t62 1h62t55 -1t39 -2q3 -12 4.5 -32.5t3 -42.5t0.5 -42t-3 -33zM59 220q42 68 80.5 121t75.5 105q-15 24 -33.5 54t-38 59.5t-38.5 58t-35 51.5q21 1 47.5 4
t51 5t43 3t23.5 0q45 -57 85 -113.5t74 -115.5q-44 -63 -83 -121.5t-81 -122.5q-28 -2 -56 -1t-51.5 3.5t-40.5 5.5t-23 4z" />
    <glyph glyph-name="lozenge" unicode="&#x25ca;" horiz-adv-x="603" 
d="M580 344q-47 -76 -89 -149t-86 -151q-50 -14 -100.5 -15.5t-98.5 9.5q-48 71 -90.5 141t-79.5 143q47 76 88.5 149t86.5 151q19 4 46 5t55 2.5t54 0t44 -2.5q49 -71 91 -141t79 -142zM390 338q-16 28 -35.5 63t-38.5 71q-24 -38 -46 -73.5t-44 -70.5q16 -29 35 -63.5
t40 -70.5q23 37 45 72.5t44 71.5z" />
    <glyph glyph-name="fi" unicode="&#xfb01;" horiz-adv-x="870" 
d="M567 600q-42 -3 -87 -12.5t-80 -32.5q-6 -12 -10.5 -32.5t-7.5 -64.5q21 -4 39 -5t35 -1t34.5 0.5t36.5 -0.5q5 -20 6.5 -35t1 -30t-3.5 -30t-7 -34q-28 -3 -44 -4.5t-30 -3t-30 -3.5t-44 -8v-81.5v-85.5v-76t1 -53q-24 -5 -52.5 -8t-57.5 -4.5t-55.5 -1t-46.5 3.5
q-1 19 -3 51.5t-3 73.5t-2 87t-1 95q-31 -1 -59.5 -2.5t-51.5 -5.5q-4 18 -5 38.5t-0.5 40t2.5 36.5t4 28q16 1 46.5 2t66.5 1q1 41 4 77.5t8 67t11 52t14 32.5q49 18 90 27.5t80.5 14t81.5 5t94 1.5q6 -4 11 -18t8.5 -31t5 -36.5t0.5 -34.5zM819 500q0 -65 -1 -124
t-3.5 -118t-5 -119.5t-6.5 -127.5q-8 -4 -32 -7t-51 -4.5t-52 -1.5t-36 1q-8 122 -9 250t3 240q23 4 47.5 6.5t49.5 3.5t49.5 1h46.5zM827 599q-4 -9 -20.5 -16.5t-37.5 -12t-45 -7t-45 -1.5t-36 4.5t-20 10.5q-4 9 -5.5 21.5t-0.5 27t3 28t3 20.5q3 14 15 23.5t28 16.5
t32 10t26 6q8 1 19.5 -0.5t23.5 -4.5t23.5 -6.5t19.5 -8.5q10 -25 15.5 -53.5t1.5 -57.5z" />
    <glyph glyph-name="fl" unicode="&#xfb02;" horiz-adv-x="922" 
d="M567 600q-42 -3 -87 -12.5t-80 -32.5q-6 -12 -10.5 -32.5t-7.5 -64.5q21 -4 39 -5t35 -1t34.5 0.5t36.5 -0.5q5 -20 6.5 -35t1 -30t-3.5 -30t-7 -34q-28 -3 -44 -4.5t-30 -3t-30 -3.5t-44 -8v-81.5v-85.5v-76t1 -53q-24 -5 -52.5 -8t-57.5 -4.5t-55.5 -1t-46.5 3.5
q-1 19 -3 51.5t-3 73.5t-2 87t-1 95q-31 -1 -59.5 -2.5t-51.5 -5.5q-4 18 -5 38.5t-0.5 40t2.5 36.5t4 28q16 1 46.5 2t66.5 1q1 41 4 77.5t8 67t11 52t14 32.5q49 18 90 27.5t80.5 14t81.5 5t94 1.5q6 -4 11 -18t8.5 -31t5 -36.5t0.5 -34.5zM870 686q-1 -35 -1.5 -95.5
t-1 -131.5t-0.5 -146v-139v-111v-61q-26 -4 -42.5 -5.5t-37 -2t-49.5 1t-79 3.5q-1 29 -2.5 81.5t-3 116t-3.5 133.5t-2.5 135.5t0 121t2.5 89.5q6 3 22 5.5t37 4t45.5 2t47 0.5t41 -0.5t27.5 -1.5z" />
    <glyph glyph-name="NULL" horiz-adv-x="0" 
 />
    <glyph glyph-name="apple" horiz-adv-x="1121" 
 />
    <glyph glyph-name="DLE" horiz-adv-x="1980" 
 />
    </font>
</defs>
</svg>
