<svg xmlns="http://www.w3.org/2000/svg" viewBox="0 0 24 24"><defs><linearGradient id="a" x1="12" y1="787.4" x2="12" y2="769" gradientTransform="translate(0 -766)" gradientUnits="userSpaceOnUse"><stop offset="0" stop-color="#0050a7"/><stop offset="1" stop-color="#38c7ff"/></linearGradient><linearGradient id="b" x1="12" y1="785.35" x2="12" y2="769.35" gradientTransform="translate(0 -766)" gradientUnits="userSpaceOnUse"><stop offset="0" stop-color="#2280fc"/><stop offset="0.26" stop-color="#238efe"/><stop offset="0.59" stop-color="#2398ff"/><stop offset="1" stop-color="#239bff"/></linearGradient></defs><title>info</title><rect x="2.5" y="2.5" width="19" height="19" rx="3" ry="3" style="fill:#a1dfff;stroke:#000;stroke-miterlimit:10;stroke-width:0.25px"/><rect x="3" y="3" width="18" height="18.4" rx="2.37" ry="2.37" style="fill:url(#a)"/><rect x="3" y="3.35" width="18" height="16" rx="2.37" ry="2.37" style="fill:url(#b)"/><rect x="5" y="4" width="14" height="13" rx="2.37" ry="2.37" style="fill:#4eafff"/><g style="isolation:isolate"><path d="M13.46,8.07a.5.5,0,0,1-.27.17,2.91,2.91,0,0,1-.5.13l-.6.07a5,5,0,0,1-.6,0,3.3,3.3,0,0,1-.48,0,.48.48,0,0,1-.27-.11.66.66,0,0,1-.07-.23,1.17,1.17,0,0,1,0-.28,2.88,2.88,0,0,1,0-.29l0-.21a.43.43,0,0,1,.2-.25,1.85,1.85,0,0,1,.37-.17,2.37,2.37,0,0,1,.43-.1l.35-.06h.26l.31,0,.31.07a1.27,1.27,0,0,1,.26.09,2.59,2.59,0,0,1,.21.56A1.45,1.45,0,0,1,13.46,8.07Zm-.11,1c0,.45,0,.89,0,1.3s0,.82,0,1.24,0,.83-.07,1.25-.05.87-.09,1.33a1.92,1.92,0,0,1-.43.07l-.68,0-.69,0h-.48q-.11-1.28-.12-2.62t0-2.51l.63-.07.66,0h1.28Z" style="fill:#fff"/></g><g style="isolation:isolate"><path d="M13.46,8.07a.5.5,0,0,1-.27.17,2.91,2.91,0,0,1-.5.13l-.6.07a5,5,0,0,1-.6,0,3.3,3.3,0,0,1-.48,0,.48.48,0,0,1-.27-.11.66.66,0,0,1-.07-.23,1.17,1.17,0,0,1,0-.28,2.88,2.88,0,0,1,0-.29l0-.21a.43.43,0,0,1,.2-.25,1.85,1.85,0,0,1,.37-.17,2.37,2.37,0,0,1,.43-.1l.35-.06h.26l.31,0,.31.07a1.27,1.27,0,0,1,.26.09,2.59,2.59,0,0,1,.21.56A1.45,1.45,0,0,1,13.46,8.07Zm-.11,1c0,.45,0,.89,0,1.3s0,.82,0,1.24,0,.83-.07,1.25-.05.87-.09,1.33a1.92,1.92,0,0,1-.43.07l-.68,0-.69,0h-.48q-.11-1.28-.12-2.62t0-2.51l.63-.07.66,0h1.28Z" style="fill:none;stroke:#036;stroke-miterlimit:10;stroke-width:0.6000000238418579px"/></g></svg>